<?xml version="1.0" encoding="utf-8"?>
<!-- Generator: Adobe Illustrator 26.5.2, SVG Export Plug-In . SVG Version: 6.00 Build 0)  -->
<svg version="1.1" id="Layer_1" xmlns="http://www.w3.org/2000/svg" xmlns:xlink="http://www.w3.org/1999/xlink" x="0px" y="0px"
	 viewBox="0 0 560 80" style="enable-background:new 0 0 560 80;" xml:space="preserve">
<style type="text/css">
	.st0{fill:#77858D;stroke:#1C3441;stroke-linecap:round;stroke-linejoin:round;}
	.st1{opacity:0.2;fill:#77858D;stroke:#1C3441;stroke-linecap:round;stroke-linejoin:round;}
</style>
<polygon class="st0" points="258.2,46.8 258.2,22.6 237.2,10.5 216.3,22.6 216.3,46.8 237.2,58.9 "/>
<polygon class="st1" points="269.7,45.2 269.7,32.9 259.1,26.8 248.5,32.9 248.5,45.2 259.1,51.3 "/>
<polygon class="st1" points="283.4,64 283.4,51.7 272.8,45.6 262.2,51.7 262.2,64 272.8,70.1 "/>
<polygon class="st1" points="293.4,66.1 293.4,58.2 286.6,54.3 279.7,58.2 279.7,66.1 286.6,70.1 "/>
<polygon class="st1" points="307.1,58.5 307.1,52.8 302.2,50 297.3,52.8 297.3,58.5 302.2,61.3 "/>
<polygon class="st1" points="329.6,56 329.6,50.3 324.7,47.5 319.8,50.3 319.8,56 324.7,58.8 "/>
<polygon class="st1" points="344.7,61 344.7,55.3 339.7,52.5 334.8,55.3 334.8,61 339.7,63.8 "/>
</svg>
