<?xml version="1.0" encoding="utf-8"?>
<!-- Generator: Adobe Illustrator 26.5.2, SVG Export Plug-In . SVG Version: 6.00 Build 0)  -->
<svg version="1.1" id="Layer_1" xmlns="http://www.w3.org/2000/svg" xmlns:xlink="http://www.w3.org/1999/xlink" x="0px" y="0px"
	 viewBox="0 0 560 140" style="enable-background:new 0 0 560 140;" xml:space="preserve">
<style type="text/css">
	.st0{fill:#77858D;stroke:#1C3441;stroke-linecap:round;stroke-linejoin:round;}
	.st1{fill:#77858D;stroke:#1C3441;stroke-linecap:round;stroke-linejoin:round;stroke-dasharray:2,2;}
	.st2{fill:#B76D68;stroke:#1C3441;stroke-linecap:round;stroke-linejoin:round;}
	.st3{fill:#DB9982;stroke:#1C3441;stroke-linecap:round;stroke-linejoin:round;}
	.st4{fill:#FFC49B;stroke:#1C3441;stroke-linecap:round;stroke-linejoin:round;}
	.st5{fill:#ADB6C4;stroke:#1C3441;stroke-linecap:round;stroke-linejoin:round;}
	.st6{fill:#6B8192;stroke:#1C3441;stroke-linecap:round;stroke-linejoin:round;}
	.st7{fill:#3A5A6D;stroke:#1C3441;stroke-linecap:round;stroke-linejoin:round;}
</style>
<polygon class="st0" points="447.3,21.1 424.3,37.8 433.1,64.8 461.5,64.8 470.3,37.8 "/>
<polygon class="st0" points="348.8,28.1 327.8,64.3 369.8,64.3 "/>
<rect x="376.7" y="26.1" transform="matrix(0.7071 -0.7071 0.7071 0.7071 84.793 291.0935)" class="st0" width="34.2" height="34.2"/>
<polygon class="st0" points="518.5,55.1 518.5,30.9 497.6,18.8 476.6,30.9 476.6,55.1 497.6,67.2 "/>
<g>
	<g>
		<g>
			<path d="M336,101.5v-0.8c0.2,0,0.3,0,0.4-0.1c0.1,0,0.2-0.1,0.3-0.3c0.1-0.1,0.1-0.4,0.1-0.7v-4.4c0-0.2,0-0.4,0-0.6s0-0.3,0-0.4
				c-0.1,0-0.3,0-0.5,0s-0.3,0-0.4,0v-0.9h3.3v0.8c-0.2,0-0.3,0-0.4,0.1c-0.1,0-0.2,0.1-0.3,0.3c-0.1,0.1-0.1,0.4-0.1,0.7v4.4
				c0,0.2,0,0.4,0,0.6s0,0.3,0,0.4h1.6c0.5,0,0.8-0.2,1.1-0.5c0.3-0.3,0.4-0.8,0.4-1.4h0.8l-0.1,2.8H336z"/>
			<path d="M345.8,101.7c-0.6,0-1.1-0.1-1.5-0.4s-0.8-0.6-1.1-1s-0.4-1-0.4-1.6c0-0.6,0.1-1.2,0.4-1.7c0.3-0.5,0.6-0.9,1.1-1.1
				s0.9-0.4,1.5-0.4c0.6,0,1.1,0.1,1.5,0.4s0.8,0.6,1,1c0.3,0.4,0.4,1,0.4,1.6c0,0.6-0.1,1.2-0.4,1.7c-0.2,0.5-0.6,0.8-1,1.1
				S346.3,101.7,345.8,101.7z M345.8,100.8c0.3,0,0.5-0.1,0.7-0.3c0.2-0.2,0.3-0.5,0.3-0.8c0.1-0.3,0.1-0.6,0.1-1
				c0-0.3,0-0.6-0.1-0.9c0-0.3-0.1-0.6-0.2-0.8s-0.2-0.4-0.4-0.6c-0.2-0.1-0.4-0.2-0.6-0.2c-0.3,0-0.5,0.1-0.7,0.3
				c-0.2,0.2-0.3,0.5-0.4,0.8c-0.1,0.3-0.1,0.6-0.1,1c0,0.4,0,0.8,0.1,1.2s0.2,0.7,0.4,0.9C345.3,100.7,345.5,100.8,345.8,100.8z"/>
			<path d="M351.3,101.5l-1.4-4c-0.1-0.2-0.1-0.4-0.2-0.5c0-0.1-0.1-0.2-0.1-0.3c0-0.1,0-0.2-0.1-0.2l-0.5,0v-0.9h2.8v0.7
				c-0.2,0-0.4,0.1-0.4,0.3c0,0.2,0,0.4,0,0.6l0.4,1.4c0,0.2,0.1,0.3,0.1,0.5c0,0.2,0.1,0.4,0.1,0.6c0-0.2,0.1-0.3,0.1-0.5
				c0-0.2,0.1-0.4,0.2-0.7l0.8-2.9h1.3l0.9,3.2c0,0.2,0.1,0.3,0.1,0.5c0.1,0.2,0.1,0.4,0.1,0.5c0-0.2,0.1-0.3,0.1-0.5
				c0.1-0.2,0.1-0.4,0.2-0.5l0.5-1.5c0.1-0.2,0.1-0.4,0.2-0.5c0-0.1,0.1-0.3,0.2-0.4l-0.7,0v-0.9h2.2v0.7c-0.2,0-0.3,0-0.4,0.2
				s-0.2,0.2-0.3,0.4c-0.1,0.1-0.2,0.3-0.2,0.4c-0.1,0.1-0.1,0.2-0.1,0.3l-1.3,3.8h-1.2L354,99c0-0.1-0.1-0.2-0.1-0.4
				c-0.1-0.2-0.1-0.3-0.2-0.5c0-0.2-0.1-0.4-0.1-0.5c0,0.2-0.1,0.5-0.2,0.7c-0.1,0.3-0.2,0.5-0.2,0.8c-0.1,0.2-0.1,0.4-0.2,0.5
				l-0.6,1.9H351.3z"/>
			<path d="M331.7,108c-0.2,0-0.3,0-0.4,0.1c-0.1,0-0.2,0.1-0.3,0.3c-0.1,0.1-0.1,0.4-0.1,0.7v4.4c0,0.2,0,0.4,0,0.6s0,0.3,0,0.4
				c0.1,0,0.3,0,0.5,0s0.3,0,0.4,0v0.9h-3.3v-0.8c0.2,0,0.3,0,0.4-0.1c0.1,0,0.2-0.1,0.3-0.3c0.1-0.1,0.1-0.4,0.1-0.7v-4.4
				c0-0.2,0-0.4,0-0.6s0-0.3,0-0.4c-0.1,0-0.3,0-0.5,0s-0.3,0-0.4,0v-0.9h3.3V108z"/>
			<path d="M332.8,115.4v-0.8c0.2,0,0.4,0,0.5-0.1s0.2-0.2,0.2-0.4s0-0.3,0-0.5v-1.9c0-0.1,0-0.3,0-0.5c0-0.2,0-0.3,0-0.5
				c-0.1,0-0.3,0-0.4,0s-0.3,0-0.4,0v-0.9c0.4,0,0.7,0,0.9-0.1c0.2,0,0.4-0.1,0.6-0.1c0.1-0.1,0.2-0.1,0.3-0.2h0.6
				c0,0.1,0,0.2,0,0.2c0,0,0,0.1,0,0.1c0,0,0,0.1,0,0.2c0.2-0.1,0.3-0.2,0.5-0.3c0.2-0.1,0.4-0.2,0.6-0.2c0.2-0.1,0.4-0.1,0.5-0.1
				c0.7,0,1.2,0.2,1.5,0.6c0.3,0.4,0.4,1.1,0.4,2v1.6c0,0.1,0,0.3,0,0.5c0,0.2,0,0.4,0,0.6c0.1,0,0.3,0,0.4,0s0.3,0,0.3,0v0.9h-3
				v-0.8c0.2,0,0.4,0,0.5-0.1s0.2-0.2,0.2-0.4c0-0.2,0-0.3,0-0.5l0-1.6c0-0.5-0.1-0.9-0.2-1.1c-0.1-0.2-0.4-0.4-0.7-0.4
				c-0.2,0-0.4,0-0.6,0.1c-0.2,0.1-0.4,0.2-0.5,0.3c0,0.1,0,0.2,0,0.3c0,0.1,0,0.2,0,0.3v2c0,0.1,0,0.3,0,0.5s0,0.4,0,0.6
				c0.1,0,0.3,0,0.4,0s0.3,0,0.3,0v0.9H332.8z"/>
			<path d="M342.9,115.6c-0.5,0-1-0.1-1.4-0.3c-0.4-0.2-0.8-0.6-1-1s-0.4-1-0.4-1.6c0-0.4,0.1-0.9,0.2-1.2c0.1-0.4,0.4-0.7,0.6-1
				c0.3-0.3,0.6-0.5,1-0.7c0.4-0.2,0.8-0.3,1.2-0.3c0.5,0,0.9,0.1,1.2,0.2c0.3,0.2,0.6,0.3,0.7,0.6s0.2,0.5,0.2,0.8
				c0,0.2-0.1,0.4-0.2,0.6c-0.1,0.2-0.3,0.3-0.6,0.3c-0.3,0-0.5-0.1-0.6-0.2s-0.2-0.3-0.2-0.5c0-0.1,0-0.2,0-0.2
				c0-0.1,0.1-0.2,0.1-0.3c-0.1-0.1-0.1-0.2-0.2-0.3c-0.1-0.1-0.2-0.1-0.3-0.1s-0.2,0-0.3,0c-0.4,0-0.7,0.2-0.9,0.6
				c-0.2,0.3-0.4,0.8-0.4,1.5c0,0.4,0,0.7,0.1,1.1s0.3,0.6,0.5,0.8c0.2,0.2,0.5,0.3,0.9,0.3c0.3,0,0.6-0.1,1-0.2
				c0.3-0.2,0.6-0.4,0.8-0.7l0.5,0.5c-0.3,0.4-0.6,0.7-0.9,0.9c-0.3,0.2-0.6,0.3-0.9,0.4C343.5,115.5,343.2,115.6,342.9,115.6z"/>
			<path d="M349,115.6c-0.6,0-1.1-0.1-1.5-0.4s-0.8-0.6-1.1-1s-0.4-1-0.4-1.6c0-0.6,0.1-1.2,0.4-1.7c0.3-0.5,0.6-0.9,1.1-1.1
				s0.9-0.4,1.5-0.4c0.6,0,1.1,0.1,1.5,0.4s0.8,0.6,1,1c0.3,0.4,0.4,1,0.4,1.6c0,0.6-0.1,1.2-0.4,1.7c-0.2,0.5-0.6,0.8-1,1.1
				S349.5,115.6,349,115.6z M349,114.7c0.3,0,0.5-0.1,0.7-0.3c0.2-0.2,0.3-0.5,0.3-0.8c0.1-0.3,0.1-0.6,0.1-1c0-0.3,0-0.6-0.1-0.9
				c0-0.3-0.1-0.6-0.2-0.8s-0.2-0.4-0.4-0.6c-0.2-0.1-0.4-0.2-0.6-0.2c-0.3,0-0.5,0.1-0.7,0.3c-0.2,0.2-0.3,0.5-0.4,0.8
				c-0.1,0.3-0.1,0.6-0.1,1c0,0.4,0,0.8,0.1,1.2s0.2,0.7,0.4,0.9C348.5,114.6,348.7,114.7,349,114.7z"/>
			<path d="M352.7,115.4v-0.8c0.2,0,0.4,0,0.5-0.1s0.2-0.2,0.2-0.4s0-0.3,0-0.5v-1.9c0-0.1,0-0.3,0-0.5c0-0.2,0-0.3,0-0.5
				c-0.1,0-0.3,0-0.4,0s-0.3,0-0.4,0v-0.9c0.4,0,0.7,0,0.9-0.1c0.2,0,0.4-0.1,0.6-0.1c0.1-0.1,0.2-0.1,0.3-0.2h0.6
				c0,0.1,0,0.2,0,0.3s0,0.2,0,0.3c0.3-0.2,0.5-0.4,0.9-0.5c0.3-0.1,0.6-0.2,0.9-0.2c0.4,0,0.6,0.1,0.9,0.2c0.2,0.1,0.4,0.3,0.6,0.6
				c0.3-0.2,0.6-0.4,0.9-0.6c0.3-0.1,0.7-0.2,1-0.2c0.6,0,1.1,0.2,1.4,0.5c0.3,0.4,0.5,1,0.5,1.9v1.7c0,0.1,0,0.3,0,0.5s0,0.4,0,0.6
				c0.1,0,0.3,0,0.4,0s0.3,0,0.3,0v0.9h-2.9v-0.8c0.2,0,0.3,0,0.4-0.1s0.1-0.2,0.2-0.4s0-0.3,0-0.5v-1.8c0-0.5-0.1-0.9-0.2-1
				c-0.2-0.2-0.4-0.3-0.6-0.3c-0.2,0-0.4,0-0.6,0.1s-0.3,0.2-0.5,0.3c0,0.2,0.1,0.3,0.1,0.5c0,0.2,0,0.4,0,0.6c0,0.3,0,0.5,0,0.8
				s0,0.5,0,0.8c0,0.1,0,0.3,0,0.5c0,0.2,0,0.4,0,0.6c0.1,0,0.3,0,0.4,0s0.3,0,0.3,0v0.9h-3v-0.8c0.2,0,0.3,0,0.4-0.1
				s0.1-0.2,0.2-0.4c0-0.2,0-0.3,0-0.5l0-1.8c0-0.5-0.1-0.8-0.2-1c-0.1-0.2-0.4-0.3-0.6-0.3c-0.2,0-0.4,0-0.5,0.1s-0.3,0.2-0.4,0.3
				c0,0.1,0,0.2,0,0.3s0,0.2,0,0.3v2c0,0.1,0,0.3,0,0.5s0,0.4,0,0.6c0.1,0,0.3,0,0.4,0c0.1,0,0.2,0,0.3,0v0.9H352.7z"/>
			<path d="M366.1,115.6c-0.6,0-1.1-0.1-1.5-0.4s-0.8-0.6-1-1.1c-0.2-0.5-0.4-1-0.4-1.6c0-0.5,0.1-1,0.4-1.5c0.2-0.5,0.6-0.9,1-1.1
				c0.4-0.3,0.9-0.4,1.5-0.4c0.3,0,0.6,0,1,0.1c0.3,0.1,0.6,0.2,0.8,0.5c0.3,0.2,0.5,0.5,0.6,0.9c0.2,0.4,0.2,0.8,0.2,1.4l-3.8,0.1
				c0,0.4,0.1,0.8,0.2,1.1s0.3,0.6,0.5,0.8c0.2,0.2,0.6,0.3,1,0.3c0.2,0,0.3,0,0.5-0.1c0.2-0.1,0.4-0.1,0.6-0.3
				c0.2-0.1,0.4-0.3,0.6-0.5l0.5,0.5c-0.3,0.4-0.6,0.7-0.9,0.9c-0.3,0.2-0.6,0.3-0.9,0.4C366.7,115.5,366.4,115.6,366.1,115.6z
				 M365,111.5h2.1c0-0.3-0.1-0.6-0.1-0.8s-0.2-0.3-0.3-0.4c-0.1-0.1-0.3-0.1-0.5-0.1c-0.3,0-0.6,0.1-0.8,0.4S365.1,111.1,365,111.5
				z"/>
		</g>
	</g>
</g>
<g>
	<g>
		<g>
			<path d="M375.2,94.5v-0.8c0.2,0,0.3,0,0.4-0.1c0.1,0,0.2-0.1,0.3-0.3c0.1-0.1,0.1-0.4,0.1-0.7v-4.4c0-0.2,0-0.4,0-0.6
				s0-0.3,0-0.4c-0.1,0-0.3,0-0.5,0s-0.3,0-0.4,0v-0.9h3.3v0.8c-0.2,0-0.3,0-0.4,0.1c-0.1,0-0.2,0.1-0.3,0.3
				c-0.1,0.1-0.1,0.4-0.1,0.7v4.4c0,0.2,0,0.4,0,0.6s0,0.3,0,0.4h1.6c0.5,0,0.8-0.2,1.1-0.5c0.3-0.3,0.4-0.8,0.4-1.4h0.8l-0.1,2.8
				H375.2z"/>
			<path d="M384.9,94.7c-0.6,0-1.1-0.1-1.5-0.4s-0.8-0.6-1.1-1s-0.4-1-0.4-1.6c0-0.6,0.1-1.2,0.4-1.7c0.3-0.5,0.6-0.9,1.1-1.1
				s0.9-0.4,1.5-0.4c0.6,0,1.1,0.1,1.5,0.4s0.8,0.6,1,1c0.3,0.4,0.4,1,0.4,1.6c0,0.6-0.1,1.2-0.4,1.7c-0.2,0.5-0.6,0.8-1,1.1
				S385.5,94.7,384.9,94.7z M385,93.9c0.3,0,0.5-0.1,0.7-0.3c0.2-0.2,0.3-0.5,0.3-0.8c0.1-0.3,0.1-0.6,0.1-1c0-0.3,0-0.6-0.1-0.9
				c0-0.3-0.1-0.6-0.2-0.8s-0.2-0.4-0.4-0.6c-0.2-0.1-0.4-0.2-0.6-0.2c-0.3,0-0.5,0.1-0.7,0.3c-0.2,0.2-0.3,0.5-0.4,0.8
				c-0.1,0.3-0.1,0.6-0.1,1c0,0.4,0,0.8,0.1,1.2s0.2,0.7,0.4,0.9C384.4,93.8,384.7,93.9,385,93.9z"/>
			<path d="M390.4,94.6l-1.4-4c-0.1-0.2-0.1-0.4-0.2-0.5c0-0.1-0.1-0.2-0.1-0.3c0-0.1,0-0.2-0.1-0.2l-0.5,0v-0.9h2.8v0.7
				c-0.2,0-0.4,0.1-0.4,0.3c0,0.2,0,0.4,0,0.6l0.4,1.4c0,0.2,0.1,0.3,0.1,0.5c0,0.2,0.1,0.4,0.1,0.6c0-0.2,0.1-0.3,0.1-0.5
				c0-0.2,0.1-0.4,0.2-0.7l0.8-2.9h1.3l0.9,3.2c0,0.2,0.1,0.3,0.1,0.5c0.1,0.2,0.1,0.4,0.1,0.5c0-0.2,0.1-0.3,0.1-0.5
				c0.1-0.2,0.1-0.4,0.2-0.5l0.5-1.5c0.1-0.2,0.1-0.4,0.2-0.5c0-0.1,0.1-0.3,0.2-0.4l-0.7,0v-0.9h2.2v0.7c-0.2,0-0.3,0-0.4,0.2
				s-0.2,0.2-0.3,0.4c-0.1,0.1-0.2,0.3-0.2,0.4c-0.1,0.1-0.1,0.2-0.1,0.3l-1.3,3.8H394l-0.8-2.5c0-0.1-0.1-0.2-0.1-0.4
				c-0.1-0.2-0.1-0.3-0.2-0.5c0-0.2-0.1-0.4-0.1-0.5c0,0.2-0.1,0.5-0.2,0.7c-0.1,0.3-0.2,0.5-0.2,0.8c-0.1,0.2-0.1,0.4-0.2,0.5
				l-0.6,1.9H390.4z"/>
			<path d="M400.8,94.7c-0.6,0-1.1-0.1-1.5-0.4s-0.8-0.6-1-1.1c-0.2-0.5-0.4-1-0.4-1.6c0-0.5,0.1-1,0.4-1.5c0.2-0.5,0.6-0.9,1-1.1
				c0.4-0.3,0.9-0.4,1.5-0.4c0.3,0,0.6,0,1,0.1c0.3,0.1,0.6,0.2,0.8,0.5c0.3,0.2,0.5,0.5,0.6,0.9c0.2,0.4,0.2,0.8,0.2,1.4l-3.8,0.1
				c0,0.4,0.1,0.8,0.2,1.1s0.3,0.6,0.5,0.8c0.2,0.2,0.6,0.3,1,0.3c0.2,0,0.3,0,0.5-0.1c0.2-0.1,0.4-0.1,0.6-0.3
				c0.2-0.1,0.4-0.3,0.6-0.5l0.5,0.5c-0.3,0.4-0.6,0.7-0.9,0.9c-0.3,0.2-0.6,0.3-0.9,0.4C401.4,94.7,401.1,94.7,400.8,94.7z
				 M399.7,90.7h2.1c0-0.3-0.1-0.6-0.1-0.8s-0.2-0.3-0.3-0.4c-0.1-0.1-0.3-0.1-0.5-0.1c-0.3,0-0.6,0.1-0.8,0.4
				S399.8,90.3,399.7,90.7z"/>
			<path d="M404.3,93.8c0.2,0,0.4,0,0.5-0.1s0.2-0.2,0.2-0.4s0-0.3,0-0.5v-1.9c0-0.1,0-0.3,0-0.5c0-0.2,0-0.3,0-0.5
				c-0.1,0-0.3,0-0.4,0s-0.3,0-0.4,0V89h0.5c0.3,0,0.6,0,0.8-0.1s0.4-0.2,0.5-0.2h0.6c0,0.1,0,0.2,0,0.4c0,0.2,0,0.4,0,0.6
				c0.2-0.3,0.4-0.5,0.6-0.6c0.2-0.2,0.4-0.3,0.6-0.3s0.4-0.1,0.6-0.1c0.3,0,0.5,0.1,0.7,0.2c0.2,0.2,0.3,0.4,0.3,0.7
				c0,0.1,0,0.2-0.1,0.4c-0.1,0.1-0.1,0.2-0.3,0.3c-0.1,0.1-0.3,0.1-0.5,0.1c-0.2,0-0.3,0-0.5-0.1s-0.3-0.3-0.3-0.5
				c-0.2,0-0.3,0.1-0.5,0.2c-0.2,0.1-0.3,0.3-0.4,0.5s-0.2,0.3-0.2,0.5v1.9c0,0.1,0,0.3,0,0.5s0,0.4,0,0.6c0.1,0,0.3,0,0.4,0
				s0.3,0,0.3,0v0.9h-3V93.8z"/>
			<path d="M377.4,108.5c-0.3-0.6-0.5-1.3-0.8-1.9c-0.3-0.6-0.5-1.3-0.8-1.9c-0.1-0.1-0.1-0.4-0.2-0.6c-0.1-0.3-0.2-0.6-0.3-0.9
				s-0.2-0.7-0.3-1.1c0,0.4,0,0.8,0,1.2s0,0.7,0,1.1c0,0.2,0,0.3,0,0.5s0,0.4,0,0.5s0,0.3,0,0.5s0,0.3,0,0.5c0,0.2,0,0.4,0,0.6
				s0,0.3,0,0.4c0.1,0,0.3,0,0.5,0s0.3,0,0.4,0v0.9h-2.6v-0.8c0.2,0,0.3,0,0.4-0.1c0.1,0,0.2-0.1,0.3-0.3c0.1-0.1,0.1-0.4,0.1-0.7
				l0.1-4.4c0-0.2,0-0.4,0-0.6s0-0.3,0-0.4c-0.1,0-0.3,0-0.5,0s-0.3,0-0.4,0v-0.9h2.6l1.8,4.5c0.1,0.2,0.1,0.4,0.2,0.6
				c0.1,0.2,0.2,0.5,0.2,0.7c0.1,0.2,0.1,0.4,0.2,0.5h0c0.1-0.3,0.2-0.5,0.3-0.8c0.1-0.3,0.2-0.5,0.3-0.7c0.3-0.8,0.6-1.6,0.9-2.4
				c0.3-0.8,0.6-1.6,0.9-2.4h2.7v0.8c-0.2,0-0.3,0-0.5,0.1c-0.1,0-0.2,0.1-0.3,0.3c-0.1,0.1-0.1,0.4-0.1,0.7l0.2,4.4
				c0,0.2,0,0.4,0,0.6c0,0.2,0,0.3,0,0.4c0.1,0,0.3,0,0.5,0c0.2,0,0.3,0,0.4,0v0.9h-3.2v-0.8c0.2,0,0.3,0,0.5-0.1
				c0.1,0,0.2-0.1,0.3-0.3c0.1-0.1,0.1-0.4,0.1-0.7l-0.1-2.5c0-0.1,0-0.3,0-0.5c0-0.2,0-0.5,0-0.8c0-0.3,0-0.5,0-0.8
				c0,0.1,0,0.1-0.1,0.2c0,0.1,0,0.1-0.1,0.2l-2.3,6H377.4z"/>
			<path d="M384.4,107.7c0.2,0,0.4,0,0.5-0.1s0.2-0.2,0.2-0.4s0-0.3,0-0.5v-1.9c0-0.1,0-0.3,0-0.5c0-0.2,0-0.4,0-0.5
				c-0.1,0-0.3,0-0.4,0s-0.3,0-0.4,0v-0.9c0.4,0,0.7,0,0.9-0.1c0.2,0,0.4-0.1,0.6-0.1c0.1-0.1,0.2-0.1,0.3-0.2h0.6v4
				c0,0.1,0,0.3,0,0.5s0,0.4,0,0.6c0.1,0,0.3,0,0.4,0s0.3,0,0.3,0v0.9h-3V107.7z M385.8,101.6c-0.3,0-0.5-0.1-0.6-0.3
				s-0.3-0.4-0.3-0.7s0.1-0.5,0.3-0.7s0.4-0.3,0.6-0.3c0.2,0,0.5,0.1,0.6,0.3s0.2,0.4,0.2,0.7s-0.1,0.5-0.2,0.7
				S386.1,101.6,385.8,101.6z"/>
			<path d="M390.4,108.6c-0.5,0-0.9-0.1-1.2-0.4s-0.6-0.6-0.8-1c-0.2-0.4-0.3-1-0.3-1.6c0-0.6,0.1-1.2,0.4-1.7
				c0.2-0.5,0.6-0.9,1-1.1c0.4-0.3,0.9-0.4,1.5-0.4c0.2,0,0.4,0,0.6,0.1c0.2,0,0.3,0.1,0.5,0.1v-0.8c0-0.1,0-0.3,0-0.5s0-0.4,0-0.6
				c-0.1,0-0.3,0-0.4,0s-0.3,0-0.4,0V100c0.4,0,0.7,0,0.9-0.1c0.2,0,0.4-0.1,0.6-0.1c0.1-0.1,0.2-0.1,0.3-0.2h0.6v6.9
				c0,0.1,0,0.3,0,0.5s0,0.4,0,0.6c0.1,0,0.3,0,0.4,0c0.1,0,0.3,0,0.3,0v0.9h-2.2c0-0.1,0-0.2,0-0.3s0-0.2,0-0.3
				c-0.3,0.3-0.5,0.4-0.8,0.6C391,108.6,390.7,108.6,390.4,108.6z M391,107.6c0.2,0,0.4-0.1,0.6-0.2s0.3-0.2,0.4-0.4
				c0-0.1,0-0.2,0-0.3c0-0.1,0-0.2,0-0.3v-2.8c-0.1-0.1-0.2-0.1-0.3-0.2c-0.2,0-0.3-0.1-0.5-0.1c-0.4,0-0.6,0.1-0.8,0.3
				c-0.2,0.2-0.3,0.5-0.4,0.8s-0.1,0.7-0.1,1c0,0.3,0,0.6,0.1,1c0.1,0.3,0.2,0.6,0.4,0.8C390.5,107.5,390.7,107.6,391,107.6z"/>
			<path d="M397.3,108.6c-0.5,0-0.9-0.1-1.2-0.4s-0.6-0.6-0.8-1c-0.2-0.4-0.3-1-0.3-1.6c0-0.6,0.1-1.2,0.4-1.7
				c0.2-0.5,0.6-0.9,1-1.1c0.4-0.3,0.9-0.4,1.5-0.4c0.2,0,0.4,0,0.6,0.1c0.2,0,0.3,0.1,0.5,0.1v-0.8c0-0.1,0-0.3,0-0.5s0-0.4,0-0.6
				c-0.1,0-0.3,0-0.4,0s-0.3,0-0.4,0V100c0.4,0,0.7,0,0.9-0.1c0.2,0,0.4-0.1,0.6-0.1c0.1-0.1,0.2-0.1,0.3-0.2h0.6v6.9
				c0,0.1,0,0.3,0,0.5s0,0.4,0,0.6c0.1,0,0.3,0,0.4,0c0.1,0,0.3,0,0.3,0v0.9H399c0-0.1,0-0.2,0-0.3s0-0.2,0-0.3
				c-0.3,0.3-0.5,0.4-0.8,0.6C397.9,108.6,397.6,108.6,397.3,108.6z M397.9,107.6c0.2,0,0.4-0.1,0.6-0.2s0.3-0.2,0.4-0.4
				c0-0.1,0-0.2,0-0.3c0-0.1,0-0.2,0-0.3v-2.8c-0.1-0.1-0.2-0.1-0.3-0.2c-0.2,0-0.3-0.1-0.5-0.1c-0.4,0-0.6,0.1-0.8,0.3
				c-0.2,0.2-0.3,0.5-0.4,0.8s-0.1,0.7-0.1,1c0,0.3,0,0.6,0.1,1c0.1,0.3,0.2,0.6,0.4,0.8C397.4,107.5,397.6,107.6,397.9,107.6z"/>
			<path d="M401.8,107.7c0.2,0,0.4,0,0.5-0.1s0.2-0.2,0.2-0.4c0-0.2,0-0.3,0-0.5v-4.8c0-0.1,0-0.3,0-0.5s0-0.4,0-0.5
				c-0.1,0-0.3,0-0.4,0s-0.3,0-0.4,0V100c0.4,0,0.7,0,0.9-0.1c0.2,0,0.4-0.1,0.6-0.1c0.1-0.1,0.2-0.1,0.3-0.2h0.6v6.9
				c0,0.1,0,0.3,0,0.5s0,0.4,0,0.6c0.1,0,0.3,0,0.4,0s0.3,0,0.3,0v0.9h-3V107.7z"/>
			<path d="M408.4,108.6c-0.6,0-1.1-0.1-1.5-0.4s-0.8-0.6-1-1.1c-0.2-0.5-0.4-1-0.4-1.6c0-0.5,0.1-1,0.4-1.5c0.2-0.5,0.6-0.9,1-1.1
				c0.4-0.3,0.9-0.4,1.5-0.4c0.3,0,0.6,0,1,0.1c0.3,0.1,0.6,0.2,0.8,0.5c0.3,0.2,0.5,0.5,0.6,0.9c0.2,0.4,0.2,0.8,0.2,1.4l-3.8,0.1
				c0,0.4,0.1,0.8,0.2,1.1s0.3,0.6,0.5,0.8c0.2,0.2,0.6,0.3,1,0.3c0.2,0,0.3,0,0.5-0.1c0.2-0.1,0.4-0.1,0.6-0.3
				c0.2-0.1,0.4-0.3,0.6-0.5l0.5,0.5c-0.3,0.4-0.6,0.7-0.9,0.9c-0.3,0.2-0.6,0.3-0.9,0.4C408.9,108.6,408.6,108.6,408.4,108.6z
				 M407.3,104.6h2.1c0-0.3-0.1-0.6-0.1-0.8s-0.2-0.3-0.3-0.4c-0.1-0.1-0.3-0.1-0.5-0.1c-0.3,0-0.6,0.1-0.8,0.4
				S407.3,104.2,407.3,104.6z"/>
			<path d="M376.8,115c-0.2,0-0.3,0-0.4,0.1c-0.1,0-0.2,0.1-0.3,0.3c-0.1,0.1-0.1,0.4-0.1,0.7v4.4c0,0.2,0,0.4,0,0.6s0,0.3,0,0.4
				c0.1,0,0.3,0,0.5,0s0.3,0,0.4,0v0.9h-3.3v-0.8c0.2,0,0.3,0,0.4-0.1c0.1,0,0.2-0.1,0.3-0.3c0.1-0.1,0.1-0.4,0.1-0.7v-4.4
				c0-0.2,0-0.4,0-0.6s0-0.3,0-0.4c-0.1,0-0.3,0-0.5,0s-0.3,0-0.4,0v-0.9h3.3V115z"/>
			<path d="M377.8,122.3v-0.8c0.2,0,0.4,0,0.5-0.1s0.2-0.2,0.2-0.4s0-0.3,0-0.5v-1.9c0-0.1,0-0.3,0-0.5c0-0.2,0-0.3,0-0.5
				c-0.1,0-0.3,0-0.4,0s-0.3,0-0.4,0v-0.9c0.4,0,0.7,0,0.9-0.1c0.2,0,0.4-0.1,0.6-0.1c0.1-0.1,0.2-0.1,0.3-0.2h0.6
				c0,0.1,0,0.2,0,0.2c0,0,0,0.1,0,0.1c0,0,0,0.1,0,0.2c0.2-0.1,0.3-0.2,0.5-0.3c0.2-0.1,0.4-0.2,0.6-0.2c0.2-0.1,0.4-0.1,0.5-0.1
				c0.7,0,1.2,0.2,1.5,0.6c0.3,0.4,0.4,1.1,0.4,2v1.6c0,0.1,0,0.3,0,0.5c0,0.2,0,0.4,0,0.6c0.1,0,0.3,0,0.4,0s0.3,0,0.3,0v0.9h-3
				v-0.8c0.2,0,0.4,0,0.5-0.1s0.2-0.2,0.2-0.4c0-0.2,0-0.3,0-0.5l0-1.6c0-0.5-0.1-0.9-0.2-1.1c-0.1-0.2-0.4-0.4-0.7-0.4
				c-0.2,0-0.4,0-0.6,0.1c-0.2,0.1-0.4,0.2-0.5,0.3c0,0.1,0,0.2,0,0.3c0,0.1,0,0.2,0,0.3v2c0,0.1,0,0.3,0,0.5s0,0.4,0,0.6
				c0.1,0,0.3,0,0.4,0s0.3,0,0.3,0v0.9H377.8z"/>
			<path d="M387.9,122.5c-0.5,0-1-0.1-1.4-0.3c-0.4-0.2-0.8-0.6-1-1s-0.4-1-0.4-1.6c0-0.4,0.1-0.9,0.2-1.2c0.1-0.4,0.4-0.7,0.6-1
				c0.3-0.3,0.6-0.5,1-0.7c0.4-0.2,0.8-0.3,1.2-0.3c0.5,0,0.9,0.1,1.2,0.2c0.3,0.2,0.6,0.3,0.7,0.6s0.2,0.5,0.2,0.8
				c0,0.2-0.1,0.4-0.2,0.6c-0.1,0.2-0.3,0.3-0.6,0.3c-0.3,0-0.5-0.1-0.6-0.2s-0.2-0.3-0.2-0.5c0-0.1,0-0.2,0-0.2
				c0-0.1,0.1-0.2,0.1-0.3c-0.1-0.1-0.1-0.2-0.2-0.3c-0.1-0.1-0.2-0.1-0.3-0.1s-0.2,0-0.3,0c-0.4,0-0.7,0.2-0.9,0.6
				c-0.2,0.3-0.4,0.8-0.4,1.5c0,0.4,0,0.7,0.1,1.1s0.3,0.6,0.5,0.8c0.2,0.2,0.5,0.3,0.9,0.3c0.3,0,0.6-0.1,1-0.2
				c0.3-0.2,0.6-0.4,0.8-0.7l0.5,0.5c-0.3,0.4-0.6,0.7-0.9,0.9c-0.3,0.2-0.6,0.3-0.9,0.4C388.5,122.5,388.2,122.5,387.9,122.5z"/>
			<path d="M394,122.5c-0.6,0-1.1-0.1-1.5-0.4s-0.8-0.6-1.1-1s-0.4-1-0.4-1.6c0-0.6,0.1-1.2,0.4-1.7c0.3-0.5,0.6-0.9,1.1-1.1
				s0.9-0.4,1.5-0.4c0.6,0,1.1,0.1,1.5,0.4s0.8,0.6,1,1c0.3,0.4,0.4,1,0.4,1.6c0,0.6-0.1,1.2-0.4,1.7c-0.2,0.5-0.6,0.8-1,1.1
				S394.6,122.5,394,122.5z M394.1,121.7c0.3,0,0.5-0.1,0.7-0.3c0.2-0.2,0.3-0.5,0.3-0.8c0.1-0.3,0.1-0.6,0.1-1c0-0.3,0-0.6-0.1-0.9
				c0-0.3-0.1-0.6-0.2-0.8s-0.2-0.4-0.4-0.6c-0.2-0.1-0.4-0.2-0.6-0.2c-0.3,0-0.5,0.1-0.7,0.3c-0.2,0.2-0.3,0.5-0.4,0.8
				c-0.1,0.3-0.1,0.6-0.1,1c0,0.4,0,0.8,0.1,1.2s0.2,0.7,0.4,0.9C393.5,121.6,393.8,121.7,394.1,121.7z"/>
			<path d="M397.8,122.3v-0.8c0.2,0,0.4,0,0.5-0.1s0.2-0.2,0.2-0.4s0-0.3,0-0.5v-1.9c0-0.1,0-0.3,0-0.5c0-0.2,0-0.3,0-0.5
				c-0.1,0-0.3,0-0.4,0s-0.3,0-0.4,0v-0.9c0.4,0,0.7,0,0.9-0.1c0.2,0,0.4-0.1,0.6-0.1c0.1-0.1,0.2-0.1,0.3-0.2h0.6
				c0,0.1,0,0.2,0,0.3s0,0.2,0,0.3c0.3-0.2,0.5-0.4,0.9-0.5c0.3-0.1,0.6-0.2,0.9-0.2c0.4,0,0.6,0.1,0.9,0.2c0.2,0.1,0.4,0.3,0.6,0.6
				c0.3-0.2,0.6-0.4,0.9-0.6c0.3-0.1,0.7-0.2,1-0.2c0.6,0,1.1,0.2,1.4,0.5c0.3,0.4,0.5,1,0.5,1.9v1.7c0,0.1,0,0.3,0,0.5s0,0.4,0,0.6
				c0.1,0,0.3,0,0.4,0s0.3,0,0.3,0v0.9h-2.9v-0.8c0.2,0,0.3,0,0.4-0.1s0.1-0.2,0.2-0.4s0-0.3,0-0.5v-1.8c0-0.5-0.1-0.9-0.2-1
				c-0.2-0.2-0.4-0.3-0.6-0.3c-0.2,0-0.4,0-0.6,0.1s-0.3,0.2-0.5,0.3c0,0.2,0.1,0.3,0.1,0.5c0,0.2,0,0.4,0,0.6c0,0.3,0,0.5,0,0.8
				s0,0.5,0,0.8c0,0.1,0,0.3,0,0.5c0,0.2,0,0.4,0,0.6c0.1,0,0.3,0,0.4,0s0.3,0,0.3,0v0.9h-3v-0.8c0.2,0,0.3,0,0.4-0.1
				s0.1-0.2,0.2-0.4c0-0.2,0-0.3,0-0.5l0-1.8c0-0.5-0.1-0.8-0.2-1c-0.1-0.2-0.4-0.3-0.6-0.3c-0.2,0-0.4,0-0.5,0.1s-0.3,0.2-0.4,0.3
				c0,0.1,0,0.2,0,0.3s0,0.2,0,0.3v2c0,0.1,0,0.3,0,0.5s0,0.4,0,0.6c0.1,0,0.3,0,0.4,0c0.1,0,0.2,0,0.3,0v0.9H397.8z"/>
			<path d="M411.2,122.5c-0.6,0-1.1-0.1-1.5-0.4s-0.8-0.6-1-1.1c-0.2-0.5-0.4-1-0.4-1.6c0-0.5,0.1-1,0.4-1.5c0.2-0.5,0.6-0.9,1-1.1
				c0.4-0.3,0.9-0.4,1.5-0.4c0.3,0,0.6,0,1,0.1c0.3,0.1,0.6,0.2,0.8,0.5c0.3,0.2,0.5,0.5,0.6,0.9c0.2,0.4,0.2,0.8,0.2,1.4l-3.8,0.1
				c0,0.4,0.1,0.8,0.2,1.1s0.3,0.6,0.5,0.8c0.2,0.2,0.6,0.3,1,0.3c0.2,0,0.3,0,0.5-0.1c0.2-0.1,0.4-0.1,0.6-0.3
				c0.2-0.1,0.4-0.3,0.6-0.5l0.5,0.5c-0.3,0.4-0.6,0.7-0.9,0.9c-0.3,0.2-0.6,0.3-0.9,0.4C411.7,122.5,411.4,122.5,411.2,122.5z
				 M410.1,118.5h2.1c0-0.3-0.1-0.6-0.1-0.8s-0.2-0.3-0.3-0.4c-0.1-0.1-0.3-0.1-0.5-0.1c-0.3,0-0.6,0.1-0.8,0.4
				S410.1,118.1,410.1,118.5z"/>
		</g>
	</g>
</g>
<g>
	<g>
		<g>
			<path d="M432.2,87.2c-0.2,0-0.3,0-0.4,0.1c-0.1,0-0.2,0.1-0.3,0.3c-0.1,0.1-0.1,0.4-0.1,0.7v3.2c0,0.5,0.1,0.9,0.2,1.2
				c0.1,0.3,0.2,0.6,0.4,0.7s0.4,0.3,0.6,0.4c0.2,0.1,0.4,0.1,0.7,0.1c0.4,0,0.8-0.1,1.1-0.2c0.3-0.2,0.5-0.5,0.7-0.8
				s0.2-0.8,0.2-1.4v-3c0-0.2,0-0.4,0-0.6s0-0.3,0-0.4c-0.1,0-0.3,0-0.5,0c-0.2,0-0.3,0-0.4,0v-0.9h2.7v0.8c-0.2,0-0.3,0-0.4,0.1
				c-0.1,0-0.2,0.1-0.3,0.3c-0.1,0.1-0.1,0.4-0.1,0.7v2.9c0,0.7-0.1,1.2-0.2,1.7s-0.4,0.8-0.7,1.1c-0.3,0.3-0.6,0.5-1,0.6
				c-0.4,0.1-0.8,0.2-1.3,0.2c-0.6,0-1.2-0.1-1.6-0.3c-0.4-0.2-0.8-0.4-1-0.8s-0.4-0.7-0.5-1.1c-0.1-0.4-0.2-0.9-0.2-1.4v-2.8
				c0-0.2,0-0.4,0-0.6s0-0.3,0-0.4c-0.1,0-0.3,0-0.5,0s-0.3,0-0.4,0v-0.9h3.3V87.2z"/>
			<path d="M437.7,97.5v-0.8c0.2,0,0.4,0,0.5-0.1c0.1-0.1,0.2-0.2,0.2-0.4c0-0.2,0-0.3,0-0.5v-4.9c0-0.1,0-0.3,0-0.5s0-0.3,0-0.5
				c-0.1,0-0.3,0-0.4,0s-0.3,0-0.4,0V89c0.4,0,0.7,0,0.9-0.1c0.2,0,0.4-0.1,0.6-0.1c0.1-0.1,0.2-0.1,0.3-0.2h0.6c0,0.1,0,0.2,0,0.3
				c0,0.1,0,0.2,0,0.3c0.3-0.2,0.5-0.4,0.8-0.5s0.5-0.1,0.8-0.1c0.5,0,0.9,0.1,1.2,0.4c0.4,0.2,0.6,0.6,0.8,1s0.3,1,0.3,1.6
				c0,0.6-0.1,1.2-0.4,1.7c-0.2,0.5-0.6,0.9-1,1.2c-0.4,0.3-0.9,0.4-1.5,0.4c-0.2,0-0.4,0-0.6-0.1c-0.2,0-0.3-0.1-0.5-0.1v1.1
				c0,0.1,0,0.3,0,0.5c0,0.2,0,0.4,0,0.6c0.1,0,0.3,0,0.4,0s0.3,0,0.3,0v0.9H437.7z M440.9,93.8c0.4,0,0.6-0.1,0.8-0.3
				c0.2-0.2,0.3-0.5,0.4-0.8c0.1-0.3,0.1-0.7,0.1-1.1c0-0.4,0-0.7-0.1-1c-0.1-0.3-0.2-0.6-0.4-0.8s-0.4-0.3-0.7-0.3
				c-0.2,0-0.4,0.1-0.5,0.1s-0.3,0.2-0.4,0.4c0,0.2,0,0.5,0,0.7c0,0.2,0,0.5,0,0.7c0,0.2,0,0.5,0,0.7c0,0.2,0,0.5,0,0.7
				c0,0.2,0,0.5,0,0.7c0.1,0.1,0.2,0.1,0.4,0.2C440.6,93.8,440.7,93.8,440.9,93.8z"/>
			<path d="M444.7,97.5v-0.8c0.2,0,0.4,0,0.5-0.1c0.1-0.1,0.2-0.2,0.2-0.4c0-0.2,0-0.3,0-0.5v-4.9c0-0.1,0-0.3,0-0.5s0-0.3,0-0.5
				c-0.1,0-0.3,0-0.4,0s-0.3,0-0.4,0V89c0.4,0,0.7,0,0.9-0.1c0.2,0,0.4-0.1,0.6-0.1c0.1-0.1,0.2-0.1,0.3-0.2h0.6c0,0.1,0,0.2,0,0.3
				c0,0.1,0,0.2,0,0.3c0.3-0.2,0.5-0.4,0.8-0.5s0.5-0.1,0.8-0.1c0.5,0,0.9,0.1,1.2,0.4c0.4,0.2,0.6,0.6,0.8,1s0.3,1,0.3,1.6
				c0,0.6-0.1,1.2-0.4,1.7c-0.2,0.5-0.6,0.9-1,1.2c-0.4,0.3-0.9,0.4-1.5,0.4c-0.2,0-0.4,0-0.6-0.1c-0.2,0-0.3-0.1-0.5-0.1v1.1
				c0,0.1,0,0.3,0,0.5c0,0.2,0,0.4,0,0.6c0.1,0,0.3,0,0.4,0s0.3,0,0.3,0v0.9H444.7z M447.9,93.8c0.4,0,0.6-0.1,0.8-0.3
				c0.2-0.2,0.3-0.5,0.4-0.8c0.1-0.3,0.1-0.7,0.1-1.1c0-0.4,0-0.7-0.1-1c-0.1-0.3-0.2-0.6-0.4-0.8s-0.4-0.3-0.7-0.3
				c-0.2,0-0.4,0.1-0.5,0.1s-0.3,0.2-0.4,0.4c0,0.2,0,0.5,0,0.7c0,0.2,0,0.5,0,0.7c0,0.2,0,0.5,0,0.7c0,0.2,0,0.5,0,0.7
				c0,0.2,0,0.5,0,0.7c0.1,0.1,0.2,0.1,0.4,0.2C447.5,93.8,447.7,93.8,447.9,93.8z"/>
			<path d="M454.5,94.7c-0.6,0-1.1-0.1-1.5-0.4s-0.8-0.6-1-1.1c-0.2-0.5-0.4-1-0.4-1.6c0-0.5,0.1-1,0.4-1.5c0.2-0.5,0.6-0.9,1-1.1
				c0.4-0.3,0.9-0.4,1.5-0.4c0.3,0,0.6,0,1,0.1c0.3,0.1,0.6,0.2,0.8,0.5c0.3,0.2,0.5,0.5,0.6,0.9c0.2,0.4,0.2,0.8,0.2,1.4l-3.8,0.1
				c0,0.4,0.1,0.8,0.2,1.1s0.3,0.6,0.5,0.8c0.2,0.2,0.6,0.3,1,0.3c0.2,0,0.3,0,0.5-0.1c0.2-0.1,0.4-0.1,0.6-0.3
				c0.2-0.1,0.4-0.3,0.6-0.5l0.5,0.5c-0.3,0.4-0.6,0.7-0.9,0.9c-0.3,0.2-0.6,0.3-0.9,0.4C455.1,94.7,454.8,94.7,454.5,94.7z
				 M453.4,90.7h2.1c0-0.3-0.1-0.6-0.1-0.8s-0.2-0.3-0.3-0.4c-0.1-0.1-0.3-0.1-0.5-0.1c-0.3,0-0.6,0.1-0.8,0.4
				S453.5,90.3,453.4,90.7z"/>
			<path d="M458,93.8c0.2,0,0.4,0,0.5-0.1s0.2-0.2,0.2-0.4s0-0.3,0-0.5v-1.9c0-0.1,0-0.3,0-0.5c0-0.2,0-0.3,0-0.5
				c-0.1,0-0.3,0-0.4,0s-0.3,0-0.4,0V89h0.5c0.3,0,0.6,0,0.8-0.1s0.4-0.2,0.5-0.2h0.6c0,0.1,0,0.2,0,0.4c0,0.2,0,0.4,0,0.6
				c0.2-0.3,0.4-0.5,0.6-0.6c0.2-0.2,0.4-0.3,0.6-0.3s0.4-0.1,0.6-0.1c0.3,0,0.5,0.1,0.7,0.2c0.2,0.2,0.3,0.4,0.3,0.7
				c0,0.1,0,0.2-0.1,0.4c-0.1,0.1-0.1,0.2-0.3,0.3c-0.1,0.1-0.3,0.1-0.5,0.1c-0.2,0-0.3,0-0.5-0.1s-0.3-0.3-0.3-0.5
				c-0.2,0-0.3,0.1-0.5,0.2c-0.2,0.1-0.3,0.3-0.4,0.5s-0.2,0.3-0.2,0.5v1.9c0,0.1,0,0.3,0,0.5s0,0.4,0,0.6c0.1,0,0.3,0,0.4,0
				s0.3,0,0.3,0v0.9h-3V93.8z"/>
			<path d="M431.2,108.5c-0.3-0.6-0.5-1.3-0.8-1.9c-0.3-0.6-0.5-1.3-0.8-1.9c-0.1-0.1-0.1-0.4-0.2-0.6c-0.1-0.3-0.2-0.6-0.3-0.9
				s-0.2-0.7-0.3-1.1c0,0.4,0,0.8,0,1.2s0,0.7,0,1.1c0,0.2,0,0.3,0,0.5s0,0.4,0,0.5s0,0.3,0,0.5s0,0.3,0,0.5c0,0.2,0,0.4,0,0.6
				s0,0.3,0,0.4c0.1,0,0.3,0,0.5,0s0.3,0,0.4,0v0.9H427v-0.8c0.2,0,0.3,0,0.4-0.1c0.1,0,0.2-0.1,0.3-0.3c0.1-0.1,0.1-0.4,0.1-0.7
				l0.1-4.4c0-0.2,0-0.4,0-0.6s0-0.3,0-0.4c-0.1,0-0.3,0-0.5,0s-0.3,0-0.4,0v-0.9h2.6l1.8,4.5c0.1,0.2,0.1,0.4,0.2,0.6
				c0.1,0.2,0.2,0.5,0.2,0.7c0.1,0.2,0.1,0.4,0.2,0.5h0c0.1-0.3,0.2-0.5,0.3-0.8c0.1-0.3,0.2-0.5,0.3-0.7c0.3-0.8,0.6-1.6,0.9-2.4
				c0.3-0.8,0.6-1.6,0.9-2.4h2.7v0.8c-0.2,0-0.3,0-0.5,0.1c-0.1,0-0.2,0.1-0.3,0.3c-0.1,0.1-0.1,0.4-0.1,0.7l0.2,4.4
				c0,0.2,0,0.4,0,0.6c0,0.2,0,0.3,0,0.4c0.1,0,0.3,0,0.5,0c0.2,0,0.3,0,0.4,0v0.9H434v-0.8c0.2,0,0.3,0,0.5-0.1
				c0.1,0,0.2-0.1,0.3-0.3c0.1-0.1,0.1-0.4,0.1-0.7l-0.1-2.5c0-0.1,0-0.3,0-0.5c0-0.2,0-0.5,0-0.8c0-0.3,0-0.5,0-0.8
				c0,0.1,0,0.1-0.1,0.2c0,0.1,0,0.1-0.1,0.2l-2.3,6H431.2z"/>
			<path d="M438.2,107.7c0.2,0,0.4,0,0.5-0.1s0.2-0.2,0.2-0.4s0-0.3,0-0.5v-1.9c0-0.1,0-0.3,0-0.5c0-0.2,0-0.4,0-0.5
				c-0.1,0-0.3,0-0.4,0s-0.3,0-0.4,0v-0.9c0.4,0,0.7,0,0.9-0.1c0.2,0,0.4-0.1,0.6-0.1c0.1-0.1,0.2-0.1,0.3-0.2h0.6v4
				c0,0.1,0,0.3,0,0.5s0,0.4,0,0.6c0.1,0,0.3,0,0.4,0s0.3,0,0.3,0v0.9h-3V107.7z M439.7,101.6c-0.3,0-0.5-0.1-0.6-0.3
				s-0.3-0.4-0.3-0.7s0.1-0.5,0.3-0.7s0.4-0.3,0.6-0.3c0.2,0,0.5,0.1,0.6,0.3s0.2,0.4,0.2,0.7s-0.1,0.5-0.2,0.7
				S439.9,101.6,439.7,101.6z"/>
			<path d="M444.2,108.6c-0.5,0-0.9-0.1-1.2-0.4s-0.6-0.6-0.8-1c-0.2-0.4-0.3-1-0.3-1.6c0-0.6,0.1-1.2,0.4-1.7
				c0.2-0.5,0.6-0.9,1-1.1c0.4-0.3,0.9-0.4,1.5-0.4c0.2,0,0.4,0,0.6,0.1c0.2,0,0.3,0.1,0.5,0.1v-0.8c0-0.1,0-0.3,0-0.5s0-0.4,0-0.6
				c-0.1,0-0.3,0-0.4,0s-0.3,0-0.4,0V100c0.4,0,0.7,0,0.9-0.1c0.2,0,0.4-0.1,0.6-0.1c0.1-0.1,0.2-0.1,0.3-0.2h0.6v6.9
				c0,0.1,0,0.3,0,0.5s0,0.4,0,0.6c0.1,0,0.3,0,0.4,0c0.1,0,0.3,0,0.3,0v0.9h-2.2c0-0.1,0-0.2,0-0.3s0-0.2,0-0.3
				c-0.3,0.3-0.5,0.4-0.8,0.6C444.8,108.6,444.5,108.6,444.2,108.6z M444.8,107.6c0.2,0,0.4-0.1,0.6-0.2s0.3-0.2,0.4-0.4
				c0-0.1,0-0.2,0-0.3c0-0.1,0-0.2,0-0.3v-2.8c-0.1-0.1-0.2-0.1-0.3-0.2c-0.2,0-0.3-0.1-0.5-0.1c-0.4,0-0.6,0.1-0.8,0.3
				c-0.2,0.2-0.3,0.5-0.4,0.8s-0.1,0.7-0.1,1c0,0.3,0,0.6,0.1,1c0.1,0.3,0.2,0.6,0.4,0.8C444.3,107.5,444.5,107.6,444.8,107.6z"/>
			<path d="M451.1,108.6c-0.5,0-0.9-0.1-1.2-0.4s-0.6-0.6-0.8-1c-0.2-0.4-0.3-1-0.3-1.6c0-0.6,0.1-1.2,0.4-1.7
				c0.2-0.5,0.6-0.9,1-1.1c0.4-0.3,0.9-0.4,1.5-0.4c0.2,0,0.4,0,0.6,0.1c0.2,0,0.3,0.1,0.5,0.1v-0.8c0-0.1,0-0.3,0-0.5s0-0.4,0-0.6
				c-0.1,0-0.3,0-0.4,0s-0.3,0-0.4,0V100c0.4,0,0.7,0,0.9-0.1c0.2,0,0.4-0.1,0.6-0.1c0.1-0.1,0.2-0.1,0.3-0.2h0.6v6.9
				c0,0.1,0,0.3,0,0.5s0,0.4,0,0.6c0.1,0,0.3,0,0.4,0c0.1,0,0.3,0,0.3,0v0.9h-2.2c0-0.1,0-0.2,0-0.3s0-0.2,0-0.3
				c-0.3,0.3-0.5,0.4-0.8,0.6C451.7,108.6,451.4,108.6,451.1,108.6z M451.7,107.6c0.2,0,0.4-0.1,0.6-0.2s0.3-0.2,0.4-0.4
				c0-0.1,0-0.2,0-0.3c0-0.1,0-0.2,0-0.3v-2.8c-0.1-0.1-0.2-0.1-0.3-0.2c-0.2,0-0.3-0.1-0.5-0.1c-0.4,0-0.6,0.1-0.8,0.3
				c-0.2,0.2-0.3,0.5-0.4,0.8s-0.1,0.7-0.1,1c0,0.3,0,0.6,0.1,1c0.1,0.3,0.2,0.6,0.4,0.8C451.2,107.5,451.4,107.6,451.7,107.6z"/>
			<path d="M455.6,107.7c0.2,0,0.4,0,0.5-0.1s0.2-0.2,0.2-0.4c0-0.2,0-0.3,0-0.5v-4.8c0-0.1,0-0.3,0-0.5s0-0.4,0-0.5
				c-0.1,0-0.3,0-0.4,0s-0.3,0-0.4,0V100c0.4,0,0.7,0,0.9-0.1c0.2,0,0.4-0.1,0.6-0.1c0.1-0.1,0.2-0.1,0.3-0.2h0.6v6.9
				c0,0.1,0,0.3,0,0.5s0,0.4,0,0.6c0.1,0,0.3,0,0.4,0s0.3,0,0.3,0v0.9h-3V107.7z"/>
			<path d="M462.2,108.6c-0.6,0-1.1-0.1-1.5-0.4s-0.8-0.6-1-1.1c-0.2-0.5-0.4-1-0.4-1.6c0-0.5,0.1-1,0.4-1.5c0.2-0.5,0.6-0.9,1-1.1
				c0.4-0.3,0.9-0.4,1.5-0.4c0.3,0,0.6,0,1,0.1c0.3,0.1,0.6,0.2,0.8,0.5c0.3,0.2,0.5,0.5,0.6,0.9c0.2,0.4,0.2,0.8,0.2,1.4l-3.8,0.1
				c0,0.4,0.1,0.8,0.2,1.1s0.3,0.6,0.5,0.8c0.2,0.2,0.6,0.3,1,0.3c0.2,0,0.3,0,0.5-0.1c0.2-0.1,0.4-0.1,0.6-0.3
				c0.2-0.1,0.4-0.3,0.6-0.5l0.5,0.5c-0.3,0.4-0.6,0.7-0.9,0.9c-0.3,0.2-0.6,0.3-0.9,0.4C462.7,108.6,462.4,108.6,462.2,108.6z
				 M461.1,104.6h2.1c0-0.3-0.1-0.6-0.1-0.8s-0.2-0.3-0.3-0.4c-0.1-0.1-0.3-0.1-0.5-0.1c-0.3,0-0.6,0.1-0.8,0.4
				S461.2,104.2,461.1,104.6z"/>
			<path d="M430.6,115c-0.2,0-0.3,0-0.4,0.1c-0.1,0-0.2,0.1-0.3,0.3c-0.1,0.1-0.1,0.4-0.1,0.7v4.4c0,0.2,0,0.4,0,0.6s0,0.3,0,0.4
				c0.1,0,0.3,0,0.5,0s0.3,0,0.4,0v0.9h-3.3v-0.8c0.2,0,0.3,0,0.4-0.1c0.1,0,0.2-0.1,0.3-0.3c0.1-0.1,0.1-0.4,0.1-0.7v-4.4
				c0-0.2,0-0.4,0-0.6s0-0.3,0-0.4c-0.1,0-0.3,0-0.5,0s-0.3,0-0.4,0v-0.9h3.3V115z"/>
			<path d="M431.7,122.3v-0.8c0.2,0,0.4,0,0.5-0.1s0.2-0.2,0.2-0.4s0-0.3,0-0.5v-1.9c0-0.1,0-0.3,0-0.5c0-0.2,0-0.3,0-0.5
				c-0.1,0-0.3,0-0.4,0s-0.3,0-0.4,0v-0.9c0.4,0,0.7,0,0.9-0.1c0.2,0,0.4-0.1,0.6-0.1c0.1-0.1,0.2-0.1,0.3-0.2h0.6
				c0,0.1,0,0.2,0,0.2c0,0,0,0.1,0,0.1c0,0,0,0.1,0,0.2c0.2-0.1,0.3-0.2,0.5-0.3c0.2-0.1,0.4-0.2,0.6-0.2c0.2-0.1,0.4-0.1,0.5-0.1
				c0.7,0,1.2,0.2,1.5,0.6c0.3,0.4,0.4,1.1,0.4,2v1.6c0,0.1,0,0.3,0,0.5c0,0.2,0,0.4,0,0.6c0.1,0,0.3,0,0.4,0s0.3,0,0.3,0v0.9h-3
				v-0.8c0.2,0,0.4,0,0.5-0.1s0.2-0.2,0.2-0.4c0-0.2,0-0.3,0-0.5l0-1.6c0-0.5-0.1-0.9-0.2-1.1c-0.1-0.2-0.4-0.4-0.7-0.4
				c-0.2,0-0.4,0-0.6,0.1c-0.2,0.1-0.4,0.2-0.5,0.3c0,0.1,0,0.2,0,0.3c0,0.1,0,0.2,0,0.3v2c0,0.1,0,0.3,0,0.5s0,0.4,0,0.6
				c0.1,0,0.3,0,0.4,0s0.3,0,0.3,0v0.9H431.7z"/>
			<path d="M441.8,122.5c-0.5,0-1-0.1-1.4-0.3c-0.4-0.2-0.8-0.6-1-1s-0.4-1-0.4-1.6c0-0.4,0.1-0.9,0.2-1.2c0.1-0.4,0.4-0.7,0.6-1
				c0.3-0.3,0.6-0.5,1-0.7c0.4-0.2,0.8-0.3,1.2-0.3c0.5,0,0.9,0.1,1.2,0.2c0.3,0.2,0.6,0.3,0.7,0.6s0.2,0.5,0.2,0.8
				c0,0.2-0.1,0.4-0.2,0.6c-0.1,0.2-0.3,0.3-0.6,0.3c-0.3,0-0.5-0.1-0.6-0.2s-0.2-0.3-0.2-0.5c0-0.1,0-0.2,0-0.2
				c0-0.1,0.1-0.2,0.1-0.3c-0.1-0.1-0.1-0.2-0.2-0.3c-0.1-0.1-0.2-0.1-0.3-0.1s-0.2,0-0.3,0c-0.4,0-0.7,0.2-0.9,0.6
				c-0.2,0.3-0.4,0.8-0.4,1.5c0,0.4,0,0.7,0.1,1.1s0.3,0.6,0.5,0.8c0.2,0.2,0.5,0.3,0.9,0.3c0.3,0,0.6-0.1,1-0.2
				c0.3-0.2,0.6-0.4,0.8-0.7l0.5,0.5c-0.3,0.4-0.6,0.7-0.9,0.9c-0.3,0.2-0.6,0.3-0.9,0.4C442.3,122.5,442.1,122.5,441.8,122.5z"/>
			<path d="M447.9,122.5c-0.6,0-1.1-0.1-1.5-0.4s-0.8-0.6-1.1-1s-0.4-1-0.4-1.6c0-0.6,0.1-1.2,0.4-1.7c0.3-0.5,0.6-0.9,1.1-1.1
				s0.9-0.4,1.5-0.4c0.6,0,1.1,0.1,1.5,0.4s0.8,0.6,1,1c0.3,0.4,0.4,1,0.4,1.6c0,0.6-0.1,1.2-0.4,1.7c-0.2,0.5-0.6,0.8-1,1.1
				S448.4,122.5,447.9,122.5z M447.9,121.7c0.3,0,0.5-0.1,0.7-0.3c0.2-0.2,0.3-0.5,0.3-0.8c0.1-0.3,0.1-0.6,0.1-1
				c0-0.3,0-0.6-0.1-0.9c0-0.3-0.1-0.6-0.2-0.8s-0.2-0.4-0.4-0.6c-0.2-0.1-0.4-0.2-0.6-0.2c-0.3,0-0.5,0.1-0.7,0.3
				c-0.2,0.2-0.3,0.5-0.4,0.8c-0.1,0.3-0.1,0.6-0.1,1c0,0.4,0,0.8,0.1,1.2s0.2,0.7,0.4,0.9C447.3,121.6,447.6,121.7,447.9,121.7z"/>
			<path d="M451.6,122.3v-0.8c0.2,0,0.4,0,0.5-0.1s0.2-0.2,0.2-0.4s0-0.3,0-0.5v-1.9c0-0.1,0-0.3,0-0.5c0-0.2,0-0.3,0-0.5
				c-0.1,0-0.3,0-0.4,0s-0.3,0-0.4,0v-0.9c0.4,0,0.7,0,0.9-0.1c0.2,0,0.4-0.1,0.6-0.1c0.1-0.1,0.2-0.1,0.3-0.2h0.6
				c0,0.1,0,0.2,0,0.3s0,0.2,0,0.3c0.3-0.2,0.5-0.4,0.9-0.5c0.3-0.1,0.6-0.2,0.9-0.2c0.4,0,0.6,0.1,0.9,0.2c0.2,0.1,0.4,0.3,0.6,0.6
				c0.3-0.2,0.6-0.4,0.9-0.6c0.3-0.1,0.7-0.2,1-0.2c0.6,0,1.1,0.2,1.4,0.5c0.3,0.4,0.5,1,0.5,1.9v1.7c0,0.1,0,0.3,0,0.5s0,0.4,0,0.6
				c0.1,0,0.3,0,0.4,0s0.3,0,0.3,0v0.9h-2.9v-0.8c0.2,0,0.3,0,0.4-0.1s0.1-0.2,0.2-0.4s0-0.3,0-0.5v-1.8c0-0.5-0.1-0.9-0.2-1
				c-0.2-0.2-0.4-0.3-0.6-0.3c-0.2,0-0.4,0-0.6,0.1s-0.3,0.2-0.5,0.3c0,0.2,0.1,0.3,0.1,0.5c0,0.2,0,0.4,0,0.6c0,0.3,0,0.5,0,0.8
				s0,0.5,0,0.8c0,0.1,0,0.3,0,0.5c0,0.2,0,0.4,0,0.6c0.1,0,0.3,0,0.4,0s0.3,0,0.3,0v0.9h-3v-0.8c0.2,0,0.3,0,0.4-0.1
				s0.1-0.2,0.2-0.4c0-0.2,0-0.3,0-0.5l0-1.8c0-0.5-0.1-0.8-0.2-1c-0.1-0.2-0.4-0.3-0.6-0.3c-0.2,0-0.4,0-0.5,0.1s-0.3,0.2-0.4,0.3
				c0,0.1,0,0.2,0,0.3s0,0.2,0,0.3v2c0,0.1,0,0.3,0,0.5s0,0.4,0,0.6c0.1,0,0.3,0,0.4,0c0.1,0,0.2,0,0.3,0v0.9H451.6z"/>
			<path d="M465,122.5c-0.6,0-1.1-0.1-1.5-0.4s-0.8-0.6-1-1.1c-0.2-0.5-0.4-1-0.4-1.6c0-0.5,0.1-1,0.4-1.5c0.2-0.5,0.6-0.9,1-1.1
				c0.4-0.3,0.9-0.4,1.5-0.4c0.3,0,0.6,0,1,0.1c0.3,0.1,0.6,0.2,0.8,0.5c0.3,0.2,0.5,0.5,0.6,0.9c0.2,0.4,0.2,0.8,0.2,1.4l-3.8,0.1
				c0,0.4,0.1,0.8,0.2,1.1s0.3,0.6,0.5,0.8c0.2,0.2,0.6,0.3,1,0.3c0.2,0,0.3,0,0.5-0.1c0.2-0.1,0.4-0.1,0.6-0.3
				c0.2-0.1,0.4-0.3,0.6-0.5l0.5,0.5c-0.3,0.4-0.6,0.7-0.9,0.9c-0.3,0.2-0.6,0.3-0.9,0.4C465.6,122.5,465.3,122.5,465,122.5z
				 M463.9,118.5h2.1c0-0.3-0.1-0.6-0.1-0.8s-0.2-0.3-0.3-0.4c-0.1-0.1-0.3-0.1-0.5-0.1c-0.3,0-0.6,0.1-0.8,0.4
				S464,118.1,463.9,118.5z"/>
		</g>
	</g>
</g>
<g>
	<g>
		<g>
			<path d="M483.1,101.5v-0.8c0.2,0,0.3,0,0.4-0.1c0.1,0,0.2-0.1,0.3-0.3c0.1-0.1,0.1-0.4,0.1-0.7v-4.4c0-0.2,0-0.4,0-0.6
				s0-0.3,0-0.4c-0.1,0-0.3,0-0.5,0s-0.3,0-0.4,0v-0.9h3.3v0.8c-0.2,0-0.3,0-0.4,0.1c-0.1,0-0.2,0.1-0.3,0.3
				c-0.1,0.1-0.1,0.4-0.1,0.7v1.8h3.2v-1.7c0-0.2,0-0.4,0-0.6s0-0.3,0-0.4c-0.1,0-0.3,0-0.5,0s-0.3,0-0.4,0v-0.9h3.3v0.8
				c-0.2,0-0.3,0-0.4,0.1c-0.1,0-0.2,0.1-0.3,0.3c-0.1,0.1-0.1,0.4-0.1,0.7v4.4c0,0.2,0,0.4,0,0.6s0,0.3,0,0.4c0.1,0,0.3,0,0.5,0
				c0.2,0,0.3,0,0.4,0v0.9H488v-0.8c0.2,0,0.3,0,0.4-0.1c0.1,0,0.2-0.1,0.3-0.3c0.1-0.1,0.1-0.4,0.1-0.7v-1.9l-3.2,0v1.7
				c0,0.2,0,0.4,0,0.6s0,0.3,0,0.4c0.1,0,0.3,0,0.5,0s0.3,0,0.4,0v0.9H483.1z"/>
			<path d="M492.3,100.7c0.2,0,0.4,0,0.5-0.1s0.2-0.2,0.2-0.4s0-0.3,0-0.5v-1.9c0-0.1,0-0.3,0-0.5c0-0.2,0-0.4,0-0.5
				c-0.1,0-0.3,0-0.4,0s-0.3,0-0.4,0v-0.9c0.4,0,0.7,0,0.9-0.1c0.2,0,0.4-0.1,0.6-0.1c0.1-0.1,0.2-0.1,0.3-0.2h0.6v4
				c0,0.1,0,0.3,0,0.5s0,0.4,0,0.6c0.1,0,0.3,0,0.4,0s0.3,0,0.3,0v0.9h-3V100.7z M493.8,94.6c-0.3,0-0.5-0.1-0.6-0.3
				s-0.3-0.4-0.3-0.7s0.1-0.5,0.3-0.7s0.4-0.3,0.6-0.3c0.2,0,0.5,0.1,0.6,0.3s0.2,0.4,0.2,0.7s-0.1,0.5-0.2,0.7S494,94.6,493.8,94.6
				z"/>
			<path d="M498.6,104.6c-0.7,0-1.2-0.1-1.6-0.2c-0.4-0.1-0.7-0.3-0.8-0.6c-0.2-0.2-0.2-0.5-0.2-0.7c0-0.2,0-0.3,0.1-0.5
				s0.2-0.3,0.3-0.5c0.2-0.2,0.4-0.3,0.7-0.4c-0.3-0.1-0.5-0.2-0.7-0.4c-0.1-0.2-0.2-0.4-0.2-0.6c0-0.2,0.1-0.4,0.2-0.7
				s0.5-0.4,0.9-0.6c-0.3-0.1-0.6-0.3-0.8-0.6c-0.2-0.3-0.3-0.6-0.3-1c0-0.5,0.1-0.9,0.3-1.2c0.2-0.4,0.6-0.6,1-0.8
				c0.4-0.2,0.8-0.3,1.3-0.3c0.2,0,0.4,0,0.7,0.1c0.3,0.1,0.5,0.1,0.7,0.3c0.1-0.2,0.2-0.5,0.3-0.7c0.1-0.2,0.3-0.4,0.5-0.5
				c0.2-0.1,0.4-0.2,0.6-0.2c0.3,0,0.5,0.1,0.6,0.2c0.1,0.1,0.2,0.3,0.2,0.5c0,0.1,0,0.2-0.1,0.3c0,0.1-0.1,0.2-0.2,0.3
				s-0.2,0.1-0.4,0.1c-0.1,0-0.2,0-0.3-0.1c-0.1-0.1-0.2-0.2-0.2-0.3c-0.1,0-0.2,0.1-0.3,0.3c-0.1,0.2-0.2,0.3-0.2,0.5
				c0.2,0.2,0.4,0.4,0.5,0.7c0.1,0.3,0.2,0.5,0.2,0.8c0,0.4-0.1,0.8-0.4,1.2s-0.6,0.6-1,0.8c-0.4,0.2-0.8,0.3-1.3,0.3
				c-0.1,0-0.2,0-0.3,0c-0.1,0-0.2,0-0.4,0c-0.2,0-0.3,0-0.4,0.1c-0.1,0.1-0.2,0.1-0.2,0.3c0,0.1,0.1,0.2,0.3,0.3
				c0.2,0.1,0.6,0.1,1.1,0.1c0.6,0,1.1,0.1,1.6,0.2s0.8,0.3,1,0.6c0.2,0.3,0.4,0.6,0.4,1.1c0,0.3-0.1,0.6-0.3,0.9s-0.5,0.5-0.8,0.6
				c-0.3,0.2-0.7,0.3-1.1,0.4C499.4,104.6,499,104.6,498.6,104.6z M499,103.8c0.5,0,1-0.1,1.2-0.3c0.3-0.2,0.4-0.4,0.4-0.6
				c0-0.2-0.1-0.3-0.2-0.4c-0.1-0.1-0.3-0.2-0.5-0.2c-0.2-0.1-0.6-0.1-0.9-0.1c-0.2,0-0.4,0-0.6,0s-0.4,0-0.6-0.1
				c-0.1,0.1-0.2,0.2-0.3,0.3c-0.1,0.1-0.1,0.3-0.1,0.4c0,0.3,0.1,0.6,0.4,0.7C498.1,103.7,498.5,103.8,499,103.8z M498.8,99.2
				c0.2,0,0.4-0.1,0.5-0.2c0.1-0.1,0.3-0.3,0.3-0.5c0.1-0.2,0.1-0.4,0.1-0.6c0-0.3,0-0.5-0.1-0.8c-0.1-0.3-0.2-0.5-0.3-0.6
				s-0.3-0.2-0.6-0.2c-0.3,0-0.5,0.1-0.7,0.4c-0.2,0.3-0.3,0.6-0.3,1c0,0.3,0,0.5,0.1,0.8s0.2,0.4,0.3,0.6
				C498.4,99.1,498.6,99.2,498.8,99.2z"/>
			<path d="M506,100.7c0.2,0,0.4,0,0.5-0.1s0.2-0.2,0.2-0.4c0-0.2,0-0.3,0-0.5l0-1.6c0-0.5-0.1-0.9-0.2-1.1s-0.4-0.4-0.7-0.4
				c-0.2,0-0.4,0-0.6,0.1c-0.2,0.1-0.3,0.2-0.5,0.3v2.6c0,0.1,0,0.3,0,0.5s0,0.4,0,0.6c0.1,0,0.3,0,0.4,0s0.3,0,0.3,0v0.9h-3v-0.8
				c0.2,0,0.4,0,0.5-0.1s0.2-0.2,0.2-0.4c0-0.2,0-0.3,0-0.5v-4.8c0-0.1,0-0.3,0-0.5s0-0.4,0-0.5c-0.1,0-0.3,0-0.4,0s-0.3,0-0.4,0
				v-0.9c0.4,0,0.7,0,0.9-0.1c0.2,0,0.4-0.1,0.6-0.1c0.1-0.1,0.2-0.1,0.3-0.2h0.6v3.4c0.2-0.1,0.3-0.2,0.5-0.3s0.4-0.2,0.6-0.2
				c0.2-0.1,0.4-0.1,0.5-0.1c0.7,0,1.2,0.2,1.5,0.6c0.3,0.4,0.4,1.1,0.4,2v1.6c0,0.1,0,0.3,0,0.5c0,0.2,0,0.4,0,0.6
				c0.1,0,0.3,0,0.4,0c0.1,0,0.3,0,0.3,0v0.9h-3V100.7z"/>
			<path d="M480.7,108c-0.2,0-0.3,0-0.4,0.1c-0.1,0-0.2,0.1-0.3,0.3c-0.1,0.1-0.1,0.4-0.1,0.7v4.4c0,0.2,0,0.4,0,0.6s0,0.3,0,0.4
				c0.1,0,0.3,0,0.5,0s0.3,0,0.4,0v0.9h-3.3v-0.8c0.2,0,0.3,0,0.4-0.1c0.1,0,0.2-0.1,0.3-0.3c0.1-0.1,0.1-0.4,0.1-0.7v-4.4
				c0-0.2,0-0.4,0-0.6s0-0.3,0-0.4c-0.1,0-0.3,0-0.5,0s-0.3,0-0.4,0v-0.9h3.3V108z"/>
			<path d="M481.7,115.4v-0.8c0.2,0,0.4,0,0.5-0.1s0.2-0.2,0.2-0.4s0-0.3,0-0.5v-1.9c0-0.1,0-0.3,0-0.5c0-0.2,0-0.3,0-0.5
				c-0.1,0-0.3,0-0.4,0s-0.3,0-0.4,0v-0.9c0.4,0,0.7,0,0.9-0.1c0.2,0,0.4-0.1,0.6-0.1c0.1-0.1,0.2-0.1,0.3-0.2h0.6
				c0,0.1,0,0.2,0,0.2c0,0,0,0.1,0,0.1c0,0,0,0.1,0,0.2c0.2-0.1,0.3-0.2,0.5-0.3c0.2-0.1,0.4-0.2,0.6-0.2c0.2-0.1,0.4-0.1,0.5-0.1
				c0.7,0,1.2,0.2,1.5,0.6c0.3,0.4,0.4,1.1,0.4,2v1.6c0,0.1,0,0.3,0,0.5c0,0.2,0,0.4,0,0.6c0.1,0,0.3,0,0.4,0s0.3,0,0.3,0v0.9h-3
				v-0.8c0.2,0,0.4,0,0.5-0.1s0.2-0.2,0.2-0.4c0-0.2,0-0.3,0-0.5l0-1.6c0-0.5-0.1-0.9-0.2-1.1c-0.1-0.2-0.4-0.4-0.7-0.4
				c-0.2,0-0.4,0-0.6,0.1c-0.2,0.1-0.4,0.2-0.5,0.3c0,0.1,0,0.2,0,0.3c0,0.1,0,0.2,0,0.3v2c0,0.1,0,0.3,0,0.5s0,0.4,0,0.6
				c0.1,0,0.3,0,0.4,0s0.3,0,0.3,0v0.9H481.7z"/>
			<path d="M491.8,115.6c-0.5,0-1-0.1-1.4-0.3c-0.4-0.2-0.8-0.6-1-1s-0.4-1-0.4-1.6c0-0.4,0.1-0.9,0.2-1.2c0.1-0.4,0.4-0.7,0.6-1
				c0.3-0.3,0.6-0.5,1-0.7c0.4-0.2,0.8-0.3,1.2-0.3c0.5,0,0.9,0.1,1.2,0.2c0.3,0.2,0.6,0.3,0.7,0.6s0.2,0.5,0.2,0.8
				c0,0.2-0.1,0.4-0.2,0.6c-0.1,0.2-0.3,0.3-0.6,0.3c-0.3,0-0.5-0.1-0.6-0.2s-0.2-0.3-0.2-0.5c0-0.1,0-0.2,0-0.2
				c0-0.1,0.1-0.2,0.1-0.3c-0.1-0.1-0.1-0.2-0.2-0.3c-0.1-0.1-0.2-0.1-0.3-0.1s-0.2,0-0.3,0c-0.4,0-0.7,0.2-0.9,0.6
				c-0.2,0.3-0.4,0.8-0.4,1.5c0,0.4,0,0.7,0.1,1.1s0.3,0.6,0.5,0.8c0.2,0.2,0.5,0.3,0.9,0.3c0.3,0,0.6-0.1,1-0.2
				c0.3-0.2,0.6-0.4,0.8-0.7l0.5,0.5c-0.3,0.4-0.6,0.7-0.9,0.9c-0.3,0.2-0.6,0.3-0.9,0.4C492.4,115.5,492.1,115.6,491.8,115.6z"/>
			<path d="M497.9,115.6c-0.6,0-1.1-0.1-1.5-0.4s-0.8-0.6-1.1-1s-0.4-1-0.4-1.6c0-0.6,0.1-1.2,0.4-1.7c0.3-0.5,0.6-0.9,1.1-1.1
				s0.9-0.4,1.5-0.4c0.6,0,1.1,0.1,1.5,0.4s0.8,0.6,1,1c0.3,0.4,0.4,1,0.4,1.6c0,0.6-0.1,1.2-0.4,1.7c-0.2,0.5-0.6,0.8-1,1.1
				S498.5,115.6,497.9,115.6z M498,114.7c0.3,0,0.5-0.1,0.7-0.3c0.2-0.2,0.3-0.5,0.3-0.8c0.1-0.3,0.1-0.6,0.1-1c0-0.3,0-0.6-0.1-0.9
				c0-0.3-0.1-0.6-0.2-0.8s-0.2-0.4-0.4-0.6c-0.2-0.1-0.4-0.2-0.6-0.2c-0.3,0-0.5,0.1-0.7,0.3c-0.2,0.2-0.3,0.5-0.4,0.8
				c-0.1,0.3-0.1,0.6-0.1,1c0,0.4,0,0.8,0.1,1.2s0.2,0.7,0.4,0.9C497.4,114.6,497.7,114.7,498,114.7z"/>
			<path d="M501.7,115.4v-0.8c0.2,0,0.4,0,0.5-0.1s0.2-0.2,0.2-0.4s0-0.3,0-0.5v-1.9c0-0.1,0-0.3,0-0.5c0-0.2,0-0.3,0-0.5
				c-0.1,0-0.3,0-0.4,0s-0.3,0-0.4,0v-0.9c0.4,0,0.7,0,0.9-0.1c0.2,0,0.4-0.1,0.6-0.1c0.1-0.1,0.2-0.1,0.3-0.2h0.6
				c0,0.1,0,0.2,0,0.3s0,0.2,0,0.3c0.3-0.2,0.5-0.4,0.9-0.5c0.3-0.1,0.6-0.2,0.9-0.2c0.4,0,0.6,0.1,0.9,0.2c0.2,0.1,0.4,0.3,0.6,0.6
				c0.3-0.2,0.6-0.4,0.9-0.6c0.3-0.1,0.7-0.2,1-0.2c0.6,0,1.1,0.2,1.4,0.5c0.3,0.4,0.5,1,0.5,1.9v1.7c0,0.1,0,0.3,0,0.5s0,0.4,0,0.6
				c0.1,0,0.3,0,0.4,0s0.3,0,0.3,0v0.9h-2.9v-0.8c0.2,0,0.3,0,0.4-0.1s0.1-0.2,0.2-0.4s0-0.3,0-0.5v-1.8c0-0.5-0.1-0.9-0.2-1
				c-0.2-0.2-0.4-0.3-0.6-0.3c-0.2,0-0.4,0-0.6,0.1s-0.3,0.2-0.5,0.3c0,0.2,0.1,0.3,0.1,0.5c0,0.2,0,0.4,0,0.6c0,0.3,0,0.5,0,0.8
				s0,0.5,0,0.8c0,0.1,0,0.3,0,0.5c0,0.2,0,0.4,0,0.6c0.1,0,0.3,0,0.4,0s0.3,0,0.3,0v0.9h-3v-0.8c0.2,0,0.3,0,0.4-0.1
				s0.1-0.2,0.2-0.4c0-0.2,0-0.3,0-0.5l0-1.8c0-0.5-0.1-0.8-0.2-1c-0.1-0.2-0.4-0.3-0.6-0.3c-0.2,0-0.4,0-0.5,0.1s-0.3,0.2-0.4,0.3
				c0,0.1,0,0.2,0,0.3s0,0.2,0,0.3v2c0,0.1,0,0.3,0,0.5s0,0.4,0,0.6c0.1,0,0.3,0,0.4,0c0.1,0,0.2,0,0.3,0v0.9H501.7z"/>
			<path d="M515.1,115.6c-0.6,0-1.1-0.1-1.5-0.4s-0.8-0.6-1-1.1c-0.2-0.5-0.4-1-0.4-1.6c0-0.5,0.1-1,0.4-1.5c0.2-0.5,0.6-0.9,1-1.1
				c0.4-0.3,0.9-0.4,1.5-0.4c0.3,0,0.6,0,1,0.1c0.3,0.1,0.6,0.2,0.8,0.5c0.3,0.2,0.5,0.5,0.6,0.9c0.2,0.4,0.2,0.8,0.2,1.4l-3.8,0.1
				c0,0.4,0.1,0.8,0.2,1.1s0.3,0.6,0.5,0.8c0.2,0.2,0.6,0.3,1,0.3c0.2,0,0.3,0,0.5-0.1c0.2-0.1,0.4-0.1,0.6-0.3
				c0.2-0.1,0.4-0.3,0.6-0.5l0.5,0.5c-0.3,0.4-0.6,0.7-0.9,0.9c-0.3,0.2-0.6,0.3-0.9,0.4C515.6,115.5,515.3,115.6,515.1,115.6z
				 M514,111.5h2.1c0-0.3-0.1-0.6-0.1-0.8s-0.2-0.3-0.3-0.4c-0.1-0.1-0.3-0.1-0.5-0.1c-0.3,0-0.6,0.1-0.8,0.4S514,111.1,514,111.5z"
				/>
		</g>
	</g>
</g>
<polygon class="st1" points="172,71.5 295.5,71.5 295.5,21.3 "/>
<g>
	<g>
		<path d="M179,96.7c-0.1-0.6-0.3-1.1-0.5-1.5c-0.3-0.4-0.6-0.7-1-0.9c-0.4-0.2-0.8-0.3-1.4-0.3c-0.5,0-0.9,0.1-1.2,0.4
			c-0.4,0.3-0.5,0.6-0.5,1c0,0.3,0.1,0.6,0.3,0.9c0.2,0.3,0.5,0.5,0.9,0.7c0.4,0.2,0.9,0.5,1.5,0.7c0.4,0.2,0.8,0.4,1.3,0.6
			c0.4,0.2,0.8,0.5,1.2,0.8c0.4,0.3,0.7,0.7,0.9,1.1c0.2,0.4,0.3,0.9,0.3,1.4c0,0.6-0.2,1.2-0.5,1.7s-0.8,0.9-1.5,1.2
			c-0.6,0.3-1.4,0.4-2.2,0.4c-0.4,0-0.9-0.1-1.4-0.2c-0.5-0.1-1-0.3-1.4-0.6l0,0.7h-1.3v-3.8h1.1c0.2,0.9,0.5,1.6,1.1,2.1
			c0.6,0.5,1.2,0.7,2,0.7c0.4,0,0.7-0.1,1-0.2s0.5-0.3,0.7-0.6c0.2-0.2,0.2-0.5,0.2-0.8c0-0.4-0.1-0.7-0.4-1c-0.3-0.3-0.6-0.5-1-0.6
			c-0.4-0.2-0.8-0.3-1.2-0.5c-0.5-0.2-1-0.5-1.5-0.7c-0.5-0.2-0.9-0.5-1.2-0.8c-0.3-0.3-0.6-0.7-0.8-1.1c-0.2-0.4-0.3-0.9-0.3-1.4
			c0-0.3,0.1-0.7,0.2-1.1c0.1-0.4,0.3-0.7,0.6-1c0.3-0.3,0.7-0.6,1.2-0.8c0.5-0.2,1.1-0.3,1.8-0.3c0.4,0,0.9,0.1,1.4,0.2
			c0.5,0.1,1,0.3,1.3,0.6l-0.1-0.7h1.3v3.8H179z"/>
		<path d="M182,103.5c0.3,0,0.5-0.1,0.7-0.2c0.1-0.1,0.2-0.3,0.3-0.5c0-0.2,0.1-0.5,0.1-0.8v-2.7c0-0.2,0-0.4,0-0.7
			c0-0.3,0-0.5,0-0.7c-0.2,0-0.4,0-0.6,0c-0.2,0-0.4,0-0.5,0v-1.2c0.5,0,0.9,0,1.3-0.1c0.4-0.1,0.6-0.1,0.8-0.2
			c0.2-0.1,0.3-0.1,0.4-0.2h0.9v5.7c0,0.2,0,0.4,0,0.6c0,0.3,0,0.5,0,0.8c0.2,0,0.4,0,0.6,0c0.2,0,0.4,0,0.5,0v1.2H182V103.5z
			 M184.1,94.9c-0.4,0-0.7-0.1-0.9-0.4c-0.2-0.3-0.4-0.6-0.4-1c0-0.4,0.1-0.7,0.4-1c0.3-0.3,0.5-0.4,0.9-0.4c0.4,0,0.6,0.1,0.9,0.4
			c0.2,0.3,0.4,0.6,0.4,1c0,0.4-0.1,0.7-0.3,1C184.7,94.7,184.4,94.9,184.1,94.9z"/>
		<path d="M187.3,104.5v-1.2l3.8-5c0.2-0.2,0.4-0.5,0.5-0.6c0.2-0.2,0.3-0.3,0.3-0.3l-2.2,0c-0.3,0-0.5,0.1-0.6,0.3
			c-0.2,0.2-0.3,0.4-0.4,0.7s-0.2,0.7-0.2,1h-1l0.2-3.2h6.7v1l-3.7,5c-0.2,0.2-0.3,0.4-0.5,0.6c-0.2,0.2-0.3,0.3-0.5,0.4l2.3,0.1
			c0.4,0,0.6-0.1,0.8-0.3c0.2-0.2,0.4-0.4,0.5-0.8s0.2-0.7,0.2-1.1h1l-0.2,3.2H187.3z"/>
		<path d="M199.7,104.8c-0.8,0-1.5-0.2-2.1-0.5c-0.6-0.4-1.1-0.9-1.4-1.5c-0.3-0.7-0.5-1.4-0.5-2.3c0-0.8,0.2-1.5,0.5-2.2
			c0.3-0.7,0.8-1.2,1.4-1.6s1.3-0.6,2.2-0.6c0.5,0,0.9,0.1,1.3,0.2c0.4,0.1,0.8,0.3,1.2,0.6c0.4,0.3,0.6,0.7,0.9,1.2
			c0.2,0.5,0.3,1.2,0.3,2l-5.4,0.1c0,0.6,0.1,1.1,0.2,1.6c0.1,0.5,0.4,0.8,0.7,1.1c0.3,0.3,0.8,0.4,1.4,0.4c0.2,0,0.5,0,0.7-0.1
			c0.3-0.1,0.6-0.2,0.9-0.4c0.3-0.2,0.6-0.4,0.8-0.7l0.7,0.7c-0.4,0.6-0.8,1-1.3,1.3c-0.4,0.3-0.9,0.5-1.3,0.6
			S200.1,104.8,199.7,104.8z M198.2,99.1h3c0-0.5-0.1-0.8-0.2-1.1c-0.1-0.3-0.3-0.5-0.5-0.6c-0.2-0.1-0.4-0.2-0.7-0.2
			c-0.5,0-0.9,0.2-1.1,0.5C198.4,98.1,198.3,98.5,198.2,99.1z"/>
		<path d="M213,104.8c-0.8,0-1.5-0.2-2.1-0.5c-0.6-0.3-1.1-0.8-1.5-1.5s-0.6-1.4-0.6-2.2c0-0.9,0.2-1.7,0.6-2.4s0.9-1.2,1.5-1.6
			c0.6-0.4,1.3-0.6,2.1-0.6c0.8,0,1.5,0.2,2.1,0.5c0.6,0.3,1.1,0.8,1.5,1.5c0.4,0.6,0.5,1.4,0.5,2.3c0,0.9-0.2,1.7-0.5,2.4
			c-0.4,0.7-0.8,1.2-1.4,1.6C214.5,104.6,213.8,104.8,213,104.8z M213.1,103.6c0.4,0,0.8-0.2,1-0.5c0.2-0.3,0.4-0.7,0.5-1.1
			c0.1-0.4,0.1-0.9,0.1-1.4c0-0.4,0-0.8-0.1-1.2c-0.1-0.4-0.2-0.8-0.3-1.1c-0.1-0.3-0.3-0.6-0.5-0.8s-0.5-0.3-0.8-0.3
			c-0.4,0-0.8,0.2-1,0.5s-0.4,0.7-0.5,1.1c-0.1,0.4-0.2,0.9-0.2,1.4c0,0.6,0.1,1.1,0.2,1.6c0.1,0.5,0.3,1,0.6,1.3
			S212.6,103.7,213.1,103.6z"/>
		<path d="M219.3,95.9c0-1.3,0.3-2.3,0.9-2.9c0.6-0.6,1.4-0.9,2.4-0.9c0.5,0,0.9,0.1,1.2,0.2c0.3,0.1,0.5,0.3,0.7,0.6
			c0.1,0.2,0.2,0.4,0.2,0.7c0,0.3-0.1,0.5-0.3,0.8s-0.4,0.3-0.8,0.3c-0.3,0-0.6-0.1-0.7-0.3c-0.2-0.2-0.3-0.4-0.3-0.7
			c0-0.1,0-0.1,0-0.2c0-0.1,0-0.1,0-0.2c-0.1-0.1-0.1-0.1-0.2-0.1s-0.1,0-0.2,0c-0.2,0-0.3,0.1-0.4,0.2c-0.1,0.1-0.2,0.2-0.2,0.4
			c0,0.2,0,0.3,0,0.5v2h1.8v1.3l-1.8,0l0,4.2c0,0.2,0,0.4,0,0.7c0,0.3,0,0.6,0,0.8c0.2,0,0.4,0,0.6,0c0.2,0,0.4,0,0.5,0v1.2h-4.4
			v-1.1c0.3,0,0.5-0.1,0.7-0.2c0.1-0.1,0.2-0.3,0.3-0.5c0-0.2,0.1-0.5,0.1-0.8v-4.3l-1.2,0v-1.4h1.2V95.9z"/>
		<path d="M228.1,104.5v-1.1c0.3,0,0.6-0.1,0.7-0.3c0.2-0.2,0.3-0.4,0.5-0.7c0.1-0.3,0.2-0.6,0.4-0.9l3.2-8.8h1.2l3.5,9
			c0.1,0.2,0.2,0.4,0.3,0.7c0.1,0.3,0.2,0.6,0.2,0.9c0.2,0,0.4,0,0.5,0c0.2,0,0.3,0,0.4,0v1.3h-4.4v-1.1c0.3,0,0.5-0.1,0.6-0.2
			c0.1-0.1,0.2-0.3,0.2-0.5c0-0.2-0.1-0.5-0.2-0.7l-0.3-0.9l-3.6,0.1l-0.3,0.8c-0.1,0.1-0.1,0.4-0.2,0.6c-0.1,0.3-0.2,0.5-0.3,0.7
			c0.2,0,0.4,0,0.6,0c0.2,0,0.4,0,0.5,0v1.3H228.1z M231.6,99.9h2.7l-0.8-2.1c-0.1-0.4-0.3-0.8-0.4-1.2c-0.1-0.4-0.2-0.8-0.2-1.1h0
			c0,0.2-0.1,0.5-0.2,0.8c-0.1,0.4-0.2,0.8-0.4,1.3L231.6,99.9z"/>
		<path d="M240,95.3c0-0.2,0-0.4,0-0.7s0-0.5,0-0.7c-0.2,0-0.4,0-0.6,0c-0.2,0-0.4,0-0.5,0v-1.2c0.5,0,0.9,0,1.3-0.1
			c0.3-0.1,0.6-0.1,0.8-0.2c0.2-0.1,0.3-0.1,0.4-0.2h0.9V97c0.4-0.3,0.8-0.6,1.1-0.7c0.4-0.1,0.7-0.2,1.1-0.2c0.7,0,1.2,0.2,1.7,0.5
			s0.9,0.8,1.2,1.4c0.3,0.6,0.4,1.4,0.4,2.2c0,0.9-0.2,1.7-0.5,2.4c-0.3,0.7-0.8,1.2-1.4,1.6c-0.6,0.4-1.3,0.6-2.1,0.6
			c-0.3,0-0.7-0.1-1.1-0.2c-0.5-0.1-0.9-0.4-1.3-0.8l-0.5,0.7h-1V95.3z M242.3,102.1c0,0.4,0.1,0.7,0.2,0.9c0.1,0.2,0.3,0.4,0.5,0.5
			c0.2,0.1,0.4,0.2,0.6,0.2c0.5,0,0.9-0.1,1.2-0.4c0.3-0.3,0.5-0.7,0.6-1.2c0.1-0.5,0.2-1,0.2-1.5c0-0.5-0.1-1-0.2-1.4
			s-0.3-0.8-0.6-1.1c-0.3-0.3-0.6-0.4-1-0.4c-0.3,0-0.5,0.1-0.8,0.2c-0.2,0.1-0.4,0.3-0.6,0.5V102.1z"/>
		<path d="M252.9,104.8c-0.5,0-0.9-0.1-1.4-0.2s-0.8-0.3-1.1-0.5l0,0.5h-1.2l-0.1-2.8h1.1c0,0.3,0.2,0.6,0.4,0.9
			c0.2,0.3,0.5,0.5,0.9,0.6c0.4,0.2,0.8,0.2,1.2,0.2c0.2,0,0.4,0,0.5-0.1c0.2-0.1,0.3-0.1,0.4-0.3c0.1-0.1,0.2-0.3,0.2-0.5
			c0-0.2-0.1-0.4-0.2-0.5c-0.1-0.1-0.4-0.3-0.6-0.4c-0.3-0.1-0.6-0.3-1-0.4c-0.3-0.1-0.7-0.3-1-0.4s-0.7-0.3-1-0.5
			c-0.3-0.2-0.5-0.5-0.7-0.8c-0.2-0.3-0.3-0.7-0.3-1.1c0-0.3,0.1-0.6,0.2-0.9s0.3-0.6,0.6-0.9c0.3-0.3,0.6-0.5,1-0.6
			c0.4-0.2,0.9-0.2,1.4-0.2c0.3,0,0.6,0,1,0.1c0.4,0.1,0.7,0.2,1,0.4v-0.5h1.2v2.9h-1.1c-0.1-0.4-0.2-0.7-0.4-1
			c-0.2-0.3-0.5-0.5-0.8-0.6c-0.3-0.1-0.7-0.2-1.1-0.2c-0.3,0-0.5,0.1-0.7,0.2s-0.3,0.4-0.3,0.7c0,0.3,0.1,0.5,0.3,0.6
			c0.2,0.1,0.4,0.3,0.7,0.4c0.3,0.1,0.6,0.2,1,0.3c0.6,0.2,1.1,0.4,1.5,0.7c0.4,0.3,0.8,0.6,1,0.9c0.3,0.4,0.4,0.8,0.4,1.3
			c0,0.6-0.1,1-0.4,1.4c-0.3,0.4-0.7,0.7-1.1,0.8C253.9,104.7,253.4,104.8,252.9,104.8z"/>
		<path d="M261.1,104.8c-0.8,0-1.5-0.2-2.1-0.5c-0.6-0.3-1.1-0.8-1.5-1.5s-0.6-1.4-0.6-2.2c0-0.9,0.2-1.7,0.6-2.4s0.9-1.2,1.5-1.6
			c0.6-0.4,1.3-0.6,2.1-0.6c0.8,0,1.5,0.2,2.1,0.5c0.6,0.3,1.1,0.8,1.5,1.5c0.4,0.6,0.5,1.4,0.5,2.3c0,0.9-0.2,1.7-0.5,2.4
			c-0.4,0.7-0.8,1.2-1.4,1.6C262.6,104.6,261.9,104.8,261.1,104.8z M261.1,103.6c0.4,0,0.8-0.2,1-0.5c0.2-0.3,0.4-0.7,0.5-1.1
			c0.1-0.4,0.1-0.9,0.1-1.4c0-0.4,0-0.8-0.1-1.2c-0.1-0.4-0.2-0.8-0.3-1.1c-0.1-0.3-0.3-0.6-0.5-0.8s-0.5-0.3-0.8-0.3
			c-0.4,0-0.8,0.2-1,0.5s-0.4,0.7-0.5,1.1c-0.1,0.4-0.2,0.9-0.2,1.4c0,0.6,0.1,1.1,0.2,1.6c0.1,0.5,0.3,1,0.6,1.3
			S260.7,103.7,261.1,103.6z"/>
		<path d="M266.1,103.5c0.3,0,0.5-0.1,0.7-0.2c0.1-0.1,0.2-0.3,0.3-0.5c0-0.2,0-0.5,0-0.8v-6.8c0-0.2,0-0.4,0-0.7c0-0.3,0-0.5,0-0.7
			c-0.2,0-0.4,0-0.6,0c-0.2,0-0.4,0-0.5,0v-1.2c0.5,0,0.9,0,1.3-0.1c0.3-0.1,0.6-0.1,0.8-0.2c0.2-0.1,0.3-0.1,0.4-0.2h0.9v9.8
			c0,0.2,0,0.4,0,0.6s0,0.5,0,0.8c0.2,0,0.4,0,0.6,0c0.2,0,0.4,0,0.5,0v1.2h-4.3V103.5z"/>
		<path d="M274.9,104.8c-0.7,0-1.2-0.1-1.6-0.4s-0.7-0.6-0.9-1.2c-0.2-0.5-0.3-1.2-0.3-2.1v-1.9c0-0.2,0-0.4,0-0.7
			c0-0.3,0-0.5,0-0.7c-0.2,0-0.4,0-0.6,0c-0.2,0-0.4,0-0.5,0v-1.2h0.2c0.7,0,1.2-0.1,1.6-0.2s0.6-0.2,0.8-0.3h0.9v5
			c0,0.7,0.1,1.2,0.3,1.6c0.2,0.3,0.5,0.5,0.9,0.5c0.3,0,0.6-0.1,0.9-0.2c0.3-0.2,0.5-0.3,0.7-0.6v-3.2c0-0.2,0-0.4,0-0.7
			c0-0.3,0-0.5,0-0.7c-0.2,0-0.4,0-0.6,0c-0.2,0-0.4,0-0.5,0v-1.2h0.4c0.5,0,1-0.1,1.4-0.2s0.6-0.2,0.8-0.3h0.9v5.7
			c0,0.2,0,0.4,0,0.6c0,0.3,0,0.5,0,0.8c0.2,0,0.4,0,0.6,0c0.2,0,0.4,0,0.5,0v1.2h-3.1c0-0.1,0-0.3,0-0.4c0-0.1,0-0.3-0.1-0.4
			c-0.3,0.3-0.7,0.5-1.1,0.8C275.9,104.7,275.4,104.8,274.9,104.8z"/>
		<path d="M284.9,104.8c-0.3,0-0.6,0-1-0.1c-0.3-0.1-0.6-0.2-0.8-0.4c-0.2-0.2-0.4-0.5-0.6-0.9s-0.2-1-0.2-1.7l0-4h-1.1v-1.4
			c0.3,0,0.7-0.1,1-0.3c0.3-0.2,0.6-0.5,0.8-0.9s0.4-0.7,0.5-1.1h1.2l0,2.3h2.1v1.3l-2.1,0l0,4c0,0.3,0,0.5,0.1,0.7
			c0,0.2,0.1,0.5,0.3,0.6c0.1,0.2,0.4,0.2,0.6,0.2c0.2,0,0.4-0.1,0.6-0.2c0.3-0.1,0.6-0.4,0.9-0.8l0.8,0.7c-0.3,0.4-0.6,0.8-0.9,1
			c-0.3,0.2-0.6,0.4-0.9,0.5c-0.3,0.1-0.5,0.2-0.8,0.2C285.1,104.8,285,104.8,284.9,104.8z"/>
		<path d="M292.3,104.8c-0.8,0-1.5-0.2-2.1-0.5c-0.6-0.4-1.1-0.9-1.4-1.5c-0.3-0.7-0.5-1.4-0.5-2.3c0-0.8,0.2-1.5,0.5-2.2
			c0.3-0.7,0.8-1.2,1.4-1.6s1.3-0.6,2.2-0.6c0.5,0,0.9,0.1,1.3,0.2c0.4,0.1,0.8,0.3,1.2,0.6c0.4,0.3,0.6,0.7,0.9,1.2
			c0.2,0.5,0.3,1.2,0.3,2l-5.4,0.1c0,0.6,0.1,1.1,0.2,1.6c0.1,0.5,0.4,0.8,0.7,1.1c0.3,0.3,0.8,0.4,1.4,0.4c0.2,0,0.5,0,0.7-0.1
			c0.3-0.1,0.6-0.2,0.9-0.4c0.3-0.2,0.6-0.4,0.8-0.7l0.7,0.7c-0.4,0.6-0.8,1-1.3,1.3c-0.4,0.3-0.9,0.5-1.3,0.6
			C293.1,104.8,292.7,104.8,292.3,104.8z M290.8,99.1h3c0-0.5-0.1-0.8-0.2-1.1s-0.3-0.5-0.5-0.6c-0.2-0.1-0.4-0.2-0.7-0.2
			c-0.5,0-0.9,0.2-1.1,0.5C291,98.1,290.9,98.5,290.8,99.1z"/>
		<path d="M210.3,124.5c-1.2,0-2.2-0.3-3-0.8c-0.8-0.5-1.5-1.2-1.9-2.1c-0.4-0.9-0.7-1.9-0.7-3c0-0.7,0.1-1.5,0.4-2.2
			c0.2-0.7,0.6-1.4,1.1-2c0.5-0.6,1.1-1.1,1.8-1.4c0.7-0.4,1.6-0.5,2.5-0.5c0.3,0,0.6,0,1,0.1c0.4,0.1,0.7,0.2,1.1,0.3
			c0.4,0.1,0.7,0.3,1,0.4l-0.1-0.7h1.3v3.8h-1.1c-0.1-0.6-0.3-1.1-0.6-1.5c-0.3-0.4-0.6-0.7-1.1-0.9s-0.9-0.3-1.4-0.3
			c-0.6,0-1.1,0.1-1.5,0.4c-0.4,0.3-0.8,0.6-1,1.1s-0.5,0.9-0.6,1.5s-0.2,1.1-0.2,1.7c0,0.9,0.1,1.8,0.4,2.5
			c0.3,0.7,0.6,1.3,1.2,1.7c0.5,0.4,1.1,0.6,1.9,0.6c0.2,0,0.5,0,0.7,0c0.3,0,0.6-0.1,0.9-0.1c0.3-0.1,0.5-0.1,0.7-0.2v-1.5
			c0-0.3,0-0.6,0-0.9c0-0.3,0-0.5,0-0.6c-0.2,0-0.4,0-0.7,0c-0.3,0-0.5,0-0.6,0v-1.3h4.4v1.1c-0.2,0-0.3,0-0.5,0.1
			c-0.1,0-0.3,0.1-0.3,0.2c-0.1,0.1-0.2,0.2-0.2,0.4s-0.1,0.4-0.1,0.8v2.6h-0.4c-0.3,0-0.6,0-1,0.1c-0.3,0.1-0.7,0.2-1,0.3
			c-0.3,0.1-0.7,0.2-1.1,0.3C211.2,124.5,210.8,124.5,210.3,124.5z"/>
		<path d="M217.2,123.2c0.3,0,0.5-0.1,0.7-0.2c0.1-0.1,0.2-0.3,0.3-0.5c0-0.2,0.1-0.5,0.1-0.8V119c0-0.2,0-0.4,0-0.7
			c0-0.2,0-0.5,0-0.7c-0.2,0-0.4,0-0.6,0c-0.2,0-0.4,0-0.5,0v-1.2h0.7c0.4,0,0.8-0.1,1.2-0.2s0.6-0.2,0.7-0.3h0.8c0,0.1,0,0.3,0,0.6
			c0,0.3,0,0.6,0,0.8c0.3-0.4,0.6-0.7,0.8-0.9c0.3-0.2,0.5-0.4,0.8-0.5s0.5-0.2,0.8-0.2c0.4,0,0.7,0.1,1,0.3s0.4,0.6,0.4,1
			c0,0.2,0,0.3-0.1,0.5s-0.2,0.3-0.4,0.5c-0.2,0.1-0.4,0.2-0.7,0.2c-0.2,0-0.4-0.1-0.7-0.2s-0.4-0.4-0.4-0.8c-0.2,0-0.4,0.1-0.7,0.3
			c-0.2,0.2-0.4,0.4-0.6,0.6c-0.2,0.2-0.3,0.5-0.4,0.7v2.7c0,0.2,0,0.4,0,0.6c0,0.3,0,0.5,0,0.8c0.2,0,0.4,0,0.6,0
			c0.2,0,0.4,0,0.5,0v1.2h-4.3V123.2z"/>
		<path d="M229.1,124.5c-0.8,0-1.5-0.2-2.1-0.5c-0.6-0.3-1.1-0.8-1.5-1.5s-0.6-1.4-0.6-2.2c0-0.9,0.2-1.7,0.6-2.4s0.9-1.2,1.5-1.6
			c0.6-0.4,1.3-0.6,2.1-0.6c0.8,0,1.5,0.2,2.1,0.5c0.6,0.3,1.1,0.8,1.5,1.5c0.4,0.6,0.5,1.4,0.5,2.3c0,0.9-0.2,1.7-0.5,2.4
			c-0.4,0.7-0.8,1.2-1.4,1.6C230.6,124.3,229.9,124.5,229.1,124.5z M229.1,123.4c0.4,0,0.8-0.2,1-0.5c0.2-0.3,0.4-0.7,0.5-1.1
			c0.1-0.4,0.1-0.9,0.1-1.4c0-0.4,0-0.8-0.1-1.2c-0.1-0.4-0.2-0.8-0.3-1.1c-0.1-0.3-0.3-0.6-0.5-0.8s-0.5-0.3-0.8-0.3
			c-0.4,0-0.8,0.2-1,0.5s-0.4,0.7-0.5,1.1c-0.1,0.4-0.2,0.9-0.2,1.4c0,0.6,0.1,1.1,0.2,1.6c0.1,0.5,0.3,1,0.6,1.3
			S228.7,123.4,229.1,123.4z"/>
		<path d="M236.8,124.3l-2-5.7c-0.1-0.3-0.2-0.5-0.2-0.6c0-0.1-0.1-0.3-0.1-0.4s0-0.2-0.1-0.3l-0.6,0v-1.2h3.9v1.1
			c-0.3,0-0.5,0.1-0.6,0.4c-0.1,0.3,0,0.5,0,0.9l0.6,2c0.1,0.2,0.1,0.5,0.2,0.8s0.1,0.5,0.2,0.8c0.1-0.2,0.1-0.5,0.2-0.8
			s0.2-0.6,0.3-1l1.2-4.1h1.8l1.3,4.5c0.1,0.2,0.1,0.5,0.2,0.7s0.1,0.5,0.2,0.7c0-0.2,0.1-0.5,0.2-0.7c0.1-0.3,0.1-0.5,0.2-0.7
			l0.6-2.1c0.1-0.3,0.2-0.5,0.2-0.7c0.1-0.2,0.1-0.4,0.2-0.6l-0.9,0.1v-1.2h3.1v1.1c-0.2,0-0.4,0.1-0.6,0.2
			c-0.2,0.1-0.3,0.3-0.4,0.5c-0.1,0.2-0.2,0.4-0.3,0.6c-0.1,0.2-0.1,0.3-0.2,0.5l-1.9,5.4h-1.7l-1.1-3.5c0-0.1-0.1-0.3-0.2-0.5
			c-0.1-0.2-0.1-0.5-0.2-0.7s-0.1-0.5-0.2-0.7c-0.1,0.3-0.1,0.7-0.2,1.1c-0.1,0.4-0.2,0.8-0.3,1.1c-0.1,0.3-0.2,0.6-0.2,0.7
			l-0.9,2.7H236.8z"/>
		<path d="M250.9,124.5c-0.3,0-0.6,0-1-0.1c-0.3-0.1-0.6-0.2-0.8-0.4c-0.2-0.2-0.4-0.5-0.6-0.9s-0.2-1-0.2-1.7l0-4h-1.1v-1.4
			c0.3,0,0.7-0.1,1-0.3c0.3-0.2,0.6-0.5,0.8-0.9s0.4-0.7,0.5-1.1h1.2l0,2.3h2.1v1.3l-2.1,0l0,4c0,0.3,0,0.5,0.1,0.7
			c0,0.2,0.1,0.5,0.3,0.6c0.1,0.2,0.4,0.2,0.6,0.2c0.2,0,0.4-0.1,0.6-0.2s0.6-0.4,0.9-0.8l0.8,0.7c-0.3,0.4-0.6,0.8-0.9,1
			s-0.6,0.4-0.9,0.5c-0.3,0.1-0.5,0.2-0.8,0.2C251.2,124.5,251,124.5,250.9,124.5z"/>
		<path d="M259.4,123.2c0.3,0,0.5-0.1,0.7-0.2c0.1-0.1,0.2-0.3,0.3-0.5s0.1-0.5,0.1-0.8l0-2.3c0-0.7-0.1-1.2-0.3-1.6
			c-0.2-0.3-0.5-0.5-1-0.5c-0.3,0-0.5,0.1-0.8,0.2c-0.3,0.1-0.5,0.3-0.7,0.4v3.7c0,0.2,0,0.4,0,0.6s0,0.5,0,0.8c0.2,0,0.4,0,0.6,0
			c0.2,0,0.4,0,0.5,0v1.2h-4.3v-1.1c0.3,0,0.5-0.1,0.7-0.2c0.1-0.1,0.2-0.3,0.3-0.5c0-0.2,0-0.5,0-0.8V115c0-0.2,0-0.4,0-0.7
			c0-0.3,0-0.5,0-0.7c-0.2,0-0.4,0-0.6,0c-0.2,0-0.4,0-0.5,0v-1.2c0.5,0,0.9,0,1.3-0.1c0.3-0.1,0.6-0.1,0.8-0.2
			c0.2-0.1,0.3-0.1,0.4-0.2h0.9v4.8c0.2-0.2,0.5-0.3,0.8-0.5s0.6-0.2,0.9-0.3s0.6-0.1,0.8-0.1c1,0,1.7,0.3,2.1,0.9
			c0.4,0.6,0.6,1.5,0.6,2.8v2.2c0,0.2,0,0.4,0,0.6c0,0.3,0,0.5,0,0.8c0.2,0,0.4,0,0.6,0c0.2,0,0.4,0,0.5,0v1.2h-4.3V123.2z"/>
	</g>
</g>
<circle class="st2" cx="41.1" cy="52.4" r="12.2"/>
<circle class="st3" cx="59.9" cy="52.4" r="12.2"/>
<circle class="st4" cx="78.7" cy="52.4" r="12.2"/>
<circle class="st5" cx="97.5" cy="52.4" r="12.2"/>
<circle class="st6" cx="116.3" cy="52.4" r="12.2"/>
<circle class="st7" cx="135.1" cy="52.4" r="12.2"/>
<g>
	<g>
		<path d="M61.6,106.3v-1.1c0.3,0,0.5,0,0.6-0.1c0.2-0.1,0.3-0.2,0.4-0.4c0.1-0.2,0.1-0.5,0.1-1v-6.3c0-0.3,0-0.6,0-0.9
			c0-0.3,0-0.5,0-0.6c-0.2,0-0.4,0-0.7,0s-0.5,0-0.6,0v-1.3c0.8,0,1.6,0,2.3,0c0.8,0,1.6,0,2.3,0c1,0,1.8,0.1,2.5,0.3
			c0.7,0.2,1.3,0.6,1.6,1.1c0.4,0.5,0.6,1.2,0.5,2.1c0,0.5-0.1,0.9-0.3,1.3c-0.2,0.4-0.5,0.8-1,1.1c-0.4,0.3-1,0.6-1.6,0.8
			c0.2,0.1,0.4,0.2,0.6,0.4c0.2,0.2,0.4,0.4,0.5,0.6l0.8,1.2c0.2,0.4,0.5,0.7,0.6,0.9c0.2,0.2,0.4,0.4,0.6,0.5
			c0.2,0.1,0.4,0.2,0.6,0.2v1.1h-2.7c-0.2-0.1-0.4-0.3-0.6-0.6s-0.4-0.6-0.6-0.9l-1.2-2c-0.1-0.2-0.3-0.4-0.4-0.6
			c-0.1-0.2-0.2-0.3-0.3-0.4c-0.2,0-0.3,0-0.4,0c-0.1,0-0.3,0-0.4,0v1.8c0,0.3,0,0.6,0,0.9c0,0.3,0,0.5,0,0.6c0.1,0,0.3,0,0.5,0
			c0.2,0,0.4,0,0.6,0c0.2,0,0.3,0,0.4,0v1.3H61.6z M66,100.6c0.6,0,1.1-0.1,1.5-0.3s0.6-0.5,0.8-0.8c0.2-0.4,0.3-0.8,0.3-1.4
			c0-0.5-0.1-0.9-0.2-1.2c-0.2-0.3-0.4-0.5-0.6-0.7c-0.2-0.1-0.5-0.2-0.7-0.3c-0.3,0-0.5-0.1-0.6-0.1c-0.2,0-0.4,0-0.6,0.1
			c-0.2,0.1-0.3,0.2-0.4,0.4c-0.1,0.2-0.1,0.5-0.1,0.9v3.4c0.1,0,0.2,0,0.4,0C65.7,100.6,65.8,100.6,66,100.6z"/>
		<path d="M76.6,106.6c-0.8,0-1.5-0.2-2.1-0.5c-0.6-0.4-1.1-0.9-1.4-1.5c-0.3-0.7-0.5-1.4-0.5-2.3c0-0.8,0.2-1.5,0.5-2.2
			c0.3-0.7,0.8-1.2,1.4-1.6s1.3-0.6,2.2-0.6c0.5,0,0.9,0.1,1.3,0.2c0.4,0.1,0.8,0.3,1.2,0.6c0.4,0.3,0.6,0.7,0.9,1.2
			c0.2,0.5,0.3,1.2,0.3,2L75,102c0,0.6,0.1,1.1,0.2,1.6c0.1,0.5,0.4,0.8,0.7,1.1c0.3,0.3,0.8,0.4,1.4,0.4c0.2,0,0.5,0,0.7-0.1
			c0.3-0.1,0.6-0.2,0.9-0.4c0.3-0.2,0.6-0.4,0.8-0.7l0.7,0.7c-0.4,0.6-0.8,1-1.3,1.3c-0.4,0.3-0.9,0.5-1.3,0.6S77,106.6,76.6,106.6z
			 M75.1,100.8h3c0-0.5-0.1-0.8-0.2-1.1c-0.1-0.3-0.3-0.5-0.5-0.6C77.3,99,77,99,76.8,99c-0.5,0-0.9,0.2-1.1,0.5
			C75.4,99.8,75.2,100.3,75.1,100.8z"/>
		<path d="M85.1,110.8c-0.9,0-1.7-0.1-2.2-0.3c-0.5-0.2-0.9-0.5-1.2-0.8c-0.2-0.3-0.3-0.7-0.3-1.1c0-0.2,0-0.5,0.1-0.7
			c0.1-0.2,0.3-0.5,0.5-0.7c0.2-0.2,0.5-0.4,0.9-0.5c-0.4-0.1-0.8-0.3-0.9-0.6c-0.2-0.3-0.3-0.6-0.3-0.9c0-0.3,0.1-0.6,0.3-1
			c0.2-0.4,0.6-0.6,1.2-0.8c-0.5-0.2-0.8-0.5-1.1-0.9s-0.5-0.9-0.5-1.4c0-0.7,0.1-1.2,0.5-1.8c0.4-0.5,0.8-0.9,1.4-1.2
			c0.6-0.3,1.2-0.4,1.8-0.4c0.3,0,0.6,0,1,0.1c0.4,0.1,0.7,0.2,1,0.4c0.1-0.3,0.3-0.7,0.5-1c0.2-0.3,0.4-0.5,0.7-0.7
			c0.3-0.2,0.6-0.3,0.9-0.3c0.4,0,0.7,0.1,0.8,0.3s0.3,0.4,0.3,0.8c0,0.1,0,0.3-0.1,0.4c-0.1,0.2-0.2,0.3-0.3,0.4s-0.4,0.2-0.6,0.2
			c-0.2,0-0.3-0.1-0.5-0.2c-0.2-0.1-0.3-0.3-0.3-0.5c-0.1,0-0.3,0.2-0.4,0.4c-0.1,0.2-0.2,0.5-0.2,0.6c0.3,0.3,0.6,0.6,0.7,1
			c0.2,0.4,0.2,0.8,0.2,1.2c0,0.6-0.2,1.2-0.5,1.7c-0.4,0.5-0.8,0.9-1.4,1.2s-1.2,0.4-1.8,0.4c-0.1,0-0.3,0-0.5,0
			c-0.2,0-0.3,0-0.5,0c-0.2,0-0.4,0-0.6,0.1s-0.2,0.2-0.2,0.4c0,0.2,0.2,0.4,0.5,0.4c0.3,0.1,0.9,0.1,1.6,0.2c0.8,0,1.6,0.2,2.2,0.3
			c0.6,0.2,1.1,0.4,1.5,0.8c0.4,0.4,0.5,0.9,0.5,1.5c0,0.5-0.1,0.9-0.4,1.2c-0.3,0.4-0.6,0.7-1.1,0.9c-0.5,0.2-1,0.4-1.5,0.6
			C86.2,110.7,85.7,110.8,85.1,110.8z M85.6,109.6c0.8,0,1.4-0.1,1.8-0.4s0.6-0.6,0.6-0.9c0-0.2-0.1-0.4-0.3-0.6
			c-0.2-0.1-0.4-0.3-0.8-0.4c-0.3-0.1-0.8-0.1-1.3-0.2c-0.2,0-0.5,0-0.8,0s-0.6,0-0.8-0.1c-0.2,0.1-0.3,0.3-0.4,0.5
			c-0.1,0.2-0.1,0.4-0.1,0.6c0,0.4,0.2,0.8,0.6,1.1C84.4,109.5,84.9,109.6,85.6,109.6z M85.4,103.1c0.3,0,0.5-0.1,0.7-0.3
			s0.4-0.4,0.5-0.7c0.1-0.3,0.2-0.6,0.2-0.9c0-0.4,0-0.8-0.1-1.1c-0.1-0.4-0.2-0.6-0.5-0.9c-0.2-0.2-0.5-0.3-0.8-0.3
			c-0.4,0-0.8,0.2-1,0.6c-0.2,0.4-0.4,0.8-0.4,1.3c0,0.4,0.1,0.7,0.2,1.1c0.1,0.3,0.3,0.6,0.5,0.8C84.8,103,85.1,103.1,85.4,103.1z"
			/>
		<path d="M90.7,105.2c0.3,0,0.5-0.1,0.7-0.2c0.1-0.1,0.2-0.3,0.3-0.5c0-0.2,0.1-0.5,0.1-0.8V101c0-0.2,0-0.4,0-0.7
			c0-0.3,0-0.5,0-0.7c-0.2,0-0.4,0-0.6,0c-0.2,0-0.4,0-0.5,0v-1.2c0.5,0,0.9,0,1.3-0.1c0.4-0.1,0.6-0.1,0.8-0.2
			c0.2-0.1,0.3-0.1,0.4-0.2H94v5.7c0,0.2,0,0.4,0,0.6c0,0.3,0,0.5,0,0.8c0.2,0,0.4,0,0.6,0c0.2,0,0.4,0,0.5,0v1.2h-4.3V105.2z
			 M92.8,96.6c-0.4,0-0.7-0.1-0.9-0.4c-0.2-0.3-0.4-0.6-0.4-1c0-0.4,0.1-0.7,0.4-1c0.3-0.3,0.5-0.4,0.9-0.4c0.4,0,0.6,0.1,0.9,0.4
			c0.2,0.3,0.4,0.6,0.4,1c0,0.4-0.1,0.7-0.3,1C93.5,96.5,93.2,96.6,92.8,96.6z"/>
		<path d="M100.1,106.6c-0.8,0-1.5-0.2-2.1-0.5c-0.6-0.3-1.1-0.8-1.5-1.5s-0.6-1.4-0.6-2.2c0-0.9,0.2-1.7,0.6-2.4s0.9-1.2,1.5-1.6
			c0.6-0.4,1.3-0.6,2.1-0.6c0.8,0,1.5,0.2,2.1,0.5c0.6,0.3,1.1,0.8,1.5,1.5c0.4,0.6,0.5,1.4,0.5,2.3c0,0.9-0.2,1.7-0.5,2.4
			c-0.4,0.7-0.8,1.2-1.4,1.6C101.7,106.4,100.9,106.6,100.1,106.6z M100.2,105.4c0.4,0,0.8-0.2,1-0.5c0.2-0.3,0.4-0.7,0.5-1.1
			c0.1-0.4,0.1-0.9,0.1-1.4c0-0.4,0-0.8-0.1-1.2c-0.1-0.4-0.2-0.8-0.3-1.1c-0.1-0.3-0.3-0.6-0.5-0.8s-0.5-0.3-0.8-0.3
			c-0.4,0-0.8,0.2-1,0.5s-0.4,0.7-0.5,1.1c-0.1,0.4-0.2,0.9-0.2,1.4c0,0.6,0.1,1.1,0.2,1.6c0.1,0.5,0.3,1,0.6,1.3
			S99.8,105.4,100.2,105.4z"/>
		<path d="M105.4,106.3v-1.1c0.3,0,0.5-0.1,0.7-0.2c0.1-0.1,0.2-0.3,0.3-0.5c0-0.2,0.1-0.5,0.1-0.8V101c0-0.2,0-0.4,0-0.7
			c0-0.2,0-0.5,0-0.7c-0.2,0-0.4,0-0.6,0c-0.2,0-0.4,0-0.5,0v-1.2c0.5,0,0.9,0,1.3-0.1c0.4-0.1,0.6-0.1,0.8-0.2
			c0.2-0.1,0.3-0.1,0.4-0.2h0.8c0,0.1,0,0.2,0,0.3c0,0.1,0,0.1,0,0.2c0,0.1,0,0.2,0.1,0.3c0.2-0.2,0.5-0.3,0.8-0.5
			c0.3-0.1,0.6-0.2,0.9-0.3c0.3-0.1,0.5-0.1,0.8-0.1c1,0,1.7,0.3,2.1,0.9c0.4,0.6,0.6,1.5,0.6,2.8v2.2c0,0.2,0,0.4,0,0.6
			c0,0.3,0,0.5,0,0.8c0.2,0,0.4,0,0.6,0c0.2,0,0.4,0,0.5,0v1.2h-4.3v-1.1c0.3,0,0.5-0.1,0.7-0.2c0.1-0.1,0.2-0.3,0.3-0.5
			c0-0.2,0.1-0.5,0.1-0.8l0-2.3c0-0.7-0.1-1.2-0.3-1.6c-0.2-0.3-0.5-0.5-1-0.5c-0.3,0-0.5,0.1-0.8,0.2c-0.3,0.1-0.5,0.3-0.7,0.4
			c0,0.2,0,0.3,0,0.5c0,0.2,0,0.3,0,0.5v2.8c0,0.2,0,0.4,0,0.6c0,0.3,0,0.5,0,0.8c0.2,0,0.4,0,0.6,0c0.2,0,0.4,0,0.5,0v1.2H105.4z"
			/>
	</g>
</g>
</svg>
