<?xml version="1.0" encoding="utf-8"?>
<!-- Generator: Adobe Illustrator 26.5.2, SVG Export Plug-In . SVG Version: 6.00 Build 0)  -->
<svg version="1.1" id="Layer_1" xmlns="http://www.w3.org/2000/svg" xmlns:xlink="http://www.w3.org/1999/xlink" x="0px" y="0px"
	 viewBox="0 0 560 200" style="enable-background:new 0 0 560 200;" xml:space="preserve">
<style type="text/css">
	.st0{opacity:0.4;fill:#77858D;stroke:#1C3441;stroke-width:0.25;}
	.st1{fill:#77858D;stroke:#1C3441;stroke-width:0.25;}
	.st2{fill:#77858D;}
	.st3{fill:none;stroke:#1C3441;stroke-width:0.25;stroke-linecap:round;stroke-linejoin:round;}
	.st4{fill:none;stroke:#1C3441;stroke-width:0.25;stroke-linecap:round;stroke-linejoin:round;stroke-dasharray:1.9936,1.9936;}
	.st5{fill:none;stroke:#1C3441;stroke-width:0.25;stroke-linecap:round;stroke-linejoin:round;stroke-dasharray:1.989,1.989;}
	.st6{fill:none;stroke:#1C3441;stroke-width:0.25;stroke-linecap:round;stroke-linejoin:round;stroke-dasharray:1.9909,1.9909;}
	.st7{fill:none;stroke:#1C3441;stroke-width:0.25;stroke-linecap:round;stroke-linejoin:round;stroke-dasharray:1.9935,1.9935;}
	.st8{fill:none;stroke:#1C3441;stroke-width:0.25;stroke-linecap:round;stroke-linejoin:round;stroke-dasharray:2.0027,2.0027;}
	.st9{fill:none;stroke:#1C3441;stroke-width:0.25;stroke-linecap:round;stroke-linejoin:round;stroke-dasharray:1.9987,1.9987;}
	.st10{fill:none;stroke:#1C3441;stroke-width:0.25;stroke-linecap:round;stroke-linejoin:round;stroke-dasharray:2.0042,2.0042;}
	.st11{fill:none;stroke:#1C3441;stroke-width:0.25;stroke-linecap:round;stroke-linejoin:round;stroke-dasharray:1.9997,1.9997;}
	.st12{fill:none;stroke:#000000;stroke-miterlimit:10;}
	.st13{fill:#77858D;stroke:#1C3441;stroke-linecap:round;stroke-linejoin:round;}
	.st14{fill:none;stroke:#000000;stroke-linecap:round;stroke-linejoin:round;stroke-miterlimit:10;stroke-dasharray:2,2;}
</style>
<g>
	<g>
		<path class="st0" d="M168,158.2c0-27.2,28.6-104.5,111-104.5c89.5,0,111,104.5,247,104.5H168z"/>
		<path class="st1" d="M168,158.2c0-24.1,28.6-92.9,111-92.9c89.5,0,111,92.9,247,92.9H168z"/>
		<g>
			<path class="st2" d="M168,158.2c0-21.1,28.6-81.3,111-81.3c89.5,0,111,81.3,247,81.3H168z"/>
			<g>
				<path class="st3" d="M169,158.2h-1c0-0.3,0-0.7,0-1"/>
				<path class="st4" d="M168.2,155.3C170.6,132,200.3,77,279,77c89.1,0,110.8,80.5,245,81.2"/>
				<path class="st3" d="M525.1,158.2c0.3,0,0.7,0,1,0L525.1,158.2"/>
				<line class="st5" x1="523.1" y1="158.2" x2="170" y2="158.2"/>
			</g>
		</g>
		<g>
			<path class="st2" d="M168,158.2c0-18.1,28.6-69.6,111-69.6c89.5,0,111,69.6,247,69.6H168z"/>
			<g>
				<path class="st3" d="M169,158.2h-1c0-0.3,0-0.7,0-1"/>
				<path class="st6" d="M168.3,155.3c2.8-20.2,32.6-66.7,110.8-66.7c89.1,0,110.8,69,245,69.6"/>
				<path class="st3" d="M525.1,158.2c0.3,0,0.7,0,1,0L525.1,158.2"/>
				<line class="st5" x1="523.1" y1="158.2" x2="170" y2="158.2"/>
			</g>
		</g>
		<g>
			<path class="st2" d="M168,158.2c0-15.1,28.6-58,111-58c89.5,0,111,58,247,58H168z"/>
			<g>
				<path class="st3" d="M169,158.2h-1c0-0.3,0-0.7,0-1"/>
				<path class="st7" d="M168.3,155.3c3.3-17.1,33.2-55.1,110.7-55.1c89.1,0,110.8,57.5,245,58"/>
				<path class="st3" d="M525.1,158.2c0.3,0,0.7,0,1,0L525.1,158.2"/>
				<line class="st5" x1="523.1" y1="158.2" x2="170" y2="158.2"/>
			</g>
		</g>
		<g>
			<path class="st2" d="M168,158.2c0-12.1,28.6-46.4,111-46.4c89.5,0,111,46.4,247,46.4H168z"/>
			<g>
				<path class="st3" d="M169,158.2h-1c0-0.3,0-0.6,0.1-1"/>
				<path class="st8" d="M168.5,155.3c4-13.9,34.1-43.5,110.5-43.5c89.1,0,110.8,46,245,46.4"/>
				<path class="st3" d="M525.1,158.2c0.3,0,0.7,0,1,0L525.1,158.2"/>
				<line class="st5" x1="523.1" y1="158.2" x2="170" y2="158.2"/>
			</g>
		</g>
		<g>
			<path class="st2" d="M168,158.2c0-9.1,28.6-34.8,111-34.8c89.5,0,111,34.8,247,34.8H168z"/>
			<g>
				<path class="st3" d="M169,158.2h-1c0-0.3,0-0.6,0.1-1"/>
				<path class="st9" d="M168.8,155.4c5-10.7,35.4-31.9,110.2-31.9c89.1,0,110.8,34.5,245,34.8"/>
				<path class="st3" d="M525.1,158.2c0.3,0,0.7,0,1,0L525.1,158.2"/>
				<line class="st5" x1="523.1" y1="158.2" x2="170" y2="158.2"/>
			</g>
		</g>
		<g>
			<path class="st2" d="M168,158.2c0-6,28.6-23.2,111-23.2c89.5,0,111,23.2,247,23.2H168z"/>
			<g>
				<path class="st3" d="M169,158.2h-1c0-0.3,0.1-0.6,0.2-1"/>
				<path class="st10" d="M169.3,155.6c6.4-7.3,37.3-20.6,109.7-20.6c89.1,0,110.8,23,245,23.2"/>
				<path class="st3" d="M525.1,158.2c0.3,0,0.7,0,1,0L525.1,158.2"/>
				<line class="st5" x1="523.1" y1="158.2" x2="170" y2="158.2"/>
			</g>
		</g>
		<g>
			<path class="st2" d="M168,158.2c0-3,28.6-11.6,111-11.6c89.5,0,111,11.6,247,11.6H168z"/>
			<g>
				<path class="st3" d="M169,158.2h-1c0-0.2,0.2-0.5,0.5-0.8"/>
				<path class="st11" d="M170.3,156.4c8.2-3.7,39.4-9.8,108.7-9.8c89.1,0,110.8,11.5,245,11.6"/>
				<path class="st3" d="M525.1,158.2c0.3,0,0.7,0,1,0L525.1,158.2"/>
				<line class="st5" x1="523.1" y1="158.2" x2="170" y2="158.2"/>
			</g>
		</g>
	</g>
	<path class="st12" d="M162.3,53.8"/>
</g>
<polygon class="st13" points="88.5,75.3 88.5,56 71.8,46.3 55,56 55,75.3 71.8,85 "/>
<g>
	<g>
		<g>
			<path d="M48.5,112.3v-0.9c0.2,0,0.4,0,0.5-0.1c0.1,0,0.3-0.2,0.3-0.3c0.1-0.2,0.1-0.4,0.1-0.8v-5.4c0-0.3,0-0.5,0-0.7
				c0-0.2,0-0.4,0-0.5c-0.1,0-0.3,0-0.6,0s-0.4,0-0.5,0v-1.1h7l0.1,2.7h-0.9c0-0.5-0.1-0.9-0.3-1.2c-0.2-0.3-0.4-0.4-0.7-0.5
				c-0.3-0.1-0.5-0.1-0.8-0.1l-0.5,0c-0.2,0-0.4,0-0.5,0.1c-0.1,0.1-0.2,0.2-0.3,0.3s-0.1,0.4-0.1,0.8v2.4H53l-0.1-1.2H54v3.4h-0.9
				c0-0.4-0.1-0.7-0.2-0.9c-0.1-0.2-0.3-0.3-0.5-0.3s-0.4-0.1-0.7,0h-0.2v2c0,0.3,0,0.5,0,0.7s0,0.4,0,0.5c0.1,0,0.2,0,0.4,0
				c0.2,0,0.3,0,0.5,0c0.2,0,0.3,0,0.3,0v1.1H48.5z"/>
			<path d="M59.7,112.5c-0.7,0-1.3-0.2-1.8-0.5c-0.5-0.3-0.9-0.7-1.2-1.3c-0.3-0.6-0.4-1.2-0.4-2c0-0.7,0.1-1.3,0.4-1.8
				c0.3-0.6,0.7-1,1.2-1.4s1.1-0.5,1.8-0.5c0.4,0,0.8,0.1,1.1,0.2c0.4,0.1,0.7,0.3,1,0.6c0.3,0.3,0.5,0.6,0.7,1.1
				c0.2,0.4,0.3,1,0.3,1.7l-4.6,0.1c0,0.5,0.1,1,0.2,1.4s0.3,0.7,0.6,1c0.3,0.2,0.7,0.3,1.2,0.3c0.2,0,0.4,0,0.6-0.1
				s0.5-0.2,0.7-0.3c0.2-0.2,0.5-0.4,0.7-0.6l0.6,0.6c-0.3,0.5-0.7,0.8-1.1,1.1c-0.4,0.2-0.8,0.4-1.1,0.5S60,112.5,59.7,112.5z
				 M58.4,107.7h2.6c0-0.4-0.1-0.7-0.2-0.9c-0.1-0.2-0.2-0.4-0.4-0.5s-0.4-0.2-0.6-0.2c-0.4,0-0.7,0.1-1,0.4
				C58.6,106.8,58.4,107.2,58.4,107.7z"/>
			<path d="M63.9,112.3v-0.9c0.3,0,0.4-0.1,0.6-0.2c0.1-0.1,0.2-0.2,0.2-0.4s0-0.4,0-0.7v-2.4c0-0.2,0-0.4,0-0.6s0-0.4,0-0.6
				c-0.1,0-0.3,0-0.5,0c-0.2,0-0.4,0-0.5,0v-1.1c0.4,0,0.8,0,1.1-0.1s0.5-0.1,0.7-0.2s0.3-0.1,0.4-0.2h0.7c0,0.1,0,0.2,0,0.4
				c0,0.1,0,0.3,0,0.3c0.3-0.2,0.7-0.4,1-0.6c0.4-0.1,0.7-0.2,1-0.2c0.4,0,0.8,0.1,1.1,0.2c0.3,0.2,0.5,0.4,0.7,0.7
				c0.3-0.3,0.7-0.5,1.1-0.7c0.4-0.2,0.8-0.3,1.2-0.3c0.8,0,1.3,0.2,1.7,0.7c0.4,0.4,0.6,1.2,0.6,2.3v2.1c0,0.1,0,0.3,0,0.6
				s0,0.5,0,0.7c0.1,0,0.3,0,0.5,0c0.2,0,0.3,0,0.4,0v1.1h-3.5v-0.9c0.2,0,0.4-0.1,0.5-0.2s0.2-0.2,0.2-0.4s0-0.4,0-0.7V108
				c0-0.6-0.1-1-0.3-1.3c-0.2-0.2-0.4-0.4-0.8-0.4c-0.2,0-0.5,0-0.7,0.1c-0.2,0.1-0.4,0.2-0.6,0.3c0,0.2,0.1,0.4,0.1,0.6
				c0,0.2,0,0.5,0,0.7c0,0.3,0,0.6,0,0.9c0,0.3,0,0.6,0,0.9c0,0.1,0,0.3,0,0.6c0,0.2,0,0.5,0,0.7c0.1,0,0.3,0,0.5,0
				c0.2,0,0.3,0,0.4,0v1.1h-3.6v-0.9c0.2,0,0.4-0.1,0.5-0.2s0.2-0.2,0.2-0.4c0-0.2,0-0.4,0-0.7l0-2.2c0-0.6-0.1-1-0.3-1.2
				c-0.2-0.2-0.4-0.3-0.7-0.4c-0.2,0-0.5,0.1-0.7,0.2s-0.4,0.2-0.5,0.4c0,0.1,0,0.2,0,0.3s0,0.2,0,0.4v2.5c0,0.1,0,0.3,0,0.6
				s0,0.5,0,0.7c0.1,0,0.3,0,0.5,0c0.2,0,0.3,0,0.4,0v1.1H63.9z"/>
			<path d="M80.7,112.3c0-0.1,0-0.2,0-0.3c0-0.1,0-0.2,0-0.3c-0.3,0.3-0.7,0.5-1,0.7c-0.4,0.1-0.7,0.2-1.1,0.2
				c-0.6,0-1.1-0.2-1.4-0.5s-0.5-0.8-0.5-1.3c0-0.4,0.1-0.8,0.3-1.1c0.2-0.3,0.5-0.6,0.9-0.8c0.4-0.2,0.8-0.4,1.3-0.5
				s0.9-0.2,1.4-0.2v-0.7c0-0.2,0-0.5-0.1-0.7c-0.1-0.2-0.2-0.3-0.3-0.5c-0.1-0.1-0.3-0.2-0.6-0.2c-0.2,0-0.4,0-0.5,0.1
				c-0.2,0.1-0.3,0.2-0.4,0.3c0.1,0.1,0.1,0.2,0.1,0.3c0,0.1,0,0.2,0,0.3c0,0.2-0.1,0.4-0.2,0.6c-0.1,0.2-0.4,0.3-0.7,0.3
				c-0.3,0-0.5-0.1-0.6-0.3c-0.1-0.2-0.2-0.4-0.2-0.7c0-0.4,0.1-0.7,0.4-1c0.3-0.3,0.6-0.5,1.1-0.6c0.4-0.2,0.9-0.2,1.5-0.2
				c0.8,0,1.5,0.2,1.9,0.6s0.7,1.1,0.7,2c0,0.3,0,0.6,0,0.8s0,0.4,0,0.7c0,0.2,0,0.5,0,0.8c0,0.1,0,0.3,0,0.6c0,0.2,0,0.5,0,0.7
				c0.2,0,0.3,0,0.5,0c0.2,0,0.3,0,0.4,0v1.1H80.7z M80.5,109.1c-0.3,0-0.5,0.1-0.7,0.1s-0.4,0.2-0.6,0.3c-0.2,0.1-0.3,0.2-0.4,0.4
				c-0.1,0.2-0.1,0.3-0.1,0.5c0,0.3,0.1,0.4,0.3,0.6c0.2,0.1,0.3,0.2,0.5,0.2c0.2,0,0.4,0,0.6-0.1c0.2-0.1,0.4-0.2,0.5-0.4
				c0-0.1,0-0.2,0-0.3c0-0.1,0-0.2,0-0.3c0-0.2,0-0.3,0-0.5S80.5,109.3,80.5,109.1z"/>
			<path d="M83.9,111.4c0.3,0,0.5-0.1,0.6-0.2s0.2-0.2,0.2-0.4c0-0.2,0-0.4,0-0.7v-5.8c0-0.2,0-0.4,0-0.6c0-0.2,0-0.4,0-0.6
				c-0.1,0-0.3,0-0.5,0s-0.4,0-0.5,0v-1.1c0.4,0,0.8,0,1.1-0.1c0.3,0,0.5-0.1,0.7-0.2c0.2-0.1,0.3-0.1,0.4-0.2h0.8v8.3
				c0,0.1,0,0.3,0,0.6s0,0.5,0,0.7c0.2,0,0.3,0,0.5,0c0.2,0,0.3,0,0.4,0v1.1h-3.7V111.4z"/>
			<path d="M91.8,112.5c-0.7,0-1.3-0.2-1.8-0.5c-0.5-0.3-0.9-0.7-1.2-1.3c-0.3-0.6-0.4-1.2-0.4-2c0-0.7,0.1-1.3,0.4-1.8
				c0.3-0.6,0.7-1,1.2-1.4s1.1-0.5,1.8-0.5c0.4,0,0.8,0.1,1.1,0.2c0.4,0.1,0.7,0.3,1,0.6c0.3,0.3,0.5,0.6,0.7,1.1
				c0.2,0.4,0.3,1,0.3,1.7l-4.6,0.1c0,0.5,0.1,1,0.2,1.4s0.3,0.7,0.6,1c0.3,0.2,0.7,0.3,1.2,0.3c0.2,0,0.4,0,0.6-0.1
				s0.5-0.2,0.7-0.3c0.2-0.2,0.5-0.4,0.7-0.6l0.6,0.6c-0.3,0.5-0.7,0.8-1.1,1.1c-0.4,0.2-0.8,0.4-1.1,0.5S92.1,112.5,91.8,112.5z
				 M90.5,107.7H93c0-0.4-0.1-0.7-0.2-0.9c-0.1-0.2-0.2-0.4-0.4-0.5s-0.4-0.2-0.6-0.2c-0.4,0-0.7,0.1-1,0.4
				C90.7,106.8,90.5,107.2,90.5,107.7z"/>
			<path d="M44.6,129.1v-0.9c0.2,0,0.4,0,0.5-0.1c0.1,0,0.3-0.2,0.3-0.3c0.1-0.2,0.1-0.4,0.1-0.8v-5.4c0-0.3,0-0.5,0-0.7
				c0-0.2,0-0.4,0-0.5c-0.1,0-0.3,0-0.6,0s-0.4,0-0.5,0v-1.1h4v0.9c-0.2,0-0.4,0-0.5,0.1c-0.1,0-0.3,0.2-0.3,0.3
				c-0.1,0.2-0.1,0.4-0.1,0.8v5.4c0,0.3,0,0.5,0,0.7c0,0.2,0,0.4,0,0.5h1.9c0.6,0,1-0.2,1.3-0.6c0.3-0.4,0.5-1,0.5-1.7h0.9l-0.1,3.4
				H44.6z"/>
			<path d="M53,128.2c0.3,0,0.4-0.1,0.6-0.2c0.1-0.1,0.2-0.2,0.2-0.4s0-0.4,0-0.7v-2.3c0-0.2,0-0.4,0-0.6c0-0.2,0-0.4,0-0.6
				c-0.1,0-0.3,0-0.5,0c-0.2,0-0.4,0-0.5,0v-1.1c0.4,0,0.8,0,1.1-0.1s0.5-0.1,0.7-0.2s0.3-0.1,0.4-0.2h0.8v4.9c0,0.1,0,0.3,0,0.6
				s0,0.5,0,0.7c0.1,0,0.3,0,0.5,0c0.2,0,0.3,0,0.4,0v1.1H53V128.2z M54.7,120.9c-0.3,0-0.6-0.1-0.8-0.3c-0.2-0.2-0.3-0.5-0.3-0.8
				s0.1-0.6,0.3-0.8c0.2-0.2,0.5-0.3,0.8-0.3c0.3,0,0.5,0.1,0.7,0.3c0.2,0.2,0.3,0.5,0.3,0.8s-0.1,0.6-0.3,0.8
				C55.3,120.8,55,120.9,54.7,120.9z"/>
			<path d="M60.3,129.3c-0.3,0-0.6,0-0.8-0.1c-0.3-0.1-0.5-0.2-0.7-0.4c-0.2-0.2-0.4-0.5-0.5-0.8c-0.1-0.4-0.2-0.8-0.2-1.4l0-3.4h-1
				v-1.2c0.3,0,0.6-0.1,0.8-0.3c0.3-0.2,0.5-0.4,0.7-0.7s0.3-0.6,0.4-0.9h1l0,2h1.8v1.1l-1.8,0l0,3.4c0,0.2,0,0.4,0.1,0.6
				s0.1,0.4,0.2,0.5c0.1,0.1,0.3,0.2,0.5,0.2c0.1,0,0.3,0,0.5-0.1c0.2-0.1,0.5-0.3,0.7-0.7l0.7,0.6c-0.3,0.4-0.5,0.7-0.8,0.9
				c-0.3,0.2-0.5,0.4-0.8,0.4c-0.2,0.1-0.5,0.1-0.7,0.2C60.5,129.3,60.4,129.3,60.3,129.3z"/>
			<path d="M66.6,129.3c-0.7,0-1.3-0.2-1.8-0.5c-0.5-0.3-0.9-0.7-1.2-1.3c-0.3-0.6-0.4-1.2-0.4-2c0-0.7,0.1-1.3,0.4-1.8
				c0.3-0.6,0.7-1,1.2-1.4s1.1-0.5,1.8-0.5c0.4,0,0.8,0.1,1.1,0.2c0.4,0.1,0.7,0.3,1,0.6c0.3,0.3,0.5,0.6,0.7,1.1
				c0.2,0.4,0.3,1,0.3,1.7l-4.6,0.1c0,0.5,0.1,1,0.2,1.4s0.3,0.7,0.6,1c0.3,0.2,0.7,0.3,1.2,0.3c0.2,0,0.4,0,0.6-0.1
				s0.5-0.2,0.7-0.3c0.2-0.2,0.5-0.4,0.7-0.6l0.6,0.6c-0.3,0.5-0.7,0.8-1.1,1.1c-0.4,0.2-0.8,0.4-1.1,0.5S66.9,129.3,66.6,129.3z
				 M65.3,124.5h2.6c0-0.4-0.1-0.7-0.2-0.9c-0.1-0.2-0.2-0.4-0.4-0.5s-0.4-0.2-0.6-0.2c-0.4,0-0.7,0.1-1,0.4
				C65.5,123.6,65.4,124,65.3,124.5z"/>
			<path d="M70.8,128.2c0.3,0,0.4-0.1,0.6-0.2c0.1-0.1,0.2-0.2,0.2-0.4s0-0.4,0-0.7v-2.4c0-0.2,0-0.4,0-0.6s0-0.4,0-0.6
				c-0.1,0-0.3,0-0.5,0c-0.2,0-0.4,0-0.5,0v-1.1h0.6c0.4,0,0.7,0,1-0.1c0.3-0.1,0.5-0.2,0.6-0.3h0.7c0,0.1,0,0.3,0,0.5s0,0.5,0,0.7
				c0.3-0.3,0.5-0.6,0.7-0.7c0.2-0.2,0.4-0.3,0.7-0.4s0.4-0.1,0.7-0.1c0.3,0,0.6,0.1,0.9,0.3s0.4,0.5,0.4,0.9c0,0.1,0,0.3-0.1,0.4
				c-0.1,0.2-0.2,0.3-0.3,0.4s-0.3,0.2-0.6,0.2c-0.2,0-0.4-0.1-0.6-0.2c-0.2-0.1-0.3-0.3-0.3-0.6c-0.2,0-0.4,0.1-0.6,0.2
				c-0.2,0.2-0.4,0.3-0.5,0.5c-0.1,0.2-0.2,0.4-0.3,0.6v2.3c0,0.1,0,0.3,0,0.6s0,0.5,0,0.7c0.1,0,0.3,0,0.5,0c0.2,0,0.3,0,0.4,0v1.1
				h-3.7V128.2z"/>
			<path d="M81.5,129.1c0-0.1,0-0.2,0-0.3c0-0.1,0-0.2,0-0.3c-0.3,0.3-0.7,0.5-1,0.7c-0.4,0.1-0.7,0.2-1.1,0.2
				c-0.6,0-1.1-0.2-1.4-0.5s-0.5-0.8-0.5-1.3c0-0.4,0.1-0.8,0.3-1.1c0.2-0.3,0.5-0.6,0.9-0.8c0.4-0.2,0.8-0.4,1.3-0.5
				s0.9-0.2,1.4-0.2v-0.7c0-0.2,0-0.5-0.1-0.7c-0.1-0.2-0.2-0.3-0.3-0.5c-0.1-0.1-0.3-0.2-0.6-0.2c-0.2,0-0.4,0-0.5,0.1
				c-0.2,0.1-0.3,0.2-0.4,0.3c0.1,0.1,0.1,0.2,0.1,0.3c0,0.1,0,0.2,0,0.3c0,0.2-0.1,0.4-0.2,0.6c-0.1,0.2-0.4,0.3-0.7,0.3
				c-0.3,0-0.5-0.1-0.6-0.3c-0.1-0.2-0.2-0.4-0.2-0.7c0-0.4,0.1-0.7,0.4-1c0.3-0.3,0.6-0.5,1.1-0.6c0.4-0.2,0.9-0.2,1.5-0.2
				c0.8,0,1.5,0.2,1.9,0.6s0.7,1.1,0.7,2c0,0.3,0,0.6,0,0.8s0,0.4,0,0.7c0,0.2,0,0.5,0,0.8c0,0.1,0,0.3,0,0.6c0,0.2,0,0.5,0,0.7
				c0.2,0,0.3,0,0.5,0c0.2,0,0.3,0,0.4,0v1.1H81.5z M81.3,125.9c-0.3,0-0.5,0.1-0.7,0.1s-0.4,0.2-0.6,0.3c-0.2,0.1-0.3,0.2-0.4,0.4
				c-0.1,0.2-0.1,0.3-0.1,0.5c0,0.3,0.1,0.4,0.3,0.6c0.2,0.1,0.3,0.2,0.5,0.2c0.2,0,0.4,0,0.6-0.1c0.2-0.1,0.4-0.2,0.5-0.4
				c0-0.1,0-0.2,0-0.3c0-0.1,0-0.2,0-0.3c0-0.2,0-0.3,0-0.5S81.3,126.1,81.3,125.9z"/>
			<path d="M88.2,129.3c-0.6,0-1.2-0.1-1.7-0.4c-0.5-0.3-0.9-0.7-1.3-1.2c-0.3-0.5-0.5-1.2-0.5-1.9c0-0.5,0.1-1,0.3-1.5
				c0.2-0.5,0.4-0.9,0.7-1.2c0.3-0.4,0.7-0.6,1.1-0.8c0.4-0.2,0.9-0.3,1.5-0.3c0.6,0,1.1,0.1,1.5,0.3c0.4,0.2,0.7,0.4,0.9,0.7
				s0.3,0.6,0.3,0.9c0,0.3-0.1,0.5-0.2,0.7c-0.2,0.2-0.4,0.3-0.7,0.3c-0.4,0-0.6-0.1-0.7-0.3s-0.2-0.4-0.2-0.6c0-0.1,0-0.2,0-0.3
				c0-0.1,0.1-0.2,0.1-0.3c-0.1-0.1-0.2-0.2-0.3-0.3c-0.1-0.1-0.3-0.1-0.4-0.1c-0.1,0-0.2,0-0.3,0c-0.4,0-0.8,0.3-1.1,0.7
				c-0.3,0.4-0.4,1-0.4,1.8c0,0.5,0.1,0.9,0.2,1.3s0.3,0.7,0.6,1c0.3,0.3,0.6,0.4,1.1,0.4c0.4,0,0.8-0.1,1.1-0.3
				c0.4-0.2,0.7-0.5,1-0.8l0.6,0.6c-0.3,0.5-0.7,0.8-1,1.1c-0.4,0.2-0.7,0.4-1.1,0.5C88.9,129.3,88.5,129.3,88.2,129.3z"/>
			<path d="M93.6,132.9c-0.4,0-0.7-0.1-0.9-0.3c-0.2-0.2-0.4-0.5-0.4-0.8c0-0.3,0.1-0.5,0.2-0.7c0.2-0.2,0.4-0.3,0.6-0.3
				c0.2,0,0.4,0.1,0.5,0.2c0.1,0.1,0.2,0.3,0.2,0.6c0,0,0,0.1,0,0.1c0,0,0,0.1,0,0.1c0,0,0,0,0.1,0c0.1,0,0.2-0.1,0.3-0.2
				s0.2-0.3,0.3-0.5c0.1-0.2,0.2-0.5,0.3-0.7c0.1-0.3,0.2-0.5,0.3-0.8L93,125c-0.3-0.5-0.4-0.9-0.5-1.2c-0.1-0.3-0.1-0.5-0.2-0.7
				l-0.6,0v-1.1h3.5v0.9c-0.3,0-0.5,0.2-0.6,0.4c0,0.2,0,0.5,0.1,0.7l1.4,3.1c0.1-0.2,0.2-0.6,0.4-1.1c0.1-0.5,0.3-1.1,0.5-1.7
				c0-0.1,0.1-0.3,0.1-0.4s0.1-0.3,0.2-0.5s0.2-0.3,0.2-0.4l-0.8,0v-1.1h2.5v0.9c-0.3,0.1-0.5,0.2-0.7,0.5s-0.4,0.6-0.5,1.1l-1.8,5
				c-0.3,0.8-0.5,1.4-0.7,1.9c-0.2,0.5-0.5,0.9-0.8,1.1C94.4,132.8,94.1,132.9,93.6,132.9z"/>
			<path d="M39.9,145.9V145c0.2,0,0.4,0,0.5-0.1c0.1,0,0.3-0.2,0.3-0.3c0.1-0.2,0.1-0.4,0.1-0.8v-5.4c0-0.3,0-0.5,0-0.7
				c0-0.2,0-0.4,0-0.5c-0.1,0-0.3,0-0.6,0c-0.2,0-0.4,0-0.5,0v-1.1c0.7,0,1.3,0,2,0s1.3,0,2,0c0.8,0,1.5,0.1,2.1,0.3
				c0.6,0.2,1.1,0.5,1.4,1s0.5,1,0.5,1.8c0,0.4-0.1,0.8-0.3,1.1c-0.2,0.4-0.5,0.7-0.8,0.9s-0.8,0.5-1.4,0.6c0.2,0.1,0.4,0.2,0.5,0.4
				c0.2,0.2,0.3,0.3,0.4,0.5l0.7,1c0.2,0.3,0.4,0.6,0.5,0.8c0.2,0.2,0.3,0.3,0.5,0.4c0.2,0.1,0.3,0.1,0.5,0.1v0.9h-2.3
				c-0.2-0.1-0.3-0.3-0.5-0.5c-0.2-0.2-0.3-0.5-0.5-0.8l-1-1.7c-0.1-0.2-0.2-0.3-0.3-0.5c-0.1-0.1-0.2-0.2-0.3-0.3
				c-0.1,0-0.3,0-0.4,0c-0.1,0-0.2,0-0.4,0v1.5c0,0.3,0,0.5,0,0.7s0,0.4,0,0.5c0.1,0,0.2,0,0.4,0s0.3,0,0.5,0c0.2,0,0.3,0,0.3,0v1.1
				H39.9z M43.6,141.1c0.5,0,0.9-0.1,1.3-0.2s0.5-0.4,0.7-0.7c0.1-0.3,0.2-0.7,0.2-1.2c0-0.4-0.1-0.8-0.2-1.1s-0.3-0.4-0.5-0.6
				s-0.4-0.2-0.6-0.2c-0.2,0-0.4,0-0.5,0c-0.2,0-0.4,0-0.5,0.1c-0.1,0-0.2,0.1-0.3,0.3c-0.1,0.2-0.1,0.4-0.1,0.7v2.9
				c0.1,0,0.2,0,0.3,0C43.4,141.1,43.5,141.1,43.6,141.1z"/>
			<path d="M53.3,145.9c0-0.1,0-0.2,0-0.3c0-0.1,0-0.2,0-0.3c-0.3,0.3-0.7,0.5-1,0.7c-0.4,0.1-0.7,0.2-1.1,0.2
				c-0.6,0-1.1-0.2-1.4-0.5s-0.5-0.8-0.5-1.3c0-0.4,0.1-0.8,0.3-1.1c0.2-0.3,0.5-0.6,0.9-0.8c0.4-0.2,0.8-0.4,1.3-0.5
				s0.9-0.2,1.4-0.2V141c0-0.2,0-0.5-0.1-0.7s-0.2-0.4-0.3-0.5c-0.1-0.1-0.3-0.2-0.6-0.2c-0.2,0-0.4,0-0.5,0.1s-0.3,0.2-0.4,0.3
				c0.1,0.1,0.1,0.2,0.1,0.3s0,0.2,0,0.3c0,0.2-0.1,0.4-0.2,0.6c-0.1,0.2-0.4,0.3-0.7,0.3c-0.3,0-0.5-0.1-0.6-0.3
				c-0.1-0.2-0.2-0.4-0.2-0.7c0-0.4,0.1-0.7,0.4-1s0.6-0.5,1.1-0.6c0.4-0.2,0.9-0.2,1.5-0.2c0.8,0,1.5,0.2,1.9,0.6s0.7,1.1,0.7,2
				c0,0.3,0,0.6,0,0.8c0,0.2,0,0.4,0,0.7c0,0.2,0,0.5,0,0.8c0,0.1,0,0.3,0,0.6c0,0.2,0,0.5,0,0.7c0.2,0,0.3,0,0.5,0s0.3,0,0.4,0v1.1
				H53.3z M53.1,142.7c-0.3,0-0.5,0.1-0.7,0.1c-0.2,0.1-0.4,0.2-0.6,0.3c-0.2,0.1-0.3,0.2-0.4,0.4c-0.1,0.2-0.1,0.3-0.1,0.5
				c0,0.3,0.1,0.4,0.3,0.6c0.2,0.1,0.3,0.2,0.5,0.2c0.2,0,0.4,0,0.6-0.1c0.2-0.1,0.4-0.2,0.5-0.4c0-0.1,0-0.2,0-0.3s0-0.2,0-0.3
				c0-0.2,0-0.3,0-0.5S53.1,142.9,53.1,142.7z"/>
			<path d="M59.5,146.1c-0.3,0-0.6,0-0.8-0.1c-0.3-0.1-0.5-0.2-0.7-0.4c-0.2-0.2-0.4-0.5-0.5-0.8c-0.1-0.4-0.2-0.8-0.2-1.4l0-3.4h-1
				v-1.2c0.3,0,0.6-0.1,0.8-0.3c0.3-0.2,0.5-0.4,0.7-0.7s0.3-0.6,0.4-0.9h1l0,2h1.8v1.1l-1.8,0l0,3.4c0,0.2,0,0.4,0.1,0.6
				s0.1,0.4,0.2,0.5c0.1,0.1,0.3,0.2,0.5,0.2c0.1,0,0.3,0,0.5-0.1c0.2-0.1,0.5-0.3,0.7-0.7l0.7,0.6c-0.3,0.4-0.5,0.7-0.8,0.9
				c-0.3,0.2-0.5,0.4-0.8,0.4c-0.2,0.1-0.5,0.1-0.7,0.2C59.7,146.1,59.6,146.1,59.5,146.1z"/>
			<path d="M65.8,146.1c-0.7,0-1.3-0.2-1.8-0.5c-0.5-0.3-0.9-0.7-1.2-1.3c-0.3-0.6-0.4-1.2-0.4-2c0-0.7,0.1-1.3,0.4-1.8
				c0.3-0.6,0.7-1,1.2-1.4c0.5-0.3,1.1-0.5,1.8-0.5c0.4,0,0.8,0.1,1.1,0.2c0.4,0.1,0.7,0.3,1,0.6c0.3,0.3,0.5,0.6,0.7,1.1
				c0.2,0.4,0.3,1,0.3,1.7l-4.6,0.1c0,0.5,0.1,1,0.2,1.4c0.1,0.4,0.3,0.7,0.6,1c0.3,0.2,0.7,0.4,1.2,0.4c0.2,0,0.4,0,0.6-0.1
				c0.2-0.1,0.5-0.2,0.7-0.3c0.2-0.2,0.5-0.4,0.7-0.6l0.6,0.6c-0.3,0.5-0.7,0.8-1.1,1.1c-0.4,0.2-0.8,0.4-1.1,0.5
				S66.2,146.1,65.8,146.1z M64.5,141.3h2.6c0-0.4-0.1-0.7-0.2-0.9c-0.1-0.2-0.2-0.4-0.4-0.5s-0.4-0.2-0.6-0.2c-0.4,0-0.7,0.1-1,0.4
				C64.8,140.4,64.6,140.8,64.5,141.3z"/>
			<path d="M74.6,138.5c0-1.1,0.2-1.9,0.7-2.4c0.5-0.5,1.2-0.7,2-0.7c0.4,0,0.8,0.1,1,0.2s0.4,0.3,0.6,0.5c0.1,0.2,0.2,0.4,0.2,0.6
				c0,0.2-0.1,0.5-0.2,0.6c-0.1,0.2-0.4,0.3-0.6,0.3c-0.3,0-0.5-0.1-0.6-0.2c-0.1-0.2-0.2-0.3-0.2-0.6c0,0,0-0.1,0-0.1
				c0,0,0-0.1,0-0.1c0,0-0.1-0.1-0.2-0.1c-0.1,0-0.1,0-0.2,0c-0.1,0-0.3,0-0.4,0.1c-0.1,0.1-0.1,0.2-0.2,0.3c0,0.1,0,0.3,0,0.4v1.7
				h1.6v1.1l-1.6,0l0,3.6c0,0.1,0,0.3,0,0.6s0,0.5,0,0.7c0.2,0,0.3,0,0.5,0s0.3,0,0.4,0v1.1h-3.7V145c0.3,0,0.5-0.1,0.6-0.2
				s0.2-0.2,0.2-0.4s0-0.4,0-0.7v-3.7l-1,0v-1.2h1V138.5z"/>
			<path d="M82.3,146.1c-0.7,0-1.3-0.1-1.8-0.4c-0.5-0.3-1-0.7-1.3-1.2c-0.3-0.5-0.5-1.2-0.5-1.9c0-0.8,0.2-1.5,0.5-2s0.8-1,1.3-1.4
				c0.5-0.3,1.1-0.5,1.8-0.5c0.7,0,1.3,0.1,1.8,0.4c0.5,0.3,1,0.7,1.3,1.2c0.3,0.5,0.5,1.2,0.5,1.9c0,0.8-0.1,1.5-0.4,2
				c-0.3,0.6-0.7,1-1.2,1.3C83.6,146,83,146.1,82.3,146.1z M82.4,145.2c0.4,0,0.7-0.1,0.8-0.4c0.2-0.3,0.3-0.6,0.4-1
				c0.1-0.4,0.1-0.8,0.1-1.2c0-0.3,0-0.7-0.1-1.1c-0.1-0.4-0.1-0.7-0.2-1c-0.1-0.3-0.3-0.5-0.5-0.7c-0.2-0.2-0.4-0.3-0.7-0.3
				c-0.4,0-0.7,0.1-0.9,0.4c-0.2,0.3-0.4,0.6-0.4,0.9c-0.1,0.4-0.1,0.8-0.1,1.2c0,0.5,0.1,0.9,0.2,1.4c0.1,0.5,0.3,0.8,0.5,1.1
				C81.7,145,82,145.2,82.4,145.2z"/>
			<path d="M86.8,145c0.3,0,0.4-0.1,0.6-0.2c0.1-0.1,0.2-0.2,0.2-0.4s0-0.4,0-0.7v-2.4c0-0.2,0-0.4,0-0.6s0-0.4,0-0.6
				c-0.1,0-0.3,0-0.5,0c-0.2,0-0.4,0-0.5,0v-1.1h0.6c0.4,0,0.7,0,1-0.1c0.3-0.1,0.5-0.2,0.6-0.3h0.7c0,0.1,0,0.3,0,0.5
				c0,0.3,0,0.5,0,0.7c0.3-0.3,0.5-0.6,0.7-0.7s0.4-0.3,0.7-0.4s0.4-0.1,0.7-0.1c0.3,0,0.6,0.1,0.9,0.3c0.2,0.2,0.4,0.5,0.4,0.9
				c0,0.1,0,0.3-0.1,0.4c-0.1,0.2-0.2,0.3-0.3,0.4s-0.3,0.2-0.6,0.2c-0.2,0-0.4-0.1-0.6-0.2c-0.2-0.1-0.3-0.3-0.3-0.6
				c-0.2,0-0.4,0.1-0.6,0.2c-0.2,0.2-0.4,0.3-0.5,0.5c-0.1,0.2-0.2,0.4-0.3,0.6v2.3c0,0.1,0,0.3,0,0.6c0,0.2,0,0.5,0,0.7
				c0.1,0,0.3,0,0.5,0s0.3,0,0.4,0v1.1h-3.7V145z"/>
			<path d="M101.1,145.9c0-0.1,0-0.2,0-0.3c0-0.1,0-0.2,0-0.3c-0.3,0.3-0.7,0.5-1,0.7c-0.4,0.1-0.7,0.2-1.1,0.2
				c-0.6,0-1.1-0.2-1.4-0.5s-0.5-0.8-0.5-1.3c0-0.4,0.1-0.8,0.3-1.1c0.2-0.3,0.5-0.6,0.9-0.8c0.4-0.2,0.8-0.4,1.3-0.5
				s0.9-0.2,1.4-0.2V141c0-0.2,0-0.5-0.1-0.7s-0.2-0.4-0.3-0.5c-0.1-0.1-0.3-0.2-0.6-0.2c-0.2,0-0.4,0-0.5,0.1s-0.3,0.2-0.4,0.3
				c0.1,0.1,0.1,0.2,0.1,0.3s0,0.2,0,0.3c0,0.2-0.1,0.4-0.2,0.6c-0.1,0.2-0.4,0.3-0.7,0.3c-0.3,0-0.5-0.1-0.6-0.3
				c-0.1-0.2-0.2-0.4-0.2-0.7c0-0.4,0.1-0.7,0.4-1s0.6-0.5,1.1-0.6c0.4-0.2,0.9-0.2,1.5-0.2c0.8,0,1.5,0.2,1.9,0.6s0.7,1.1,0.7,2
				c0,0.3,0,0.6,0,0.8c0,0.2,0,0.4,0,0.7c0,0.2,0,0.5,0,0.8c0,0.1,0,0.3,0,0.6c0,0.2,0,0.5,0,0.7c0.2,0,0.3,0,0.5,0s0.3,0,0.4,0v1.1
				H101.1z M101,142.7c-0.3,0-0.5,0.1-0.7,0.1c-0.2,0.1-0.4,0.2-0.6,0.3c-0.2,0.1-0.3,0.2-0.4,0.4c-0.1,0.2-0.1,0.3-0.1,0.5
				c0,0.3,0.1,0.4,0.3,0.6c0.2,0.1,0.3,0.2,0.5,0.2c0.2,0,0.4,0,0.6-0.1c0.2-0.1,0.4-0.2,0.5-0.4c0-0.1,0-0.2,0-0.3s0-0.2,0-0.3
				c0-0.2,0-0.3,0-0.5S101,142.9,101,142.7z"/>
			<path d="M51.9,156.1c-0.1-0.8-0.4-1.4-0.8-1.8c-0.4-0.4-0.9-0.6-1.6-0.6c-0.5,0-0.9,0.1-1.3,0.3c-0.4,0.2-0.7,0.5-0.9,0.9
				c-0.2,0.4-0.4,0.8-0.5,1.3s-0.2,1-0.2,1.5c0,0.8,0.1,1.5,0.3,2.1c0.2,0.6,0.6,1.1,1,1.5c0.4,0.4,1,0.5,1.6,0.5
				c0.6,0,1.2-0.2,1.8-0.5c0.6-0.3,1.1-0.7,1.5-1.3l0.7,0.6c-0.5,0.6-0.9,1.1-1.4,1.4s-1,0.5-1.5,0.7c-0.5,0.1-0.9,0.2-1.3,0.2
				c-0.7,0-1.4-0.1-2-0.4c-0.6-0.3-1.1-0.6-1.5-1.1s-0.8-1-1-1.6c-0.2-0.6-0.3-1.3-0.3-2c0-0.6,0.1-1.3,0.3-1.9
				c0.2-0.6,0.5-1.2,0.9-1.7c0.4-0.5,0.9-0.9,1.5-1.2c0.6-0.3,1.3-0.5,2.1-0.5c0.4,0,0.8,0.1,1.2,0.2c0.4,0.1,0.8,0.3,1.2,0.5
				l-0.1-0.6h1.1v3.3H51.9z"/>
			<path d="M57.6,162.9c-0.7,0-1.3-0.1-1.8-0.4c-0.5-0.3-1-0.7-1.3-1.2c-0.3-0.5-0.5-1.2-0.5-1.9c0-0.8,0.2-1.5,0.5-2s0.8-1,1.3-1.4
				c0.5-0.3,1.1-0.5,1.8-0.5c0.7,0,1.3,0.1,1.8,0.4c0.5,0.3,1,0.7,1.3,1.2c0.3,0.5,0.5,1.2,0.5,1.9c0,0.8-0.1,1.5-0.4,2
				c-0.3,0.6-0.7,1-1.2,1.3C58.9,162.8,58.3,162.9,57.6,162.9z M57.6,162c0.4,0,0.7-0.1,0.8-0.4c0.2-0.3,0.3-0.6,0.4-1
				c0.1-0.4,0.1-0.8,0.1-1.2c0-0.3,0-0.7-0.1-1.1c-0.1-0.4-0.1-0.7-0.2-1c-0.1-0.3-0.3-0.5-0.5-0.7c-0.2-0.2-0.4-0.3-0.7-0.3
				c-0.4,0-0.7,0.1-0.9,0.4c-0.2,0.3-0.4,0.6-0.4,0.9c-0.1,0.4-0.1,0.8-0.1,1.2c0,0.5,0.1,0.9,0.2,1.4c0.1,0.5,0.3,0.8,0.5,1.1
				C56.9,161.8,57.3,162,57.6,162z"/>
			<path d="M65,162.9c-0.6,0-1-0.1-1.4-0.3c-0.3-0.2-0.6-0.6-0.7-1c-0.2-0.5-0.2-1-0.2-1.8v-1.6c0-0.2,0-0.4,0-0.6
				c0-0.2,0-0.4,0-0.6c-0.1,0-0.3,0-0.5,0s-0.4,0-0.5,0V156h0.1c0.6,0,1,0,1.4-0.1c0.3-0.1,0.6-0.2,0.6-0.3h0.8v4.3
				c0,0.6,0.1,1.1,0.2,1.4s0.4,0.4,0.8,0.4c0.2,0,0.5-0.1,0.7-0.2c0.2-0.1,0.5-0.3,0.6-0.5v-2.7c0-0.2,0-0.4,0-0.6
				c0-0.2,0-0.4,0-0.6c-0.1,0-0.3,0-0.5,0s-0.4,0-0.5,0V156h0.3c0.4,0,0.8,0,1.2-0.1c0.3-0.1,0.6-0.2,0.6-0.3H69v4.9
				c0,0.1,0,0.3,0,0.6c0,0.2,0,0.5,0,0.7c0.1,0,0.3,0,0.5,0c0.2,0,0.3,0,0.4,0v1.1h-2.7c0-0.1,0-0.2,0-0.4c0-0.1,0-0.2,0-0.4
				c-0.3,0.2-0.6,0.5-0.9,0.7C65.8,162.8,65.4,162.9,65,162.9z"/>
			<path d="M70.7,162.7v-0.9c0.3,0,0.4-0.1,0.6-0.2c0.1-0.1,0.2-0.2,0.2-0.4s0-0.4,0-0.7v-2.4c0-0.2,0-0.4,0-0.6s0-0.4,0-0.6
				c-0.1,0-0.3,0-0.5,0c-0.2,0-0.4,0-0.5,0V156c0.4,0,0.8,0,1.1-0.1c0.3,0,0.5-0.1,0.7-0.2c0.2-0.1,0.3-0.1,0.4-0.2h0.7
				c0,0.1,0,0.2,0,0.3c0,0.1,0,0.1,0,0.2c0,0.1,0,0.1,0,0.3c0.2-0.1,0.4-0.3,0.6-0.4c0.2-0.1,0.5-0.2,0.7-0.3
				c0.2-0.1,0.5-0.1,0.6-0.1c0.9,0,1.5,0.2,1.8,0.7c0.4,0.5,0.5,1.3,0.5,2.4v1.9c0,0.1,0,0.3,0,0.6c0,0.2,0,0.5,0,0.7
				c0.2,0,0.3,0,0.5,0s0.3,0,0.4,0v1.1h-3.7v-0.9c0.3,0,0.5-0.1,0.6-0.2s0.2-0.2,0.2-0.4c0-0.2,0-0.4,0-0.7l0-2
				c0-0.6-0.1-1.1-0.3-1.4c-0.2-0.3-0.5-0.4-0.9-0.4c-0.2,0-0.5,0.1-0.7,0.2c-0.2,0.1-0.4,0.2-0.6,0.4c0,0.1,0,0.3,0,0.4
				c0,0.1,0,0.3,0,0.4v2.4c0,0.1,0,0.3,0,0.6c0,0.2,0,0.5,0,0.7c0.1,0,0.3,0,0.5,0s0.3,0,0.4,0v1.1H70.7z"/>
			<path d="M82.4,162.9c-0.3,0-0.6,0-0.8-0.1c-0.3-0.1-0.5-0.2-0.7-0.4c-0.2-0.2-0.4-0.5-0.5-0.8c-0.1-0.4-0.2-0.8-0.2-1.4l0-3.4h-1
				v-1.2c0.3,0,0.6-0.1,0.8-0.3c0.3-0.2,0.5-0.4,0.7-0.7s0.3-0.6,0.4-0.9h1l0,2H84v1.1l-1.8,0l0,3.4c0,0.2,0,0.4,0.1,0.6
				s0.1,0.4,0.2,0.5c0.1,0.1,0.3,0.2,0.5,0.2c0.1,0,0.3,0,0.5-0.1c0.2-0.1,0.5-0.3,0.7-0.7l0.7,0.6c-0.3,0.4-0.5,0.7-0.8,0.9
				c-0.3,0.2-0.5,0.4-0.8,0.4c-0.2,0.1-0.5,0.1-0.7,0.2C82.6,162.9,82.5,162.9,82.4,162.9z"/>
			<path d="M85.4,161.8c0.3,0,0.4-0.1,0.6-0.2c0.1-0.1,0.2-0.2,0.2-0.4s0-0.4,0-0.7v-2.4c0-0.2,0-0.4,0-0.6s0-0.4,0-0.6
				c-0.1,0-0.3,0-0.5,0c-0.2,0-0.4,0-0.5,0V156h0.6c0.4,0,0.7,0,1-0.1c0.3-0.1,0.5-0.2,0.6-0.3h0.7c0,0.1,0,0.3,0,0.5
				c0,0.3,0,0.5,0,0.7c0.3-0.3,0.5-0.6,0.7-0.7s0.4-0.3,0.7-0.4s0.4-0.1,0.7-0.1c0.3,0,0.6,0.1,0.9,0.3c0.2,0.2,0.4,0.5,0.4,0.9
				c0,0.1,0,0.3-0.1,0.4c-0.1,0.2-0.2,0.3-0.3,0.4s-0.3,0.2-0.6,0.2c-0.2,0-0.4-0.1-0.6-0.2c-0.2-0.1-0.3-0.3-0.3-0.6
				c-0.2,0-0.4,0.1-0.6,0.2c-0.2,0.2-0.4,0.3-0.5,0.5c-0.1,0.2-0.2,0.4-0.3,0.6v2.3c0,0.1,0,0.3,0,0.6c0,0.2,0,0.5,0,0.7
				c0.1,0,0.3,0,0.5,0s0.3,0,0.4,0v1.1h-3.7V161.8z"/>
			<path d="M93.6,166.5c-0.4,0-0.7-0.1-0.9-0.3c-0.2-0.2-0.4-0.5-0.4-0.8c0-0.3,0.1-0.5,0.2-0.7c0.2-0.2,0.4-0.3,0.6-0.3
				c0.2,0,0.4,0.1,0.5,0.2c0.1,0.1,0.2,0.3,0.2,0.6c0,0,0,0.1,0,0.1c0,0,0,0.1,0,0.1c0,0,0,0,0.1,0c0.1,0,0.2-0.1,0.3-0.2
				s0.2-0.3,0.3-0.5c0.1-0.2,0.2-0.5,0.3-0.7c0.1-0.3,0.2-0.5,0.3-0.8l-2.2-4.4c-0.3-0.5-0.4-0.9-0.5-1.2c-0.1-0.3-0.1-0.5-0.2-0.7
				l-0.6,0v-1.1h3.5v0.9c-0.3,0-0.5,0.2-0.6,0.4c0,0.2,0,0.5,0.1,0.7l1.4,3.1c0.1-0.2,0.2-0.6,0.4-1.1c0.1-0.5,0.3-1.1,0.5-1.7
				c0-0.1,0.1-0.3,0.1-0.4s0.1-0.3,0.2-0.5c0.1-0.2,0.2-0.3,0.2-0.4l-0.8,0v-1.1h2.5v0.9c-0.3,0.1-0.5,0.2-0.7,0.5
				c-0.2,0.3-0.4,0.6-0.5,1.1l-1.8,5c-0.3,0.8-0.5,1.4-0.7,1.9c-0.2,0.5-0.5,0.9-0.8,1.1C94.4,166.4,94.1,166.5,93.6,166.5z"/>
		</g>
	</g>
</g>
<g>
	<g>
		<g>
			<path d="M440.8,58.4v-0.9c0.2,0,0.4,0,0.5-0.1c0.1,0,0.3-0.2,0.3-0.3c0.1-0.2,0.1-0.4,0.1-0.8v-5.4c0-0.3,0-0.5,0-0.7
				s0-0.4,0-0.5c-0.2,0-0.3,0-0.6,0c-0.2,0-0.4,0-0.5,0v-1.1h7l0.1,2.7H447c0-0.5-0.1-0.9-0.3-1.2c-0.2-0.3-0.4-0.4-0.7-0.5
				c-0.3-0.1-0.5-0.1-0.8-0.1l-0.5,0c-0.2,0-0.4,0-0.5,0.1c-0.1,0.1-0.2,0.2-0.3,0.3c-0.1,0.2-0.1,0.4-0.1,0.8v2.4h1.4l-0.1-1.2h1.1
				v3.4h-0.9c0-0.4-0.1-0.7-0.2-0.9c-0.1-0.2-0.3-0.3-0.5-0.3c-0.2,0-0.4-0.1-0.7,0h-0.2v2c0,0.3,0,0.5,0,0.7c0,0.2,0,0.4,0,0.5
				c0.1,0,0.2,0,0.4,0c0.2,0,0.3,0,0.5,0c0.2,0,0.3,0,0.3,0v1.1H440.8z"/>
			<path d="M452,58.6c-0.7,0-1.3-0.2-1.8-0.5c-0.5-0.3-0.9-0.7-1.2-1.3c-0.3-0.6-0.4-1.2-0.4-2c0-0.7,0.1-1.3,0.4-1.8s0.7-1,1.2-1.4
				c0.5-0.3,1.1-0.5,1.8-0.5c0.4,0,0.8,0.1,1.1,0.2c0.4,0.1,0.7,0.3,1,0.6s0.5,0.6,0.7,1.1c0.2,0.4,0.3,1,0.3,1.7l-4.6,0.1
				c0,0.5,0.1,1,0.2,1.4c0.1,0.4,0.3,0.7,0.6,1c0.3,0.2,0.7,0.4,1.2,0.4c0.2,0,0.4,0,0.6-0.1c0.2-0.1,0.5-0.2,0.7-0.3
				c0.2-0.2,0.5-0.4,0.7-0.6l0.6,0.6c-0.3,0.5-0.7,0.8-1.1,1.1c-0.4,0.2-0.8,0.4-1.1,0.5S452.4,58.6,452,58.6z M450.7,53.7h2.6
				c0-0.4-0.1-0.7-0.2-0.9c-0.1-0.2-0.2-0.4-0.4-0.5s-0.4-0.2-0.6-0.2c-0.4,0-0.7,0.1-1,0.4C450.9,52.8,450.8,53.2,450.7,53.7z"/>
			<path d="M456.2,58.4v-0.9c0.3,0,0.4-0.1,0.6-0.2s0.2-0.2,0.2-0.4c0-0.2,0-0.4,0-0.7v-2.4c0-0.2,0-0.4,0-0.6s0-0.4,0-0.6
				c-0.1,0-0.3,0-0.5,0c-0.2,0-0.4,0-0.5,0v-1.1c0.4,0,0.8,0,1.1-0.1c0.3,0,0.5-0.1,0.7-0.2c0.2-0.1,0.3-0.1,0.4-0.2h0.7
				c0,0.1,0,0.2,0,0.4c0,0.1,0,0.3,0,0.4c0.3-0.2,0.7-0.4,1-0.6c0.4-0.1,0.7-0.2,1-0.2c0.4,0,0.8,0.1,1.1,0.2
				c0.3,0.2,0.5,0.4,0.7,0.7c0.3-0.3,0.7-0.5,1.1-0.7s0.8-0.3,1.2-0.3c0.8,0,1.3,0.2,1.7,0.7c0.4,0.4,0.6,1.2,0.6,2.3v2.1
				c0,0.1,0,0.3,0,0.6c0,0.2,0,0.5,0,0.7c0.1,0,0.3,0,0.5,0c0.2,0,0.3,0,0.4,0v1.1h-3.5v-0.9c0.2,0,0.4-0.1,0.5-0.2s0.2-0.2,0.2-0.4
				c0-0.2,0-0.4,0-0.7v-2.1c0-0.6-0.1-1-0.3-1.3c-0.2-0.2-0.4-0.4-0.8-0.4c-0.2,0-0.5,0-0.7,0.1c-0.2,0.1-0.4,0.2-0.6,0.3
				c0,0.2,0.1,0.4,0.1,0.6c0,0.2,0,0.5,0,0.7c0,0.3,0,0.6,0,0.9s0,0.6,0,0.9c0,0.1,0,0.3,0,0.6c0,0.2,0,0.5,0,0.7c0.1,0,0.3,0,0.5,0
				c0.2,0,0.3,0,0.4,0v1.1h-3.6v-0.9c0.2,0,0.4-0.1,0.5-0.2s0.2-0.2,0.2-0.4c0-0.2,0-0.4,0-0.7l0-2.2c0-0.6-0.1-1-0.3-1.2
				c-0.2-0.2-0.4-0.3-0.7-0.4c-0.2,0-0.5,0.1-0.7,0.2c-0.2,0.1-0.4,0.2-0.5,0.4c0,0.1,0,0.2,0,0.4c0,0.1,0,0.2,0,0.4v2.5
				c0,0.1,0,0.3,0,0.6c0,0.2,0,0.5,0,0.7c0.1,0,0.3,0,0.5,0c0.2,0,0.3,0,0.4,0v1.1H456.2z"/>
			<path d="M473,58.4c0-0.1,0-0.2,0-0.3c0-0.1,0-0.2,0-0.3c-0.3,0.3-0.7,0.5-1,0.7c-0.4,0.1-0.7,0.2-1.1,0.2c-0.6,0-1.1-0.2-1.4-0.5
				s-0.5-0.8-0.5-1.3c0-0.4,0.1-0.8,0.3-1.1c0.2-0.3,0.5-0.6,0.9-0.8s0.8-0.4,1.3-0.5c0.5-0.1,0.9-0.2,1.4-0.2v-0.7
				c0-0.2,0-0.5-0.1-0.7c-0.1-0.2-0.2-0.4-0.3-0.5s-0.3-0.2-0.6-0.2c-0.2,0-0.3,0-0.5,0.1c-0.2,0.1-0.3,0.2-0.4,0.3
				c0.1,0.1,0.1,0.2,0.1,0.3c0,0.1,0,0.2,0,0.3c0,0.2-0.1,0.4-0.2,0.6c-0.1,0.2-0.4,0.3-0.7,0.3c-0.3,0-0.5-0.1-0.6-0.3
				c-0.1-0.2-0.2-0.4-0.2-0.7c0-0.4,0.1-0.7,0.4-1c0.3-0.3,0.6-0.5,1.1-0.6c0.4-0.2,0.9-0.2,1.5-0.2c0.8,0,1.5,0.2,1.9,0.6
				s0.7,1.1,0.7,2c0,0.3,0,0.6,0,0.8c0,0.2,0,0.4,0,0.7c0,0.2,0,0.5,0,0.8c0,0.1,0,0.3,0,0.6c0,0.2,0,0.5,0,0.7c0.2,0,0.3,0,0.5,0
				c0.2,0,0.3,0,0.4,0v1.1H473z M472.9,55.1c-0.3,0-0.5,0.1-0.7,0.1c-0.2,0.1-0.4,0.2-0.6,0.3s-0.3,0.2-0.4,0.4
				c-0.1,0.2-0.1,0.3-0.1,0.5c0,0.3,0.1,0.4,0.3,0.6c0.2,0.1,0.3,0.2,0.5,0.2c0.2,0,0.4,0,0.6-0.1c0.2-0.1,0.4-0.2,0.5-0.4
				c0-0.1,0-0.2,0-0.3c0-0.1,0-0.2,0-0.3c0-0.2,0-0.3,0-0.5S472.9,55.3,472.9,55.1z"/>
			<path d="M476.2,57.4c0.3,0,0.4-0.1,0.6-0.2s0.2-0.2,0.2-0.4c0-0.2,0-0.4,0-0.7v-5.8c0-0.2,0-0.4,0-0.6c0-0.2,0-0.4,0-0.6
				c-0.1,0-0.3,0-0.5,0s-0.4,0-0.5,0v-1.1c0.4,0,0.8,0,1.1-0.1c0.3,0,0.5-0.1,0.7-0.2c0.2-0.1,0.3-0.1,0.4-0.2h0.8v8.3
				c0,0.1,0,0.3,0,0.6c0,0.2,0,0.5,0,0.7c0.2,0,0.3,0,0.5,0c0.2,0,0.3,0,0.4,0v1.1h-3.7V57.4z"/>
			<path d="M484.2,58.6c-0.7,0-1.3-0.2-1.8-0.5c-0.5-0.3-0.9-0.7-1.2-1.3c-0.3-0.6-0.4-1.2-0.4-2c0-0.7,0.1-1.3,0.4-1.8
				c0.3-0.6,0.7-1,1.2-1.4c0.5-0.3,1.1-0.5,1.8-0.5c0.4,0,0.8,0.1,1.1,0.2s0.7,0.3,1,0.6c0.3,0.3,0.5,0.6,0.7,1.1
				c0.2,0.4,0.3,1,0.3,1.7l-4.6,0.1c0,0.5,0.1,1,0.2,1.4c0.1,0.4,0.3,0.7,0.6,1c0.3,0.2,0.7,0.4,1.2,0.4c0.2,0,0.4,0,0.6-0.1
				c0.2-0.1,0.5-0.2,0.7-0.3c0.2-0.2,0.5-0.4,0.7-0.6l0.6,0.6c-0.3,0.5-0.7,0.8-1.1,1.1c-0.4,0.2-0.8,0.4-1.1,0.5
				C484.8,58.5,484.5,58.6,484.2,58.6z M482.8,53.7h2.6c0-0.4-0.1-0.7-0.2-0.9c-0.1-0.2-0.2-0.4-0.4-0.5s-0.4-0.2-0.6-0.2
				c-0.4,0-0.7,0.1-1,0.4C483.1,52.8,482.9,53.2,482.8,53.7z"/>
			<path d="M420,75.2v-0.9c0.2,0,0.4,0,0.5-0.1c0.1,0,0.3-0.2,0.3-0.3s0.1-0.4,0.1-0.8v-5.4c0-0.3,0-0.5,0-0.7s0-0.4,0-0.5
				c-0.1,0-0.3,0-0.6,0c-0.2,0-0.4,0-0.5,0v-1.1h4v0.9c-0.2,0-0.4,0-0.5,0.1c-0.1,0-0.3,0.2-0.3,0.3c-0.1,0.2-0.1,0.4-0.1,0.8v5.4
				c0,0.3,0,0.5,0,0.7s0,0.4,0,0.5h1.9c0.6,0,1-0.2,1.3-0.6c0.3-0.4,0.5-1,0.5-1.7h0.9l-0.1,3.4H420z"/>
			<path d="M428.3,74.2c0.3,0,0.4-0.1,0.6-0.2c0.1-0.1,0.2-0.2,0.2-0.4c0-0.2,0-0.4,0-0.7v-2.3c0-0.2,0-0.4,0-0.6s0-0.4,0-0.6
				c-0.1,0-0.3,0-0.5,0c-0.2,0-0.4,0-0.5,0v-1.1c0.4,0,0.8,0,1.1-0.1c0.3,0,0.5-0.1,0.7-0.2c0.2-0.1,0.3-0.1,0.4-0.2h0.8v4.9
				c0,0.1,0,0.3,0,0.6c0,0.2,0,0.5,0,0.7c0.1,0,0.3,0,0.5,0c0.2,0,0.3,0,0.4,0v1.1h-3.7V74.2z M430.1,66.9c-0.3,0-0.6-0.1-0.8-0.3
				s-0.3-0.5-0.3-0.8s0.1-0.6,0.3-0.8s0.5-0.3,0.8-0.3c0.3,0,0.5,0.1,0.8,0.3c0.2,0.2,0.3,0.5,0.3,0.8s-0.1,0.6-0.3,0.8
				S430.4,66.9,430.1,66.9z"/>
			<path d="M435.7,75.4c-0.3,0-0.6,0-0.8-0.1s-0.5-0.2-0.7-0.4c-0.2-0.2-0.4-0.5-0.5-0.8c-0.1-0.4-0.2-0.8-0.2-1.4l0-3.4h-1v-1.2
				c0.3,0,0.6-0.1,0.8-0.3s0.5-0.4,0.7-0.7s0.3-0.6,0.4-0.9h1l0,2h1.8v1.1l-1.8,0l0,3.4c0,0.2,0,0.4,0.1,0.6c0,0.2,0.1,0.4,0.2,0.5
				s0.3,0.2,0.5,0.2c0.1,0,0.3,0,0.5-0.1c0.2-0.1,0.5-0.3,0.7-0.7l0.7,0.6c-0.3,0.4-0.5,0.7-0.8,0.9c-0.3,0.2-0.5,0.4-0.8,0.4
				c-0.2,0.1-0.5,0.1-0.7,0.2C435.9,75.4,435.8,75.4,435.7,75.4z"/>
			<path d="M442,75.4c-0.7,0-1.3-0.2-1.8-0.5c-0.5-0.3-0.9-0.7-1.2-1.3c-0.3-0.6-0.4-1.2-0.4-2c0-0.7,0.1-1.3,0.4-1.8s0.7-1,1.2-1.4
				c0.5-0.3,1.1-0.5,1.8-0.5c0.4,0,0.8,0.1,1.1,0.2c0.4,0.1,0.7,0.3,1,0.6s0.5,0.6,0.7,1.1c0.2,0.4,0.3,1,0.3,1.7l-4.6,0.1
				c0,0.5,0.1,1,0.2,1.4c0.1,0.4,0.3,0.7,0.6,1c0.3,0.2,0.7,0.4,1.2,0.4c0.2,0,0.4,0,0.6-0.1c0.2-0.1,0.5-0.2,0.7-0.3
				c0.2-0.2,0.5-0.4,0.7-0.6l0.6,0.6c-0.3,0.5-0.7,0.8-1.1,1.1c-0.4,0.2-0.8,0.4-1.1,0.5S442.3,75.4,442,75.4z M440.7,70.5h2.6
				c0-0.4-0.1-0.7-0.2-0.9c-0.1-0.2-0.2-0.4-0.4-0.5s-0.4-0.2-0.6-0.2c-0.4,0-0.7,0.1-1,0.4C440.9,69.6,440.8,70,440.7,70.5z"/>
			<path d="M446.2,74.2c0.3,0,0.4-0.1,0.6-0.2s0.2-0.2,0.2-0.4c0-0.2,0-0.4,0-0.7v-2.4c0-0.2,0-0.4,0-0.6s0-0.4,0-0.6
				c-0.1,0-0.3,0-0.5,0c-0.2,0-0.4,0-0.5,0v-1.1h0.6c0.4,0,0.7,0,1-0.1c0.3-0.1,0.5-0.2,0.6-0.3h0.7c0,0.1,0,0.3,0,0.5
				c0,0.3,0,0.5,0,0.7c0.3-0.3,0.5-0.6,0.7-0.7c0.2-0.2,0.4-0.3,0.7-0.4s0.4-0.1,0.7-0.1c0.3,0,0.6,0.1,0.9,0.3
				c0.2,0.2,0.4,0.5,0.4,0.9c0,0.1,0,0.3-0.1,0.4c-0.1,0.2-0.2,0.3-0.3,0.4c-0.1,0.1-0.3,0.2-0.6,0.2c-0.2,0-0.4-0.1-0.6-0.2
				s-0.3-0.3-0.3-0.6c-0.2,0-0.4,0.1-0.6,0.2c-0.2,0.2-0.4,0.3-0.5,0.5c-0.1,0.2-0.2,0.4-0.3,0.6v2.3c0,0.1,0,0.3,0,0.6
				c0,0.2,0,0.5,0,0.7c0.1,0,0.3,0,0.5,0c0.2,0,0.3,0,0.4,0v1.1h-3.7V74.2z"/>
			<path d="M456.9,75.2c0-0.1,0-0.2,0-0.3c0-0.1,0-0.2,0-0.3c-0.3,0.3-0.7,0.5-1,0.7c-0.4,0.1-0.7,0.2-1.1,0.2
				c-0.6,0-1.1-0.2-1.4-0.5s-0.5-0.8-0.5-1.3c0-0.4,0.1-0.8,0.3-1.1c0.2-0.3,0.5-0.6,0.9-0.8s0.8-0.4,1.3-0.5
				c0.5-0.1,0.9-0.2,1.4-0.2v-0.7c0-0.2,0-0.5-0.1-0.7c-0.1-0.2-0.2-0.4-0.3-0.5s-0.3-0.2-0.6-0.2c-0.2,0-0.3,0-0.5,0.1
				c-0.2,0.1-0.3,0.2-0.4,0.3c0.1,0.1,0.1,0.2,0.1,0.3c0,0.1,0,0.2,0,0.3c0,0.2-0.1,0.4-0.2,0.6c-0.1,0.2-0.4,0.3-0.7,0.3
				c-0.3,0-0.5-0.1-0.6-0.3c-0.1-0.2-0.2-0.4-0.2-0.7c0-0.4,0.1-0.7,0.4-1c0.3-0.3,0.6-0.5,1.1-0.6c0.4-0.2,0.9-0.2,1.5-0.2
				c0.8,0,1.5,0.2,1.9,0.6s0.7,1.1,0.7,2c0,0.3,0,0.6,0,0.8c0,0.2,0,0.4,0,0.7c0,0.2,0,0.5,0,0.8c0,0.1,0,0.3,0,0.6
				c0,0.2,0,0.5,0,0.7c0.2,0,0.3,0,0.5,0c0.2,0,0.3,0,0.4,0v1.1H456.9z M456.7,71.9c-0.3,0-0.5,0.1-0.7,0.1
				c-0.2,0.1-0.4,0.2-0.6,0.3s-0.3,0.2-0.4,0.4c-0.1,0.2-0.1,0.3-0.1,0.5c0,0.3,0.1,0.4,0.3,0.6c0.2,0.1,0.3,0.2,0.5,0.2
				c0.2,0,0.4,0,0.6-0.1c0.2-0.1,0.4-0.2,0.5-0.4c0-0.1,0-0.2,0-0.3c0-0.1,0-0.2,0-0.3c0-0.2,0-0.3,0-0.5S456.7,72.1,456.7,71.9z"/>
			<path d="M463.6,75.4c-0.6,0-1.2-0.1-1.7-0.4c-0.5-0.3-0.9-0.7-1.3-1.2c-0.3-0.5-0.5-1.2-0.5-1.9c0-0.5,0.1-1,0.3-1.5
				c0.2-0.5,0.4-0.9,0.7-1.2c0.3-0.4,0.7-0.6,1.1-0.8c0.4-0.2,0.9-0.3,1.5-0.3c0.6,0,1.1,0.1,1.5,0.3c0.4,0.2,0.7,0.4,0.9,0.7
				s0.3,0.6,0.3,0.9c0,0.3-0.1,0.5-0.2,0.7c-0.2,0.2-0.4,0.3-0.7,0.3c-0.4,0-0.6-0.1-0.7-0.3s-0.2-0.4-0.2-0.6c0-0.1,0-0.2,0-0.3
				s0.1-0.2,0.1-0.3c-0.1-0.1-0.2-0.2-0.3-0.3c-0.1-0.1-0.3-0.1-0.4-0.1c-0.1,0-0.2,0-0.3,0c-0.4,0-0.8,0.3-1.1,0.7
				c-0.3,0.4-0.4,1-0.4,1.8c0,0.5,0.1,0.9,0.2,1.3c0.1,0.4,0.3,0.7,0.6,1c0.3,0.3,0.6,0.4,1.1,0.4c0.4,0,0.8-0.1,1.1-0.3
				c0.4-0.2,0.7-0.5,1-0.8l0.6,0.6c-0.3,0.5-0.7,0.8-1,1.1c-0.4,0.2-0.7,0.4-1.1,0.5S463.9,75.4,463.6,75.4z"/>
			<path d="M469,78.9c-0.4,0-0.7-0.1-0.9-0.3c-0.2-0.2-0.4-0.5-0.4-0.8c0-0.3,0.1-0.5,0.2-0.7s0.4-0.3,0.6-0.3
				c0.2,0,0.4,0.1,0.5,0.2c0.1,0.1,0.2,0.3,0.2,0.6c0,0,0,0.1,0,0.1s0,0.1,0,0.1c0,0,0,0,0.1,0c0.1,0,0.2-0.1,0.3-0.2
				s0.2-0.3,0.3-0.5c0.1-0.2,0.2-0.5,0.3-0.7c0.1-0.3,0.2-0.5,0.3-0.8l-2.2-4.4c-0.3-0.5-0.4-0.9-0.5-1.2c-0.1-0.3-0.1-0.5-0.2-0.7
				l-0.6,0v-1.1h3.5V69c-0.3,0-0.5,0.2-0.6,0.4c0,0.2,0,0.5,0.1,0.7l1.4,3.1c0.1-0.2,0.2-0.6,0.4-1.1c0.1-0.5,0.3-1.1,0.5-1.7
				c0-0.1,0.1-0.3,0.1-0.4s0.1-0.3,0.2-0.5c0.1-0.2,0.2-0.3,0.2-0.4l-0.8,0v-1.1h2.5V69c-0.3,0.1-0.5,0.2-0.7,0.5
				c-0.2,0.3-0.4,0.6-0.5,1.1l-1.8,5c-0.3,0.8-0.5,1.4-0.7,1.9c-0.2,0.5-0.5,0.9-0.8,1.1S469.5,78.9,469,78.9z"/>
			<path d="M479.1,75.2v-0.9c0.2,0,0.4,0,0.5-0.1c0.1,0,0.3-0.2,0.3-0.3s0.1-0.4,0.1-0.8v-5.4c0-0.3,0-0.5,0-0.7s0-0.4,0-0.5
				c-0.1,0-0.3,0-0.6,0c-0.2,0-0.4,0-0.5,0v-1.1c0.7,0,1.3,0,2,0c0.7,0,1.3,0,2,0c0.8,0,1.5,0.1,2.1,0.3c0.6,0.2,1.1,0.5,1.4,1
				c0.3,0.4,0.5,1,0.5,1.8c0,0.4-0.1,0.8-0.3,1.1c-0.2,0.4-0.5,0.7-0.8,0.9c-0.4,0.3-0.8,0.5-1.4,0.6c0.2,0.1,0.4,0.2,0.5,0.4
				s0.3,0.3,0.4,0.5l0.7,1c0.2,0.3,0.4,0.6,0.5,0.8c0.2,0.2,0.3,0.3,0.5,0.4c0.2,0.1,0.3,0.1,0.5,0.1v0.9h-2.3
				c-0.2-0.1-0.3-0.3-0.5-0.5c-0.2-0.2-0.3-0.5-0.5-0.8l-1-1.7c-0.1-0.2-0.2-0.3-0.3-0.5c-0.1-0.1-0.2-0.2-0.3-0.3
				c-0.1,0-0.3,0-0.4,0c-0.1,0-0.2,0-0.3,0v1.5c0,0.3,0,0.5,0,0.7s0,0.4,0,0.5c0.1,0,0.2,0,0.4,0c0.2,0,0.3,0,0.5,0
				c0.2,0,0.3,0,0.3,0v1.1H479.1z M482.8,70.3c0.5,0,0.9-0.1,1.3-0.2c0.3-0.2,0.5-0.4,0.7-0.7c0.1-0.3,0.2-0.7,0.2-1.2
				c0-0.4-0.1-0.8-0.2-1.1c-0.1-0.3-0.3-0.4-0.5-0.6s-0.4-0.2-0.6-0.2s-0.4,0-0.5,0c-0.2,0-0.4,0-0.5,0.1c-0.1,0-0.2,0.1-0.3,0.3
				c-0.1,0.2-0.1,0.4-0.1,0.7v2.9c0.1,0,0.2,0,0.3,0C482.5,70.3,482.6,70.3,482.8,70.3z"/>
			<path d="M492.4,75.2c0-0.1,0-0.2,0-0.3c0-0.1,0-0.2,0-0.3c-0.3,0.3-0.7,0.5-1,0.7c-0.4,0.1-0.7,0.2-1.1,0.2
				c-0.6,0-1.1-0.2-1.4-0.5s-0.5-0.8-0.5-1.3c0-0.4,0.1-0.8,0.3-1.1c0.2-0.3,0.5-0.6,0.9-0.8c0.4-0.2,0.8-0.4,1.3-0.5
				s0.9-0.2,1.4-0.2v-0.7c0-0.2,0-0.5-0.1-0.7c-0.1-0.2-0.2-0.4-0.3-0.5s-0.3-0.2-0.6-0.2c-0.2,0-0.3,0-0.5,0.1
				c-0.2,0.1-0.3,0.2-0.4,0.3c0.1,0.1,0.1,0.2,0.1,0.3c0,0.1,0,0.2,0,0.3c0,0.2-0.1,0.4-0.2,0.6c-0.1,0.2-0.4,0.3-0.7,0.3
				c-0.3,0-0.5-0.1-0.6-0.3c-0.2-0.2-0.2-0.4-0.2-0.7c0-0.4,0.1-0.7,0.4-1c0.3-0.3,0.6-0.5,1.1-0.6c0.4-0.2,0.9-0.2,1.5-0.2
				c0.8,0,1.5,0.2,1.9,0.6c0.5,0.4,0.7,1.1,0.7,2c0,0.3,0,0.6,0,0.8c0,0.2,0,0.4,0,0.7c0,0.2,0,0.5,0,0.8c0,0.1,0,0.3,0,0.6
				c0,0.2,0,0.5,0,0.7c0.2,0,0.3,0,0.5,0c0.2,0,0.3,0,0.4,0v1.1H492.4z M492.3,71.9c-0.3,0-0.5,0.1-0.7,0.1
				c-0.2,0.1-0.4,0.2-0.6,0.3c-0.2,0.1-0.3,0.2-0.4,0.4c-0.1,0.2-0.1,0.3-0.1,0.5c0,0.3,0.1,0.4,0.3,0.6c0.2,0.1,0.3,0.2,0.5,0.2
				c0.2,0,0.4,0,0.6-0.1c0.2-0.1,0.4-0.2,0.5-0.4c0-0.1,0-0.2,0-0.3c0-0.1,0-0.2,0-0.3c0-0.2,0-0.3,0-0.5S492.3,72.1,492.3,71.9z"/>
			<path d="M498.7,75.4c-0.3,0-0.6,0-0.8-0.1c-0.3-0.1-0.5-0.2-0.7-0.4c-0.2-0.2-0.4-0.5-0.5-0.8c-0.1-0.4-0.2-0.8-0.2-1.4l0-3.4h-1
				v-1.2c0.3,0,0.6-0.1,0.8-0.3c0.3-0.2,0.5-0.4,0.7-0.7s0.3-0.6,0.4-0.9h1l0,2h1.8v1.1l-1.8,0l0,3.4c0,0.2,0,0.4,0.1,0.6
				s0.1,0.4,0.2,0.5s0.3,0.2,0.5,0.2c0.1,0,0.3,0,0.5-0.1s0.5-0.3,0.7-0.7l0.7,0.6c-0.3,0.4-0.5,0.7-0.8,0.9
				c-0.3,0.2-0.5,0.4-0.8,0.4s-0.5,0.1-0.7,0.2C498.9,75.4,498.7,75.4,498.7,75.4z"/>
			<path d="M505,75.4c-0.7,0-1.3-0.2-1.8-0.5s-0.9-0.7-1.2-1.3c-0.3-0.6-0.4-1.2-0.4-2c0-0.7,0.1-1.3,0.4-1.8s0.7-1,1.2-1.4
				c0.5-0.3,1.1-0.5,1.8-0.5c0.4,0,0.8,0.1,1.1,0.2c0.4,0.1,0.7,0.3,1,0.6c0.3,0.3,0.5,0.6,0.7,1.1c0.2,0.4,0.3,1,0.3,1.7l-4.6,0.1
				c0,0.5,0.1,1,0.2,1.4c0.1,0.4,0.3,0.7,0.6,1c0.3,0.2,0.7,0.4,1.2,0.4c0.2,0,0.4,0,0.6-0.1c0.2-0.1,0.5-0.2,0.7-0.3
				c0.2-0.2,0.5-0.4,0.7-0.6l0.6,0.6c-0.3,0.5-0.7,0.8-1.1,1.1c-0.4,0.2-0.8,0.4-1.1,0.5C505.6,75.3,505.3,75.4,505,75.4z
				 M503.7,70.5h2.6c0-0.4-0.1-0.7-0.2-0.9c-0.1-0.2-0.2-0.4-0.4-0.5s-0.4-0.2-0.6-0.2c-0.4,0-0.7,0.1-1,0.4
				C503.9,69.6,503.7,70,503.7,70.5z"/>
			<path d="M425,84.5c0-1.1,0.2-1.9,0.7-2.4c0.5-0.5,1.2-0.7,2-0.7c0.4,0,0.8,0.1,1,0.2s0.4,0.3,0.6,0.5c0.1,0.2,0.2,0.4,0.2,0.6
				c0,0.2-0.1,0.5-0.2,0.6c-0.2,0.2-0.4,0.3-0.6,0.3c-0.3,0-0.5-0.1-0.6-0.2c-0.1-0.2-0.2-0.3-0.2-0.6c0,0,0-0.1,0-0.1
				c0,0,0-0.1,0-0.1c0,0-0.1-0.1-0.2-0.1c-0.1,0-0.1,0-0.2,0c-0.1,0-0.3,0-0.3,0.1c-0.1,0.1-0.1,0.2-0.2,0.3c0,0.1,0,0.3,0,0.4V85
				h1.6V86l-1.6,0l0,3.6c0,0.1,0,0.3,0,0.6c0,0.2,0,0.5,0,0.7c0.2,0,0.3,0,0.5,0c0.2,0,0.3,0,0.4,0V92h-3.7V91
				c0.3,0,0.5-0.1,0.6-0.2c0.1-0.1,0.2-0.2,0.2-0.4s0-0.4,0-0.7v-3.7l-1,0V85h1V84.5z"/>
			<path d="M432.7,92.2c-0.7,0-1.3-0.1-1.8-0.4s-1-0.7-1.3-1.2c-0.3-0.5-0.5-1.2-0.5-1.9c0-0.8,0.2-1.5,0.5-2c0.3-0.6,0.8-1,1.3-1.4
				c0.5-0.3,1.1-0.5,1.8-0.5c0.7,0,1.3,0.1,1.8,0.4c0.5,0.3,1,0.7,1.3,1.2c0.3,0.5,0.5,1.2,0.5,1.9c0,0.8-0.2,1.5-0.4,2
				s-0.7,1-1.2,1.3S433.4,92.2,432.7,92.2z M432.8,91.2c0.4,0,0.7-0.1,0.8-0.4s0.3-0.6,0.4-1c0.1-0.4,0.1-0.8,0.1-1.2
				c0-0.3,0-0.7-0.1-1.1c-0.1-0.4-0.1-0.7-0.2-1c-0.1-0.3-0.3-0.5-0.5-0.7c-0.2-0.2-0.4-0.3-0.7-0.3c-0.4,0-0.7,0.1-0.9,0.4
				c-0.2,0.3-0.4,0.6-0.4,0.9c-0.1,0.4-0.1,0.8-0.1,1.2c0,0.5,0.1,0.9,0.2,1.4c0.1,0.5,0.3,0.8,0.5,1.1
				C432.1,91.1,432.4,91.2,432.8,91.2z"/>
			<path d="M437.2,91c0.3,0,0.4-0.1,0.6-0.2c0.1-0.1,0.2-0.2,0.2-0.4s0-0.4,0-0.7v-2.4c0-0.2,0-0.4,0-0.6c0-0.2,0-0.4,0-0.6
				c-0.1,0-0.3,0-0.5,0c-0.2,0-0.4,0-0.5,0v-1.1h0.6c0.4,0,0.7,0,1-0.1c0.3-0.1,0.5-0.2,0.6-0.3h0.7c0,0.1,0,0.3,0,0.5
				c0,0.3,0,0.5,0,0.7c0.3-0.3,0.5-0.6,0.7-0.7c0.2-0.2,0.4-0.3,0.7-0.4c0.2-0.1,0.4-0.1,0.7-0.1c0.3,0,0.6,0.1,0.9,0.3
				c0.2,0.2,0.4,0.5,0.4,0.9c0,0.1,0,0.3-0.1,0.4c-0.1,0.2-0.2,0.3-0.3,0.4s-0.3,0.2-0.6,0.2c-0.2,0-0.4-0.1-0.6-0.2
				c-0.2-0.1-0.3-0.3-0.3-0.6c-0.2,0-0.4,0.1-0.6,0.2c-0.2,0.2-0.4,0.3-0.5,0.5c-0.1,0.2-0.2,0.4-0.3,0.6v2.3c0,0.1,0,0.3,0,0.6
				c0,0.2,0,0.5,0,0.7c0.1,0,0.3,0,0.5,0c0.2,0,0.3,0,0.4,0V92h-3.7V91z"/>
			<path d="M451.5,92c0-0.1,0-0.2,0-0.3c0-0.1,0-0.2,0-0.3c-0.3,0.3-0.7,0.5-1,0.7c-0.4,0.1-0.7,0.2-1.1,0.2c-0.6,0-1.1-0.2-1.4-0.5
				s-0.5-0.8-0.5-1.3c0-0.4,0.1-0.8,0.3-1.1c0.2-0.3,0.5-0.6,0.9-0.8c0.4-0.2,0.8-0.4,1.3-0.5s0.9-0.2,1.4-0.2V87
				c0-0.2,0-0.5-0.1-0.7c-0.1-0.2-0.2-0.4-0.3-0.5s-0.3-0.2-0.6-0.2c-0.2,0-0.3,0-0.5,0.1c-0.2,0.1-0.3,0.2-0.4,0.3
				c0.1,0.1,0.1,0.2,0.1,0.3c0,0.1,0,0.2,0,0.3c0,0.2-0.1,0.4-0.2,0.6c-0.1,0.2-0.4,0.3-0.7,0.3c-0.3,0-0.5-0.1-0.6-0.3
				c-0.2-0.2-0.2-0.4-0.2-0.7c0-0.4,0.1-0.7,0.4-1c0.3-0.3,0.6-0.5,1.1-0.6c0.4-0.2,0.9-0.2,1.5-0.2c0.8,0,1.5,0.2,1.9,0.6
				c0.5,0.4,0.7,1.1,0.7,2c0,0.3,0,0.6,0,0.8c0,0.2,0,0.4,0,0.7c0,0.2,0,0.5,0,0.8c0,0.1,0,0.3,0,0.6c0,0.2,0,0.5,0,0.7
				c0.2,0,0.3,0,0.5,0c0.2,0,0.3,0,0.4,0V92H451.5z M451.3,88.7c-0.3,0-0.5,0.1-0.7,0.1c-0.2,0.1-0.4,0.2-0.6,0.3
				c-0.2,0.1-0.3,0.2-0.4,0.4c-0.1,0.2-0.1,0.3-0.1,0.5c0,0.3,0.1,0.4,0.3,0.6c0.2,0.1,0.3,0.2,0.5,0.2c0.2,0,0.4,0,0.6-0.1
				c0.2-0.1,0.4-0.2,0.5-0.4c0-0.1,0-0.2,0-0.3c0-0.1,0-0.2,0-0.3c0-0.2,0-0.3,0-0.5S451.3,88.9,451.3,88.7z"/>
			<path d="M458.8,92V91c0.2,0,0.4,0,0.5-0.1c0.1,0,0.3-0.2,0.3-0.3c0.1-0.2,0.1-0.4,0.1-0.8v-5.4c0-0.3,0-0.5,0-0.7
				c0-0.2,0-0.4,0-0.5c-0.1,0-0.3,0-0.6,0c-0.2,0-0.4,0-0.5,0v-1.1c0.7,0,1.3,0,2,0s1.3,0,2,0c0.8,0,1.5,0.1,2.1,0.3
				c0.6,0.2,1.1,0.5,1.4,1c0.3,0.4,0.5,1,0.5,1.8c0,0.4-0.1,0.8-0.3,1.1c-0.2,0.4-0.5,0.7-0.8,0.9c-0.4,0.3-0.8,0.5-1.4,0.6
				c0.2,0.1,0.4,0.2,0.5,0.4c0.2,0.2,0.3,0.3,0.4,0.5l0.7,1c0.2,0.3,0.4,0.6,0.5,0.8c0.2,0.2,0.3,0.3,0.5,0.4
				c0.2,0.1,0.3,0.1,0.5,0.1V92h-2.3c-0.2-0.1-0.3-0.3-0.5-0.5c-0.2-0.2-0.3-0.5-0.5-0.8l-1-1.7c-0.1-0.2-0.2-0.3-0.3-0.5
				c-0.1-0.1-0.2-0.2-0.3-0.3c-0.2,0-0.3,0-0.4,0c-0.1,0-0.2,0-0.3,0v1.5c0,0.3,0,0.5,0,0.7c0,0.2,0,0.4,0,0.5c0.1,0,0.2,0,0.4,0
				c0.2,0,0.3,0,0.5,0c0.2,0,0.3,0,0.3,0V92H458.8z M462.5,87.1c0.5,0,0.9-0.1,1.3-0.2c0.3-0.2,0.5-0.4,0.7-0.7
				c0.1-0.3,0.2-0.7,0.2-1.2c0-0.4-0.1-0.8-0.2-1.1s-0.3-0.4-0.5-0.6c-0.2-0.1-0.4-0.2-0.6-0.2s-0.4,0-0.5,0c-0.2,0-0.4,0-0.5,0.1
				c-0.1,0-0.2,0.1-0.3,0.3c-0.1,0.2-0.1,0.4-0.1,0.7v2.9c0.1,0,0.2,0,0.3,0C462.2,87.1,462.3,87.1,462.5,87.1z"/>
			<path d="M471.6,92.2c-0.7,0-1.3-0.2-1.8-0.5s-0.9-0.7-1.2-1.3c-0.3-0.6-0.4-1.2-0.4-2c0-0.7,0.1-1.3,0.4-1.8s0.7-1,1.2-1.4
				c0.5-0.3,1.1-0.5,1.8-0.5c0.4,0,0.8,0.1,1.1,0.2c0.4,0.1,0.7,0.3,1,0.6c0.3,0.3,0.5,0.6,0.7,1.1c0.2,0.4,0.3,1,0.3,1.7l-4.6,0.1
				c0,0.5,0.1,1,0.2,1.4c0.1,0.4,0.3,0.7,0.6,1c0.3,0.2,0.7,0.4,1.2,0.4c0.2,0,0.4,0,0.6-0.1c0.2-0.1,0.5-0.2,0.7-0.3
				c0.2-0.2,0.5-0.4,0.7-0.6l0.6,0.6c-0.3,0.5-0.7,0.8-1.1,1.1c-0.4,0.2-0.8,0.4-1.1,0.5C472.2,92.1,471.9,92.2,471.6,92.2z
				 M470.2,87.3h2.6c0-0.4-0.1-0.7-0.2-0.9c-0.1-0.2-0.2-0.4-0.4-0.5s-0.4-0.2-0.6-0.2c-0.4,0-0.7,0.1-1,0.4
				C470.5,86.4,470.3,86.8,470.2,87.3z"/>
			<path d="M478.8,95.7c-0.8,0-1.4-0.1-1.9-0.3c-0.5-0.2-0.8-0.4-1-0.7c-0.2-0.3-0.3-0.6-0.3-0.9c0-0.2,0-0.4,0.1-0.6
				c0.1-0.2,0.2-0.4,0.4-0.6c0.2-0.2,0.5-0.3,0.8-0.5c-0.4-0.1-0.7-0.3-0.8-0.5c-0.2-0.2-0.2-0.5-0.2-0.7c0-0.2,0.1-0.5,0.3-0.8
				c0.2-0.3,0.6-0.5,1.1-0.7c-0.4-0.2-0.7-0.4-1-0.7c-0.3-0.3-0.4-0.7-0.4-1.2c0-0.6,0.1-1.1,0.4-1.5c0.3-0.4,0.7-0.8,1.2-1
				s1-0.4,1.5-0.4c0.2,0,0.5,0,0.8,0.1c0.3,0.1,0.6,0.2,0.8,0.3c0.1-0.3,0.2-0.6,0.4-0.8s0.4-0.5,0.6-0.6c0.2-0.2,0.5-0.2,0.8-0.2
				c0.3,0,0.6,0.1,0.7,0.2c0.2,0.2,0.2,0.4,0.2,0.7c0,0.1,0,0.2-0.1,0.4c-0.1,0.1-0.1,0.2-0.3,0.3s-0.3,0.1-0.5,0.1
				c-0.1,0-0.3-0.1-0.4-0.2c-0.1-0.1-0.2-0.2-0.3-0.4c-0.1,0-0.2,0.2-0.4,0.4c-0.1,0.2-0.2,0.4-0.2,0.5c0.3,0.2,0.5,0.5,0.6,0.8
				c0.1,0.3,0.2,0.6,0.2,1c0,0.5-0.2,1-0.5,1.4c-0.3,0.4-0.7,0.7-1.2,1c-0.5,0.2-1,0.4-1.5,0.4c-0.1,0-0.3,0-0.4,0
				c-0.2,0-0.3,0-0.4,0c-0.2,0-0.4,0-0.5,0.1c-0.1,0.1-0.2,0.2-0.2,0.3c0,0.2,0.1,0.3,0.4,0.4c0.3,0.1,0.7,0.1,1.4,0.2
				c0.7,0,1.3,0.1,1.9,0.3c0.5,0.1,1,0.4,1.3,0.7c0.3,0.3,0.4,0.7,0.4,1.3c0,0.4-0.1,0.8-0.3,1.1c-0.2,0.3-0.5,0.6-0.9,0.8
				c-0.4,0.2-0.8,0.4-1.3,0.5S479.2,95.7,478.8,95.7z M479.2,94.8c0.7,0,1.2-0.1,1.5-0.4c0.3-0.2,0.5-0.5,0.5-0.8
				c0-0.2-0.1-0.4-0.2-0.5c-0.1-0.1-0.4-0.2-0.7-0.3c-0.3-0.1-0.7-0.1-1.1-0.1c-0.2,0-0.4,0-0.7,0c-0.3,0-0.5,0-0.7-0.1
				c-0.1,0.1-0.2,0.3-0.3,0.4c-0.1,0.2-0.1,0.3-0.1,0.5c0,0.4,0.1,0.7,0.5,0.9S478.6,94.8,479.2,94.8z M479,89.2
				c0.3,0,0.5-0.1,0.6-0.2s0.3-0.4,0.4-0.6c0.1-0.2,0.1-0.5,0.1-0.7c0-0.3,0-0.6-0.1-0.9s-0.2-0.6-0.4-0.7s-0.4-0.3-0.7-0.3
				c-0.4,0-0.7,0.2-0.9,0.5c-0.2,0.3-0.3,0.7-0.3,1.1c0,0.3,0,0.6,0.1,0.9c0.1,0.3,0.2,0.5,0.4,0.7C478.5,89.1,478.7,89.2,479,89.2z
				"/>
			<path d="M483.6,91c0.3,0,0.4-0.1,0.6-0.2c0.1-0.1,0.2-0.2,0.2-0.4s0-0.4,0-0.7v-2.3c0-0.2,0-0.4,0-0.6c0-0.2,0-0.4,0-0.6
				c-0.2,0-0.3,0-0.5,0c-0.2,0-0.4,0-0.5,0v-1.1c0.4,0,0.8,0,1.1-0.1c0.3,0,0.5-0.1,0.7-0.2c0.2-0.1,0.3-0.1,0.4-0.2h0.8v4.9
				c0,0.1,0,0.3,0,0.6c0,0.2,0,0.5,0,0.7c0.1,0,0.3,0,0.5,0c0.2,0,0.3,0,0.4,0V92h-3.7V91z M485.3,83.7c-0.3,0-0.6-0.1-0.8-0.3
				c-0.2-0.2-0.3-0.5-0.3-0.8s0.1-0.6,0.3-0.8s0.5-0.3,0.8-0.3c0.3,0,0.5,0.1,0.7,0.3s0.3,0.5,0.3,0.8s-0.1,0.6-0.3,0.8
				C485.9,83.6,485.6,83.7,485.3,83.7z"/>
			<path d="M491.6,92.2c-0.7,0-1.3-0.1-1.8-0.4c-0.5-0.3-1-0.7-1.3-1.2c-0.3-0.5-0.5-1.2-0.5-1.9c0-0.8,0.2-1.5,0.5-2
				c0.3-0.6,0.8-1,1.3-1.4c0.5-0.3,1.1-0.5,1.8-0.5c0.7,0,1.3,0.1,1.8,0.4c0.5,0.3,1,0.7,1.3,1.2s0.5,1.2,0.5,1.9
				c0,0.8-0.1,1.5-0.4,2s-0.7,1-1.2,1.3C492.9,92,492.3,92.2,491.6,92.2z M491.6,91.2c0.4,0,0.7-0.1,0.8-0.4c0.2-0.3,0.3-0.6,0.4-1
				c0.1-0.4,0.1-0.8,0.1-1.2c0-0.3,0-0.7-0.1-1.1c-0.1-0.4-0.1-0.7-0.2-1c-0.1-0.3-0.3-0.5-0.5-0.7c-0.2-0.2-0.4-0.3-0.7-0.3
				c-0.4,0-0.7,0.1-0.9,0.4c-0.2,0.3-0.4,0.6-0.4,0.9c-0.1,0.4-0.1,0.8-0.1,1.2c0,0.5,0.1,0.9,0.2,1.4c0.1,0.5,0.3,0.8,0.5,1.1
				C490.9,91.1,491.2,91.2,491.6,91.2z"/>
			<path d="M496.1,92V91c0.3,0,0.4-0.1,0.6-0.2c0.1-0.1,0.2-0.2,0.2-0.4s0-0.4,0-0.7v-2.4c0-0.2,0-0.4,0-0.6c0-0.2,0-0.4,0-0.6
				c-0.2,0-0.3,0-0.5,0c-0.2,0-0.4,0-0.5,0v-1.1c0.4,0,0.8,0,1.1-0.1c0.3,0,0.5-0.1,0.7-0.2c0.2-0.1,0.3-0.1,0.4-0.2h0.7
				c0,0.1,0,0.2,0,0.3s0,0.1,0,0.2c0,0.1,0,0.1,0,0.3c0.2-0.1,0.4-0.3,0.6-0.4c0.2-0.1,0.5-0.2,0.7-0.3c0.2-0.1,0.5-0.1,0.6-0.1
				c0.9,0,1.5,0.2,1.8,0.7c0.4,0.5,0.5,1.3,0.5,2.4v1.9c0,0.1,0,0.3,0,0.6c0,0.2,0,0.5,0,0.7c0.2,0,0.3,0,0.5,0c0.2,0,0.3,0,0.4,0
				V92h-3.7V91c0.3,0,0.5-0.1,0.6-0.2c0.1-0.1,0.2-0.2,0.2-0.4c0-0.2,0-0.4,0-0.7l0-2c0-0.6-0.1-1.1-0.3-1.4
				c-0.2-0.3-0.5-0.4-0.9-0.4c-0.2,0-0.5,0.1-0.7,0.2c-0.2,0.1-0.4,0.2-0.6,0.4c0,0.1,0,0.3,0,0.4s0,0.3,0,0.4v2.4
				c0,0.1,0,0.3,0,0.6c0,0.2,0,0.5,0,0.7c0.1,0,0.3,0,0.5,0c0.2,0,0.3,0,0.4,0V92H496.1z"/>
		</g>
	</g>
</g>
<rect x="14" y="32" class="st14" width="116" height="148"/>
<rect x="147" y="32" class="st14" width="400" height="148"/>
</svg>
