<?xml version="1.0" encoding="utf-8"?>
<!-- Generator: Adobe Illustrator 26.5.2, SVG Export Plug-In . SVG Version: 6.00 Build 0)  -->
<svg version="1.1" id="Layer_1" xmlns="http://www.w3.org/2000/svg" xmlns:xlink="http://www.w3.org/1999/xlink" x="0px" y="0px"
	 viewBox="0 0 560 100" style="enable-background:new 0 0 560 100;" xml:space="preserve">
<style type="text/css">
	.st0{fill:#77858D;stroke:#1C3441;stroke-linecap:round;stroke-linejoin:round;}
	.st1{opacity:0.2;fill:#77858D;stroke:#1C3441;stroke-linecap:round;stroke-linejoin:round;}
</style>
<polygon class="st0" points="204,63.1 204,38.7 183,26.6 162.1,38.7 162.1,63.1 183,75.3 "/>
<polygon class="st1" points="327.9,61.9 327.9,37.5 307,25.3 286,37.5 286,61.9 307,74 "/>
<g>
	<g>
		<g>
			<path d="M219.8,41.7v-0.8c0.2,0,0.3,0,0.4-0.1c0.1,0,0.2-0.1,0.3-0.3c0.1-0.1,0.1-0.4,0.1-0.7v-4.5c0-0.2,0-0.4,0-0.6
				c0-0.2,0-0.3,0-0.4c-0.1,0-0.3,0-0.5,0c-0.2,0-0.3,0-0.4,0v-0.9h5.8l0.1,2.3h-0.8c0-0.4-0.1-0.8-0.2-1c-0.1-0.2-0.3-0.4-0.5-0.4
				c-0.2-0.1-0.4-0.1-0.6-0.1l-0.4,0c-0.2,0-0.3,0-0.4,0.1c-0.1,0-0.2,0.1-0.3,0.3c-0.1,0.1-0.1,0.4-0.1,0.7v2h1.2l0-1h0.9v2.8h-0.8
				c0-0.3-0.1-0.6-0.2-0.7s-0.2-0.2-0.4-0.3s-0.4,0-0.6,0h-0.1v1.6c0,0.2,0,0.4,0,0.6c0,0.2,0,0.3,0,0.4c0.1,0,0.2,0,0.3,0
				s0.3,0,0.4,0c0.1,0,0.2,0,0.3,0v0.9H219.8z"/>
			<path d="M229,41.9c-0.6,0-1.1-0.1-1.5-0.4c-0.4-0.3-0.8-0.6-1-1.1c-0.2-0.5-0.4-1-0.4-1.6c0-0.5,0.1-1.1,0.4-1.5
				c0.2-0.5,0.6-0.9,1-1.1c0.4-0.3,0.9-0.4,1.5-0.4c0.3,0,0.6,0,1,0.1s0.6,0.2,0.8,0.5c0.3,0.2,0.5,0.5,0.6,0.9
				c0.2,0.4,0.2,0.8,0.2,1.4l-3.8,0.1c0,0.4,0.1,0.8,0.2,1.1c0.1,0.3,0.3,0.6,0.5,0.8c0.2,0.2,0.6,0.3,1,0.3c0.2,0,0.3,0,0.5-0.1
				c0.2-0.1,0.4-0.1,0.6-0.3c0.2-0.1,0.4-0.3,0.6-0.5l0.5,0.5c-0.3,0.4-0.6,0.7-0.9,0.9s-0.6,0.3-0.9,0.4
				C229.6,41.9,229.3,41.9,229,41.9z M227.9,37.8h2.1c0-0.3-0.1-0.6-0.1-0.8c-0.1-0.2-0.2-0.3-0.3-0.4c-0.1-0.1-0.3-0.1-0.5-0.1
				c-0.3,0-0.6,0.1-0.8,0.4C228.1,37.1,228,37.4,227.9,37.8z"/>
			<path d="M232.5,41.7V41c0.2,0,0.4,0,0.5-0.1c0.1-0.1,0.2-0.2,0.2-0.4c0-0.2,0-0.3,0-0.5v-2c0-0.1,0-0.3,0-0.5c0-0.2,0-0.3,0-0.5
				c-0.1,0-0.3,0-0.4,0c-0.2,0-0.3,0-0.4,0v-0.9c0.4,0,0.7,0,0.9-0.1c0.2,0,0.4-0.1,0.6-0.1c0.1-0.1,0.2-0.1,0.3-0.2h0.6
				c0,0.1,0,0.2,0,0.3c0,0.1,0,0.2,0,0.3c0.3-0.2,0.5-0.4,0.9-0.5s0.6-0.2,0.9-0.2c0.4,0,0.6,0.1,0.9,0.2s0.4,0.3,0.6,0.6
				c0.3-0.2,0.6-0.4,0.9-0.6c0.3-0.1,0.7-0.2,1-0.2c0.6,0,1.1,0.2,1.4,0.5c0.3,0.4,0.5,1,0.5,1.9v1.7c0,0.1,0,0.3,0,0.5
				c0,0.2,0,0.4,0,0.6c0.1,0,0.3,0,0.4,0c0.2,0,0.3,0,0.3,0v0.9h-2.9V41c0.2,0,0.3,0,0.4-0.1c0.1-0.1,0.1-0.2,0.2-0.4
				c0-0.2,0-0.3,0-0.5v-1.8c0-0.5-0.1-0.9-0.2-1.1c-0.2-0.2-0.4-0.3-0.6-0.3c-0.2,0-0.4,0-0.6,0.1c-0.2,0.1-0.3,0.2-0.5,0.3
				c0,0.2,0.1,0.3,0.1,0.5c0,0.2,0,0.4,0,0.6c0,0.3,0,0.5,0,0.8s0,0.5,0,0.8c0,0.1,0,0.3,0,0.5c0,0.2,0,0.4,0,0.6c0.1,0,0.3,0,0.4,0
				c0.1,0,0.3,0,0.3,0v0.9h-3V41c0.2,0,0.3,0,0.4-0.1c0.1-0.1,0.1-0.2,0.2-0.4c0-0.2,0-0.3,0-0.5l0-1.8c0-0.5-0.1-0.9-0.2-1
				c-0.1-0.2-0.4-0.3-0.6-0.3c-0.2,0-0.4,0-0.5,0.1c-0.2,0.1-0.3,0.2-0.4,0.3c0,0.1,0,0.2,0,0.3c0,0.1,0,0.2,0,0.3v2.1
				c0,0.1,0,0.3,0,0.5c0,0.2,0,0.4,0,0.6c0.1,0,0.3,0,0.4,0s0.2,0,0.3,0v0.9H232.5z"/>
			<path d="M246.4,41.7c0-0.1,0-0.2,0-0.3c0-0.1,0-0.2,0-0.3c-0.3,0.3-0.5,0.5-0.8,0.6c-0.3,0.1-0.6,0.2-0.9,0.2
				c-0.5,0-0.9-0.1-1.2-0.4c-0.3-0.3-0.4-0.7-0.4-1.1c0-0.4,0.1-0.7,0.3-1c0.2-0.3,0.4-0.5,0.8-0.6c0.3-0.2,0.7-0.3,1-0.4
				c0.4-0.1,0.8-0.1,1.2-0.2v-0.6c0-0.2,0-0.4-0.1-0.5c-0.1-0.2-0.1-0.3-0.3-0.4c-0.1-0.1-0.3-0.1-0.5-0.1c-0.1,0-0.3,0-0.4,0.1
				c-0.1,0.1-0.3,0.1-0.4,0.2c0.1,0.1,0.1,0.1,0.1,0.2c0,0.1,0,0.2,0,0.2c0,0.2-0.1,0.3-0.2,0.5c-0.1,0.2-0.3,0.2-0.6,0.2
				c-0.2,0-0.4-0.1-0.5-0.2c-0.1-0.2-0.2-0.3-0.2-0.5c0-0.3,0.1-0.6,0.3-0.8s0.5-0.4,0.9-0.5c0.4-0.1,0.8-0.2,1.2-0.2
				c0.7,0,1.2,0.2,1.6,0.5c0.4,0.4,0.6,0.9,0.6,1.7c0,0.3,0,0.5,0,0.7c0,0.2,0,0.4,0,0.6c0,0.2,0,0.4,0,0.7c0,0.1,0,0.3,0,0.5
				c0,0.2,0,0.4,0,0.6c0.1,0,0.3,0,0.4,0c0.1,0,0.3,0,0.3,0v0.9H246.4z M246.3,39c-0.2,0-0.4,0.1-0.6,0.1c-0.2,0.1-0.4,0.1-0.5,0.2
				c-0.1,0.1-0.3,0.2-0.3,0.3s-0.1,0.3-0.1,0.4c0,0.2,0.1,0.4,0.2,0.5c0.1,0.1,0.3,0.1,0.5,0.1c0.2,0,0.3,0,0.5-0.1
				c0.2-0.1,0.3-0.2,0.4-0.3c0-0.1,0-0.2,0-0.2s0-0.1,0-0.2c0-0.1,0-0.3,0-0.4S246.3,39.2,246.3,39z"/>
			<path d="M249.1,41c0.2,0,0.4,0,0.5-0.1c0.1-0.1,0.2-0.2,0.2-0.4c0-0.2,0-0.3,0-0.5v-4.8c0-0.1,0-0.3,0-0.5c0-0.2,0-0.4,0-0.5
				c-0.1,0-0.3,0-0.4,0c-0.2,0-0.3,0-0.4,0v-0.9c0.4,0,0.7,0,0.9-0.1c0.2,0,0.4-0.1,0.6-0.1c0.1-0.1,0.2-0.1,0.3-0.2h0.6v6.9
				c0,0.1,0,0.3,0,0.5c0,0.2,0,0.4,0,0.6c0.1,0,0.3,0,0.4,0c0.1,0,0.3,0,0.3,0v0.9h-3V41z"/>
			<path d="M255.6,41.9c-0.6,0-1.1-0.1-1.5-0.4c-0.4-0.3-0.8-0.6-1-1.1c-0.2-0.5-0.4-1-0.4-1.6c0-0.5,0.1-1.1,0.4-1.5
				c0.2-0.5,0.6-0.9,1-1.1c0.4-0.3,0.9-0.4,1.5-0.4c0.3,0,0.6,0,1,0.1s0.6,0.2,0.8,0.5c0.3,0.2,0.5,0.5,0.6,0.9
				c0.2,0.4,0.2,0.8,0.2,1.4l-3.8,0.1c0,0.4,0.1,0.8,0.2,1.1c0.1,0.3,0.3,0.6,0.5,0.8c0.2,0.2,0.6,0.3,1,0.3c0.2,0,0.3,0,0.5-0.1
				c0.2-0.1,0.4-0.1,0.6-0.3c0.2-0.1,0.4-0.3,0.6-0.5l0.5,0.5c-0.3,0.4-0.6,0.7-0.9,0.9s-0.6,0.3-0.9,0.4
				C256.2,41.9,255.9,41.9,255.6,41.9z M254.5,37.8h2.1c0-0.3-0.1-0.6-0.1-0.8c-0.1-0.2-0.2-0.3-0.3-0.4c-0.1-0.1-0.3-0.1-0.5-0.1
				c-0.3,0-0.6,0.1-0.8,0.4C254.7,37.1,254.6,37.4,254.5,37.8z"/>
			<path d="M219.8,55.7V55c0.2,0,0.3,0,0.4-0.1c0.1,0,0.2-0.1,0.3-0.3c0.1-0.1,0.1-0.4,0.1-0.7v-4.5c0-0.2,0-0.4,0-0.6
				c0-0.2,0-0.3,0-0.4c-0.1,0-0.3,0-0.5,0c-0.2,0-0.3,0-0.4,0v-0.9h3.3v0.8c-0.2,0-0.3,0-0.4,0.1s-0.2,0.1-0.3,0.3
				c-0.1,0.1-0.1,0.4-0.1,0.7v4.5c0,0.2,0,0.4,0,0.6c0,0.2,0,0.3,0,0.4h1.6c0.5,0,0.8-0.2,1.1-0.5c0.3-0.3,0.4-0.8,0.4-1.4h0.8
				l-0.1,2.8H219.8z"/>
			<path d="M226.7,55c0.2,0,0.4,0,0.5-0.1c0.1-0.1,0.2-0.2,0.2-0.4c0-0.2,0-0.3,0-0.5V52c0-0.1,0-0.3,0-0.5s0-0.4,0-0.5
				c-0.1,0-0.3,0-0.4,0c-0.2,0-0.3,0-0.4,0v-0.9c0.4,0,0.7,0,0.9-0.1c0.2,0,0.4-0.1,0.6-0.1s0.2-0.1,0.3-0.2h0.6v4.1
				c0,0.1,0,0.3,0,0.5c0,0.2,0,0.4,0,0.6c0.1,0,0.3,0,0.4,0c0.2,0,0.3,0,0.3,0v0.9h-3V55z M228.1,48.9c-0.3,0-0.5-0.1-0.6-0.3
				c-0.2-0.2-0.3-0.4-0.3-0.7s0.1-0.5,0.3-0.7c0.2-0.2,0.4-0.3,0.6-0.3c0.2,0,0.5,0.1,0.6,0.3s0.2,0.4,0.2,0.7s-0.1,0.5-0.2,0.7
				C228.6,48.8,228.4,48.9,228.1,48.9z"/>
			<path d="M232.7,55.9c-0.2,0-0.5,0-0.7-0.1c-0.2-0.1-0.4-0.2-0.6-0.3c-0.2-0.2-0.3-0.4-0.4-0.7c-0.1-0.3-0.2-0.7-0.2-1.2l0-2.8
				h-0.8v-1c0.2,0,0.5-0.1,0.7-0.2c0.2-0.2,0.4-0.4,0.6-0.6c0.2-0.2,0.3-0.5,0.3-0.8h0.9l0,1.6h1.5v0.9l-1.5,0l0,2.9
				c0,0.2,0,0.4,0.1,0.5s0.1,0.3,0.2,0.4c0.1,0.1,0.2,0.2,0.4,0.2c0.1,0,0.3,0,0.4-0.1s0.4-0.3,0.6-0.6l0.6,0.5
				c-0.2,0.3-0.4,0.6-0.6,0.7c-0.2,0.2-0.4,0.3-0.6,0.4c-0.2,0.1-0.4,0.1-0.5,0.1C232.9,55.9,232.8,55.9,232.7,55.9z"/>
			<path d="M238,55.9c-0.6,0-1.1-0.1-1.5-0.4c-0.4-0.3-0.8-0.6-1-1.1c-0.2-0.5-0.4-1-0.4-1.6c0-0.5,0.1-1.1,0.4-1.5
				c0.2-0.5,0.6-0.9,1-1.1s0.9-0.4,1.5-0.4c0.3,0,0.6,0,1,0.1c0.3,0.1,0.6,0.2,0.8,0.5c0.3,0.2,0.5,0.5,0.6,0.9
				c0.2,0.4,0.2,0.8,0.2,1.4l-3.8,0.1c0,0.4,0.1,0.8,0.2,1.1c0.1,0.3,0.3,0.6,0.5,0.8c0.2,0.2,0.6,0.3,1,0.3c0.2,0,0.3,0,0.5-0.1
				c0.2-0.1,0.4-0.1,0.6-0.3c0.2-0.1,0.4-0.3,0.6-0.5l0.5,0.5c-0.3,0.4-0.6,0.7-0.9,0.9c-0.3,0.2-0.6,0.3-0.9,0.4
				C238.5,55.9,238.2,55.9,238,55.9z M236.9,51.8h2.1c0-0.3-0.1-0.6-0.1-0.8c-0.1-0.2-0.2-0.3-0.3-0.4c-0.1-0.1-0.3-0.1-0.5-0.1
				c-0.3,0-0.6,0.1-0.8,0.4C237.1,51.1,236.9,51.5,236.9,51.8z"/>
			<path d="M241.5,55c0.2,0,0.4,0,0.5-0.1c0.1-0.1,0.2-0.2,0.2-0.4c0-0.2,0-0.3,0-0.5v-2c0-0.1,0-0.3,0-0.5s0-0.3,0-0.5
				c-0.1,0-0.3,0-0.4,0c-0.2,0-0.3,0-0.4,0v-0.9h0.5c0.3,0,0.6,0,0.8-0.1c0.3-0.1,0.4-0.2,0.5-0.2h0.6c0,0.1,0,0.2,0,0.4
				c0,0.2,0,0.4,0,0.6c0.2-0.3,0.4-0.5,0.6-0.6c0.2-0.2,0.4-0.3,0.6-0.3c0.2-0.1,0.4-0.1,0.6-0.1c0.3,0,0.5,0.1,0.7,0.2
				c0.2,0.2,0.3,0.4,0.3,0.7c0,0.1,0,0.2-0.1,0.4c-0.1,0.1-0.1,0.2-0.3,0.3c-0.1,0.1-0.3,0.1-0.5,0.1c-0.2,0-0.3,0-0.5-0.1
				c-0.2-0.1-0.3-0.3-0.3-0.5c-0.2,0-0.3,0.1-0.5,0.2c-0.2,0.1-0.3,0.3-0.4,0.5s-0.2,0.3-0.2,0.5v1.9c0,0.1,0,0.3,0,0.5
				c0,0.2,0,0.4,0,0.6c0.1,0,0.3,0,0.4,0c0.2,0,0.3,0,0.3,0v0.9h-3V55z"/>
			<path d="M250.2,55.7c0-0.1,0-0.2,0-0.3s0-0.2,0-0.3c-0.3,0.3-0.5,0.5-0.8,0.6c-0.3,0.1-0.6,0.2-0.9,0.2c-0.5,0-0.9-0.1-1.2-0.4
				c-0.3-0.3-0.4-0.7-0.4-1.1c0-0.4,0.1-0.7,0.3-1c0.2-0.3,0.4-0.5,0.8-0.6c0.3-0.2,0.7-0.3,1-0.4c0.4-0.1,0.8-0.1,1.2-0.2v-0.6
				c0-0.2,0-0.4-0.1-0.5c-0.1-0.2-0.1-0.3-0.3-0.4c-0.1-0.1-0.3-0.1-0.5-0.1c-0.1,0-0.3,0-0.4,0.1c-0.1,0.1-0.3,0.1-0.4,0.2
				c0.1,0.1,0.1,0.1,0.1,0.2c0,0.1,0,0.2,0,0.2c0,0.2-0.1,0.3-0.2,0.5c-0.1,0.2-0.3,0.2-0.6,0.2c-0.2,0-0.4-0.1-0.5-0.2
				c-0.1-0.2-0.2-0.3-0.2-0.5c0-0.3,0.1-0.6,0.3-0.8s0.5-0.4,0.9-0.5c0.4-0.1,0.8-0.2,1.2-0.2c0.7,0,1.2,0.2,1.6,0.5
				c0.4,0.4,0.6,0.9,0.6,1.7c0,0.3,0,0.5,0,0.7c0,0.2,0,0.4,0,0.6s0,0.4,0,0.7c0,0.1,0,0.3,0,0.5c0,0.2,0,0.4,0,0.6
				c0.1,0,0.3,0,0.4,0c0.1,0,0.3,0,0.3,0v0.9H250.2z M250.1,53c-0.2,0-0.4,0.1-0.6,0.1c-0.2,0.1-0.4,0.1-0.5,0.2
				c-0.1,0.1-0.3,0.2-0.3,0.3c-0.1,0.1-0.1,0.3-0.1,0.4c0,0.2,0.1,0.4,0.2,0.5c0.1,0.1,0.3,0.1,0.5,0.1c0.2,0,0.3,0,0.5-0.1
				c0.2-0.1,0.3-0.2,0.4-0.3c0-0.1,0-0.2,0-0.2c0-0.1,0-0.1,0-0.2c0-0.1,0-0.3,0-0.4C250.1,53.3,250.1,53.2,250.1,53z"/>
			<path d="M255.8,55.9c-0.5,0-1-0.1-1.4-0.3s-0.8-0.6-1-1c-0.3-0.4-0.4-1-0.4-1.6c0-0.4,0.1-0.9,0.2-1.2c0.1-0.4,0.4-0.7,0.6-1
				s0.6-0.5,1-0.7c0.4-0.2,0.8-0.3,1.2-0.3c0.5,0,0.9,0.1,1.2,0.2c0.3,0.2,0.6,0.4,0.7,0.6s0.2,0.5,0.2,0.8c0,0.2-0.1,0.4-0.2,0.6
				c-0.1,0.2-0.3,0.3-0.6,0.3c-0.3,0-0.5-0.1-0.6-0.3s-0.2-0.3-0.2-0.5c0-0.1,0-0.2,0-0.3c0-0.1,0.1-0.2,0.1-0.3
				c-0.1-0.1-0.1-0.2-0.2-0.3c-0.1-0.1-0.2-0.1-0.3-0.1c-0.1,0-0.2,0-0.3,0c-0.4,0-0.7,0.2-0.9,0.6c-0.2,0.3-0.4,0.9-0.4,1.5
				c0,0.4,0,0.8,0.1,1.1s0.3,0.6,0.5,0.8s0.5,0.3,0.9,0.3c0.3,0,0.6-0.1,1-0.2c0.3-0.2,0.6-0.4,0.8-0.7l0.5,0.5
				c-0.3,0.4-0.6,0.7-0.9,0.9c-0.3,0.2-0.6,0.3-0.9,0.4C256.4,55.9,256.1,55.9,255.8,55.9z"/>
			<path d="M260.3,58.9c-0.3,0-0.5-0.1-0.7-0.3c-0.2-0.2-0.3-0.4-0.3-0.7c0-0.2,0.1-0.4,0.2-0.6c0.1-0.2,0.3-0.2,0.5-0.3
				c0.2,0,0.3,0,0.4,0.2c0.1,0.1,0.2,0.3,0.2,0.5c0,0,0,0,0,0.1c0,0,0,0.1,0,0.1c0,0,0,0,0.1,0c0.1,0,0.1-0.1,0.2-0.2
				s0.2-0.2,0.2-0.4c0.1-0.2,0.2-0.4,0.2-0.6s0.2-0.5,0.2-0.7l-1.8-3.7c-0.2-0.4-0.4-0.8-0.4-1c-0.1-0.2-0.1-0.4-0.1-0.6l-0.5,0
				v-0.9h2.9v0.7c-0.3,0-0.4,0.1-0.5,0.3c0,0.2,0,0.4,0.1,0.6l1.1,2.6c0.1-0.2,0.2-0.5,0.3-0.9c0.1-0.4,0.3-0.9,0.4-1.4
				c0-0.1,0.1-0.2,0.1-0.4c0-0.1,0.1-0.3,0.2-0.4c0.1-0.1,0.1-0.2,0.2-0.3l-0.7,0v-0.9h2.1v0.7c-0.2,0.1-0.4,0.2-0.6,0.4
				c-0.2,0.2-0.3,0.5-0.4,0.9l-1.4,4.2c-0.2,0.6-0.4,1.2-0.6,1.6c-0.2,0.4-0.4,0.7-0.6,0.9C261,58.8,260.7,58.9,260.3,58.9z"/>
			<path d="M219.8,69.7V69c0.2,0,0.3,0,0.4-0.1c0.1,0,0.2-0.1,0.3-0.3c0.1-0.1,0.1-0.4,0.1-0.7v-4.5c0-0.2,0-0.4,0-0.6
				c0-0.2,0-0.3,0-0.4c-0.1,0-0.3,0-0.5,0c-0.2,0-0.3,0-0.4,0v-0.9c0.5,0,1.1,0,1.6,0c0.5,0,1.1,0,1.6,0c0.7,0,1.3,0.1,1.8,0.2
				c0.5,0.2,0.9,0.4,1.2,0.8c0.3,0.4,0.4,0.9,0.4,1.5c0,0.3-0.1,0.6-0.2,0.9c-0.2,0.3-0.4,0.6-0.7,0.8s-0.7,0.4-1.1,0.5
				c0.1,0.1,0.3,0.2,0.4,0.3c0.1,0.1,0.3,0.3,0.4,0.4l0.5,0.8c0.2,0.3,0.3,0.5,0.5,0.6c0.1,0.2,0.3,0.3,0.4,0.3
				c0.1,0.1,0.3,0.1,0.5,0.1v0.8h-1.9c-0.1-0.1-0.3-0.2-0.4-0.4s-0.3-0.4-0.4-0.7l-0.9-1.4c-0.1-0.2-0.2-0.3-0.3-0.4
				c-0.1-0.1-0.1-0.2-0.2-0.3c-0.1,0-0.2,0-0.3,0s-0.2,0-0.3,0v1.2c0,0.2,0,0.4,0,0.6s0,0.3,0,0.4c0.1,0,0.2,0,0.3,0s0.3,0,0.4,0
				c0.1,0,0.2,0,0.3,0v0.9H219.8z M222.8,65.7c0.4,0,0.8-0.1,1-0.2c0.3-0.1,0.5-0.3,0.6-0.6s0.2-0.6,0.2-1c0-0.4-0.1-0.7-0.2-0.9
				c-0.1-0.2-0.3-0.4-0.4-0.5c-0.2-0.1-0.3-0.2-0.5-0.2s-0.3,0-0.4,0c-0.2,0-0.3,0-0.4,0.1c-0.1,0-0.2,0.1-0.3,0.3
				c-0.1,0.1-0.1,0.3-0.1,0.6v2.4c0.1,0,0.2,0,0.3,0C222.6,65.7,222.7,65.7,222.8,65.7z"/>
			<path d="M230.8,69.7c0-0.1,0-0.2,0-0.3s0-0.2,0-0.3c-0.3,0.3-0.5,0.5-0.8,0.6c-0.3,0.1-0.6,0.2-0.9,0.2c-0.5,0-0.9-0.1-1.2-0.4
				c-0.3-0.3-0.4-0.7-0.4-1.1c0-0.4,0.1-0.7,0.3-1c0.2-0.3,0.4-0.5,0.8-0.6c0.3-0.2,0.7-0.3,1-0.4c0.4-0.1,0.8-0.1,1.2-0.2v-0.6
				c0-0.2,0-0.4-0.1-0.5c-0.1-0.2-0.1-0.3-0.3-0.4c-0.1-0.1-0.3-0.1-0.5-0.1c-0.1,0-0.3,0-0.4,0.1c-0.1,0.1-0.3,0.1-0.4,0.2
				c0.1,0.1,0.1,0.1,0.1,0.2c0,0.1,0,0.2,0,0.2c0,0.2-0.1,0.3-0.2,0.5c-0.1,0.2-0.3,0.2-0.6,0.2c-0.2,0-0.4-0.1-0.5-0.2
				c-0.1-0.2-0.2-0.3-0.2-0.5c0-0.3,0.1-0.6,0.3-0.8s0.5-0.4,0.9-0.5c0.4-0.1,0.8-0.2,1.2-0.2c0.7,0,1.2,0.2,1.6,0.5
				c0.4,0.4,0.6,0.9,0.6,1.7c0,0.3,0,0.5,0,0.7c0,0.2,0,0.4,0,0.6s0,0.4,0,0.7c0,0.1,0,0.3,0,0.5c0,0.2,0,0.4,0,0.6
				c0.1,0,0.3,0,0.4,0c0.1,0,0.3,0,0.3,0v0.9H230.8z M230.7,67.1c-0.2,0-0.4,0.1-0.6,0.1c-0.2,0.1-0.4,0.1-0.5,0.2
				c-0.1,0.1-0.3,0.2-0.3,0.3c-0.1,0.1-0.1,0.3-0.1,0.4c0,0.2,0.1,0.4,0.2,0.5c0.1,0.1,0.3,0.1,0.5,0.1c0.2,0,0.3,0,0.5-0.1
				c0.2-0.1,0.3-0.2,0.4-0.3c0-0.1,0-0.2,0-0.2c0-0.1,0-0.1,0-0.2c0-0.1,0-0.3,0-0.4C230.7,67.3,230.7,67.2,230.7,67.1z"/>
			<path d="M236,69.9c-0.2,0-0.5,0-0.7-0.1c-0.2-0.1-0.4-0.2-0.6-0.3c-0.2-0.2-0.3-0.4-0.4-0.7c-0.1-0.3-0.2-0.7-0.2-1.2l0-2.8h-0.8
				v-1c0.2,0,0.5-0.1,0.7-0.2c0.2-0.2,0.4-0.4,0.6-0.6c0.2-0.2,0.3-0.5,0.3-0.8h0.9l0,1.6h1.5v0.9l-1.5,0l0,2.9c0,0.2,0,0.4,0.1,0.5
				s0.1,0.3,0.2,0.4c0.1,0.1,0.2,0.2,0.4,0.2c0.1,0,0.3,0,0.4-0.1s0.4-0.3,0.6-0.6l0.6,0.5c-0.2,0.3-0.4,0.6-0.6,0.7
				c-0.2,0.2-0.4,0.3-0.6,0.4c-0.2,0.1-0.4,0.1-0.5,0.1C236.1,69.9,236,69.9,236,69.9z"/>
			<path d="M241.2,69.9c-0.6,0-1.1-0.1-1.5-0.4c-0.4-0.3-0.8-0.6-1-1.1c-0.2-0.5-0.4-1-0.4-1.6c0-0.5,0.1-1.1,0.4-1.5
				c0.2-0.5,0.6-0.9,1-1.2s0.9-0.4,1.5-0.4c0.3,0,0.6,0,1,0.1c0.3,0.1,0.6,0.2,0.8,0.5c0.3,0.2,0.5,0.5,0.6,0.9
				c0.2,0.4,0.2,0.8,0.2,1.4l-3.8,0.1c0,0.4,0.1,0.8,0.2,1.1c0.1,0.3,0.3,0.6,0.5,0.8c0.2,0.2,0.6,0.3,1,0.3c0.2,0,0.3,0,0.5-0.1
				c0.2-0.1,0.4-0.1,0.6-0.3c0.2-0.1,0.4-0.3,0.6-0.5l0.5,0.5c-0.3,0.4-0.6,0.7-0.9,0.9c-0.3,0.2-0.6,0.3-0.9,0.4
				C241.8,69.9,241.5,69.9,241.2,69.9z M240.1,65.8h2.1c0-0.3-0.1-0.6-0.1-0.8c-0.1-0.2-0.2-0.3-0.3-0.4c-0.1-0.1-0.3-0.1-0.5-0.1
				c-0.3,0-0.6,0.1-0.8,0.4C240.3,65.1,240.2,65.5,240.1,65.8z"/>
		</g>
	</g>
</g>
<g>
	<g>
		<g>
			<path d="M347.8,41.8c-0.3-0.6-0.5-1.3-0.8-1.9c-0.3-0.6-0.5-1.3-0.8-1.9c-0.1-0.1-0.1-0.4-0.2-0.6c-0.1-0.3-0.2-0.6-0.3-0.9
				s-0.2-0.7-0.3-1.1c0,0.4,0,0.8,0,1.2s0,0.8,0,1.1c0,0.2,0,0.3,0,0.5s0,0.4,0,0.5c0,0.2,0,0.4,0,0.5c0,0.2,0,0.4,0,0.5
				c0,0.2,0,0.4,0,0.6c0,0.2,0,0.3,0,0.4c0.1,0,0.3,0,0.5,0s0.3,0,0.4,0v0.9h-2.6v-0.8c0.2,0,0.3,0,0.4-0.1c0.1,0,0.2-0.1,0.3-0.3
				c0.1-0.1,0.1-0.4,0.1-0.7l0.1-4.5c0-0.2,0-0.4,0-0.6s0-0.3,0-0.4c-0.1,0-0.3,0-0.5,0s-0.3,0-0.4,0v-0.9h2.6l1.8,4.5
				c0.1,0.2,0.1,0.4,0.2,0.6c0.1,0.2,0.2,0.5,0.2,0.7c0.1,0.2,0.1,0.4,0.2,0.5h0c0.1-0.3,0.2-0.5,0.3-0.8s0.2-0.5,0.3-0.7
				c0.3-0.8,0.6-1.6,0.9-2.4c0.3-0.8,0.6-1.6,0.9-2.4h2.7v0.8c-0.2,0-0.3,0-0.5,0.1c-0.1,0-0.2,0.1-0.3,0.3
				c-0.1,0.1-0.1,0.4-0.1,0.7l0.2,4.5c0,0.2,0,0.4,0,0.6c0,0.2,0,0.3,0,0.4c0.1,0,0.3,0,0.5,0c0.2,0,0.3,0,0.4,0v0.9h-3.2v-0.8
				c0.2,0,0.3,0,0.5-0.1c0.1,0,0.2-0.1,0.3-0.3s0.1-0.4,0.1-0.7l-0.1-2.5c0-0.1,0-0.3,0-0.5s0-0.5,0-0.8s0-0.5,0-0.8
				c0,0.1,0,0.1-0.1,0.2c0,0.1,0,0.1-0.1,0.2l-2.3,6.1H347.8z"/>
			<path d="M358.1,41.7c0-0.1,0-0.2,0-0.3c0-0.1,0-0.2,0-0.3c-0.3,0.3-0.5,0.5-0.8,0.6c-0.3,0.1-0.6,0.2-0.9,0.2
				c-0.5,0-0.9-0.1-1.2-0.4c-0.3-0.3-0.4-0.7-0.4-1.1c0-0.4,0.1-0.7,0.3-1s0.4-0.5,0.8-0.6c0.3-0.2,0.7-0.3,1-0.4
				c0.4-0.1,0.8-0.1,1.2-0.2v-0.6c0-0.2,0-0.4-0.1-0.5c-0.1-0.2-0.1-0.3-0.3-0.4c-0.1-0.1-0.3-0.1-0.5-0.1c-0.1,0-0.3,0-0.4,0.1
				c-0.1,0.1-0.3,0.1-0.4,0.2c0.1,0.1,0.1,0.1,0.1,0.2s0,0.2,0,0.2c0,0.2-0.1,0.3-0.2,0.5c-0.1,0.2-0.3,0.2-0.6,0.2
				c-0.2,0-0.4-0.1-0.5-0.2c-0.1-0.2-0.2-0.3-0.2-0.5c0-0.3,0.1-0.6,0.3-0.8c0.2-0.2,0.5-0.4,0.9-0.5s0.8-0.2,1.2-0.2
				c0.7,0,1.2,0.2,1.6,0.5s0.6,0.9,0.6,1.7c0,0.3,0,0.5,0,0.7c0,0.2,0,0.4,0,0.6c0,0.2,0,0.4,0,0.7c0,0.1,0,0.3,0,0.5
				c0,0.2,0,0.4,0,0.6c0.1,0,0.3,0,0.4,0c0.1,0,0.3,0,0.3,0v0.9H358.1z M357.9,39c-0.2,0-0.4,0.1-0.6,0.1c-0.2,0.1-0.4,0.1-0.5,0.2
				c-0.1,0.1-0.3,0.2-0.3,0.3s-0.1,0.3-0.1,0.4c0,0.2,0.1,0.4,0.2,0.5c0.1,0.1,0.3,0.1,0.5,0.1c0.2,0,0.3,0,0.5-0.1
				c0.2-0.1,0.3-0.2,0.4-0.3c0-0.1,0-0.2,0-0.2s0-0.1,0-0.2c0-0.1,0-0.3,0-0.4S357.9,39.2,357.9,39z"/>
			<path d="M360.7,41c0.2,0,0.4,0,0.5-0.1c0.1-0.1,0.2-0.2,0.2-0.4c0-0.2,0-0.3,0-0.5v-4.8c0-0.1,0-0.3,0-0.5c0-0.2,0-0.4,0-0.5
				c-0.1,0-0.3,0-0.4,0s-0.3,0-0.4,0v-0.9c0.4,0,0.7,0,0.9-0.1s0.4-0.1,0.6-0.1c0.1-0.1,0.2-0.1,0.3-0.2h0.6v6.9c0,0.1,0,0.3,0,0.5
				c0,0.2,0,0.4,0,0.6c0.1,0,0.3,0,0.4,0s0.3,0,0.3,0v0.9h-3V41z"/>
			<path d="M367.3,41.9c-0.6,0-1.1-0.1-1.5-0.4c-0.4-0.3-0.8-0.6-1-1.1c-0.2-0.5-0.4-1-0.4-1.6c0-0.5,0.1-1.1,0.4-1.5
				c0.2-0.5,0.6-0.9,1-1.1c0.4-0.3,0.9-0.4,1.5-0.4c0.3,0,0.6,0,1,0.1c0.3,0.1,0.6,0.2,0.8,0.5c0.3,0.2,0.5,0.5,0.6,0.9
				c0.2,0.4,0.2,0.8,0.2,1.4l-3.8,0.1c0,0.4,0.1,0.8,0.2,1.1c0.1,0.3,0.3,0.6,0.5,0.8c0.2,0.2,0.6,0.3,1,0.3c0.2,0,0.3,0,0.5-0.1
				c0.2-0.1,0.4-0.1,0.6-0.3c0.2-0.1,0.4-0.3,0.6-0.5l0.5,0.5c-0.3,0.4-0.6,0.7-0.9,0.9c-0.3,0.2-0.6,0.3-0.9,0.4
				C367.8,41.9,367.5,41.9,367.3,41.9z M366.2,37.8h2.1c0-0.3-0.1-0.6-0.1-0.8c-0.1-0.2-0.2-0.3-0.3-0.4c-0.1-0.1-0.3-0.1-0.5-0.1
				c-0.3,0-0.6,0.1-0.8,0.4S366.3,37.4,366.2,37.8z"/>
			<path d="M343.7,55.7V55c0.2,0,0.3,0,0.4-0.1c0.1,0,0.2-0.1,0.3-0.3c0.1-0.1,0.1-0.4,0.1-0.7v-4.5c0-0.2,0-0.4,0-0.6
				c0-0.2,0-0.3,0-0.4c-0.1,0-0.3,0-0.5,0s-0.3,0-0.4,0v-0.9h3.3v0.8c-0.2,0-0.3,0-0.4,0.1c-0.1,0-0.2,0.1-0.3,0.3
				c-0.1,0.1-0.1,0.4-0.1,0.7v4.5c0,0.2,0,0.4,0,0.6c0,0.2,0,0.3,0,0.4h1.6c0.5,0,0.8-0.2,1.1-0.5c0.3-0.3,0.4-0.8,0.4-1.4h0.8
				l-0.1,2.8H343.7z"/>
			<path d="M350.6,55c0.2,0,0.4,0,0.5-0.1c0.1-0.1,0.2-0.2,0.2-0.4s0-0.3,0-0.5V52c0-0.1,0-0.3,0-0.5c0-0.2,0-0.4,0-0.5
				c-0.1,0-0.3,0-0.4,0s-0.3,0-0.4,0v-0.9c0.4,0,0.7,0,0.9-0.1s0.4-0.1,0.6-0.1c0.1-0.1,0.2-0.1,0.3-0.2h0.6v4.1c0,0.1,0,0.3,0,0.5
				c0,0.2,0,0.4,0,0.6c0.1,0,0.3,0,0.4,0s0.3,0,0.3,0v0.9h-3V55z M352,48.9c-0.3,0-0.5-0.1-0.6-0.3c-0.2-0.2-0.3-0.4-0.3-0.7
				s0.1-0.5,0.3-0.7s0.4-0.3,0.6-0.3c0.2,0,0.5,0.1,0.6,0.3s0.2,0.4,0.2,0.7s-0.1,0.5-0.2,0.7C352.5,48.8,352.3,48.9,352,48.9z"/>
			<path d="M356.7,55.9c-0.2,0-0.5,0-0.7-0.1c-0.2-0.1-0.4-0.2-0.6-0.3c-0.2-0.2-0.3-0.4-0.4-0.7c-0.1-0.3-0.2-0.7-0.2-1.2l0-2.8
				h-0.8v-1c0.2,0,0.5-0.1,0.7-0.2c0.2-0.2,0.4-0.4,0.6-0.6s0.3-0.5,0.3-0.8h0.9l0,1.6h1.5v0.9l-1.5,0l0,2.9c0,0.2,0,0.4,0.1,0.5
				c0,0.2,0.1,0.3,0.2,0.4c0.1,0.1,0.2,0.2,0.4,0.2c0.1,0,0.3,0,0.4-0.1s0.4-0.3,0.6-0.6l0.6,0.5c-0.2,0.3-0.4,0.6-0.6,0.7
				c-0.2,0.2-0.4,0.3-0.6,0.4c-0.2,0.1-0.4,0.1-0.5,0.1C356.8,55.9,356.7,55.9,356.7,55.9z"/>
			<path d="M361.9,55.9c-0.6,0-1.1-0.1-1.5-0.4s-0.8-0.6-1-1.1c-0.2-0.5-0.4-1-0.4-1.6c0-0.5,0.1-1.1,0.4-1.5c0.2-0.5,0.6-0.9,1-1.1
				s0.9-0.4,1.5-0.4c0.3,0,0.6,0,1,0.1c0.3,0.1,0.6,0.2,0.8,0.5s0.5,0.5,0.6,0.9c0.2,0.4,0.2,0.8,0.2,1.4l-3.8,0.1
				c0,0.4,0.1,0.8,0.2,1.1c0.1,0.3,0.3,0.6,0.5,0.8c0.2,0.2,0.6,0.3,1,0.3c0.2,0,0.3,0,0.5-0.1s0.4-0.1,0.6-0.3
				c0.2-0.1,0.4-0.3,0.6-0.5l0.5,0.5c-0.3,0.4-0.6,0.7-0.9,0.9c-0.3,0.2-0.6,0.3-0.9,0.4C362.5,55.9,362.2,55.9,361.9,55.9z
				 M360.8,51.8h2.1c0-0.3-0.1-0.6-0.1-0.8c-0.1-0.2-0.2-0.3-0.3-0.4c-0.1-0.1-0.3-0.1-0.5-0.1c-0.3,0-0.6,0.1-0.8,0.4
				C361,51.1,360.9,51.5,360.8,51.8z"/>
			<path d="M365.4,55c0.2,0,0.4,0,0.5-0.1c0.1-0.1,0.2-0.2,0.2-0.4s0-0.3,0-0.5v-2c0-0.1,0-0.3,0-0.5c0-0.2,0-0.3,0-0.5
				c-0.1,0-0.3,0-0.4,0s-0.3,0-0.4,0v-0.9h0.5c0.3,0,0.6,0,0.8-0.1s0.4-0.2,0.5-0.2h0.6c0,0.1,0,0.2,0,0.4s0,0.4,0,0.6
				c0.2-0.3,0.4-0.5,0.6-0.6c0.2-0.2,0.4-0.3,0.6-0.3c0.2-0.1,0.4-0.1,0.6-0.1c0.3,0,0.5,0.1,0.7,0.2c0.2,0.2,0.3,0.4,0.3,0.7
				c0,0.1,0,0.2-0.1,0.4c-0.1,0.1-0.1,0.2-0.3,0.3c-0.1,0.1-0.3,0.1-0.5,0.1c-0.2,0-0.3,0-0.5-0.1c-0.2-0.1-0.3-0.3-0.3-0.5
				c-0.2,0-0.3,0.1-0.5,0.2c-0.2,0.1-0.3,0.3-0.4,0.5s-0.2,0.3-0.2,0.5v1.9c0,0.1,0,0.3,0,0.5c0,0.2,0,0.4,0,0.6c0.1,0,0.3,0,0.4,0
				s0.3,0,0.3,0v0.9h-3V55z"/>
			<path d="M374.2,55.7c0-0.1,0-0.2,0-0.3s0-0.2,0-0.3c-0.3,0.3-0.5,0.5-0.8,0.6c-0.3,0.1-0.6,0.2-0.9,0.2c-0.5,0-0.9-0.1-1.2-0.4
				s-0.4-0.7-0.4-1.1c0-0.4,0.1-0.7,0.3-1s0.4-0.5,0.8-0.6c0.3-0.2,0.7-0.3,1-0.4c0.4-0.1,0.8-0.1,1.2-0.2v-0.6c0-0.2,0-0.4-0.1-0.5
				c-0.1-0.2-0.1-0.3-0.3-0.4c-0.1-0.1-0.3-0.1-0.5-0.1c-0.1,0-0.3,0-0.4,0.1c-0.1,0.1-0.3,0.1-0.4,0.2c0.1,0.1,0.1,0.1,0.1,0.2
				c0,0.1,0,0.2,0,0.2c0,0.2-0.1,0.3-0.2,0.5c-0.1,0.2-0.3,0.2-0.6,0.2c-0.2,0-0.4-0.1-0.5-0.2c-0.1-0.2-0.2-0.3-0.2-0.5
				c0-0.3,0.1-0.6,0.3-0.8c0.2-0.2,0.5-0.4,0.9-0.5c0.4-0.1,0.8-0.2,1.2-0.2c0.7,0,1.2,0.2,1.6,0.5s0.6,0.9,0.6,1.7
				c0,0.3,0,0.5,0,0.7c0,0.2,0,0.4,0,0.6s0,0.4,0,0.7c0,0.1,0,0.3,0,0.5c0,0.2,0,0.4,0,0.6c0.1,0,0.3,0,0.4,0c0.1,0,0.3,0,0.3,0v0.9
				H374.2z M374,53c-0.2,0-0.4,0.1-0.6,0.1c-0.2,0.1-0.4,0.1-0.5,0.2c-0.1,0.1-0.3,0.2-0.3,0.3c-0.1,0.1-0.1,0.3-0.1,0.4
				c0,0.2,0.1,0.4,0.2,0.5c0.1,0.1,0.3,0.1,0.5,0.1c0.2,0,0.3,0,0.5-0.1c0.2-0.1,0.3-0.2,0.4-0.3c0-0.1,0-0.2,0-0.2
				c0-0.1,0-0.1,0-0.2c0-0.1,0-0.3,0-0.4C374,53.3,374,53.2,374,53z"/>
			<path d="M379.8,55.9c-0.5,0-1-0.1-1.4-0.3c-0.4-0.2-0.8-0.6-1-1c-0.3-0.4-0.4-1-0.4-1.6c0-0.4,0.1-0.9,0.2-1.2
				c0.1-0.4,0.4-0.7,0.6-1s0.6-0.5,1-0.7c0.4-0.2,0.8-0.3,1.2-0.3c0.5,0,0.9,0.1,1.2,0.2c0.3,0.2,0.6,0.4,0.7,0.6s0.2,0.5,0.2,0.8
				c0,0.2-0.1,0.4-0.2,0.6c-0.1,0.2-0.3,0.3-0.6,0.3c-0.3,0-0.5-0.1-0.6-0.3s-0.2-0.3-0.2-0.5c0-0.1,0-0.2,0-0.3
				c0-0.1,0.1-0.2,0.1-0.3c-0.1-0.1-0.1-0.2-0.2-0.3c-0.1-0.1-0.2-0.1-0.3-0.1s-0.2,0-0.3,0c-0.4,0-0.7,0.2-0.9,0.6
				c-0.2,0.3-0.4,0.9-0.4,1.5c0,0.4,0,0.8,0.1,1.1s0.3,0.6,0.5,0.8c0.2,0.2,0.5,0.3,0.9,0.3c0.3,0,0.6-0.1,1-0.2
				c0.3-0.2,0.6-0.4,0.8-0.7l0.5,0.5c-0.3,0.4-0.6,0.7-0.9,0.9c-0.3,0.2-0.6,0.3-0.9,0.4C380.3,55.9,380,55.9,379.8,55.9z"/>
			<path d="M384.3,58.9c-0.3,0-0.5-0.1-0.7-0.3c-0.2-0.2-0.3-0.4-0.3-0.7c0-0.2,0.1-0.4,0.2-0.6c0.1-0.2,0.3-0.2,0.5-0.3
				c0.2,0,0.3,0,0.4,0.2c0.1,0.1,0.2,0.3,0.2,0.5c0,0,0,0,0,0.1c0,0,0,0.1,0,0.1c0,0,0,0,0.1,0c0.1,0,0.1-0.1,0.2-0.2
				s0.2-0.2,0.2-0.4c0.1-0.2,0.2-0.4,0.2-0.6c0.1-0.2,0.2-0.5,0.2-0.7l-1.8-3.7c-0.2-0.4-0.4-0.8-0.4-1c-0.1-0.2-0.1-0.4-0.1-0.6
				l-0.5,0v-0.9h2.9v0.7c-0.3,0-0.4,0.1-0.5,0.3c0,0.2,0,0.4,0.1,0.6l1.1,2.6c0.1-0.2,0.2-0.5,0.3-0.9c0.1-0.4,0.3-0.9,0.4-1.4
				c0-0.1,0.1-0.2,0.1-0.4c0-0.1,0.1-0.3,0.2-0.4c0.1-0.1,0.1-0.2,0.2-0.3l-0.7,0v-0.9h2.1v0.7c-0.2,0.1-0.4,0.2-0.6,0.4
				c-0.2,0.2-0.3,0.5-0.4,0.9l-1.4,4.2c-0.2,0.6-0.4,1.2-0.6,1.6c-0.2,0.4-0.4,0.7-0.6,0.9C384.9,58.8,384.6,58.9,384.3,58.9z"/>
			<path d="M343.7,69.7V69c0.2,0,0.3,0,0.4-0.1c0.1,0,0.2-0.1,0.3-0.3c0.1-0.1,0.1-0.4,0.1-0.7v-4.5c0-0.2,0-0.4,0-0.6
				c0-0.2,0-0.3,0-0.4c-0.1,0-0.3,0-0.5,0s-0.3,0-0.4,0v-0.9c0.5,0,1.1,0,1.6,0c0.5,0,1.1,0,1.6,0c0.7,0,1.3,0.1,1.8,0.2
				c0.5,0.2,0.9,0.4,1.2,0.8c0.3,0.4,0.4,0.9,0.4,1.5c0,0.3-0.1,0.6-0.2,0.9c-0.2,0.3-0.4,0.6-0.7,0.8c-0.3,0.2-0.7,0.4-1.1,0.5
				c0.1,0.1,0.3,0.2,0.4,0.3c0.1,0.1,0.3,0.3,0.4,0.4l0.5,0.8c0.2,0.3,0.3,0.5,0.5,0.6c0.1,0.2,0.3,0.3,0.4,0.3
				c0.1,0.1,0.3,0.1,0.5,0.1v0.8H349c-0.1-0.1-0.3-0.2-0.4-0.4c-0.1-0.2-0.3-0.4-0.4-0.7l-0.9-1.4c-0.1-0.2-0.2-0.3-0.3-0.4
				c-0.1-0.1-0.1-0.2-0.2-0.3c-0.1,0-0.2,0-0.3,0c-0.1,0-0.2,0-0.3,0v1.2c0,0.2,0,0.4,0,0.6s0,0.3,0,0.4c0.1,0,0.2,0,0.3,0
				c0.1,0,0.3,0,0.4,0c0.1,0,0.2,0,0.3,0v0.9H343.7z M346.7,65.7c0.4,0,0.8-0.1,1-0.2c0.3-0.1,0.5-0.3,0.6-0.6s0.2-0.6,0.2-1
				c0-0.4-0.1-0.7-0.2-0.9c-0.1-0.2-0.3-0.4-0.4-0.5c-0.2-0.1-0.3-0.2-0.5-0.2s-0.3,0-0.4,0c-0.2,0-0.3,0-0.4,0.1
				c-0.1,0-0.2,0.1-0.3,0.3c-0.1,0.1-0.1,0.3-0.1,0.6v2.4c0.1,0,0.2,0,0.3,0S346.6,65.7,346.7,65.7z"/>
			<path d="M354.8,69.7c0-0.1,0-0.2,0-0.3s0-0.2,0-0.3c-0.3,0.3-0.5,0.5-0.8,0.6c-0.3,0.1-0.6,0.2-0.9,0.2c-0.5,0-0.9-0.1-1.2-0.4
				s-0.4-0.7-0.4-1.1c0-0.4,0.1-0.7,0.3-1s0.4-0.5,0.8-0.6c0.3-0.2,0.7-0.3,1-0.4c0.4-0.1,0.8-0.1,1.2-0.2v-0.6c0-0.2,0-0.4-0.1-0.5
				c-0.1-0.2-0.1-0.3-0.3-0.4c-0.1-0.1-0.3-0.1-0.5-0.1c-0.1,0-0.3,0-0.4,0.1c-0.1,0.1-0.3,0.1-0.4,0.2c0.1,0.1,0.1,0.1,0.1,0.2
				c0,0.1,0,0.2,0,0.2c0,0.2-0.1,0.3-0.2,0.5c-0.1,0.2-0.3,0.2-0.6,0.2c-0.2,0-0.4-0.1-0.5-0.2c-0.1-0.2-0.2-0.3-0.2-0.5
				c0-0.3,0.1-0.6,0.3-0.8c0.2-0.2,0.5-0.4,0.9-0.5c0.4-0.1,0.8-0.2,1.2-0.2c0.7,0,1.2,0.2,1.6,0.5s0.6,0.9,0.6,1.7
				c0,0.3,0,0.5,0,0.7c0,0.2,0,0.4,0,0.6s0,0.4,0,0.7c0,0.1,0,0.3,0,0.5c0,0.2,0,0.4,0,0.6c0.1,0,0.3,0,0.4,0c0.1,0,0.3,0,0.3,0v0.9
				H354.8z M354.6,67.1c-0.2,0-0.4,0.1-0.6,0.1c-0.2,0.1-0.4,0.1-0.5,0.2c-0.1,0.1-0.3,0.2-0.3,0.3c-0.1,0.1-0.1,0.3-0.1,0.4
				c0,0.2,0.1,0.4,0.2,0.5c0.1,0.1,0.3,0.1,0.5,0.1c0.2,0,0.3,0,0.5-0.1c0.2-0.1,0.3-0.2,0.4-0.3c0-0.1,0-0.2,0-0.2
				c0-0.1,0-0.1,0-0.2c0-0.1,0-0.3,0-0.4C354.6,67.3,354.6,67.2,354.6,67.1z"/>
			<path d="M359.9,69.9c-0.2,0-0.5,0-0.7-0.1c-0.2-0.1-0.4-0.2-0.6-0.3c-0.2-0.2-0.3-0.4-0.4-0.7c-0.1-0.3-0.2-0.7-0.2-1.2l0-2.8
				h-0.8v-1c0.2,0,0.5-0.1,0.7-0.2c0.2-0.2,0.4-0.4,0.6-0.6s0.3-0.5,0.3-0.8h0.9l0,1.6h1.5v0.9l-1.5,0l0,2.9c0,0.2,0,0.4,0.1,0.5
				c0,0.2,0.1,0.3,0.2,0.4c0.1,0.1,0.2,0.2,0.4,0.2c0.1,0,0.3,0,0.4-0.1s0.4-0.3,0.6-0.6l0.6,0.5c-0.2,0.3-0.4,0.6-0.6,0.7
				c-0.2,0.2-0.4,0.3-0.6,0.4c-0.2,0.1-0.4,0.1-0.5,0.1C360.1,69.9,360,69.9,359.9,69.9z"/>
			<path d="M365.1,69.9c-0.6,0-1.1-0.1-1.5-0.4s-0.8-0.6-1-1.1c-0.2-0.5-0.4-1-0.4-1.6c0-0.5,0.1-1.1,0.4-1.5c0.2-0.5,0.6-0.9,1-1.2
				s0.9-0.4,1.5-0.4c0.3,0,0.6,0,1,0.1c0.3,0.1,0.6,0.2,0.8,0.5s0.5,0.5,0.6,0.9c0.2,0.4,0.2,0.8,0.2,1.4l-3.8,0.1
				c0,0.4,0.1,0.8,0.2,1.1c0.1,0.3,0.3,0.6,0.5,0.8c0.2,0.2,0.6,0.3,1,0.3c0.2,0,0.3,0,0.5-0.1s0.4-0.1,0.6-0.3
				c0.2-0.1,0.4-0.3,0.6-0.5l0.5,0.5c-0.3,0.4-0.6,0.7-0.9,0.9c-0.3,0.2-0.6,0.3-0.9,0.4C365.7,69.9,365.4,69.9,365.1,69.9z
				 M364,65.8h2.1c0-0.3-0.1-0.6-0.1-0.8c-0.1-0.2-0.2-0.3-0.3-0.4c-0.1-0.1-0.3-0.1-0.5-0.1c-0.3,0-0.6,0.1-0.8,0.4
				S364.1,65.5,364,65.8z"/>
		</g>
	</g>
</g>
</svg>
