<?xml version="1.0" encoding="utf-8"?>
<!-- Generator: Adobe Illustrator 26.5.2, SVG Export Plug-In . SVG Version: 6.00 Build 0)  -->
<svg version="1.1" id="Layer_1" xmlns="http://www.w3.org/2000/svg" xmlns:xlink="http://www.w3.org/1999/xlink" x="0px" y="0px"
	 viewBox="0 0 560 140" style="enable-background:new 0 0 560 140;" xml:space="preserve">
<style type="text/css">
	.st0{fill:#77858D;stroke:#1C3441;stroke-width:0.5;stroke-linecap:round;stroke-linejoin:round;stroke-dasharray:2,2;}
	.st1{fill:#77858D;stroke:#1C3441;stroke-width:0.5;stroke-linecap:round;stroke-linejoin:round;}
</style>
<g>
	<g>
		<g>
			<path d="M208.5,63.4c-0.3-0.8-0.7-1.7-1-2.5c-0.3-0.8-0.7-1.6-1-2.5c-0.1-0.2-0.2-0.5-0.3-0.8c-0.1-0.3-0.3-0.7-0.4-1.2
				s-0.3-0.9-0.4-1.4c0,0.6,0,1.1,0,1.6c0,0.5,0,1,0,1.4c0,0.2,0,0.4,0,0.7s0,0.5,0,0.7c0,0.2,0,0.5,0,0.7s0,0.5,0,0.7
				c0,0.3,0,0.5,0,0.8c0,0.3,0,0.4-0.1,0.6c0.2,0,0.4,0,0.6,0c0.2,0,0.4,0,0.5,0v1.2h-3.4v-1c0.2,0,0.4,0,0.6-0.1
				c0.2,0,0.3-0.2,0.4-0.3c0.1-0.2,0.1-0.5,0.1-0.9l0.1-5.8c0-0.3,0-0.5,0-0.8c0-0.2,0-0.4,0-0.6c-0.2,0-0.4,0-0.6,0
				c-0.2,0-0.4,0-0.5,0v-1.2h3.3l2.3,5.8c0.1,0.2,0.2,0.5,0.3,0.8s0.2,0.6,0.3,0.9c0.1,0.3,0.2,0.5,0.2,0.7h0c0.1-0.4,0.2-0.7,0.4-1
				c0.1-0.3,0.2-0.7,0.3-1c0.4-1,0.8-2.1,1.2-3.1s0.8-2.1,1.2-3.1h3.5v1c-0.2,0-0.4,0-0.6,0.1c-0.2,0.1-0.3,0.2-0.4,0.3
				S215,54.6,215,55l0.2,5.8c0,0.3,0,0.5,0,0.8c0,0.3,0,0.4-0.1,0.6c0.2,0,0.4,0,0.6,0c0.2,0,0.4,0,0.5,0v1.2h-4.2v-1
				c0.2,0,0.4,0,0.6-0.1c0.2,0,0.3-0.2,0.4-0.3c0.1-0.2,0.1-0.5,0.1-0.9l-0.1-3.2c0-0.1,0-0.3,0-0.6c0-0.3,0-0.6-0.1-1
				c0-0.4,0-0.7,0-1c0,0.1-0.1,0.1-0.1,0.2c0,0.1-0.1,0.1-0.1,0.2l-2.9,7.8H208.5z"/>
			<path d="M221.1,63.4c-0.7,0-1.4-0.2-1.9-0.5c-0.6-0.3-1-0.8-1.3-1.4c-0.3-0.6-0.5-1.3-0.5-2.1c0-0.7,0.2-1.4,0.5-2
				c0.3-0.6,0.7-1.1,1.3-1.5c0.6-0.4,1.2-0.6,2-0.6c0.4,0,0.8,0.1,1.2,0.2c0.4,0.1,0.8,0.3,1.1,0.6c0.3,0.3,0.6,0.7,0.8,1.1
				c0.2,0.5,0.3,1.1,0.3,1.8l-4.9,0.1c0,0.5,0.1,1,0.2,1.5c0.1,0.4,0.4,0.8,0.7,1c0.3,0.3,0.7,0.4,1.2,0.4c0.2,0,0.4,0,0.7-0.1
				c0.3-0.1,0.5-0.2,0.8-0.4c0.3-0.2,0.5-0.4,0.7-0.7l0.7,0.6c-0.4,0.5-0.7,0.9-1.2,1.2c-0.4,0.3-0.8,0.4-1.2,0.5
				C221.9,63.4,221.5,63.4,221.1,63.4z M219.7,58.2h2.8c0-0.4-0.1-0.8-0.2-1c-0.1-0.2-0.2-0.4-0.4-0.5c-0.2-0.1-0.4-0.2-0.6-0.2
				c-0.4,0-0.8,0.2-1,0.5C220,57.3,219.8,57.7,219.7,58.2z"/>
			<path d="M228.6,63.4c-0.6,0-1.1-0.2-1.6-0.5c-0.5-0.3-0.8-0.8-1.1-1.3c-0.3-0.6-0.4-1.2-0.4-2c0-0.8,0.2-1.5,0.5-2.2
				s0.7-1.1,1.3-1.5c0.6-0.4,1.2-0.5,2-0.5c0.3,0,0.5,0,0.7,0.1c0.2,0.1,0.4,0.1,0.6,0.2v-1c0-0.1,0-0.3,0-0.6s0-0.5,0-0.7
				c-0.2,0-0.4,0-0.6,0c-0.2,0-0.4,0-0.5,0v-1.1c0.5,0,0.9,0,1.2-0.1c0.3,0,0.6-0.1,0.8-0.2c0.2-0.1,0.3-0.1,0.4-0.2h0.8v8.9
				c0,0.1,0,0.3,0,0.6s0,0.5,0,0.7c0.2,0,0.4,0,0.5,0c0.2,0,0.3,0,0.4,0v1.1h-2.9c0-0.1,0-0.2,0-0.3c0-0.1,0-0.2-0.1-0.3
				c-0.3,0.3-0.7,0.6-1,0.7C229.3,63.4,228.9,63.4,228.6,63.4z M229.3,62.1c0.3,0,0.5-0.1,0.7-0.2c0.2-0.1,0.4-0.3,0.5-0.5
				c0-0.2,0-0.3,0-0.5c0-0.1,0-0.3,0-0.5v-3.6c-0.1-0.1-0.3-0.1-0.5-0.2s-0.4-0.1-0.6-0.1c-0.5,0-0.8,0.2-1.1,0.4
				c-0.3,0.3-0.4,0.6-0.5,1.1s-0.2,0.9-0.2,1.4c0,0.4,0.1,0.8,0.2,1.2s0.3,0.7,0.5,1C228.6,61.9,229,62.1,229.3,62.1z"/>
			<path d="M234.6,62.2c0.3,0,0.5-0.1,0.6-0.2c0.1-0.1,0.2-0.3,0.2-0.5s0.1-0.4,0.1-0.7v-2.5c0-0.2,0-0.4,0-0.6c0-0.2,0-0.5,0-0.7
				c-0.2,0-0.3,0-0.6,0c-0.2,0-0.4,0-0.5,0V56c0.5,0,0.9,0,1.2-0.1c0.3-0.1,0.6-0.1,0.8-0.2c0.2-0.1,0.3-0.1,0.4-0.2h0.8v5.2
				c0,0.1,0,0.3,0,0.6s0,0.5,0,0.7c0.2,0,0.3,0,0.5,0c0.2,0,0.3,0,0.4,0v1.1h-3.9V62.2z M236.5,54.4c-0.3,0-0.6-0.1-0.8-0.4
				c-0.2-0.2-0.3-0.5-0.3-0.9s0.1-0.6,0.3-0.9s0.5-0.4,0.8-0.4c0.3,0,0.6,0.1,0.8,0.4c0.2,0.2,0.3,0.5,0.3,0.9s-0.1,0.6-0.3,0.9
				S236.8,54.4,236.5,54.4z"/>
			<path d="M243.7,63.2c0-0.1,0-0.3,0-0.4s0-0.2,0-0.3c-0.3,0.3-0.7,0.6-1.1,0.7c-0.4,0.1-0.8,0.2-1.2,0.2c-0.6,0-1.1-0.2-1.5-0.6
				s-0.5-0.9-0.5-1.4c0-0.5,0.1-0.9,0.4-1.2s0.6-0.6,1-0.8s0.9-0.4,1.4-0.5c0.5-0.1,1-0.2,1.5-0.2v-0.8c0-0.3,0-0.5-0.1-0.7
				c-0.1-0.2-0.2-0.4-0.3-0.5c-0.2-0.1-0.4-0.2-0.7-0.2c-0.2,0-0.4,0.1-0.6,0.1c-0.2,0.1-0.3,0.2-0.5,0.3c0.1,0.1,0.1,0.2,0.1,0.3
				c0,0.1,0,0.2,0,0.3c0,0.2-0.1,0.4-0.2,0.6s-0.4,0.3-0.8,0.3c-0.3,0-0.5-0.1-0.7-0.3s-0.2-0.4-0.2-0.7c0-0.4,0.1-0.7,0.4-1
				s0.7-0.5,1.1-0.7c0.5-0.2,1-0.2,1.6-0.2c0.9,0,1.6,0.2,2.1,0.7s0.7,1.2,0.7,2.2c0,0.3,0,0.6,0,0.9s0,0.5,0,0.7s0,0.5,0,0.9
				c0,0.1,0,0.3,0,0.6s0,0.5,0,0.7c0.2,0,0.4,0,0.5,0c0.2,0,0.3,0,0.4,0v1.1H243.7z M243.5,59.7c-0.3,0-0.5,0.1-0.8,0.2
				c-0.2,0.1-0.5,0.2-0.7,0.3c-0.2,0.1-0.3,0.3-0.4,0.4c-0.1,0.2-0.2,0.4-0.2,0.6c0,0.3,0.1,0.5,0.3,0.6c0.2,0.1,0.4,0.2,0.6,0.2
				c0.2,0,0.4,0,0.6-0.1s0.4-0.2,0.5-0.4c0-0.1,0-0.2,0-0.3s0-0.2,0-0.3c0-0.2,0-0.4,0-0.5C243.5,60.1,243.5,59.9,243.5,59.7z"/>
			<path d="M247.4,63.2v-1c0.3,0,0.5-0.1,0.6-0.2c0.1-0.1,0.2-0.3,0.2-0.5s0.1-0.4,0.1-0.7v-2.5c0-0.2,0-0.4,0-0.6
				c0-0.2,0-0.4,0-0.7c-0.2,0-0.3,0-0.6,0c-0.2,0-0.4,0-0.5,0V56c0.5,0,0.9,0,1.2-0.1c0.3-0.1,0.6-0.1,0.8-0.2
				c0.2-0.1,0.3-0.1,0.4-0.2h0.7c0,0.1,0,0.2,0,0.3s0,0.1,0,0.2s0,0.2,0.1,0.3c0.2-0.2,0.4-0.3,0.7-0.4c0.3-0.1,0.5-0.2,0.8-0.3
				c0.3-0.1,0.5-0.1,0.7-0.1c0.9,0,1.6,0.3,2,0.8s0.6,1.4,0.6,2.5v2c0,0.1,0,0.3,0,0.6s0,0.5,0,0.7c0.2,0,0.4,0,0.5,0
				c0.2,0,0.3,0,0.4,0v1.1h-3.9v-1c0.3,0,0.5-0.1,0.6-0.2c0.1-0.1,0.2-0.3,0.2-0.5c0-0.2,0.1-0.4,0.1-0.7l0-2.1
				c0-0.7-0.1-1.1-0.3-1.4c-0.2-0.3-0.5-0.5-0.9-0.5c-0.2,0-0.5,0.1-0.7,0.2c-0.2,0.1-0.5,0.2-0.6,0.4c0,0.1,0,0.3,0,0.4
				c0,0.1,0,0.3,0,0.4v2.5c0,0.1,0,0.3,0,0.6s0,0.5,0,0.7c0.2,0,0.3,0,0.5,0c0.2,0,0.3,0,0.4,0v1.1H247.4z"/>
		</g>
	</g>
</g>
<g>
	<g>
		<g>
			<path d="M312,105.2v-1c0.3,0,0.5-0.1,0.7-0.2c0.2-0.2,0.3-0.4,0.4-0.6s0.2-0.5,0.3-0.8l2.9-8h1.1l3.2,8.2
				c0.1,0.2,0.1,0.4,0.2,0.7c0.1,0.3,0.2,0.6,0.2,0.8c0.2,0,0.3,0,0.5,0c0.2,0,0.3,0,0.4,0v1.2h-4v-1c0.3,0,0.5-0.1,0.6-0.2
				s0.2-0.3,0.1-0.5s-0.1-0.4-0.2-0.7l-0.3-0.8l-3.3,0.1l-0.2,0.7c0,0.1-0.1,0.3-0.2,0.6c-0.1,0.3-0.2,0.5-0.3,0.6
				c0.2,0,0.4,0,0.6,0c0.2,0,0.4,0,0.5,0v1.2H312z M315.2,101h2.5l-0.7-1.9c-0.1-0.4-0.2-0.7-0.3-1.1c-0.1-0.4-0.2-0.7-0.2-1h0
				c0,0.2-0.1,0.4-0.2,0.8c-0.1,0.3-0.2,0.7-0.4,1.2L315.2,101z"/>
			<path d="M325.3,105.3l-2.4-5.2c-0.1-0.2-0.2-0.4-0.2-0.6c0-0.1-0.1-0.2-0.1-0.3c0-0.1,0-0.2-0.1-0.3l-0.6,0v-1.1h3.5v1
				c-0.2,0-0.4,0.1-0.4,0.2c-0.1,0.1-0.1,0.3-0.1,0.4c0,0.2,0.1,0.4,0.1,0.6l0.8,1.9c0.1,0.2,0.2,0.4,0.2,0.6
				c0.1,0.2,0.2,0.4,0.2,0.6h0c0.1-0.2,0.2-0.4,0.2-0.6c0.1-0.2,0.1-0.4,0.2-0.6l0.6-1.8c0.1-0.2,0.2-0.5,0.2-0.6
				c0.1-0.2,0.2-0.3,0.2-0.5l-0.9,0.1v-1.1h2.9v1c-0.2,0-0.4,0.2-0.6,0.4c-0.2,0.2-0.3,0.5-0.5,0.7c-0.1,0.3-0.2,0.5-0.3,0.7
				l-1.9,4.8H325.3z"/>
			<path d="M334.2,105.5c-0.7,0-1.4-0.2-1.9-0.5c-0.6-0.3-1-0.8-1.3-1.4c-0.3-0.6-0.5-1.3-0.5-2.1c0-0.7,0.2-1.4,0.5-2
				c0.3-0.6,0.7-1.1,1.3-1.5c0.6-0.4,1.2-0.6,2-0.6c0.4,0,0.8,0.1,1.2,0.2c0.4,0.1,0.8,0.3,1.1,0.6c0.3,0.3,0.6,0.7,0.8,1.1
				c0.2,0.5,0.3,1.1,0.3,1.8l-4.9,0.1c0,0.5,0.1,1,0.2,1.5c0.1,0.4,0.4,0.8,0.7,1s0.7,0.4,1.2,0.4c0.2,0,0.4,0,0.7-0.1
				c0.3-0.1,0.5-0.2,0.8-0.4c0.3-0.2,0.5-0.4,0.7-0.7l0.7,0.6c-0.4,0.5-0.7,0.9-1.2,1.2c-0.4,0.3-0.8,0.4-1.2,0.5
				S334.5,105.5,334.2,105.5z M332.8,100.2h2.8c0-0.4-0.1-0.8-0.2-1c-0.1-0.2-0.2-0.4-0.4-0.5c-0.2-0.1-0.4-0.2-0.6-0.2
				c-0.4,0-0.8,0.2-1,0.5C333,99.3,332.9,99.7,332.8,100.2z"/>
			<path d="M338.7,104.2c0.3,0,0.5-0.1,0.6-0.2c0.1-0.1,0.2-0.3,0.2-0.5s0.1-0.4,0.1-0.7v-2.5c0-0.2,0-0.4,0-0.6c0-0.2,0-0.4,0-0.7
				c-0.2,0-0.3,0-0.6,0c-0.2,0-0.4,0-0.5,0V98h0.6c0.4,0,0.7,0,1.1-0.2c0.3-0.1,0.5-0.2,0.6-0.3h0.7c0,0.1,0,0.3,0,0.6
				c0,0.3,0,0.5,0,0.7c0.3-0.3,0.5-0.6,0.8-0.8c0.2-0.2,0.5-0.3,0.7-0.4c0.2-0.1,0.5-0.1,0.7-0.1c0.4,0,0.7,0.1,0.9,0.3
				s0.4,0.5,0.4,1c0,0.2,0,0.3-0.1,0.5c-0.1,0.2-0.2,0.3-0.3,0.4c-0.2,0.1-0.4,0.2-0.6,0.2c-0.2,0-0.4-0.1-0.6-0.2
				c-0.2-0.1-0.3-0.4-0.4-0.7c-0.2,0-0.4,0.1-0.6,0.2s-0.4,0.4-0.5,0.6s-0.3,0.4-0.3,0.6v2.4c0,0.1,0,0.3,0,0.6c0,0.3,0,0.5,0,0.7
				c0.2,0,0.3,0,0.5,0s0.3,0,0.4,0v1.1h-3.9V104.2z"/>
			<path d="M350.1,105.2c0-0.1,0-0.3,0-0.4c0-0.1,0-0.2,0-0.3c-0.3,0.3-0.7,0.6-1.1,0.7c-0.4,0.1-0.8,0.2-1.2,0.2
				c-0.6,0-1.1-0.2-1.5-0.6c-0.4-0.4-0.5-0.9-0.5-1.4c0-0.5,0.1-0.9,0.4-1.2c0.2-0.3,0.6-0.6,1-0.8c0.4-0.2,0.9-0.4,1.4-0.5
				c0.5-0.1,1-0.2,1.5-0.2v-0.8c0-0.3,0-0.5-0.1-0.7c-0.1-0.2-0.2-0.4-0.3-0.5c-0.2-0.1-0.4-0.2-0.7-0.2c-0.2,0-0.4,0-0.6,0.1
				c-0.2,0.1-0.3,0.2-0.5,0.3c0.1,0.1,0.1,0.2,0.1,0.3c0,0.1,0,0.2,0,0.3c0,0.2-0.1,0.4-0.2,0.6c-0.2,0.2-0.4,0.3-0.8,0.3
				c-0.3,0-0.5-0.1-0.7-0.3s-0.2-0.4-0.2-0.7c0-0.4,0.1-0.7,0.4-1c0.3-0.3,0.7-0.5,1.1-0.7s1-0.2,1.6-0.2c0.9,0,1.6,0.2,2.1,0.7
				c0.5,0.5,0.7,1.2,0.7,2.2c0,0.3,0,0.6,0,0.9s0,0.5,0,0.7s0,0.5,0,0.9c0,0.1,0,0.3,0,0.6c0,0.3,0,0.5,0,0.7c0.2,0,0.4,0,0.5,0
				s0.3,0,0.4,0v1.1H350.1z M349.9,101.8c-0.3,0-0.5,0.1-0.8,0.2c-0.2,0.1-0.5,0.2-0.7,0.3c-0.2,0.1-0.3,0.3-0.4,0.4
				c-0.1,0.2-0.2,0.4-0.2,0.6c0,0.3,0.1,0.5,0.3,0.6c0.2,0.1,0.4,0.2,0.6,0.2c0.2,0,0.4,0,0.6-0.2c0.2-0.1,0.4-0.2,0.5-0.4
				c0-0.1,0-0.2,0-0.3c0-0.1,0-0.2,0-0.3c0-0.2,0-0.4,0-0.5S349.9,102,349.9,101.8z"/>
			<path d="M357,109.3c-0.9,0-1.5-0.1-2-0.3c-0.5-0.2-0.9-0.4-1.1-0.7c-0.2-0.3-0.3-0.6-0.3-1c0-0.2,0-0.4,0.1-0.6
				c0.1-0.2,0.2-0.4,0.4-0.6s0.5-0.4,0.8-0.5c-0.4-0.1-0.7-0.3-0.9-0.5c-0.2-0.2-0.2-0.5-0.2-0.8c0-0.3,0.1-0.6,0.3-0.9
				c0.2-0.3,0.6-0.6,1.1-0.7c-0.4-0.2-0.8-0.4-1-0.8c-0.3-0.4-0.4-0.8-0.4-1.3c0-0.6,0.1-1.1,0.5-1.6c0.3-0.5,0.7-0.8,1.3-1.1
				c0.5-0.3,1.1-0.4,1.6-0.4c0.3,0,0.6,0,0.9,0.1c0.3,0.1,0.6,0.2,0.9,0.4c0.1-0.3,0.3-0.6,0.4-0.9c0.2-0.3,0.4-0.5,0.6-0.7
				c0.2-0.2,0.5-0.3,0.8-0.3c0.3,0,0.6,0.1,0.8,0.3c0.2,0.2,0.3,0.4,0.3,0.7c0,0.1,0,0.3-0.1,0.4s-0.2,0.3-0.3,0.4
				c-0.1,0.1-0.3,0.2-0.6,0.2c-0.2,0-0.3-0.1-0.5-0.2c-0.2-0.1-0.2-0.3-0.3-0.4c-0.1,0-0.3,0.2-0.4,0.4c-0.1,0.2-0.2,0.4-0.2,0.6
				c0.3,0.2,0.5,0.5,0.7,0.9c0.2,0.3,0.2,0.7,0.2,1.1c0,0.6-0.2,1.1-0.5,1.5c-0.3,0.4-0.7,0.8-1.3,1.1c-0.5,0.3-1.1,0.4-1.7,0.4
				c-0.1,0-0.3,0-0.4,0c-0.2,0-0.3,0-0.5,0c-0.2,0-0.4,0-0.6,0.1s-0.2,0.2-0.2,0.3c0,0.2,0.1,0.3,0.4,0.4c0.3,0.1,0.8,0.1,1.5,0.2
				c0.8,0,1.4,0.1,2,0.3c0.6,0.2,1,0.4,1.3,0.7c0.3,0.3,0.5,0.8,0.5,1.4c0,0.4-0.1,0.8-0.4,1.1s-0.6,0.6-1,0.8
				c-0.4,0.2-0.9,0.4-1.4,0.5S357.5,109.3,357,109.3z M357.5,108.3c0.7,0,1.2-0.1,1.6-0.4c0.4-0.3,0.5-0.5,0.5-0.8
				c0-0.2-0.1-0.4-0.2-0.5c-0.2-0.1-0.4-0.2-0.7-0.3s-0.7-0.1-1.2-0.1c-0.2,0-0.5,0-0.8,0c-0.3,0-0.5,0-0.8-0.1
				c-0.2,0.1-0.3,0.3-0.3,0.5s-0.1,0.4-0.1,0.5c0,0.4,0.2,0.7,0.5,1C356.3,108.1,356.8,108.3,357.5,108.3z M357.2,102.3
				c0.3,0,0.5-0.1,0.7-0.3c0.2-0.2,0.3-0.4,0.4-0.6c0.1-0.3,0.1-0.5,0.1-0.8c0-0.4,0-0.7-0.1-1c-0.1-0.3-0.2-0.6-0.4-0.8
				c-0.2-0.2-0.4-0.3-0.7-0.3c-0.4,0-0.7,0.2-0.9,0.5c-0.2,0.4-0.3,0.8-0.3,1.2c0,0.4,0,0.7,0.2,1c0.1,0.3,0.2,0.6,0.4,0.8
				C356.7,102.2,357,102.3,357.2,102.3z"/>
			<path d="M365.7,105.5c-0.7,0-1.4-0.2-1.9-0.5c-0.6-0.3-1-0.8-1.3-1.4c-0.3-0.6-0.5-1.3-0.5-2.1c0-0.7,0.2-1.4,0.5-2
				c0.3-0.6,0.7-1.1,1.3-1.5c0.6-0.4,1.2-0.6,2-0.6c0.4,0,0.8,0.1,1.2,0.2c0.4,0.1,0.8,0.3,1.1,0.6c0.3,0.3,0.6,0.7,0.8,1.1
				c0.2,0.5,0.3,1.1,0.3,1.8l-4.9,0.1c0,0.5,0.1,1,0.2,1.5c0.1,0.4,0.4,0.8,0.7,1s0.7,0.4,1.2,0.4c0.2,0,0.4,0,0.7-0.1
				c0.3-0.1,0.5-0.2,0.8-0.4c0.3-0.2,0.5-0.4,0.7-0.7l0.7,0.6c-0.4,0.5-0.7,0.9-1.2,1.2c-0.4,0.3-0.8,0.4-1.2,0.5
				S366.1,105.5,365.7,105.5z M364.3,100.2h2.8c0-0.4-0.1-0.8-0.2-1c-0.1-0.2-0.2-0.4-0.4-0.5c-0.2-0.1-0.4-0.2-0.6-0.2
				c-0.4,0-0.8,0.2-1,0.5C364.6,99.3,364.4,99.7,364.3,100.2z"/>
		</g>
	</g>
</g>
<g>
	<path class="st0" d="M286.3,11.7C272.9,11.7,262,22.6,262,36c0,9.5,5.5,17.8,13.5,21.8c-4.7,13.4-22.9,20.6-42.3,28.2
		c-24.1,9.5-49.1,19.4-49.1,42.9h3c0-21.4,24-30.9,47.2-40.1c19.9-7.9,38.7-15.3,43.9-29.9c2.5,0.9,5.2,1.4,8.1,1.4
		c13.4,0,24.3-10.9,24.3-24.3S299.8,11.7,286.3,11.7z M286.3,57.4c-11.8,0-21.4-9.6-21.4-21.4s9.6-21.4,21.4-21.4
		c11.8,0,21.4,9.6,21.4,21.4S298.1,57.4,286.3,57.4z"/>
	<path class="st1" d="M341,31.1c-13.4,0-24.3,10.9-24.3,24.3c0,5.4,1.8,10.4,4.8,14.5c-20.6,20-52.9,24.7-81.4,28.8
		c-30,4.3-55.9,8.1-55.9,29.7h3c0-19.1,23.5-22.5,53.3-26.8c28.9-4.2,61.6-8.9,82.9-29.5c4.4,4.7,10.7,7.6,17.7,7.6
		c13.4,0,24.3-10.9,24.3-24.3S354.4,31.1,341,31.1z M341,76.8c-11.8,0-21.4-9.6-21.4-21.4S329.2,34,341,34
		c11.8,0,21.4,9.6,21.4,21.4S352.8,76.8,341,76.8z"/>
</g>
<circle class="st1" cx="194.8" cy="124" r="2.7"/>
</svg>
