<?xml version="1.0" encoding="utf-8"?>
<!-- Generator: Adobe Illustrator 26.5.2, SVG Export Plug-In . SVG Version: 6.00 Build 0)  -->
<svg version="1.1" xmlns="http://www.w3.org/2000/svg" xmlns:xlink="http://www.w3.org/1999/xlink" x="0px" y="0px"
	 viewBox="0 0 500 200" style="enable-background:new 0 0 500 200;" xml:space="preserve">
<style type="text/css">
	.st0{opacity:0.4;fill:#77858D;stroke:#1C3441;stroke-width:0.25;}
	.st1{fill:#77858D;stroke:#1C3441;stroke-width:0.25;}
	.st2{fill:#77858D;}
	.st3{fill:none;stroke:#1C3441;stroke-width:0.25;stroke-linecap:round;stroke-linejoin:round;}
	.st4{fill:none;stroke:#1C3441;stroke-width:0.25;stroke-linecap:round;stroke-linejoin:round;stroke-dasharray:2.0054,2.0054;}
	.st5{fill:none;stroke:#1C3441;stroke-width:0.25;stroke-linecap:round;stroke-linejoin:round;stroke-dasharray:1.9978,1.9978;}
	.st6{fill:none;stroke:#1C3441;stroke-width:0.25;stroke-linecap:round;stroke-linejoin:round;stroke-dasharray:1.9948,1.9948;}
	.st7{fill:none;stroke:#1C3441;stroke-width:0.25;stroke-linecap:round;stroke-linejoin:round;stroke-dasharray:2.0067,2.0067;}
	.st8{fill:none;stroke:#1C3441;stroke-width:0.25;stroke-linecap:round;stroke-linejoin:round;stroke-dasharray:2.0075,2.0075;}
	.st9{fill:none;stroke:#1C3441;stroke-width:0.25;stroke-linecap:round;stroke-linejoin:round;stroke-dasharray:1.9977,1.9977;}
	.st10{fill:none;stroke:#1C3441;stroke-width:0.25;stroke-linecap:round;stroke-linejoin:round;stroke-dasharray:1.997,1.997;}
	.st11{fill:none;stroke:#1C3441;stroke-width:0.25;stroke-linecap:round;stroke-linejoin:round;stroke-dasharray:2.0085,2.0085;}
	.st12{fill:#1C3441;}
	.st13{opacity:0.8;}
	.st14{fill:none;stroke:#000000;stroke-miterlimit:10;}
	.st15{fill:none;stroke:#1C3441;stroke-width:0.5;stroke-linecap:round;stroke-linejoin:round;}
	.st16{fill:none;stroke:#000000;stroke-miterlimit:10;stroke-dasharray:2,2;}
</style>
<g id="Layer_1">
	<g>
		<g>
			<path class="st0" d="M39,180.5C39,149,72.2,59.2,167.8,59.2c103.9,0,128.8,121.3,286.7,121.3H39z"/>
			<path class="st1" d="M39,180.5c0-28,33.2-107.8,128.8-107.8c103.9,0,128.8,107.8,286.7,107.8H39z"/>
			<g>
				<path class="st2" d="M39,180.5c0-24.5,33.2-94.3,128.8-94.3c103.9,0,128.8,94.3,286.7,94.3H39z"/>
				<g>
					<path class="st3" d="M40,180.5h-1c0-0.3,0-0.7,0-1"/>
					<path class="st4" d="M39.1,177.5c2.5-26.7,36.7-91.3,128.7-91.3c103.4,0,128.6,93.5,284.7,94.3"/>
					<path class="st3" d="M453.5,180.5c0.3,0,0.7,0,1,0L453.5,180.5"/>
					<line class="st5" x1="451.5" y1="180.5" x2="41" y2="180.5"/>
				</g>
			</g>
			<g>
				<path class="st2" d="M39,180.5c0-21,33.2-80.8,128.8-80.8c103.9,0,128.8,80.8,286.7,80.8H39z"/>
				<g>
					<path class="st3" d="M40,180.5h-1c0-0.3,0-0.7,0-1"/>
					<path class="st6" d="M39.2,177.5c2.8-23.2,37.2-77.9,128.6-77.9c103.4,0,128.6,80.2,284.7,80.8"/>
					<path class="st3" d="M453.5,180.5c0.3,0,0.7,0,1,0L453.5,180.5"/>
					<line class="st5" x1="451.5" y1="180.5" x2="41" y2="180.5"/>
				</g>
			</g>
			<g>
				<path class="st2" d="M39,180.5c0-17.5,33.2-67.4,128.8-67.4c103.9,0,128.8,67.4,286.7,67.4H39z"/>
				<g>
					<path class="st3" d="M40,180.5h-1c0-0.3,0-0.7,0-1"/>
					<path class="st7" d="M39.3,177.5c3.4-19.6,37.9-64.4,128.5-64.4c103.4,0,128.6,66.8,284.7,67.4"/>
					<path class="st3" d="M453.5,180.5c0.3,0,0.7,0,1,0L453.5,180.5"/>
					<line class="st5" x1="451.5" y1="180.5" x2="41" y2="180.5"/>
				</g>
			</g>
			<g>
				<path class="st2" d="M39,180.5c0-14,33.2-53.9,128.8-53.9c103.9,0,128.8,53.9,286.7,53.9H39z"/>
				<g>
					<path class="st3" d="M40,180.5h-1c0-0.3,0-0.6,0.1-1"/>
					<path class="st8" d="M39.4,177.5c4.1-15.9,38.9-50.9,128.4-50.9c103.4,0,128.6,53.4,284.7,53.9"/>
					<path class="st3" d="M453.5,180.5c0.3,0,0.7,0,1,0L453.5,180.5"/>
					<line class="st5" x1="451.5" y1="180.5" x2="41" y2="180.5"/>
				</g>
			</g>
			<g>
				<path class="st2" d="M39,180.5c0-10.5,33.2-40.4,128.8-40.4c103.9,0,128.8,40.4,286.7,40.4H39z"/>
				<g>
					<path class="st3" d="M40,180.5h-1c0-0.3,0-0.6,0.1-1"/>
					<path class="st9" d="M39.7,177.6c5.1-12.2,40.3-37.5,128.2-37.5c103.4,0,128.6,40.1,284.7,40.4"/>
					<path class="st3" d="M453.5,180.5c0.3,0,0.7,0,1,0L453.5,180.5"/>
					<line class="st5" x1="451.5" y1="180.5" x2="41" y2="180.5"/>
				</g>
			</g>
			<g>
				<path class="st2" d="M39,180.5c0-7,33.2-26.9,128.8-26.9c103.9,0,128.8,26.9,286.7,26.9H39z"/>
				<g>
					<path class="st3" d="M40,180.5h-1c0-0.3,0.1-0.6,0.2-1"/>
					<path class="st10" d="M40.2,177.8c6.7-8.4,42.4-24.3,127.6-24.3c103.4,0,128.6,26.7,284.7,26.9"/>
					<path class="st3" d="M453.5,180.5c0.3,0,0.7,0,1,0L453.5,180.5"/>
					<line class="st5" x1="451.5" y1="180.5" x2="41" y2="180.5"/>
				</g>
			</g>
			<g>
				<path class="st2" d="M39,180.5C39,177,72.2,167,167.8,167c103.9,0,128.8,13.5,286.7,13.5H39z"/>
				<g>
					<path class="st3" d="M40,180.5h-1c0-0.2,0.2-0.5,0.5-0.8"/>
					<path class="st11" d="M41.2,178.6C50,174.3,86.1,167,167.8,167c103.4,0,128.6,13.4,284.7,13.5"/>
					<path class="st3" d="M453.5,180.5c0.3,0,0.7,0,1,0L453.5,180.5"/>
					<line class="st5" x1="451.5" y1="180.5" x2="41" y2="180.5"/>
				</g>
			</g>
		</g>
		<rect x="157.1" y="80.5" class="st2" width="17.8" height="95.6"/>
		<g>
			<g>
				<g>
					<path class="st12" d="M159.5,169.5v-0.5c0.1,0,0.2,0,0.3,0c0.1,0,0.1-0.1,0.2-0.2c0-0.1,0.1-0.2,0.1-0.5v-3.2l-0.9,0.5
						l-0.3-0.5l1.8-1.3h0.5v4.4c0,0.1,0,0.3,0,0.4c0,0.1,0,0.2,0,0.3c0.1,0,0.2,0,0.3,0s0.2,0,0.3,0v0.6H159.5z"/>
					<path class="st12" d="M164.6,169.6c-0.4,0-0.7-0.1-1-0.3s-0.5-0.4-0.7-0.7c-0.2-0.3-0.3-0.6-0.4-0.9c-0.1-0.3-0.1-0.7-0.1-1
						s0-0.7,0.1-1c0.1-0.3,0.2-0.7,0.4-0.9s0.4-0.5,0.7-0.7c0.3-0.2,0.6-0.3,1-0.3c0.4,0,0.7,0.1,1,0.3c0.3,0.2,0.5,0.4,0.7,0.7
						c0.2,0.3,0.3,0.6,0.4,0.9c0.1,0.3,0.1,0.7,0.1,1c0,0.3,0,0.7-0.1,1c-0.1,0.3-0.2,0.7-0.4,0.9c-0.2,0.3-0.4,0.5-0.7,0.7
						C165.3,169.5,164.9,169.6,164.6,169.6z M164.6,169c0.2,0,0.3-0.1,0.5-0.2s0.2-0.3,0.3-0.5c0.1-0.2,0.1-0.4,0.1-0.7
						c0-0.3,0-0.5,0-0.8c0-0.3,0-0.6,0-0.9c0-0.3-0.1-0.6-0.1-0.8c-0.1-0.2-0.2-0.4-0.3-0.6s-0.3-0.2-0.5-0.2
						c-0.2,0-0.3,0.1-0.5,0.2s-0.2,0.3-0.3,0.5s-0.1,0.4-0.2,0.7c0,0.3,0,0.5,0,0.8c0,0.2,0,0.4,0,0.7c0,0.2,0,0.5,0.1,0.7
						c0,0.2,0.1,0.4,0.2,0.6c0.1,0.2,0.2,0.3,0.3,0.4C164.3,169,164.4,169,164.6,169z"/>
					<path class="st12" d="M168.9,166.9c-0.3,0-0.6-0.1-0.8-0.2s-0.4-0.3-0.5-0.6c-0.1-0.2-0.2-0.5-0.2-0.7c0-0.2,0.1-0.5,0.2-0.7
						c0.1-0.2,0.3-0.4,0.5-0.6c0.2-0.2,0.5-0.2,0.8-0.2c0.3,0,0.6,0.1,0.8,0.2s0.4,0.3,0.5,0.6c0.1,0.2,0.2,0.5,0.2,0.7
						c0,0.3-0.1,0.5-0.2,0.8c-0.1,0.2-0.3,0.4-0.5,0.6C169.4,166.8,169.2,166.9,168.9,166.9z M168.6,169.6l-0.5-0.5l4.5-5.3l0.6,0.5
						L168.6,169.6z M168.9,166.3c0.1,0,0.2,0,0.3-0.1c0.1-0.1,0.1-0.2,0.2-0.3s0-0.3,0-0.4c0-0.1,0-0.2,0-0.3c0-0.1,0-0.2-0.1-0.3
						c0-0.1-0.1-0.2-0.2-0.3c-0.1-0.1-0.2-0.1-0.3-0.1c-0.1,0-0.2,0-0.2,0.1c-0.1,0.1-0.1,0.1-0.2,0.2c0,0.1-0.1,0.2-0.1,0.3
						c0,0.1,0,0.2,0,0.3c0,0.1,0,0.2,0,0.3c0,0.1,0,0.2,0.1,0.3c0,0.1,0.1,0.2,0.2,0.3C168.7,166.2,168.8,166.3,168.9,166.3z
						 M172.5,169.6c-0.3,0-0.6-0.1-0.8-0.2c-0.2-0.1-0.4-0.3-0.5-0.6c-0.1-0.2-0.2-0.5-0.2-0.7c0-0.2,0.1-0.5,0.2-0.7
						c0.1-0.2,0.3-0.4,0.5-0.6c0.2-0.2,0.5-0.2,0.8-0.2c0.3,0,0.6,0.1,0.8,0.2c0.2,0.2,0.4,0.3,0.5,0.6c0.1,0.2,0.2,0.5,0.2,0.7
						c0,0.3-0.1,0.5-0.2,0.8c-0.1,0.2-0.3,0.4-0.5,0.6C173,169.5,172.7,169.6,172.5,169.6z M172.5,169c0.1,0,0.2,0,0.2-0.1
						c0.1-0.1,0.1-0.1,0.2-0.2c0-0.1,0.1-0.2,0.1-0.3c0-0.1,0-0.2,0-0.3c0-0.1,0-0.2,0-0.3c0-0.1,0-0.2-0.1-0.3
						c0-0.1-0.1-0.2-0.2-0.3c-0.1-0.1-0.2-0.1-0.3-0.1c-0.1,0-0.2,0.1-0.3,0.2s-0.1,0.2-0.2,0.3s0,0.2,0,0.3s0,0.2,0,0.3
						c0,0.1,0,0.2,0.1,0.3c0,0.1,0.1,0.2,0.2,0.3C172.3,168.9,172.4,169,172.5,169z"/>
				</g>
			</g>
		</g>
		<g>
			<g>
				<g>
					<path class="st12" d="M158.6,156.1c0-0.3,0-0.5,0.1-0.7c0.1-0.2,0.2-0.4,0.3-0.6c0.1-0.2,0.3-0.3,0.4-0.5
						c0.1-0.1,0.3-0.3,0.4-0.4c0.4-0.4,0.7-0.7,0.8-1c0.2-0.3,0.2-0.6,0.2-0.9c0-0.2,0-0.3-0.1-0.5c0-0.2-0.1-0.3-0.2-0.4
						c-0.1-0.1-0.3-0.2-0.5-0.1c-0.1,0-0.3,0-0.4,0.1c-0.1,0.1-0.2,0.1-0.3,0.2c0.1,0.1,0.1,0.1,0.1,0.2s0,0.1,0,0.2
						c0,0.1,0,0.1-0.1,0.2c0,0.1-0.1,0.2-0.2,0.2c-0.1,0.1-0.2,0.1-0.3,0.1c-0.2,0-0.3-0.1-0.4-0.2c-0.1-0.1-0.1-0.2-0.1-0.4
						c0-0.1,0-0.3,0.1-0.4c0.1-0.1,0.2-0.3,0.3-0.4c0.1-0.1,0.3-0.2,0.5-0.3c0.2-0.1,0.5-0.1,0.7-0.1c0.2,0,0.4,0,0.6,0.1
						c0.2,0.1,0.4,0.1,0.6,0.3c0.2,0.1,0.3,0.3,0.4,0.5c0.1,0.2,0.2,0.4,0.2,0.7c0,0.1,0,0.3-0.1,0.4c0,0.1-0.1,0.3-0.3,0.5
						s-0.3,0.4-0.5,0.6c-0.2,0.2-0.5,0.5-0.9,0.8c-0.3,0.2-0.5,0.5-0.6,0.7c-0.1,0.2-0.2,0.3-0.2,0.5l1.6,0c0.1,0,0.2,0,0.3,0
						c0.1,0,0.2-0.1,0.2-0.2c0.1-0.1,0.1-0.2,0.1-0.3h0.5l-0.1,1.3H158.6z"/>
					<path class="st12" d="M165.1,156.3c-0.4,0-0.7-0.1-1-0.3s-0.5-0.4-0.7-0.7c-0.2-0.3-0.3-0.6-0.4-0.9c-0.1-0.3-0.1-0.7-0.1-1
						s0-0.7,0.1-1c0.1-0.3,0.2-0.7,0.4-0.9s0.4-0.5,0.7-0.7c0.3-0.2,0.6-0.3,1-0.3c0.4,0,0.7,0.1,1,0.3c0.3,0.2,0.5,0.4,0.7,0.7
						c0.2,0.3,0.3,0.6,0.4,0.9c0.1,0.3,0.1,0.7,0.1,1c0,0.3,0,0.7-0.1,1c-0.1,0.3-0.2,0.7-0.4,0.9c-0.2,0.3-0.4,0.5-0.7,0.7
						C165.8,156.2,165.4,156.3,165.1,156.3z M165.1,155.7c0.2,0,0.3-0.1,0.5-0.2s0.2-0.3,0.3-0.5c0.1-0.2,0.1-0.4,0.1-0.7
						c0-0.3,0-0.5,0-0.8c0-0.3,0-0.6,0-0.9c0-0.3-0.1-0.6-0.1-0.8c-0.1-0.2-0.2-0.4-0.3-0.6s-0.3-0.2-0.5-0.2
						c-0.2,0-0.3,0.1-0.5,0.2s-0.2,0.3-0.3,0.5s-0.1,0.4-0.2,0.7c0,0.3,0,0.5,0,0.8c0,0.2,0,0.4,0,0.7c0,0.2,0,0.5,0.1,0.7
						c0,0.2,0.1,0.4,0.2,0.6c0.1,0.2,0.2,0.3,0.3,0.4C164.8,155.6,164.9,155.7,165.1,155.7z"/>
					<path class="st12" d="M169.4,153.6c-0.3,0-0.6-0.1-0.8-0.2s-0.4-0.3-0.5-0.6c-0.1-0.2-0.2-0.5-0.2-0.7c0-0.2,0.1-0.5,0.2-0.7
						c0.1-0.2,0.3-0.4,0.5-0.6c0.2-0.2,0.5-0.2,0.8-0.2c0.3,0,0.6,0.1,0.8,0.2s0.4,0.3,0.5,0.6c0.1,0.2,0.2,0.5,0.2,0.7
						c0,0.3-0.1,0.5-0.2,0.8c-0.1,0.2-0.3,0.4-0.5,0.6C169.9,153.5,169.7,153.6,169.4,153.6z M169.1,156.3l-0.5-0.5l4.5-5.3l0.6,0.5
						L169.1,156.3z M169.4,152.9c0.1,0,0.2,0,0.3-0.1c0.1-0.1,0.1-0.2,0.2-0.3s0-0.3,0-0.4c0-0.1,0-0.2,0-0.3c0-0.1,0-0.2-0.1-0.3
						c0-0.1-0.1-0.2-0.2-0.3c-0.1-0.1-0.2-0.1-0.3-0.1c-0.1,0-0.2,0-0.2,0.1c-0.1,0.1-0.1,0.1-0.2,0.2c0,0.1-0.1,0.2-0.1,0.3
						c0,0.1,0,0.2,0,0.3c0,0.1,0,0.2,0,0.3c0,0.1,0,0.2,0.1,0.3c0,0.1,0.1,0.2,0.2,0.3C169.2,152.9,169.3,152.9,169.4,152.9z
						 M173,156.3c-0.3,0-0.6-0.1-0.8-0.2c-0.2-0.1-0.4-0.3-0.5-0.6c-0.1-0.2-0.2-0.5-0.2-0.7c0-0.2,0.1-0.5,0.2-0.7
						c0.1-0.2,0.3-0.4,0.5-0.6c0.2-0.2,0.5-0.2,0.8-0.2c0.3,0,0.6,0.1,0.8,0.2c0.2,0.2,0.4,0.3,0.5,0.6c0.1,0.2,0.2,0.5,0.2,0.7
						c0,0.3-0.1,0.5-0.2,0.8c-0.1,0.2-0.3,0.4-0.5,0.6C173.5,156.2,173.2,156.3,173,156.3z M173,155.6c0.1,0,0.2,0,0.2-0.1
						c0.1-0.1,0.1-0.1,0.2-0.2c0-0.1,0.1-0.2,0.1-0.3c0-0.1,0-0.2,0-0.3c0-0.1,0-0.2,0-0.3c0-0.1,0-0.2-0.1-0.3
						c0-0.1-0.1-0.2-0.2-0.3c-0.1-0.1-0.2-0.1-0.3-0.1c-0.1,0-0.2,0.1-0.3,0.2s-0.1,0.2-0.2,0.3s0,0.2,0,0.3s0,0.2,0,0.3
						c0,0.1,0,0.2,0.1,0.3c0,0.1,0.1,0.2,0.2,0.3C172.8,155.6,172.9,155.6,173,155.6z"/>
				</g>
			</g>
		</g>
		<g>
			<g>
				<g>
					<path class="st12" d="M160.2,142.9c-0.4,0-0.7-0.1-1-0.2c-0.3-0.1-0.4-0.3-0.6-0.4c-0.1-0.2-0.2-0.4-0.2-0.5
						c0-0.2,0-0.3,0.1-0.4c0.1-0.1,0.2-0.2,0.4-0.2c0.1,0,0.2,0,0.3,0.1c0.1,0.1,0.1,0.1,0.2,0.2c0,0.1,0,0.2,0,0.2
						c0,0.1,0,0.1,0,0.2c0,0.1-0.1,0.1-0.1,0.2c0.1,0.1,0.2,0.2,0.3,0.2s0.3,0.1,0.4,0.1c0.3,0,0.6-0.1,0.8-0.3
						c0.2-0.2,0.3-0.4,0.3-0.7c0-0.2,0-0.4-0.1-0.5c-0.1-0.2-0.2-0.3-0.4-0.4c-0.2-0.1-0.4-0.2-0.7-0.2c0,0-0.1,0-0.2,0
						c-0.1,0-0.2,0-0.2,0v-0.6c0,0,0.1,0,0.1,0c0,0,0.1,0,0.1,0c0.2,0,0.4,0,0.6-0.1c0.2-0.1,0.3-0.2,0.4-0.3
						c0.1-0.1,0.1-0.3,0.1-0.5c0-0.2,0-0.3-0.1-0.5c-0.1-0.1-0.1-0.2-0.2-0.3s-0.3-0.1-0.4-0.1c-0.1,0-0.3,0-0.4,0.1
						c-0.1,0.1-0.2,0.1-0.2,0.2c0,0.1,0.1,0.1,0.1,0.2c0,0.1,0,0.1,0,0.2c0,0.1,0,0.1-0.1,0.2c0,0.1-0.1,0.2-0.2,0.2
						c-0.1,0.1-0.2,0.1-0.3,0.1c-0.2,0-0.3-0.1-0.4-0.2s-0.1-0.2-0.1-0.4c0-0.2,0.1-0.3,0.2-0.5c0.1-0.2,0.3-0.4,0.6-0.5
						s0.6-0.2,0.9-0.2c0.3,0,0.6,0,0.9,0.1s0.5,0.2,0.6,0.4s0.2,0.5,0.2,0.8c0,0.1,0,0.3-0.1,0.5c-0.1,0.2-0.2,0.3-0.4,0.5
						c-0.2,0.1-0.4,0.2-0.7,0.3c0.5,0.1,0.9,0.3,1.1,0.5c0.2,0.3,0.4,0.6,0.4,0.9c0,0.4-0.1,0.7-0.3,0.9c-0.2,0.3-0.4,0.4-0.8,0.6
						S160.6,142.9,160.2,142.9z"/>
					<path class="st12" d="M165.2,142.9c-0.4,0-0.7-0.1-1-0.3s-0.5-0.4-0.7-0.7c-0.2-0.3-0.3-0.6-0.4-0.9c-0.1-0.3-0.1-0.7-0.1-1
						s0-0.7,0.1-1c0.1-0.3,0.2-0.7,0.4-0.9s0.4-0.5,0.7-0.7c0.3-0.2,0.6-0.3,1-0.3c0.4,0,0.7,0.1,1,0.3c0.3,0.2,0.5,0.4,0.7,0.7
						c0.2,0.3,0.3,0.6,0.4,0.9c0.1,0.3,0.1,0.7,0.1,1c0,0.3,0,0.7-0.1,1c-0.1,0.3-0.2,0.7-0.4,0.9c-0.2,0.3-0.4,0.5-0.7,0.7
						C165.9,142.8,165.5,142.9,165.2,142.9z M165.2,142.4c0.2,0,0.3-0.1,0.5-0.2s0.2-0.3,0.3-0.5c0.1-0.2,0.1-0.4,0.1-0.7
						c0-0.3,0-0.5,0-0.8c0-0.3,0-0.6,0-0.9c0-0.3-0.1-0.6-0.1-0.8c-0.1-0.2-0.2-0.4-0.3-0.6s-0.3-0.2-0.5-0.2
						c-0.2,0-0.3,0.1-0.5,0.2s-0.2,0.3-0.3,0.5s-0.1,0.4-0.2,0.7c0,0.3,0,0.5,0,0.8c0,0.2,0,0.4,0,0.7c0,0.2,0,0.5,0.1,0.7
						c0,0.2,0.1,0.4,0.2,0.6c0.1,0.2,0.2,0.3,0.3,0.4C164.9,142.3,165,142.4,165.2,142.4z"/>
					<path class="st12" d="M169.5,140.2c-0.3,0-0.6-0.1-0.8-0.2s-0.4-0.3-0.5-0.6c-0.1-0.2-0.2-0.5-0.2-0.7c0-0.2,0.1-0.5,0.2-0.7
						c0.1-0.2,0.3-0.4,0.5-0.6c0.2-0.2,0.5-0.2,0.8-0.2c0.3,0,0.6,0.1,0.8,0.2s0.4,0.3,0.5,0.6c0.1,0.2,0.2,0.5,0.2,0.7
						c0,0.3-0.1,0.5-0.2,0.8c-0.1,0.2-0.3,0.4-0.5,0.6C170.1,140.1,169.8,140.2,169.5,140.2z M169.2,142.9l-0.5-0.5l4.5-5.3l0.6,0.5
						L169.2,142.9z M169.5,139.6c0.1,0,0.2,0,0.3-0.1c0.1-0.1,0.1-0.2,0.2-0.3s0-0.3,0-0.4c0-0.1,0-0.2,0-0.3c0-0.1,0-0.2-0.1-0.3
						c0-0.1-0.1-0.2-0.2-0.3c-0.1-0.1-0.2-0.1-0.3-0.1c-0.1,0-0.2,0-0.2,0.1c-0.1,0.1-0.1,0.1-0.2,0.2c0,0.1-0.1,0.2-0.1,0.3
						c0,0.1,0,0.2,0,0.3c0,0.1,0,0.2,0,0.3c0,0.1,0,0.2,0.1,0.3c0,0.1,0.1,0.2,0.2,0.3C169.3,139.6,169.4,139.6,169.5,139.6z
						 M173.1,142.9c-0.3,0-0.6-0.1-0.8-0.2c-0.2-0.1-0.4-0.3-0.5-0.6c-0.1-0.2-0.2-0.5-0.2-0.7c0-0.2,0.1-0.5,0.2-0.7
						c0.1-0.2,0.3-0.4,0.5-0.6c0.2-0.2,0.5-0.2,0.8-0.2c0.3,0,0.6,0.1,0.8,0.2c0.2,0.2,0.4,0.3,0.5,0.6c0.1,0.2,0.2,0.5,0.2,0.7
						c0,0.3-0.1,0.5-0.2,0.8c-0.1,0.2-0.3,0.4-0.5,0.6C173.6,142.8,173.3,142.9,173.1,142.9z M173.1,142.3c0.1,0,0.2,0,0.2-0.1
						c0.1-0.1,0.1-0.1,0.2-0.2c0-0.1,0.1-0.2,0.1-0.3c0-0.1,0-0.2,0-0.3c0-0.1,0-0.2,0-0.3c0-0.1,0-0.2-0.1-0.3
						c0-0.1-0.1-0.2-0.2-0.3c-0.1-0.1-0.2-0.1-0.3-0.1c-0.1,0-0.2,0.1-0.3,0.2s-0.1,0.2-0.2,0.3s0,0.2,0,0.3s0,0.2,0,0.3
						c0,0.1,0,0.2,0.1,0.3c0,0.1,0.1,0.2,0.2,0.3C172.9,142.3,173,142.3,173.1,142.3z"/>
				</g>
			</g>
		</g>
		<g>
			<g>
				<g>
					<path class="st12" d="M161.6,128.2c0,0.1,0,0.3,0,0.4c0,0.1,0,0.2,0,0.3c0.1,0,0.2,0,0.3,0s0.2,0,0.3,0v0.6h-2.3v-0.5h0
						c0.1,0,0.2,0,0.3,0s0.2-0.1,0.2-0.2s0.1-0.3,0.1-0.5V128h-2.1v-0.7l2.7-3.5h0.5v3.5h0.8v0.7h-0.8V128.2z M160.5,125.5l-1.4,1.8
						l1.4,0L160.5,125.5L160.5,125.5z"/>
					<path class="st12" d="M165.1,129.6c-0.4,0-0.7-0.1-1-0.3s-0.5-0.4-0.7-0.7c-0.2-0.3-0.3-0.6-0.4-0.9c-0.1-0.3-0.1-0.7-0.1-1
						s0-0.7,0.1-1c0.1-0.3,0.2-0.7,0.4-0.9s0.4-0.5,0.7-0.7c0.3-0.2,0.6-0.3,1-0.3c0.4,0,0.7,0.1,1,0.3c0.3,0.2,0.5,0.4,0.7,0.7
						c0.2,0.3,0.3,0.6,0.4,0.9c0.1,0.3,0.1,0.7,0.1,1c0,0.3,0,0.7-0.1,1c-0.1,0.3-0.2,0.7-0.4,0.9c-0.2,0.3-0.4,0.5-0.7,0.7
						C165.8,129.5,165.5,129.6,165.1,129.6z M165.2,129c0.2,0,0.3-0.1,0.5-0.2s0.2-0.3,0.3-0.5c0.1-0.2,0.1-0.4,0.1-0.7
						c0-0.3,0-0.5,0-0.8c0-0.3,0-0.6,0-0.9c0-0.3-0.1-0.6-0.1-0.8c-0.1-0.2-0.2-0.4-0.3-0.6s-0.3-0.2-0.5-0.2
						c-0.2,0-0.3,0.1-0.5,0.2s-0.2,0.3-0.3,0.5s-0.1,0.4-0.2,0.7c0,0.3,0,0.5,0,0.8c0,0.2,0,0.4,0,0.7c0,0.2,0,0.5,0.1,0.7
						c0,0.2,0.1,0.4,0.2,0.6c0.1,0.2,0.2,0.3,0.3,0.4C164.8,129,165,129,165.2,129z"/>
					<path class="st12" d="M169.5,126.9c-0.3,0-0.6-0.1-0.8-0.2s-0.4-0.3-0.5-0.6c-0.1-0.2-0.2-0.5-0.2-0.7c0-0.2,0.1-0.5,0.2-0.7
						c0.1-0.2,0.3-0.4,0.5-0.6c0.2-0.2,0.5-0.2,0.8-0.2c0.3,0,0.6,0.1,0.8,0.2s0.4,0.3,0.5,0.6c0.1,0.2,0.2,0.5,0.2,0.7
						c0,0.3-0.1,0.5-0.2,0.8c-0.1,0.2-0.3,0.4-0.5,0.6C170,126.8,169.8,126.9,169.5,126.9z M169.2,129.6l-0.5-0.5l4.5-5.3l0.6,0.5
						L169.2,129.6z M169.5,126.3c0.1,0,0.2,0,0.3-0.1c0.1-0.1,0.1-0.2,0.2-0.3s0-0.3,0-0.4c0-0.1,0-0.2,0-0.3c0-0.1,0-0.2-0.1-0.3
						c0-0.1-0.1-0.2-0.2-0.3c-0.1-0.1-0.2-0.1-0.3-0.1c-0.1,0-0.2,0-0.2,0.1c-0.1,0.1-0.1,0.1-0.2,0.2c0,0.1-0.1,0.2-0.1,0.3
						c0,0.1,0,0.2,0,0.3c0,0.1,0,0.2,0,0.3c0,0.1,0,0.2,0.1,0.3c0,0.1,0.1,0.2,0.2,0.3C169.3,126.2,169.4,126.3,169.5,126.3z
						 M173,129.6c-0.3,0-0.6-0.1-0.8-0.2c-0.2-0.1-0.4-0.3-0.5-0.6c-0.1-0.2-0.2-0.5-0.2-0.7c0-0.2,0.1-0.5,0.2-0.7
						c0.1-0.2,0.3-0.4,0.5-0.6c0.2-0.2,0.5-0.2,0.8-0.2c0.3,0,0.6,0.1,0.8,0.2c0.2,0.2,0.4,0.3,0.5,0.6c0.1,0.2,0.2,0.5,0.2,0.7
						c0,0.3-0.1,0.5-0.2,0.8c-0.1,0.2-0.3,0.4-0.5,0.6C173.5,129.5,173.3,129.6,173,129.6z M173,129c0.1,0,0.2,0,0.2-0.1
						c0.1-0.1,0.1-0.1,0.2-0.2c0-0.1,0.1-0.2,0.1-0.3c0-0.1,0-0.2,0-0.3c0-0.1,0-0.2,0-0.3c0-0.1,0-0.2-0.1-0.3
						c0-0.1-0.1-0.2-0.2-0.3c-0.1-0.1-0.2-0.1-0.3-0.1c-0.1,0-0.2,0.1-0.3,0.2s-0.1,0.2-0.2,0.3s0,0.2,0,0.3s0,0.2,0,0.3
						c0,0.1,0,0.2,0.1,0.3c0,0.1,0.1,0.2,0.2,0.3C172.8,128.9,172.9,129,173,129z"/>
				</g>
			</g>
		</g>
		<g>
			<g>
				<g>
					<path class="st12" d="M160.3,116.3c-0.3,0-0.6-0.1-0.9-0.2c-0.2-0.1-0.4-0.2-0.6-0.4c-0.1-0.2-0.2-0.3-0.2-0.5
						c0-0.2,0-0.3,0.1-0.4c0.1-0.1,0.2-0.2,0.4-0.2c0.1,0,0.2,0,0.3,0.1c0.1,0.1,0.1,0.1,0.2,0.2c0,0.1,0,0.2,0,0.2c0,0,0,0.1,0,0.2
						c0,0.1,0,0.1-0.1,0.2c0,0.1,0.1,0.1,0.1,0.2c0.1,0,0.1,0.1,0.2,0.1c0.1,0,0.2,0,0.2,0c0.2,0,0.4-0.1,0.5-0.2s0.2-0.3,0.3-0.4
						c0.1-0.2,0.1-0.4,0.1-0.5c0-0.1,0-0.3,0-0.4c0-0.2-0.1-0.3-0.1-0.5c-0.1-0.1-0.2-0.3-0.3-0.4c-0.1-0.1-0.3-0.1-0.5-0.1
						c-0.1,0-0.2,0-0.3,0c-0.1,0-0.2,0-0.3,0.1c-0.1,0-0.2,0.1-0.4,0.2l-0.3-0.3l0-2.6h2.1c0.2,0,0.3,0,0.4-0.1
						c0.1-0.1,0.2-0.2,0.2-0.4h0.5l-0.1,1.3l-2.5,0v1.4c0.1-0.1,0.3-0.1,0.5-0.1s0.3-0.1,0.5-0.1c0.3,0,0.6,0,0.9,0.1
						c0.2,0.1,0.4,0.2,0.6,0.4c0.2,0.2,0.3,0.4,0.4,0.6c0.1,0.2,0.1,0.4,0.1,0.7c0,0.4-0.1,0.7-0.3,1c-0.2,0.3-0.5,0.5-0.8,0.6
						C160.9,116.2,160.6,116.3,160.3,116.3z"/>
					<path class="st12" d="M165.1,116.3c-0.4,0-0.7-0.1-1-0.3s-0.5-0.4-0.7-0.7c-0.2-0.3-0.3-0.6-0.4-0.9c-0.1-0.3-0.1-0.7-0.1-1
						s0-0.7,0.1-1c0.1-0.3,0.2-0.7,0.4-0.9s0.4-0.5,0.7-0.7c0.3-0.2,0.6-0.3,1-0.3c0.4,0,0.7,0.1,1,0.3c0.3,0.2,0.5,0.4,0.7,0.7
						c0.2,0.3,0.3,0.6,0.4,0.9c0.1,0.3,0.1,0.7,0.1,1c0,0.3,0,0.7-0.1,1c-0.1,0.3-0.2,0.7-0.4,0.9c-0.2,0.3-0.4,0.5-0.7,0.7
						C165.8,116.2,165.5,116.3,165.1,116.3z M165.1,115.7c0.2,0,0.3-0.1,0.5-0.2s0.2-0.3,0.3-0.5c0.1-0.2,0.1-0.4,0.1-0.7
						c0-0.3,0-0.5,0-0.8c0-0.3,0-0.6,0-0.9c0-0.3-0.1-0.6-0.1-0.8c-0.1-0.2-0.2-0.4-0.3-0.6s-0.3-0.2-0.5-0.2
						c-0.2,0-0.3,0.1-0.5,0.2s-0.2,0.3-0.3,0.5s-0.1,0.4-0.2,0.7c0,0.3,0,0.5,0,0.8c0,0.2,0,0.4,0,0.7c0,0.2,0,0.5,0.1,0.7
						c0,0.2,0.1,0.4,0.2,0.6c0.1,0.2,0.2,0.3,0.3,0.4C164.8,115.6,165,115.7,165.1,115.7z"/>
					<path class="st12" d="M169.4,113.6c-0.3,0-0.6-0.1-0.8-0.2s-0.4-0.3-0.5-0.6c-0.1-0.2-0.2-0.5-0.2-0.7c0-0.2,0.1-0.5,0.2-0.7
						c0.1-0.2,0.3-0.4,0.5-0.6c0.2-0.2,0.5-0.2,0.8-0.2c0.3,0,0.6,0.1,0.8,0.2s0.4,0.3,0.5,0.6c0.1,0.2,0.2,0.5,0.2,0.7
						c0,0.3-0.1,0.5-0.2,0.8c-0.1,0.2-0.3,0.4-0.5,0.6C170,113.5,169.7,113.6,169.4,113.6z M169.2,116.3l-0.5-0.5l4.5-5.3l0.6,0.5
						L169.2,116.3z M169.5,112.9c0.1,0,0.2,0,0.3-0.1c0.1-0.1,0.1-0.2,0.2-0.3s0-0.3,0-0.4c0-0.1,0-0.2,0-0.3c0-0.1,0-0.2-0.1-0.3
						c0-0.1-0.1-0.2-0.2-0.3c-0.1-0.1-0.2-0.1-0.3-0.1c-0.1,0-0.2,0-0.2,0.1c-0.1,0.1-0.1,0.1-0.2,0.2c0,0.1-0.1,0.2-0.1,0.3
						c0,0.1,0,0.2,0,0.3c0,0.1,0,0.2,0,0.3c0,0.1,0,0.2,0.1,0.3c0,0.1,0.1,0.2,0.2,0.3C169.3,112.9,169.3,112.9,169.5,112.9z
						 M173,116.3c-0.3,0-0.6-0.1-0.8-0.2c-0.2-0.1-0.4-0.3-0.5-0.6c-0.1-0.2-0.2-0.5-0.2-0.7c0-0.2,0.1-0.5,0.2-0.7
						c0.1-0.2,0.3-0.4,0.5-0.6c0.2-0.2,0.5-0.2,0.8-0.2c0.3,0,0.6,0.1,0.8,0.2c0.2,0.2,0.4,0.3,0.5,0.6c0.1,0.2,0.2,0.5,0.2,0.7
						c0,0.3-0.1,0.5-0.2,0.8c-0.1,0.2-0.3,0.4-0.5,0.6C173.5,116.2,173.3,116.3,173,116.3z M173,115.6c0.1,0,0.2,0,0.2-0.1
						c0.1-0.1,0.1-0.1,0.2-0.2c0-0.1,0.1-0.2,0.1-0.3c0-0.1,0-0.2,0-0.3c0-0.1,0-0.2,0-0.3c0-0.1,0-0.2-0.1-0.3
						c0-0.1-0.1-0.2-0.2-0.3c-0.1-0.1-0.2-0.1-0.3-0.1c-0.1,0-0.2,0.1-0.3,0.2s-0.1,0.2-0.2,0.3s0,0.2,0,0.3s0,0.2,0,0.3
						c0,0.1,0,0.2,0.1,0.3c0,0.1,0.1,0.2,0.2,0.3C172.8,115.6,172.9,115.6,173,115.6z"/>
				</g>
			</g>
		</g>
		<g>
			<g>
				<g>
					<path class="st12" d="M160.4,102.9c-0.5,0-0.8-0.1-1.1-0.3c-0.3-0.2-0.5-0.5-0.6-0.9s-0.2-0.9-0.2-1.4c0-0.2,0-0.4,0.1-0.7
						c0-0.3,0.1-0.5,0.2-0.8c0.1-0.3,0.2-0.5,0.4-0.8c0.2-0.2,0.4-0.4,0.6-0.6c0.3-0.2,0.6-0.2,0.9-0.2c0.3,0,0.6,0.1,0.8,0.2
						c0.2,0.1,0.4,0.2,0.5,0.4s0.2,0.3,0.2,0.5c0,0.1,0,0.3-0.1,0.4s-0.2,0.2-0.4,0.2c-0.2,0-0.3-0.1-0.4-0.2s-0.1-0.2-0.1-0.3
						c0,0,0-0.1,0-0.2c0-0.1,0-0.1,0.1-0.2c0-0.1-0.1-0.1-0.2-0.2c-0.1,0-0.2-0.1-0.3-0.1c-0.2,0-0.3,0.1-0.4,0.1
						c-0.1,0.1-0.2,0.2-0.3,0.3s-0.1,0.3-0.2,0.5s-0.1,0.4-0.1,0.5s0,0.4,0,0.5c0.1-0.1,0.1-0.1,0.2-0.2s0.2-0.1,0.4-0.2
						c0.1,0,0.3-0.1,0.4-0.1c0.3,0,0.5,0,0.8,0.1c0.2,0.1,0.4,0.2,0.5,0.4c0.1,0.2,0.2,0.4,0.3,0.6c0.1,0.2,0.1,0.5,0.1,0.7
						c0,0.3-0.1,0.6-0.2,0.9s-0.4,0.5-0.7,0.7C161.1,102.8,160.8,102.9,160.4,102.9z M160.5,102.4c0.2,0,0.3-0.1,0.4-0.2
						c0.1-0.1,0.2-0.2,0.2-0.4s0.1-0.3,0.1-0.5c0-0.1,0-0.3,0-0.4c0-0.2,0-0.3-0.1-0.5c0-0.2-0.1-0.3-0.2-0.4
						c-0.1-0.1-0.2-0.1-0.4-0.1c-0.1,0-0.2,0-0.3,0.1c-0.1,0-0.2,0.1-0.3,0.2c-0.1,0.1-0.1,0.2-0.2,0.3c0,0.2,0,0.4,0,0.6
						c0,0.2,0.1,0.4,0.1,0.6c0.1,0.2,0.1,0.4,0.2,0.5C160.2,102.3,160.3,102.4,160.5,102.4z"/>
					<path class="st12" d="M165.2,102.9c-0.4,0-0.7-0.1-1-0.3s-0.5-0.4-0.7-0.7c-0.2-0.3-0.3-0.6-0.4-0.9c-0.1-0.3-0.1-0.7-0.1-1
						s0-0.7,0.1-1c0.1-0.3,0.2-0.7,0.4-0.9s0.4-0.5,0.7-0.7c0.3-0.2,0.6-0.3,1-0.3c0.4,0,0.7,0.1,1,0.3c0.3,0.2,0.5,0.4,0.7,0.7
						c0.2,0.3,0.3,0.6,0.4,0.9c0.1,0.3,0.1,0.7,0.1,1c0,0.3,0,0.7-0.1,1c-0.1,0.3-0.2,0.7-0.4,0.9c-0.2,0.3-0.4,0.5-0.7,0.7
						C165.9,102.8,165.6,102.9,165.2,102.9z M165.3,102.4c0.2,0,0.3-0.1,0.5-0.2s0.2-0.3,0.3-0.5c0.1-0.2,0.1-0.4,0.1-0.7
						c0-0.3,0-0.5,0-0.8c0-0.3,0-0.6,0-0.9c0-0.3-0.1-0.6-0.1-0.8c-0.1-0.2-0.2-0.4-0.3-0.6c-0.1-0.1-0.3-0.2-0.5-0.2
						c-0.2,0-0.3,0.1-0.5,0.2c-0.1,0.1-0.2,0.3-0.3,0.5s-0.1,0.4-0.2,0.7s0,0.5,0,0.8c0,0.2,0,0.4,0,0.7s0,0.5,0.1,0.7
						c0,0.2,0.1,0.4,0.2,0.6c0.1,0.2,0.2,0.3,0.3,0.4C165,102.3,165.1,102.4,165.3,102.4z"/>
					<path class="st12" d="M169.6,100.2c-0.3,0-0.6-0.1-0.8-0.2s-0.4-0.3-0.5-0.6s-0.2-0.5-0.2-0.7c0-0.2,0.1-0.5,0.2-0.7
						s0.3-0.4,0.5-0.6c0.2-0.2,0.5-0.2,0.8-0.2c0.3,0,0.6,0.1,0.8,0.2c0.2,0.2,0.4,0.3,0.5,0.6c0.1,0.2,0.2,0.5,0.2,0.7
						c0,0.3-0.1,0.5-0.2,0.8c-0.1,0.2-0.3,0.4-0.5,0.6C170.1,100.1,169.9,100.2,169.6,100.2z M169.3,102.9l-0.5-0.5l4.5-5.3l0.6,0.5
						L169.3,102.9z M169.6,99.6c0.1,0,0.2,0,0.3-0.1c0.1-0.1,0.1-0.2,0.2-0.3c0-0.1,0-0.3,0-0.4c0-0.1,0-0.2,0-0.3
						c0-0.1,0-0.2-0.1-0.3s-0.1-0.2-0.2-0.3c-0.1-0.1-0.2-0.1-0.3-0.1c-0.1,0-0.2,0-0.2,0.1c-0.1,0.1-0.1,0.1-0.2,0.2
						s-0.1,0.2-0.1,0.3c0,0.1,0,0.2,0,0.3c0,0.1,0,0.2,0,0.3c0,0.1,0,0.2,0.1,0.3s0.1,0.2,0.2,0.3C169.4,99.6,169.5,99.6,169.6,99.6
						z M173.1,102.9c-0.3,0-0.6-0.1-0.8-0.2c-0.2-0.1-0.4-0.3-0.5-0.6c-0.1-0.2-0.2-0.5-0.2-0.7c0-0.2,0.1-0.5,0.2-0.7
						c0.1-0.2,0.3-0.4,0.5-0.6c0.2-0.2,0.5-0.2,0.8-0.2c0.3,0,0.6,0.1,0.8,0.2c0.2,0.2,0.4,0.3,0.5,0.6c0.1,0.2,0.2,0.5,0.2,0.7
						c0,0.3-0.1,0.5-0.2,0.8c-0.1,0.2-0.3,0.4-0.5,0.6C173.7,102.8,173.4,102.9,173.1,102.9z M173.1,102.3c0.1,0,0.2,0,0.2-0.1
						c0.1-0.1,0.1-0.1,0.2-0.2c0-0.1,0.1-0.2,0.1-0.3c0-0.1,0-0.2,0-0.3c0-0.1,0-0.2,0-0.3c0-0.1,0-0.2-0.1-0.3
						c0-0.1-0.1-0.2-0.2-0.3c-0.1-0.1-0.2-0.1-0.3-0.1c-0.1,0-0.2,0.1-0.3,0.2c-0.1,0.1-0.1,0.2-0.2,0.3c0,0.1,0,0.2,0,0.3
						s0,0.2,0,0.3c0,0.1,0,0.2,0.1,0.3c0,0.1,0.1,0.2,0.2,0.3C172.9,102.3,173,102.3,173.1,102.3z"/>
				</g>
			</g>
		</g>
		<g>
			<g>
				<g>
					<path class="st12" d="M160.2,89.6c-0.2,0-0.3,0-0.3-0.1c-0.1-0.1-0.1-0.2-0.1-0.3c0-0.1,0-0.2,0.1-0.4c0-0.2,0.1-0.3,0.2-0.5
						c0.1-0.2,0.2-0.4,0.2-0.6c0.1-0.2,0.2-0.5,0.3-0.7s0.3-0.6,0.4-0.9c0.2-0.4,0.3-0.8,0.5-1.2l-1.7,0c-0.2,0-0.3,0-0.4,0.1
						c-0.1,0.1-0.2,0.2-0.2,0.4h-0.5l0.1-1.3h3.4v0.7c-0.2,0.4-0.3,0.7-0.5,1.1c-0.1,0.3-0.2,0.7-0.3,1s-0.2,0.7-0.3,1.1
						c-0.1,0.4-0.2,0.8-0.3,1.2c0,0.1-0.1,0.3-0.2,0.4C160.4,89.5,160.3,89.6,160.2,89.6z"/>
					<path class="st12" d="M164.8,89.6c-0.4,0-0.7-0.1-1-0.3s-0.5-0.4-0.7-0.7c-0.2-0.3-0.3-0.6-0.4-0.9c-0.1-0.3-0.1-0.7-0.1-1
						s0-0.7,0.1-1c0.1-0.3,0.2-0.7,0.4-0.9s0.4-0.5,0.7-0.7c0.3-0.2,0.6-0.3,1-0.3c0.4,0,0.7,0.1,1,0.3c0.3,0.2,0.5,0.4,0.7,0.7
						c0.2,0.3,0.3,0.6,0.4,0.9c0.1,0.3,0.1,0.7,0.1,1c0,0.3,0,0.7-0.1,1c-0.1,0.3-0.2,0.7-0.4,0.9s-0.4,0.5-0.7,0.7
						C165.5,89.5,165.2,89.6,164.8,89.6z M164.9,89c0.2,0,0.3-0.1,0.5-0.2s0.2-0.3,0.3-0.5c0.1-0.2,0.1-0.4,0.1-0.7
						c0-0.3,0-0.5,0-0.8c0-0.3,0-0.6,0-0.9c0-0.3-0.1-0.6-0.1-0.8c-0.1-0.2-0.2-0.4-0.3-0.6c-0.1-0.1-0.3-0.2-0.5-0.2
						c-0.2,0-0.3,0.1-0.5,0.2c-0.1,0.1-0.2,0.3-0.3,0.5s-0.1,0.4-0.2,0.7s0,0.5,0,0.8c0,0.2,0,0.4,0,0.7s0,0.5,0.1,0.7
						c0,0.2,0.1,0.4,0.2,0.6c0.1,0.2,0.2,0.3,0.3,0.4C164.5,89,164.7,89,164.9,89z"/>
					<path class="st12" d="M169.2,86.9c-0.3,0-0.6-0.1-0.8-0.2s-0.4-0.3-0.5-0.6s-0.2-0.5-0.2-0.7c0-0.2,0.1-0.5,0.2-0.7
						s0.3-0.4,0.5-0.6c0.2-0.2,0.5-0.2,0.8-0.2c0.3,0,0.6,0.1,0.8,0.2c0.2,0.2,0.4,0.3,0.5,0.6c0.1,0.2,0.2,0.5,0.2,0.7
						c0,0.3-0.1,0.5-0.2,0.8c-0.1,0.2-0.3,0.4-0.5,0.6C169.7,86.8,169.4,86.9,169.2,86.9z M168.9,89.6l-0.5-0.5l4.5-5.3l0.6,0.5
						L168.9,89.6z M169.2,86.3c0.1,0,0.2,0,0.3-0.1c0.1-0.1,0.1-0.2,0.2-0.3c0-0.1,0-0.3,0-0.4c0-0.1,0-0.2,0-0.3
						c0-0.1,0-0.2-0.1-0.3s-0.1-0.2-0.2-0.3c-0.1-0.1-0.2-0.1-0.3-0.1c-0.1,0-0.2,0-0.2,0.1c-0.1,0.1-0.1,0.1-0.2,0.2
						s-0.1,0.2-0.1,0.3c0,0.1,0,0.2,0,0.3c0,0.1,0,0.2,0,0.3c0,0.1,0,0.2,0.1,0.3s0.1,0.2,0.2,0.3C169,86.2,169.1,86.3,169.2,86.3z
						 M172.7,89.6c-0.3,0-0.6-0.1-0.8-0.2c-0.2-0.1-0.4-0.3-0.5-0.6c-0.1-0.2-0.2-0.5-0.2-0.7c0-0.2,0.1-0.5,0.2-0.7
						c0.1-0.2,0.3-0.4,0.5-0.6c0.2-0.2,0.5-0.2,0.8-0.2c0.3,0,0.6,0.1,0.8,0.2c0.2,0.2,0.4,0.3,0.5,0.6c0.1,0.2,0.2,0.5,0.2,0.7
						c0,0.3-0.1,0.5-0.2,0.8c-0.1,0.2-0.3,0.4-0.5,0.6S173,89.6,172.7,89.6z M172.7,89c0.1,0,0.2,0,0.2-0.1c0.1-0.1,0.1-0.1,0.2-0.2
						c0-0.1,0.1-0.2,0.1-0.3c0-0.1,0-0.2,0-0.3c0-0.1,0-0.2,0-0.3c0-0.1,0-0.2-0.1-0.3c0-0.1-0.1-0.2-0.2-0.3
						c-0.1-0.1-0.2-0.1-0.3-0.1c-0.1,0-0.2,0.1-0.3,0.2c-0.1,0.1-0.1,0.2-0.2,0.3c0,0.1,0,0.2,0,0.3c0,0.1,0,0.2,0,0.3
						c0,0.1,0,0.2,0.1,0.3c0,0.1,0.1,0.2,0.2,0.3C172.5,88.9,172.6,89,172.7,89z"/>
				</g>
			</g>
		</g>
		<g>
			<g class="st13">
				<path class="st2" d="M213.1,67.6l0.4-0.8c0.2,0.1,0.4,0.1,0.5,0.1c0.2,0,0.3,0,0.4-0.2c0.1-0.1,0.3-0.4,0.4-0.7l2.1-4.9
					c0.1-0.2,0.2-0.5,0.3-0.7c0.1-0.2,0.2-0.4,0.2-0.5c-0.1,0-0.3-0.1-0.5-0.2c-0.2-0.1-0.4-0.1-0.5-0.2l0.4-1l3.7,1.5l-0.4,0.8
					c-0.2-0.1-0.4-0.1-0.5-0.1s-0.3,0-0.4,0.2s-0.3,0.4-0.4,0.7l-2.1,4.9c-0.1,0.2-0.2,0.4-0.3,0.6c-0.1,0.2-0.2,0.4-0.2,0.5
					l1.7,0.7c0.5,0.2,1,0.2,1.4,0c0.4-0.2,0.8-0.7,1.1-1.4l0.9,0.4l-1.4,3L213.1,67.6z"/>
				<path class="st2" d="M221,70c0.2,0.1,0.4,0.1,0.6,0.1c0.1,0,0.3-0.1,0.4-0.3c0.1-0.2,0.2-0.3,0.3-0.6l1-2.1
					c0.1-0.2,0.2-0.3,0.3-0.5c0.1-0.2,0.2-0.4,0.3-0.6c-0.1-0.1-0.3-0.1-0.5-0.2c-0.2-0.1-0.3-0.1-0.4-0.2l0.5-1
					c0.4,0.2,0.7,0.3,1,0.4s0.5,0.1,0.7,0.2c0.2,0,0.3,0,0.4,0l0.7,0.3l-2.1,4.4c-0.1,0.1-0.1,0.3-0.2,0.5s-0.2,0.4-0.3,0.6
					c0.1,0,0.3,0.1,0.5,0.2s0.3,0.1,0.4,0.2l-0.5,1l-3.3-1.6L221,70z M225.7,64.1c-0.3-0.1-0.5-0.3-0.6-0.6
					c-0.1-0.3-0.1-0.6,0.1-0.9c0.1-0.3,0.3-0.5,0.6-0.6s0.6-0.1,0.8,0c0.3,0.1,0.4,0.3,0.5,0.6c0.1,0.3,0.1,0.6-0.1,0.9
					s-0.3,0.5-0.6,0.6C226.3,64.3,226,64.3,225.7,64.1z"/>
				<path class="st2" d="M227,74.2c-0.2-0.1-0.5-0.3-0.7-0.5c-0.2-0.2-0.4-0.4-0.4-0.6c-0.1-0.3-0.1-0.6-0.1-0.9
					c0.1-0.4,0.2-0.8,0.5-1.3l1.6-3l-0.8-0.4l0.5-1c0.3,0.1,0.6,0.2,0.9,0.1c0.3,0,0.6-0.2,0.9-0.3c0.3-0.2,0.6-0.4,0.8-0.7l0.9,0.5
					l-0.9,1.7l1.6,0.8l-0.5,1l-1.6-0.8l-1.6,3c-0.1,0.2-0.2,0.4-0.2,0.6c-0.1,0.2-0.1,0.4,0,0.6s0.2,0.3,0.4,0.4
					c0.1,0.1,0.3,0.1,0.5,0.1c0.2,0,0.6-0.1,1-0.3l0.3,0.9c-0.4,0.2-0.8,0.4-1.1,0.4c-0.3,0.1-0.6,0.1-0.9,0c-0.3,0-0.5-0.1-0.7-0.1
					C227.2,74.3,227.1,74.2,227,74.2z"/>
				<path class="st2" d="M232.5,77.2c-0.6-0.3-1-0.8-1.3-1.3c-0.3-0.5-0.4-1.1-0.4-1.7s0.2-1.3,0.6-1.9c0.3-0.6,0.7-1,1.3-1.4
					c0.5-0.4,1.1-0.5,1.7-0.6s1.2,0.1,1.9,0.4c0.3,0.2,0.6,0.4,0.9,0.7s0.5,0.6,0.6,1s0.2,0.8,0.1,1.3c-0.1,0.5-0.3,1-0.6,1.6
					l-4-2.2c-0.2,0.4-0.4,0.9-0.5,1.3c-0.1,0.4-0.1,0.8,0.1,1.1c0.1,0.3,0.4,0.6,0.8,0.9c0.2,0.1,0.4,0.2,0.6,0.2
					c0.2,0.1,0.5,0.1,0.8,0.1c0.3,0,0.6-0.1,0.9-0.2l0.3,0.8c-0.5,0.2-1,0.4-1.5,0.4c-0.5,0-0.9,0-1.2-0.1
					C233.1,77.4,232.7,77.3,232.5,77.2z M233.7,72.3l2.2,1.3c0.2-0.3,0.3-0.6,0.3-0.9c0-0.2,0-0.5-0.1-0.6c-0.1-0.2-0.2-0.3-0.4-0.4
					c-0.4-0.2-0.7-0.2-1.1-0.1C234.3,71.7,234,71.9,233.7,72.3z"/>
				<path class="st2" d="M236.6,78.2c0.2,0.1,0.4,0.2,0.6,0.2c0.1,0,0.3-0.1,0.4-0.3c0.1-0.1,0.3-0.3,0.4-0.5l1.2-2
					c0.1-0.1,0.2-0.3,0.3-0.5s0.2-0.3,0.4-0.5c-0.1-0.1-0.3-0.2-0.5-0.3c-0.2-0.1-0.3-0.2-0.4-0.2l0.6-0.9l0.5,0.3
					c0.3,0.2,0.6,0.3,0.9,0.4c0.3,0.1,0.5,0.1,0.7,0.1l0.6,0.4c0,0.1-0.1,0.2-0.2,0.5c-0.1,0.2-0.2,0.4-0.3,0.6
					c0.4-0.1,0.7-0.2,1-0.3c0.3,0,0.5,0,0.8,0c0.2,0,0.4,0.1,0.6,0.2c0.3,0.2,0.5,0.4,0.6,0.7s0.1,0.6-0.2,0.9
					c-0.1,0.1-0.2,0.2-0.3,0.3c-0.1,0.1-0.3,0.2-0.5,0.2c-0.2,0-0.4,0-0.6-0.2c-0.2-0.1-0.3-0.2-0.4-0.4c-0.1-0.2-0.1-0.4,0.1-0.7
					c-0.2-0.1-0.4-0.1-0.6-0.1c-0.2,0-0.5,0.1-0.7,0.2c-0.2,0.1-0.4,0.2-0.6,0.3l-1.2,1.9c-0.1,0.1-0.2,0.3-0.3,0.5
					c-0.1,0.2-0.3,0.4-0.4,0.6c0.1,0.1,0.3,0.1,0.4,0.2c0.2,0.1,0.3,0.2,0.4,0.2l-0.6,0.9l-3.1-1.9L236.6,78.2z"/>
				<path class="st2" d="M245,84.6c0.1-0.1,0.1-0.2,0.2-0.3s0.1-0.2,0.2-0.3c-0.4,0.1-0.8,0.1-1.2,0s-0.7-0.2-1-0.4
					c-0.5-0.3-0.8-0.7-0.9-1.2s0-0.9,0.3-1.4c0.2-0.4,0.5-0.6,0.9-0.8c0.4-0.1,0.8-0.2,1.2-0.1s0.9,0.1,1.3,0.3
					c0.4,0.2,0.9,0.4,1.3,0.6l0.4-0.6c0.1-0.2,0.2-0.4,0.3-0.6c0.1-0.2,0.1-0.4,0-0.6c-0.1-0.2-0.2-0.3-0.4-0.5
					c-0.2-0.1-0.3-0.2-0.5-0.2c-0.2,0-0.3,0-0.5,0c0,0.1,0,0.2,0,0.3c0,0.1-0.1,0.2-0.1,0.2c-0.1,0.2-0.3,0.3-0.5,0.4
					c-0.2,0.1-0.5,0-0.8-0.2c-0.2-0.2-0.4-0.4-0.4-0.6c0-0.2,0-0.5,0.2-0.7c0.2-0.3,0.5-0.5,0.9-0.6c0.4-0.1,0.8-0.1,1.2,0.1
					c0.5,0.1,0.9,0.3,1.4,0.6c0.7,0.5,1.1,1,1.2,1.6c0.1,0.6,0,1.3-0.6,2.1c-0.2,0.3-0.3,0.5-0.4,0.7c-0.1,0.2-0.2,0.4-0.4,0.6
					c-0.1,0.2-0.3,0.4-0.5,0.7c-0.1,0.1-0.2,0.3-0.3,0.5s-0.3,0.4-0.4,0.5c0.1,0.1,0.3,0.2,0.4,0.2s0.3,0.2,0.3,0.2l-0.6,0.9
					L245,84.6z M246.6,81.9c-0.2-0.1-0.5-0.2-0.7-0.3s-0.4-0.1-0.7-0.1c-0.2,0-0.4,0-0.6,0.1s-0.3,0.2-0.4,0.4
					c-0.1,0.2-0.2,0.4-0.1,0.6s0.2,0.3,0.4,0.4c0.2,0.1,0.4,0.2,0.6,0.2s0.4,0,0.6,0c0.1-0.1,0.1-0.2,0.1-0.2c0-0.1,0.1-0.1,0.1-0.2
					c0.1-0.1,0.2-0.3,0.3-0.4C246.4,82.1,246.5,82,246.6,81.9z"/>
				<path class="st2" d="M250.3,88.6c-0.5-0.4-0.9-0.8-1.2-1.3c-0.3-0.5-0.4-1.1-0.3-1.7c0-0.6,0.3-1.2,0.7-1.8
					c0.3-0.4,0.7-0.8,1.1-1.1c0.4-0.3,0.8-0.5,1.3-0.6c0.5-0.1,0.9-0.1,1.4,0c0.5,0.1,0.9,0.3,1.4,0.6c0.5,0.3,0.8,0.7,1.1,1.1
					c0.2,0.4,0.3,0.7,0.3,1.1s-0.1,0.7-0.3,0.9c-0.2,0.2-0.4,0.4-0.6,0.4c-0.3,0.1-0.5,0-0.8-0.1c-0.3-0.2-0.4-0.4-0.4-0.7
					s0.1-0.5,0.2-0.6c0-0.1,0.1-0.1,0.2-0.2s0.2-0.1,0.3-0.2c0-0.2,0-0.3-0.1-0.4c-0.1-0.1-0.2-0.2-0.2-0.3s-0.2-0.2-0.3-0.2
					c-0.4-0.2-0.8-0.3-1.3-0.1c-0.5,0.2-0.9,0.6-1.4,1.2c-0.3,0.4-0.5,0.8-0.6,1.2c-0.1,0.4-0.2,0.8-0.1,1.1c0.1,0.4,0.3,0.7,0.7,1
					c0.3,0.2,0.7,0.4,1.1,0.4c0.4,0.1,0.8,0,1.2-0.1l0.2,0.9c-0.5,0.2-1,0.3-1.5,0.3c-0.4,0-0.8-0.1-1.2-0.2
					C250.9,88.9,250.6,88.8,250.3,88.6z"/>
				<path class="st2" d="M252.6,94.5c-0.3-0.2-0.5-0.5-0.5-0.8c-0.1-0.3,0-0.6,0.2-0.9c0.1-0.2,0.3-0.3,0.6-0.4
					c0.2-0.1,0.5,0,0.7,0.1c0.2,0.1,0.3,0.3,0.3,0.5c0,0.2,0,0.4-0.2,0.6c0,0,0,0,0,0.1s0,0-0.1,0.1c0,0,0,0,0.1,0
					c0.1,0,0.2,0,0.4,0c0.2,0,0.3-0.1,0.5-0.2c0.2-0.1,0.4-0.2,0.7-0.4c0.2-0.2,0.5-0.3,0.7-0.5l0.8-4.9c0.1-0.6,0.2-1,0.3-1.2
					c0.1-0.3,0.2-0.5,0.3-0.7l-0.5-0.4l0.6-0.9l2.8,2.1l-0.5,0.7c-0.3-0.2-0.5-0.2-0.7,0c-0.2,0.2-0.3,0.4-0.3,0.6l-0.7,3.3
					c0.2-0.1,0.5-0.4,1-0.7c0.4-0.3,0.9-0.7,1.4-1c0.1-0.1,0.2-0.2,0.4-0.3c0.1-0.1,0.3-0.2,0.5-0.3c0.2-0.1,0.3-0.1,0.4-0.2
					l-0.7-0.4l0.6-0.9l2,1.5l-0.5,0.7c-0.3-0.1-0.6-0.1-0.9,0c-0.3,0.1-0.7,0.3-1,0.6l-4.3,3c-0.7,0.5-1.2,0.8-1.7,1.1
					c-0.5,0.3-0.9,0.4-1.3,0.4S252.9,94.8,252.6,94.5z"/>
				<path class="st2" d="M263.2,96.6c0.2,0.2,0.4,0.2,0.5,0.2c0.2,0,0.3-0.1,0.4-0.2c0.1-0.1,0.3-0.3,0.4-0.5l1.4-1.8
					c0.1-0.1,0.2-0.3,0.4-0.5c0.1-0.2,0.3-0.3,0.4-0.5c-0.1-0.1-0.3-0.2-0.4-0.3c-0.2-0.1-0.3-0.2-0.4-0.3l0.6-0.8
					c0.3,0.3,0.6,0.5,0.9,0.6c0.3,0.1,0.5,0.2,0.7,0.3c0.2,0.1,0.3,0.1,0.4,0.1l0.6,0.5l-3,3.9c-0.1,0.1-0.2,0.2-0.3,0.4
					c-0.2,0.2-0.3,0.4-0.4,0.5c0.1,0.1,0.3,0.2,0.4,0.3s0.3,0.2,0.3,0.2l-0.6,0.8l-2.9-2.2L263.2,96.6z M269,91.9
					c-0.2-0.2-0.4-0.4-0.4-0.7c0-0.3,0.1-0.6,0.2-0.8s0.4-0.4,0.7-0.4c0.3,0,0.6,0,0.8,0.2c0.2,0.2,0.4,0.4,0.4,0.7
					c0,0.3-0.1,0.6-0.3,0.8c-0.2,0.3-0.4,0.4-0.7,0.5C269.6,92.2,269.3,92.1,269,91.9z"/>
				<path class="st2" d="M266.3,100.1l0.6-0.7c0.2,0.2,0.4,0.2,0.5,0.2c0.2,0,0.3-0.1,0.4-0.2c0.1-0.1,0.3-0.3,0.4-0.5l1.4-1.8
					c0.1-0.1,0.2-0.3,0.4-0.4c0.1-0.2,0.3-0.3,0.4-0.5c-0.1-0.1-0.3-0.2-0.4-0.3c-0.2-0.1-0.3-0.2-0.4-0.3l0.7-0.8
					c0.3,0.3,0.6,0.5,0.9,0.6c0.3,0.1,0.5,0.2,0.7,0.3c0.2,0.1,0.3,0.1,0.4,0.1l0.5,0.4c-0.1,0.1-0.1,0.2-0.1,0.2
					c0,0-0.1,0.1-0.1,0.1c0,0-0.1,0.1-0.1,0.2c0.2,0,0.5,0,0.7,0.1s0.5,0.1,0.7,0.2c0.2,0.1,0.4,0.2,0.6,0.3c0.7,0.5,1,1.1,1,1.7
					s-0.4,1.3-1,2.2l-1.1,1.5c-0.1,0.1-0.2,0.2-0.3,0.4c-0.2,0.2-0.3,0.3-0.4,0.5c0.1,0.1,0.3,0.2,0.4,0.3c0.1,0.1,0.2,0.2,0.3,0.2
					l-0.7,0.8l-2.9-2.2l0.6-0.7c0.2,0.2,0.4,0.2,0.5,0.2c0.2,0,0.3-0.1,0.4-0.2s0.3-0.3,0.4-0.5l1.2-1.6c0.4-0.5,0.6-0.9,0.6-1.2
					c0-0.3-0.1-0.6-0.4-0.9c-0.2-0.1-0.4-0.2-0.6-0.3s-0.5-0.1-0.7-0.1c-0.1,0.1-0.2,0.2-0.2,0.3c-0.1,0.1-0.2,0.2-0.2,0.3l-1.5,1.9
					c-0.1,0.1-0.2,0.2-0.3,0.4c-0.2,0.2-0.3,0.3-0.4,0.5c0.1,0.1,0.3,0.2,0.4,0.3c0.1,0.1,0.3,0.2,0.3,0.2l-0.7,0.8L266.3,100.1z"/>
				<path class="st2" d="M276.1,107.8c0.3-0.4,0.6-0.7,1-0.9c0.3-0.2,0.7-0.4,1-0.5c0.4-0.1,0.7-0.2,1.1-0.2c0.4,0,0.7-0.1,1.1-0.1
					c0.9-0.1,1.7-0.2,2.2-0.4c0.5-0.2,1-0.5,1.3-0.9c0.2-0.2,0.3-0.5,0.4-0.7c0.1-0.3,0.2-0.5,0.1-0.8c0-0.3-0.2-0.5-0.5-0.7
					c-0.2-0.2-0.4-0.2-0.6-0.3s-0.4,0-0.6,0c0,0.1,0,0.3-0.1,0.4c-0.1,0.1-0.1,0.2-0.2,0.3s-0.2,0.2-0.3,0.2
					c-0.1,0.1-0.3,0.1-0.5,0.1c-0.2,0-0.3-0.1-0.5-0.2c-0.2-0.2-0.3-0.4-0.3-0.7c0-0.2,0.1-0.5,0.3-0.7c0.1-0.2,0.3-0.3,0.6-0.4
					s0.6-0.2,0.9-0.2c0.3,0,0.7,0,1.1,0.2c0.4,0.1,0.8,0.3,1.2,0.6c0.3,0.2,0.6,0.5,0.8,0.8c0.2,0.3,0.4,0.6,0.5,1
					c0.1,0.4,0.1,0.7,0.1,1.1c-0.1,0.4-0.3,0.8-0.6,1.1c-0.1,0.2-0.3,0.3-0.6,0.5c-0.2,0.1-0.5,0.3-0.9,0.4s-0.8,0.2-1.4,0.2
					s-1.2,0.1-2.1,0.1c-0.7,0-1.2,0.1-1.6,0.2c-0.4,0.1-0.7,0.2-0.8,0.4l2.1,1.8c0.2,0.1,0.3,0.2,0.5,0.3c0.1,0.1,0.3,0.1,0.4,0
					s0.3-0.2,0.5-0.4l0.7,0.6l-1.5,1.7L276.1,107.8z"/>
				<path class="st2" d="M284.8,115c-0.6-0.4-0.9-0.9-1.1-1.5c-0.2-0.5-0.3-1.1-0.2-1.7c0.1-0.6,0.2-1.1,0.5-1.7
					c0.3-0.5,0.6-1.1,0.9-1.5c0.4-0.5,0.8-0.9,1.3-1.2c0.5-0.4,1-0.7,1.6-0.9c0.6-0.2,1.1-0.3,1.7-0.2c0.6,0.1,1.1,0.3,1.6,0.7
					c0.5,0.4,0.9,0.9,1.1,1.4c0.2,0.5,0.2,1.1,0.2,1.7s-0.2,1.1-0.5,1.7s-0.6,1.1-0.9,1.5c-0.4,0.5-0.8,0.9-1.3,1.2s-1,0.7-1.6,0.9
					c-0.6,0.2-1.1,0.3-1.7,0.2C285.9,115.6,285.3,115.4,284.8,115z M285.5,114.3c0.3,0.2,0.5,0.3,0.8,0.3c0.3,0,0.6-0.1,0.9-0.4
					c0.3-0.2,0.6-0.5,1-0.8c0.3-0.3,0.6-0.7,1-1.1c0.4-0.4,0.7-0.9,1-1.3c0.3-0.4,0.5-0.9,0.7-1.3c0.2-0.4,0.2-0.8,0.2-1.1
					c0-0.3-0.2-0.6-0.5-0.8c-0.3-0.2-0.5-0.3-0.8-0.3c-0.3,0-0.6,0.1-0.9,0.3s-0.7,0.5-1,0.8c-0.3,0.3-0.7,0.7-1,1.1
					c-0.2,0.3-0.5,0.6-0.7,1c-0.2,0.3-0.4,0.7-0.6,1c-0.2,0.3-0.3,0.7-0.4,1s-0.1,0.6,0,0.9C285.1,113.9,285.3,114.1,285.5,114.3z"
					/>
				<path class="st2" d="M288.8,117.9c0.3-0.4,0.6-0.7,0.9-0.9c0.3-0.2,0.7-0.4,1-0.5c0.4-0.1,0.7-0.2,1.1-0.2
					c0.4,0,0.7-0.1,1.1-0.1c0.9-0.1,1.7-0.2,2.2-0.5c0.5-0.2,1-0.5,1.3-0.9c0.2-0.2,0.3-0.5,0.4-0.8s0.1-0.5,0.1-0.8
					s-0.2-0.5-0.5-0.7c-0.2-0.2-0.4-0.2-0.6-0.3c-0.2,0-0.4,0-0.6,0c0,0.1,0,0.3-0.1,0.4c-0.1,0.1-0.1,0.2-0.2,0.3
					c-0.1,0.1-0.2,0.2-0.3,0.2c-0.1,0.1-0.3,0.1-0.5,0.1c-0.2,0-0.3-0.1-0.5-0.2c-0.2-0.2-0.3-0.4-0.3-0.7c0-0.2,0.1-0.5,0.2-0.7
					c0.1-0.2,0.3-0.3,0.6-0.4s0.6-0.2,0.9-0.2c0.3,0,0.7,0,1.1,0.1c0.4,0.1,0.8,0.3,1.2,0.6c0.3,0.2,0.6,0.5,0.8,0.8
					c0.2,0.3,0.4,0.6,0.5,1c0.1,0.3,0.1,0.7,0.1,1.1s-0.2,0.8-0.5,1.1c-0.1,0.2-0.3,0.3-0.5,0.5s-0.5,0.3-0.9,0.4
					c-0.4,0.1-0.8,0.2-1.4,0.2s-1.2,0.1-2.1,0.1c-0.7,0-1.2,0.1-1.6,0.2c-0.4,0.1-0.7,0.2-0.8,0.4l2.1,1.7c0.2,0.1,0.3,0.2,0.5,0.3
					c0.1,0.1,0.3,0.1,0.4,0s0.3-0.2,0.5-0.4l0.7,0.5l-1.5,1.7L288.8,117.9z"/>
				<path class="st2" d="M297.6,125c-0.6-0.4-0.9-0.9-1.2-1.4c-0.2-0.5-0.3-1.1-0.2-1.7c0.1-0.6,0.2-1.1,0.5-1.7
					c0.3-0.6,0.6-1.1,0.9-1.5c0.4-0.5,0.8-0.9,1.3-1.3c0.5-0.4,1-0.7,1.6-0.9c0.6-0.2,1.1-0.3,1.7-0.2c0.6,0,1.1,0.3,1.6,0.7
					c0.5,0.4,0.9,0.9,1.1,1.4s0.3,1.1,0.2,1.7c-0.1,0.6-0.2,1.1-0.5,1.7c-0.2,0.6-0.6,1.1-0.9,1.5c-0.3,0.5-0.8,0.9-1.3,1.3
					c-0.5,0.4-1,0.7-1.6,0.9s-1.1,0.3-1.7,0.3C298.7,125.6,298.2,125.4,297.6,125z M298.3,124.2c0.3,0.2,0.5,0.3,0.8,0.2
					c0.3,0,0.6-0.2,0.9-0.4c0.3-0.2,0.6-0.5,0.9-0.8c0.3-0.3,0.6-0.7,0.9-1.1c0.3-0.5,0.7-0.9,0.9-1.3c0.3-0.4,0.5-0.9,0.7-1.3
					s0.2-0.8,0.2-1.1s-0.2-0.6-0.5-0.8c-0.3-0.2-0.5-0.3-0.9-0.3c-0.3,0-0.6,0.1-0.9,0.4s-0.7,0.5-1,0.8c-0.3,0.3-0.6,0.7-1,1.1
					c-0.2,0.3-0.5,0.6-0.7,1c-0.2,0.3-0.4,0.7-0.6,1c-0.2,0.3-0.3,0.7-0.4,1s-0.1,0.6,0,0.9C297.9,123.8,298.1,124,298.3,124.2z"/>
			</g>
		</g>
		<g>
			<g>
				<path d="M320,134.4c0.6-1,1.2-1.5,1.9-1.7s1.4,0,2.1,0.4c0.4,0.2,0.6,0.5,0.8,0.7s0.2,0.5,0.2,0.7c0,0.2,0,0.4-0.2,0.6
					c-0.1,0.2-0.3,0.4-0.5,0.4c-0.2,0.1-0.5,0.1-0.7-0.1c-0.2-0.1-0.4-0.3-0.4-0.5s0-0.4,0.1-0.6c0,0,0-0.1,0.1-0.1
					c0,0,0.1-0.1,0.1-0.1c0-0.1,0-0.1-0.1-0.2s-0.1-0.1-0.1-0.1c-0.1-0.1-0.2-0.1-0.4-0.1c-0.1,0-0.2,0.1-0.3,0.2
					c-0.1,0.1-0.2,0.2-0.2,0.3l-0.9,1.5l1.3,0.8l-0.6,0.9l-1.3-0.8l-1.8,3.1c-0.1,0.1-0.2,0.3-0.3,0.5c-0.1,0.2-0.3,0.4-0.4,0.6
					c0.1,0.1,0.3,0.1,0.5,0.2s0.3,0.2,0.4,0.2l-0.5,0.9l-3.2-1.9l0.5-0.8c0.2,0.1,0.4,0.2,0.6,0.2c0.2,0,0.3-0.1,0.4-0.3
					s0.3-0.3,0.4-0.5l1.9-3.2l-0.9-0.5l0.6-1l0.9,0.5L320,134.4z"/>
				<path d="M320.3,142.1c0.2,0.1,0.4,0.2,0.6,0.1c0.1,0,0.3-0.1,0.4-0.3s0.2-0.3,0.4-0.5l1.2-2c0.1-0.1,0.2-0.3,0.3-0.5
					c0.1-0.2,0.2-0.3,0.3-0.5c-0.1-0.1-0.3-0.1-0.5-0.2c-0.2-0.1-0.3-0.2-0.4-0.2l0.5-0.9l0.5,0.3c0.3,0.2,0.6,0.3,0.9,0.4
					c0.3,0.1,0.5,0.1,0.7,0.1l0.6,0.3c0,0.1-0.1,0.2-0.2,0.5c-0.1,0.2-0.2,0.4-0.3,0.6c0.4-0.1,0.7-0.2,1-0.3c0.3,0,0.5-0.1,0.8,0
					c0.2,0,0.4,0.1,0.6,0.2c0.3,0.2,0.5,0.4,0.6,0.7c0.1,0.3,0.1,0.6-0.1,0.9c-0.1,0.1-0.2,0.2-0.3,0.3c-0.1,0.1-0.3,0.2-0.5,0.2
					s-0.4,0-0.6-0.2c-0.2-0.1-0.3-0.2-0.4-0.4c-0.1-0.2-0.1-0.4,0-0.7c-0.2-0.1-0.4-0.1-0.6-0.1c-0.2,0-0.5,0.1-0.7,0.2
					s-0.4,0.2-0.5,0.4l-1.1,2c-0.1,0.1-0.2,0.3-0.3,0.5c-0.1,0.2-0.3,0.4-0.4,0.6c0.1,0.1,0.3,0.1,0.4,0.2s0.3,0.2,0.4,0.2l-0.5,0.9
					l-3.2-1.8L320.3,142.1z"/>
				<path d="M328.5,148c-0.6-0.3-1-0.7-1.4-1.2c-0.3-0.5-0.5-1.1-0.5-1.7c0-0.6,0.1-1.2,0.5-1.9c0.4-0.7,0.8-1.2,1.4-1.6
					c0.6-0.4,1.1-0.5,1.8-0.6c0.6,0,1.2,0.1,1.8,0.4c0.6,0.3,1,0.7,1.4,1.2c0.3,0.5,0.5,1.1,0.5,1.7c0,0.6-0.2,1.2-0.5,1.9
					c-0.4,0.7-0.8,1.2-1.4,1.6c-0.5,0.4-1.1,0.6-1.7,0.6S329.1,148.3,328.5,148z M329,147.1c0.3,0.2,0.6,0.2,0.9,0.1
					c0.3-0.1,0.6-0.3,0.8-0.6s0.5-0.6,0.6-1c0.2-0.3,0.3-0.6,0.4-1c0.1-0.3,0.2-0.7,0.2-1c0-0.3,0-0.6-0.1-0.8
					c-0.1-0.2-0.2-0.4-0.5-0.6c-0.3-0.2-0.6-0.2-0.9-0.1c-0.3,0.1-0.6,0.3-0.8,0.6c-0.3,0.3-0.5,0.6-0.7,1c-0.2,0.4-0.4,0.8-0.5,1.3
					s-0.2,0.9-0.1,1.2C328.5,146.7,328.7,147,329,147.1z"/>
				<path d="M332.4,149.9l0.4-0.8c0.2,0.1,0.4,0.2,0.6,0.1c0.1,0,0.3-0.1,0.4-0.3s0.2-0.3,0.3-0.6l1-2.1c0.1-0.1,0.2-0.3,0.3-0.5
					c0.1-0.2,0.2-0.4,0.3-0.5c-0.1-0.1-0.3-0.1-0.5-0.2c-0.2-0.1-0.3-0.1-0.4-0.2l0.5-0.9c0.4,0.2,0.7,0.3,1,0.4
					c0.3,0.1,0.5,0.1,0.7,0.2s0.3,0,0.4,0l0.6,0.3c0,0.1-0.1,0.2-0.1,0.3s-0.1,0.2-0.1,0.3c0.4-0.1,0.8-0.1,1.2-0.1
					c0.4,0,0.7,0.1,1,0.3c0.4,0.2,0.7,0.4,0.8,0.7c0.2,0.3,0.3,0.6,0.3,0.9c0.4-0.1,0.9-0.1,1.3-0.1s0.8,0.1,1.2,0.3
					c0.7,0.3,1.1,0.8,1.2,1.3c0.2,0.6,0,1.3-0.5,2.3l-0.9,1.8c-0.1,0.1-0.1,0.3-0.3,0.5c-0.1,0.2-0.2,0.4-0.3,0.6
					c0.1,0,0.3,0.1,0.5,0.2c0.2,0.1,0.3,0.1,0.4,0.2l-0.5,0.9l-3.2-1.6l0.4-0.8c0.2,0.1,0.4,0.1,0.5,0.1c0.1,0,0.3-0.2,0.4-0.3
					s0.2-0.3,0.3-0.6l0.9-1.9c0.3-0.5,0.4-1,0.3-1.3c-0.1-0.3-0.2-0.5-0.5-0.7c-0.2-0.1-0.4-0.2-0.7-0.2c-0.2,0-0.4,0-0.7,0
					c0,0.2-0.1,0.4-0.2,0.6s-0.2,0.4-0.3,0.6c-0.1,0.3-0.3,0.6-0.4,0.8s-0.3,0.6-0.4,0.8c-0.1,0.1-0.1,0.3-0.3,0.5s-0.2,0.4-0.3,0.6
					c0.1,0,0.3,0.1,0.5,0.2c0.2,0.1,0.3,0.1,0.4,0.2l-0.5,0.9l-3.2-1.6l0.4-0.8c0.2,0.1,0.4,0.1,0.5,0.1c0.1,0,0.3-0.1,0.4-0.3
					s0.2-0.3,0.3-0.6l1-2c0.3-0.5,0.4-1,0.3-1.2c-0.1-0.3-0.2-0.5-0.5-0.6c-0.2-0.1-0.4-0.2-0.6-0.1c-0.2,0-0.4,0-0.6,0.1
					c-0.1,0.1-0.1,0.2-0.2,0.3c0,0.1-0.1,0.2-0.2,0.3l-1.1,2.2c-0.1,0.1-0.1,0.3-0.3,0.5s-0.2,0.4-0.3,0.6c0.1,0,0.3,0.1,0.4,0.2
					c0.1,0.1,0.3,0.1,0.3,0.2l-0.5,0.9L332.4,149.9z"/>
				<path d="M347.3,157l0.4-0.8c0.2,0.1,0.4,0.1,0.5,0.1c0.2,0,0.3,0,0.4-0.2c0.1-0.1,0.3-0.4,0.4-0.7l2.1-4.9
					c0.1-0.2,0.2-0.5,0.3-0.7c0.1-0.2,0.2-0.4,0.2-0.5c-0.1,0-0.3-0.1-0.5-0.2c-0.2-0.1-0.4-0.1-0.5-0.2l0.4-1l3.7,1.6l-0.4,0.8
					c-0.2-0.1-0.4-0.1-0.5-0.1c-0.2,0-0.3,0-0.4,0.2c-0.1,0.1-0.3,0.4-0.4,0.7l-2.1,4.9c-0.1,0.2-0.2,0.4-0.3,0.6
					c-0.1,0.2-0.2,0.4-0.2,0.5l1.7,0.7c0.5,0.2,1,0.2,1.4,0c0.4-0.2,0.8-0.7,1.1-1.4l0.9,0.4l-1.4,3L347.3,157z"/>
				<path d="M355.3,159.4c0.2,0.1,0.4,0.1,0.6,0.1c0.1-0.1,0.3-0.2,0.4-0.3c0.1-0.2,0.2-0.4,0.3-0.6l0.8-2.2
					c0.1-0.2,0.1-0.3,0.2-0.5c0.1-0.2,0.2-0.4,0.3-0.6c-0.1,0-0.3-0.1-0.5-0.2c-0.2-0.1-0.3-0.1-0.4-0.1l0.4-1
					c0.4,0.2,0.7,0.3,1,0.3c0.3,0.1,0.5,0.1,0.7,0.1c0.2,0,0.3,0,0.4,0l0.7,0.3l-1.8,4.5c0,0.1-0.1,0.3-0.2,0.5s-0.2,0.4-0.3,0.6
					c0.1,0,0.3,0.1,0.5,0.1c0.2,0.1,0.3,0.1,0.4,0.1l-0.4,1l-3.4-1.3L355.3,159.4z M359.6,153.3c-0.3-0.1-0.5-0.3-0.6-0.6
					c-0.1-0.3-0.1-0.6,0-0.9c0.1-0.3,0.3-0.5,0.6-0.6s0.6-0.1,0.8,0c0.3,0.1,0.5,0.3,0.6,0.6c0.1,0.3,0.1,0.6,0,0.9
					s-0.3,0.5-0.6,0.6C360.2,153.4,359.9,153.4,359.6,153.3z"/>
				<path d="M361.8,163.1c-0.3-0.1-0.5-0.2-0.7-0.4c-0.2-0.2-0.4-0.3-0.5-0.6c-0.1-0.2-0.2-0.5-0.2-0.9c0-0.4,0.1-0.8,0.3-1.4
					l1.2-3.1l-0.9-0.3l0.4-1.1c0.3,0.1,0.6,0.1,0.9,0s0.6-0.2,0.9-0.4c0.3-0.2,0.5-0.5,0.7-0.7l1,0.4l-0.7,1.8l1.7,0.6l-0.4,1
					l-1.7-0.6l-1.2,3.2c-0.1,0.2-0.1,0.4-0.2,0.6c0,0.2,0,0.4,0,0.6s0.2,0.3,0.4,0.4c0.1,0,0.3,0.1,0.6,0.1c0.2,0,0.6-0.1,0.9-0.4
					l0.4,0.8c-0.4,0.3-0.7,0.4-1,0.5c-0.3,0.1-0.6,0.1-0.9,0.2s-0.5,0-0.7-0.1S361.8,163.1,361.8,163.1z"/>
				<path d="M367.8,165.2c-0.6-0.2-1.2-0.6-1.6-1c-0.4-0.5-0.6-1-0.7-1.6s0-1.3,0.2-2c0.2-0.6,0.5-1.1,1-1.6c0.5-0.4,1-0.7,1.6-0.9
					s1.2-0.1,1.9,0.1c0.4,0.1,0.7,0.3,1,0.5c0.3,0.2,0.6,0.5,0.8,0.8c0.2,0.3,0.3,0.8,0.3,1.2c0,0.5-0.1,1-0.3,1.7l-4.4-1.4
					c-0.2,0.5-0.2,0.9-0.3,1.3s0.1,0.8,0.3,1.1s0.5,0.5,1,0.7c0.2,0.1,0.4,0.1,0.6,0.1c0.2,0,0.5,0,0.8-0.1s0.6-0.2,0.9-0.4l0.4,0.8
					c-0.5,0.3-0.9,0.6-1.4,0.7s-0.9,0.1-1.2,0.1C368.4,165.4,368.1,165.3,367.8,165.2z M368.1,160.2l2.4,0.8
					c0.1-0.4,0.2-0.7,0.1-0.9s-0.1-0.4-0.2-0.6c-0.1-0.2-0.3-0.3-0.5-0.3c-0.4-0.1-0.7-0.1-1.1,0.1
					C368.6,159.5,368.3,159.8,368.1,160.2z"/>
				<path d="M372.3,165.5c0.2,0.1,0.4,0.1,0.6,0c0.1-0.1,0.2-0.2,0.3-0.4c0.1-0.2,0.2-0.4,0.2-0.6l0.7-2.2c0-0.2,0.1-0.3,0.2-0.5
					c0.1-0.2,0.1-0.4,0.2-0.6c-0.1,0-0.3-0.1-0.5-0.1s-0.3-0.1-0.4-0.1l0.3-1l0.5,0.2c0.3,0.1,0.7,0.2,1,0.2s0.5,0,0.6-0.1l0.7,0.2
					c0,0.1,0,0.3-0.1,0.5s-0.1,0.5-0.2,0.7c0.3-0.2,0.6-0.4,0.9-0.5c0.3-0.1,0.5-0.2,0.8-0.2s0.5,0,0.7,0.1c0.3,0.1,0.6,0.3,0.7,0.5
					c0.2,0.2,0.2,0.6,0.1,1c0,0.1-0.1,0.3-0.2,0.4c-0.1,0.1-0.2,0.2-0.4,0.3c-0.2,0.1-0.4,0.1-0.6,0c-0.2-0.1-0.3-0.2-0.5-0.3
					s-0.2-0.4-0.1-0.7c-0.2-0.1-0.4,0-0.6,0.1s-0.4,0.2-0.6,0.4c-0.2,0.2-0.4,0.3-0.5,0.5l-0.7,2.2c0,0.1-0.1,0.3-0.2,0.5
					c-0.1,0.2-0.2,0.4-0.2,0.6c0.1,0,0.3,0.1,0.5,0.1c0.2,0,0.3,0.1,0.4,0.1l-0.3,1l-3.5-1.1L372.3,165.5z"/>
				<path d="M382.3,169.4c0-0.1,0-0.2,0.1-0.3c0-0.1,0-0.2,0.1-0.3c-0.4,0.2-0.8,0.3-1.1,0.4c-0.4,0-0.7,0-1.1-0.1
					c-0.6-0.2-1-0.4-1.2-0.9c-0.2-0.4-0.3-0.9-0.1-1.4c0.1-0.4,0.3-0.8,0.6-1c0.3-0.2,0.7-0.4,1.1-0.5c0.4-0.1,0.9-0.1,1.3-0.1
					c0.5,0,0.9,0.1,1.4,0.2l0.2-0.7c0.1-0.2,0.1-0.5,0.1-0.7c0-0.2-0.1-0.4-0.2-0.5c-0.1-0.1-0.3-0.2-0.5-0.3c-0.2,0-0.3,0-0.5,0
					c-0.2,0-0.3,0.1-0.5,0.2c0,0.1,0.1,0.2,0.1,0.3c0,0.1,0,0.2,0,0.3c0,0.2-0.2,0.3-0.4,0.5c-0.2,0.2-0.4,0.2-0.8,0.1
					c-0.3-0.1-0.4-0.2-0.5-0.5c-0.1-0.2-0.1-0.4,0-0.7c0.1-0.4,0.3-0.6,0.6-0.8c0.3-0.2,0.7-0.3,1.2-0.3c0.5,0,1,0,1.5,0.2
					c0.8,0.2,1.3,0.6,1.7,1.1c0.3,0.5,0.4,1.2,0.1,2.1c-0.1,0.3-0.2,0.6-0.2,0.8c-0.1,0.2-0.1,0.4-0.2,0.6s-0.1,0.5-0.2,0.8
					c0,0.1-0.1,0.3-0.2,0.5c-0.1,0.2-0.1,0.4-0.2,0.6c0.2,0,0.3,0.1,0.5,0.1c0.2,0,0.3,0.1,0.4,0.1l-0.3,1L382.3,169.4z M383,166.2
					c-0.3,0-0.5-0.1-0.7-0.1c-0.2,0-0.5,0-0.7,0.1c-0.2,0.1-0.4,0.2-0.5,0.3c-0.1,0.1-0.2,0.3-0.3,0.5c-0.1,0.3,0,0.5,0.1,0.6
					c0.1,0.1,0.3,0.2,0.5,0.3c0.2,0.1,0.4,0.1,0.6,0c0.2,0,0.4-0.1,0.6-0.2c0-0.1,0-0.2,0.1-0.3c0-0.1,0-0.2,0.1-0.3
					c0-0.2,0.1-0.3,0.1-0.5S382.9,166.4,383,166.2z"/>
				<path d="M388.7,171.2c-0.6-0.1-1.1-0.4-1.6-0.8c-0.4-0.4-0.8-0.9-0.9-1.5c-0.2-0.6-0.2-1.2,0-2c0.1-0.5,0.3-1,0.6-1.4
					c0.3-0.4,0.6-0.8,1-1c0.4-0.3,0.8-0.5,1.3-0.5s1-0.1,1.5,0c0.6,0.1,1,0.3,1.4,0.6c0.3,0.3,0.6,0.6,0.7,0.9s0.2,0.7,0.1,1
					c-0.1,0.3-0.2,0.5-0.4,0.6c-0.2,0.2-0.5,0.2-0.7,0.2c-0.3-0.1-0.6-0.2-0.6-0.5c-0.1-0.2-0.1-0.4-0.1-0.6c0-0.1,0.1-0.2,0.1-0.3
					c0.1-0.1,0.1-0.2,0.2-0.3c0-0.2-0.1-0.3-0.2-0.4s-0.2-0.2-0.4-0.2c-0.1-0.1-0.2-0.1-0.3-0.1c-0.4-0.1-0.8,0.1-1.2,0.4
					c-0.4,0.3-0.7,0.9-0.8,1.7c-0.1,0.5-0.2,0.9-0.1,1.3c0,0.4,0.1,0.8,0.3,1.1s0.5,0.5,1,0.7c0.4,0.1,0.8,0.1,1.2,0
					c0.4-0.1,0.8-0.3,1.1-0.6l0.5,0.8c-0.4,0.4-0.9,0.6-1.3,0.8s-0.8,0.2-1.2,0.2C389.4,171.3,389.1,171.3,388.7,171.2z"/>
				<path d="M393.2,175.9c-0.3-0.1-0.6-0.2-0.8-0.5s-0.3-0.6-0.2-0.9c0.1-0.2,0.2-0.4,0.4-0.6c0.2-0.2,0.4-0.2,0.7-0.2
					c0.2,0,0.4,0.1,0.5,0.3c0.1,0.2,0.1,0.4,0.1,0.6c0,0,0,0.1,0,0.1c0,0,0,0.1,0,0.1c0,0,0,0,0.1,0c0.1,0,0.2-0.1,0.3-0.2
					c0.1-0.1,0.2-0.2,0.4-0.4c0.1-0.2,0.3-0.4,0.4-0.6s0.3-0.5,0.4-0.8l-1.3-4.8c-0.1-0.6-0.2-1-0.3-1.3c0-0.3,0-0.5,0-0.7l-0.6-0.1
					l0.2-1l3.4,0.7l-0.2,0.9c-0.3,0-0.6,0.1-0.6,0.3c-0.1,0.2-0.1,0.4,0,0.7l0.7,3.3c0.1-0.2,0.3-0.6,0.6-1c0.2-0.5,0.5-1,0.9-1.5
					c0.1-0.1,0.1-0.2,0.2-0.4c0.1-0.1,0.2-0.3,0.3-0.4c0.1-0.1,0.2-0.3,0.3-0.3l-0.8-0.1l0.2-1l2.4,0.5l-0.2,0.9
					c-0.3,0-0.6,0.1-0.8,0.4c-0.2,0.2-0.5,0.6-0.7,0.9l-2.7,4.5c-0.4,0.7-0.8,1.2-1.1,1.7c-0.3,0.4-0.7,0.7-1,0.9
					C394,176,393.7,176,393.2,175.9z"/>
				<path d="M403.8,173.2c0.3,0,0.4,0,0.6-0.1s0.2-0.2,0.3-0.4c0.1-0.2,0.1-0.4,0.2-0.6l0.4-2.3c0-0.2,0.1-0.4,0.1-0.6
					s0.1-0.4,0.1-0.6c-0.1,0-0.3,0-0.5-0.1c-0.2,0-0.3,0-0.5-0.1l0.2-1c0.4,0.1,0.8,0.1,1.1,0.1s0.5,0,0.7,0c0.2,0,0.3-0.1,0.4-0.1
					l0.7,0.1l-0.8,4.8c0,0.1-0.1,0.3-0.1,0.5c0,0.2-0.1,0.5-0.2,0.7c0.1,0,0.3,0,0.5,0c0.2,0,0.3,0,0.4,0.1l-0.2,1l-3.6-0.6
					L403.8,173.2z M406.7,166.3c-0.3-0.1-0.5-0.2-0.7-0.5c-0.2-0.3-0.2-0.5-0.2-0.8s0.2-0.6,0.5-0.7c0.2-0.2,0.5-0.3,0.8-0.2
					c0.3,0,0.5,0.2,0.7,0.5c0.2,0.3,0.2,0.5,0.2,0.8s-0.2,0.6-0.4,0.8C407.3,166.3,407,166.3,406.7,166.3z"/>
				<path d="M408,174.9l0.1-0.9c0.3,0,0.4,0,0.6-0.1c0.1-0.1,0.2-0.2,0.3-0.4c0.1-0.2,0.1-0.4,0.1-0.6l0.3-2.3
					c0-0.2,0.1-0.4,0.1-0.6c0-0.2,0.1-0.4,0.1-0.6c-0.1,0-0.3,0-0.5-0.1c-0.2,0-0.3,0-0.5,0l0.2-1c0.4,0.1,0.8,0.1,1.1,0.1
					c0.3,0,0.5,0,0.7-0.1c0.2,0,0.3-0.1,0.4-0.1l0.7,0.1c0,0.1,0,0.2,0,0.3c0,0.1,0,0.1,0,0.2c0,0.1,0,0.1,0,0.3
					c0.2-0.1,0.4-0.2,0.7-0.3c0.3-0.1,0.5-0.1,0.8-0.2s0.5,0,0.6,0c0.8,0.1,1.4,0.4,1.7,1c0.3,0.5,0.3,1.3,0.2,2.4l-0.3,1.8
					c0,0.1,0,0.3-0.1,0.5c0,0.2-0.1,0.5-0.1,0.7c0.2,0,0.3,0,0.5,0s0.3,0,0.4,0.1l-0.2,1l-3.6-0.5l0.1-0.9c0.3,0,0.5,0,0.6-0.1
					c0.1-0.1,0.2-0.2,0.3-0.4s0.1-0.4,0.1-0.6l0.3-2c0.1-0.6,0.1-1.1-0.1-1.4c-0.1-0.3-0.4-0.5-0.8-0.6c-0.2,0-0.5,0-0.7,0.1
					c-0.2,0.1-0.4,0.2-0.6,0.3c0,0.1,0,0.3-0.1,0.4c0,0.1,0,0.3-0.1,0.4l-0.3,2.3c0,0.1,0,0.3-0.1,0.5c0,0.2-0.1,0.5-0.1,0.7
					c0.1,0,0.3,0,0.5,0s0.3,0,0.4,0.1l-0.2,1L408,174.9z"/>
				<path d="M420.3,176.5c0-0.5,0.2-0.9,0.3-1.3s0.4-0.7,0.6-1s0.5-0.5,0.8-0.8c0.3-0.2,0.6-0.5,0.9-0.7c0.7-0.6,1.3-1.1,1.6-1.6
					c0.3-0.5,0.5-1,0.6-1.5c0-0.3,0-0.6,0-0.9s-0.2-0.5-0.3-0.7c-0.2-0.2-0.4-0.3-0.8-0.3c-0.2,0-0.5,0-0.7,0.1
					c-0.2,0.1-0.4,0.2-0.5,0.4c0.1,0.1,0.2,0.2,0.2,0.4s0,0.3,0,0.4c0,0.1-0.1,0.2-0.1,0.4c-0.1,0.1-0.2,0.2-0.3,0.3
					c-0.1,0.1-0.3,0.1-0.6,0.1c-0.3,0-0.5-0.2-0.6-0.4s-0.2-0.4-0.2-0.7c0-0.2,0.1-0.4,0.3-0.7c0.2-0.2,0.4-0.4,0.7-0.6
					s0.6-0.4,1-0.5c0.4-0.1,0.8-0.1,1.3-0.1c0.4,0,0.7,0.1,1.1,0.2s0.7,0.3,1,0.5c0.3,0.2,0.5,0.5,0.6,0.9s0.2,0.8,0.1,1.3
					c0,0.2-0.1,0.5-0.2,0.7c-0.1,0.2-0.3,0.5-0.5,0.8c-0.3,0.3-0.6,0.6-1,0.9c-0.4,0.3-1,0.7-1.7,1.2c-0.5,0.4-1,0.7-1.2,1
					c-0.3,0.3-0.4,0.6-0.5,0.7l2.7,0.3c0.2,0,0.4,0,0.6,0c0.2,0,0.3-0.1,0.4-0.2c0.1-0.1,0.2-0.3,0.2-0.6l0.9,0.1l-0.3,2.2
					L420.3,176.5z"/>
				<path d="M431.5,177.7c-0.7-0.1-1.3-0.2-1.8-0.6c-0.5-0.3-0.8-0.8-1.1-1.3c-0.3-0.5-0.4-1.1-0.5-1.7c-0.1-0.6-0.1-1.2-0.1-1.8
					c0-0.6,0.2-1.2,0.4-1.8c0.2-0.6,0.5-1.1,0.9-1.6c0.4-0.5,0.8-0.9,1.3-1.1c0.5-0.3,1.1-0.4,1.7-0.3c0.7,0,1.2,0.2,1.7,0.6
					c0.5,0.3,0.8,0.8,1.1,1.3c0.3,0.5,0.4,1.1,0.5,1.7c0.1,0.6,0.1,1.2,0.1,1.8c0,0.6-0.2,1.2-0.4,1.7c-0.2,0.6-0.5,1.1-0.8,1.6
					c-0.4,0.5-0.8,0.9-1.3,1.1C432.7,177.7,432.2,177.8,431.5,177.7z M431.7,176.8c0.3,0,0.6-0.1,0.8-0.2c0.2-0.2,0.4-0.5,0.6-0.8
					c0.1-0.3,0.3-0.8,0.3-1.2c0.1-0.5,0.1-0.9,0.2-1.5c0-0.6,0.1-1.1,0.1-1.6c0-0.5,0-1-0.1-1.4s-0.2-0.8-0.4-1
					c-0.2-0.3-0.5-0.4-0.8-0.4c-0.3,0-0.6,0.1-0.9,0.2c-0.2,0.2-0.4,0.5-0.6,0.8c-0.2,0.4-0.3,0.8-0.4,1.2s-0.2,0.9-0.2,1.5
					c0,0.4,0,0.8-0.1,1.2c0,0.4,0,0.8,0.1,1.2c0,0.4,0.1,0.7,0.2,1c0.1,0.3,0.3,0.6,0.5,0.7C431.1,176.6,431.3,176.7,431.7,176.8z"
					/>
				<path d="M437,177.9l0-0.9c0.2,0,0.4,0,0.5-0.1c0.1,0,0.3-0.1,0.3-0.3s0.1-0.4,0.2-0.8l0.3-5.6l-1.6,0.8l-0.5-0.9l3.3-2.2l0.8,0
					l-0.4,7.7c0,0.3,0,0.5,0,0.7s0,0.4-0.1,0.5c0.1,0,0.3,0,0.6,0s0.4,0,0.5,0l-0.1,1.1L437,177.9z"/>
				<path d="M445.9,178.5c-0.7,0-1.3-0.2-1.8-0.5c-0.5-0.3-0.9-0.7-1.2-1.2c-0.3-0.5-0.5-1.1-0.6-1.7c-0.1-0.6-0.2-1.2-0.2-1.8
					c0-0.6,0.1-1.2,0.3-1.8c0.2-0.6,0.4-1.1,0.8-1.6s0.8-0.9,1.2-1.2s1.1-0.4,1.7-0.4c0.7,0,1.3,0.2,1.7,0.5
					c0.5,0.3,0.8,0.7,1.1,1.2c0.3,0.5,0.5,1.1,0.6,1.7s0.2,1.2,0.2,1.8c0,0.6-0.1,1.2-0.3,1.8c-0.2,0.6-0.4,1.1-0.7,1.6
					c-0.3,0.5-0.7,0.9-1.2,1.2C447.1,178.3,446.5,178.5,445.9,178.5z M446,177.5c0.3,0,0.6-0.1,0.8-0.3c0.2-0.2,0.4-0.5,0.5-0.8
					c0.1-0.4,0.2-0.8,0.3-1.2c0.1-0.5,0.1-0.9,0.1-1.5c0-0.6,0-1.1,0-1.6c0-0.5-0.1-1-0.2-1.4c-0.1-0.4-0.3-0.7-0.5-1
					s-0.5-0.4-0.9-0.4c-0.3,0-0.6,0.1-0.8,0.3s-0.4,0.5-0.6,0.8s-0.3,0.8-0.3,1.2c-0.1,0.5-0.1,1-0.1,1.5c0,0.4,0,0.8,0,1.2
					c0,0.4,0,0.8,0.1,1.2c0.1,0.4,0.2,0.7,0.3,1s0.3,0.5,0.5,0.7C445.4,177.4,445.7,177.5,446,177.5z"/>
			</g>
		</g>
		<path class="st14" d="M32.4,59.2"/>
	</g>
	<g>
		<g>
			<g>
				<line class="st15" x1="165.2" y1="59.7" x2="165.2" y2="72.6"/>
			</g>
			<polyline class="st15" points="161.7,69.5 165.2,72.6 168.6,69.5 			"/>
			<polyline class="st15" points="161.7,62.3 165.2,59.2 168.6,62.3 			"/>
		</g>
		<g>
			<g>
				<path d="M55.7,59.9c-0.9,0-1.6-0.1-2.2-0.4c-0.6-0.3-1.1-0.7-1.5-1.2c-0.4-0.5-0.7-1-0.8-1.7s-0.3-1.2-0.3-1.8
					c0-0.6,0.1-1.2,0.3-1.8c0.2-0.6,0.5-1.1,0.9-1.7c0.4-0.5,0.9-0.9,1.5-1.2c0.6-0.3,1.3-0.5,2.2-0.5c0.8,0,1.6,0.2,2.2,0.5
					c0.6,0.3,1.1,0.7,1.5,1.2c0.4,0.5,0.7,1.1,0.9,1.7s0.3,1.2,0.3,1.8c0,0.6-0.1,1.2-0.3,1.8c-0.2,0.6-0.5,1.1-0.9,1.7
					c-0.4,0.5-0.9,0.9-1.5,1.2S56.5,59.9,55.7,59.9z M55.9,58.9c0.5,0,0.9-0.1,1.2-0.4s0.6-0.5,0.8-0.9c0.2-0.4,0.3-0.8,0.4-1.2
					c0.1-0.5,0.1-0.9,0.1-1.3c0-0.6-0.1-1.2-0.2-1.8s-0.3-1-0.5-1.4c-0.2-0.4-0.5-0.7-0.9-0.9s-0.8-0.3-1.3-0.3
					c-0.5,0-0.9,0.1-1.2,0.4c-0.3,0.2-0.6,0.6-0.8,0.9s-0.3,0.8-0.4,1.3c-0.1,0.5-0.1,0.9-0.1,1.3c0,0.4,0,0.9,0.1,1.4
					c0.1,0.5,0.3,1,0.5,1.4c0.2,0.4,0.5,0.8,0.9,1.1C54.9,58.7,55.3,58.9,55.9,58.9z"/>
				<path d="M64.2,59.7L62,54.9c-0.1-0.2-0.2-0.4-0.2-0.5s-0.1-0.2-0.1-0.3c0-0.1,0-0.2-0.1-0.3l-0.5,0v-1.1h3.3v0.9
					c-0.2,0-0.3,0.1-0.4,0.2S63.9,54,64,54.1c0,0.2,0.1,0.3,0.1,0.5l0.7,1.8c0.1,0.2,0.1,0.4,0.2,0.5s0.1,0.4,0.2,0.6h0
					c0.1-0.2,0.1-0.4,0.2-0.6c0.1-0.2,0.1-0.4,0.2-0.6l0.6-1.7c0.1-0.2,0.2-0.4,0.2-0.6c0.1-0.1,0.1-0.3,0.2-0.4l-0.9,0.1v-1.1h2.6
					v0.9c-0.2,0-0.4,0.2-0.6,0.4s-0.3,0.4-0.4,0.7c-0.1,0.2-0.2,0.5-0.3,0.6l-1.8,4.4H64.2z"/>
				<path d="M72.4,59.9c-0.7,0-1.3-0.2-1.8-0.5c-0.5-0.3-0.9-0.7-1.2-1.3c-0.3-0.6-0.4-1.2-0.4-2c0-0.6,0.1-1.3,0.4-1.8
					c0.3-0.6,0.7-1,1.2-1.4c0.5-0.3,1.1-0.5,1.8-0.5c0.4,0,0.8,0.1,1.1,0.2c0.4,0.1,0.7,0.3,1,0.6c0.3,0.3,0.5,0.6,0.7,1.1
					s0.3,1,0.3,1.7L71,56c0,0.5,0.1,1,0.2,1.4c0.1,0.4,0.3,0.7,0.6,0.9c0.3,0.2,0.7,0.3,1.2,0.3c0.2,0,0.4,0,0.6-0.1
					s0.5-0.2,0.7-0.3c0.2-0.2,0.5-0.4,0.7-0.6l0.6,0.6c-0.3,0.5-0.7,0.8-1.1,1.1c-0.4,0.2-0.8,0.4-1.1,0.5S72.8,59.9,72.4,59.9z
					 M71.1,55h2.6c0-0.4-0.1-0.7-0.2-0.9c-0.1-0.2-0.2-0.4-0.4-0.5s-0.4-0.2-0.6-0.2c-0.4,0-0.7,0.1-1,0.4
					C71.4,54.2,71.2,54.6,71.1,55z"/>
				<path d="M76.6,58.7c0.3,0,0.4-0.1,0.6-0.2c0.1-0.1,0.2-0.2,0.2-0.4c0-0.2,0-0.4,0-0.6v-2.3c0-0.2,0-0.4,0-0.6s0-0.4,0-0.6
					c-0.1,0-0.3,0-0.5,0c-0.2,0-0.4,0-0.5,0V53h0.6c0.4,0,0.7,0,1-0.1s0.5-0.2,0.6-0.3h0.7c0,0.1,0,0.3,0,0.5s0,0.5,0,0.7
					c0.3-0.3,0.5-0.6,0.7-0.7c0.2-0.2,0.4-0.3,0.7-0.4c0.2-0.1,0.4-0.1,0.7-0.1c0.3,0,0.6,0.1,0.8,0.3c0.2,0.2,0.4,0.5,0.4,0.9
					c0,0.1,0,0.3-0.1,0.4c-0.1,0.2-0.2,0.3-0.3,0.4c-0.1,0.1-0.3,0.2-0.6,0.2c-0.2,0-0.4-0.1-0.6-0.2c-0.2-0.1-0.3-0.3-0.3-0.6
					c-0.2,0-0.4,0.1-0.6,0.2c-0.2,0.2-0.4,0.3-0.5,0.5s-0.2,0.4-0.3,0.6v2.3c0,0.1,0,0.3,0,0.5s0,0.5,0,0.7c0.1,0,0.3,0,0.5,0
					c0.2,0,0.3,0,0.4,0v1.1h-3.6V58.7z"/>
				<path d="M87.2,59.7c0-0.1,0-0.2,0-0.3c0-0.1,0-0.2,0-0.3c-0.3,0.3-0.6,0.5-1,0.7c-0.4,0.1-0.7,0.2-1.1,0.2
					c-0.6,0-1.1-0.2-1.4-0.5c-0.3-0.4-0.5-0.8-0.5-1.3c0-0.4,0.1-0.8,0.3-1.1c0.2-0.3,0.5-0.6,0.9-0.8s0.8-0.4,1.3-0.5
					c0.5-0.1,0.9-0.2,1.4-0.2v-0.7c0-0.2,0-0.5-0.1-0.7c-0.1-0.2-0.2-0.3-0.3-0.5s-0.3-0.2-0.6-0.2c-0.2,0-0.3,0-0.5,0.1
					c-0.2,0.1-0.3,0.2-0.4,0.3c0.1,0.1,0.1,0.2,0.1,0.3s0,0.2,0,0.3c0,0.2-0.1,0.4-0.2,0.6c-0.1,0.2-0.4,0.3-0.7,0.3
					c-0.3,0-0.5-0.1-0.6-0.3c-0.1-0.2-0.2-0.4-0.2-0.7c0-0.4,0.1-0.7,0.4-1s0.6-0.5,1.1-0.6c0.4-0.2,0.9-0.2,1.5-0.2
					c0.8,0,1.5,0.2,1.9,0.6c0.5,0.4,0.7,1.1,0.7,2c0,0.3,0,0.6,0,0.8s0,0.4,0,0.7c0,0.2,0,0.5,0,0.8c0,0.1,0,0.3,0,0.5s0,0.5,0,0.7
					c0.2,0,0.3,0,0.5,0c0.2,0,0.3,0,0.4,0v1.1H87.2z M87,56.4c-0.3,0-0.5,0.1-0.7,0.1c-0.2,0.1-0.4,0.2-0.6,0.3
					c-0.2,0.1-0.3,0.2-0.4,0.4c-0.1,0.2-0.1,0.3-0.1,0.5c0,0.3,0.1,0.4,0.3,0.6c0.2,0.1,0.3,0.2,0.5,0.2c0.2,0,0.4,0,0.6-0.1
					c0.2-0.1,0.4-0.2,0.5-0.4c0-0.1,0-0.2,0-0.3s0-0.2,0-0.3c0-0.2,0-0.3,0-0.5S87,56.6,87,56.4z"/>
				<path d="M90.4,58.7c0.3,0,0.4-0.1,0.6-0.2c0.1-0.1,0.2-0.2,0.2-0.4c0-0.2,0-0.4,0-0.6v-5.7c0-0.2,0-0.4,0-0.6c0-0.2,0-0.4,0-0.6
					c-0.1,0-0.3,0-0.5,0s-0.4,0-0.5,0v-1.1c0.4,0,0.8,0,1.1-0.1c0.3,0,0.5-0.1,0.7-0.2c0.2-0.1,0.3-0.1,0.4-0.2h0.8v8.3
					c0,0.1,0,0.3,0,0.5s0,0.5,0,0.7c0.2,0,0.3,0,0.5,0c0.2,0,0.3,0,0.4,0v1.1h-3.6V58.7z"/>
				<path d="M94.7,58.7c0.3,0,0.4-0.1,0.6-0.2c0.1-0.1,0.2-0.2,0.2-0.4c0-0.2,0-0.4,0-0.6v-5.7c0-0.2,0-0.4,0-0.6c0-0.2,0-0.4,0-0.6
					c-0.1,0-0.3,0-0.5,0s-0.4,0-0.5,0v-1.1c0.4,0,0.8,0,1.1-0.1c0.3,0,0.5-0.1,0.7-0.2c0.2-0.1,0.3-0.1,0.4-0.2h0.8v8.3
					c0,0.1,0,0.3,0,0.5s0,0.5,0,0.7c0.2,0,0.3,0,0.5,0c0.2,0,0.3,0,0.4,0v1.1h-3.6V58.7z"/>
				<path d="M107.6,59.9c-1,0-1.9-0.2-2.6-0.7c-0.7-0.4-1.2-1-1.6-1.8c-0.4-0.8-0.6-1.6-0.6-2.5c0-0.6,0.1-1.3,0.3-1.9
					s0.5-1.2,0.9-1.7c0.4-0.5,0.9-0.9,1.5-1.2c0.6-0.3,1.3-0.5,2.1-0.5c0.3,0,0.5,0,0.8,0.1c0.3,0.1,0.6,0.1,1,0.2s0.6,0.2,0.9,0.4
					l-0.1-0.6h1.1V53h-0.9c-0.1-0.5-0.2-1-0.5-1.3c-0.2-0.3-0.5-0.6-0.9-0.8c-0.4-0.2-0.8-0.3-1.2-0.3c-0.5,0-0.9,0.1-1.3,0.3
					c-0.4,0.2-0.7,0.5-0.9,0.9c-0.2,0.4-0.4,0.8-0.5,1.3s-0.2,1-0.2,1.5c0,0.8,0.1,1.5,0.3,2.1c0.2,0.6,0.6,1.1,1,1.5
					c0.4,0.4,1,0.5,1.6,0.5c0.2,0,0.4,0,0.6,0c0.2,0,0.5-0.1,0.7-0.1c0.2-0.1,0.4-0.1,0.6-0.2v-1.3c0-0.3,0-0.5,0-0.7
					c0-0.2,0-0.4,0-0.5c-0.1,0-0.3,0-0.6,0c-0.2,0-0.4,0-0.5,0v-1.1h3.7v0.9c-0.2,0-0.3,0-0.4,0.1S112,55.9,112,56
					c-0.1,0.1-0.1,0.2-0.2,0.4c0,0.2-0.1,0.4-0.1,0.6v2.2h-0.3c-0.3,0-0.5,0-0.8,0.1c-0.3,0.1-0.6,0.2-0.9,0.3
					c-0.3,0.1-0.6,0.2-0.9,0.2C108.4,59.8,108.1,59.9,107.6,59.9z"/>
				<path d="M113.5,58.7c0.3,0,0.4-0.1,0.6-0.2c0.1-0.1,0.2-0.2,0.2-0.4c0-0.2,0-0.4,0-0.6v-2.3c0-0.2,0-0.4,0-0.6s0-0.4,0-0.6
					c-0.1,0-0.3,0-0.5,0c-0.2,0-0.4,0-0.5,0V53h0.6c0.4,0,0.7,0,1-0.1s0.5-0.2,0.6-0.3h0.7c0,0.1,0,0.3,0,0.5s0,0.5,0,0.7
					c0.3-0.3,0.5-0.6,0.7-0.7c0.2-0.2,0.4-0.3,0.7-0.4c0.2-0.1,0.4-0.1,0.7-0.1c0.3,0,0.6,0.1,0.8,0.3c0.2,0.2,0.4,0.5,0.4,0.9
					c0,0.1,0,0.3-0.1,0.4c-0.1,0.2-0.2,0.3-0.3,0.4c-0.1,0.1-0.3,0.2-0.6,0.2c-0.2,0-0.4-0.1-0.6-0.2c-0.2-0.1-0.3-0.3-0.3-0.6
					c-0.2,0-0.4,0.1-0.6,0.2c-0.2,0.2-0.4,0.3-0.5,0.5s-0.2,0.4-0.3,0.6v2.3c0,0.1,0,0.3,0,0.5s0,0.5,0,0.7c0.1,0,0.3,0,0.5,0
					c0.2,0,0.3,0,0.4,0v1.1h-3.6V58.7z"/>
				<path d="M123.6,59.9c-0.7,0-1.3-0.1-1.8-0.4c-0.5-0.3-1-0.7-1.3-1.2c-0.3-0.5-0.5-1.2-0.5-1.9c0-0.8,0.2-1.4,0.5-2
					c0.3-0.6,0.7-1,1.3-1.4c0.5-0.3,1.1-0.5,1.7-0.5c0.7,0,1.3,0.1,1.8,0.4c0.5,0.3,0.9,0.7,1.3,1.2c0.3,0.5,0.5,1.2,0.5,1.9
					c0,0.8-0.1,1.5-0.4,2c-0.3,0.6-0.7,1-1.2,1.3C124.8,59.7,124.2,59.9,123.6,59.9z M123.6,58.9c0.4,0,0.7-0.1,0.8-0.4
					c0.2-0.3,0.3-0.6,0.4-0.9c0.1-0.4,0.1-0.8,0.1-1.2c0-0.3,0-0.7-0.1-1c-0.1-0.4-0.1-0.7-0.2-1s-0.3-0.5-0.5-0.7
					c-0.2-0.2-0.4-0.3-0.7-0.3c-0.4,0-0.6,0.1-0.9,0.4c-0.2,0.3-0.4,0.6-0.4,0.9s-0.1,0.8-0.1,1.2c0,0.5,0.1,0.9,0.2,1.4
					s0.3,0.8,0.5,1.1C122.9,58.8,123.2,58.9,123.6,58.9z"/>
				<path d="M130.2,59.7l-1.7-4.8c-0.1-0.2-0.1-0.4-0.2-0.5c0-0.1-0.1-0.2-0.1-0.3c0-0.1,0-0.2-0.1-0.3l-0.5,0v-1.1h3.3v0.9
					c-0.3,0-0.5,0.1-0.5,0.3c0,0.2,0,0.5,0,0.8l0.5,1.7c0.1,0.2,0.1,0.4,0.2,0.6c0.1,0.2,0.1,0.5,0.1,0.7c0-0.2,0.1-0.4,0.1-0.6
					c0.1-0.2,0.1-0.5,0.2-0.9l1-3.5h1.5l1.1,3.8c0.1,0.2,0.1,0.4,0.2,0.6c0.1,0.2,0.1,0.4,0.2,0.6c0-0.2,0.1-0.4,0.2-0.6
					c0.1-0.2,0.1-0.4,0.2-0.6l0.5-1.8c0.1-0.3,0.1-0.5,0.2-0.6c0.1-0.2,0.1-0.3,0.2-0.5l-0.8,0.1v-1.1h2.6v0.9
					c-0.2,0-0.3,0.1-0.5,0.2c-0.1,0.1-0.3,0.3-0.4,0.4c-0.1,0.2-0.2,0.3-0.3,0.5c-0.1,0.2-0.1,0.3-0.1,0.4l-1.6,4.6h-1.5l-1-3
					c0-0.1-0.1-0.3-0.1-0.4c-0.1-0.2-0.1-0.4-0.2-0.6S133,55.2,133,55c0,0.3-0.1,0.6-0.2,0.9c-0.1,0.3-0.2,0.6-0.3,0.9
					c-0.1,0.3-0.1,0.5-0.2,0.6l-0.8,2.3H130.2z"/>
				<path d="M142.1,59.9c-0.3,0-0.5,0-0.8-0.1c-0.3-0.1-0.5-0.2-0.7-0.4c-0.2-0.2-0.4-0.4-0.5-0.8s-0.2-0.8-0.2-1.4l0-3.4H139v-1.2
					c0.3,0,0.6-0.1,0.8-0.3c0.3-0.2,0.5-0.4,0.7-0.7c0.2-0.3,0.3-0.6,0.4-0.9h1l0,2h1.8v1.1l-1.8,0l0,3.4c0,0.2,0,0.4,0.1,0.6
					c0,0.2,0.1,0.4,0.2,0.5c0.1,0.1,0.3,0.2,0.5,0.2c0.1,0,0.3,0,0.5-0.1c0.2-0.1,0.5-0.3,0.7-0.7l0.7,0.6c-0.3,0.4-0.5,0.7-0.8,0.9
					c-0.3,0.2-0.5,0.4-0.8,0.4s-0.5,0.1-0.6,0.2C142.3,59.9,142.2,59.9,142.1,59.9z"/>
				<path d="M149.2,58.7c0.3,0,0.4-0.1,0.6-0.2c0.1-0.1,0.2-0.2,0.2-0.4c0-0.2,0-0.4,0-0.6l0-2c0-0.6-0.1-1.1-0.3-1.3
					s-0.5-0.4-0.8-0.4c-0.2,0-0.5,0.1-0.7,0.2c-0.2,0.1-0.4,0.2-0.6,0.4v3.1c0,0.1,0,0.3,0,0.5s0,0.5,0,0.7c0.2,0,0.3,0,0.5,0
					c0.2,0,0.3,0,0.4,0v1.1h-3.6v-0.9c0.3,0,0.4-0.1,0.6-0.2c0.1-0.1,0.2-0.2,0.2-0.4c0-0.2,0-0.4,0-0.6v-5.7c0-0.2,0-0.4,0-0.6
					c0-0.2,0-0.4,0-0.6c-0.1,0-0.3,0-0.5,0s-0.4,0-0.5,0v-1.1c0.4,0,0.8,0,1.1-0.1c0.3,0,0.5-0.1,0.7-0.2c0.2-0.1,0.3-0.1,0.4-0.2
					h0.8v4.1c0.2-0.1,0.4-0.3,0.6-0.4c0.2-0.1,0.5-0.2,0.7-0.3c0.3-0.1,0.5-0.1,0.7-0.1c0.9,0,1.5,0.2,1.8,0.7
					c0.4,0.5,0.5,1.3,0.5,2.3v1.9c0,0.1,0,0.3,0,0.5s0,0.5,0,0.7c0.1,0,0.3,0,0.5,0c0.2,0,0.3,0,0.4,0v1.1h-3.7V58.7z"/>
				<path d="M37.8,69c0-1.1,0.2-1.9,0.7-2.4c0.5-0.5,1.2-0.7,2-0.7c0.4,0,0.8,0.1,1,0.2s0.4,0.3,0.6,0.5c0.1,0.2,0.2,0.4,0.2,0.6
					c0,0.2-0.1,0.5-0.2,0.6c-0.1,0.2-0.4,0.3-0.6,0.3c-0.3,0-0.5-0.1-0.6-0.2s-0.2-0.3-0.2-0.6c0,0,0-0.1,0-0.1c0,0,0-0.1,0-0.1
					c0,0-0.1-0.1-0.2-0.1c-0.1,0-0.1,0-0.2,0c-0.1,0-0.3,0-0.3,0.1s-0.1,0.2-0.2,0.3c0,0.1,0,0.3,0,0.4v1.7h1.6v1.1l-1.5,0l0,3.6
					c0,0.1,0,0.3,0,0.6s0,0.5,0,0.7c0.2,0,0.3,0,0.5,0c0.2,0,0.3,0,0.4,0v1.1h-3.7v-0.9c0.3,0,0.4-0.1,0.6-0.2
					c0.1-0.1,0.2-0.2,0.2-0.4s0-0.4,0-0.6v-3.7l-1,0v-1.2h1V69z"/>
				<path d="M42,75.5c0.3,0,0.4-0.1,0.6-0.2c0.1-0.1,0.2-0.2,0.2-0.4c0-0.2,0-0.4,0-0.6v-2.3c0-0.2,0-0.4,0-0.6s0-0.4,0-0.6
					c-0.1,0-0.3,0-0.5,0c-0.2,0-0.4,0-0.5,0v-1.1h0.6c0.4,0,0.7,0,1-0.1s0.5-0.2,0.6-0.3h0.7c0,0.1,0,0.3,0,0.5s0,0.5,0,0.7
					c0.3-0.3,0.5-0.6,0.7-0.7c0.2-0.2,0.4-0.3,0.7-0.4c0.2-0.1,0.4-0.1,0.7-0.1c0.3,0,0.6,0.1,0.8,0.3c0.2,0.2,0.4,0.5,0.4,0.9
					c0,0.1,0,0.3-0.1,0.4c-0.1,0.2-0.2,0.3-0.3,0.4c-0.1,0.1-0.3,0.2-0.6,0.2c-0.2,0-0.4-0.1-0.6-0.2c-0.2-0.1-0.3-0.3-0.3-0.6
					c-0.2,0-0.4,0.1-0.6,0.2c-0.2,0.2-0.4,0.3-0.5,0.5s-0.2,0.4-0.3,0.6v2.3c0,0.1,0,0.3,0,0.5s0,0.5,0,0.7c0.1,0,0.3,0,0.5,0
					c0.2,0,0.3,0,0.4,0v1.1H42V75.5z"/>
				<path d="M52.1,76.6c-0.7,0-1.3-0.1-1.8-0.4c-0.5-0.3-1-0.7-1.3-1.2c-0.3-0.5-0.5-1.2-0.5-1.9c0-0.8,0.2-1.4,0.5-2
					c0.3-0.6,0.7-1,1.3-1.4c0.5-0.3,1.1-0.5,1.7-0.5c0.7,0,1.3,0.1,1.8,0.4c0.5,0.3,0.9,0.7,1.3,1.2c0.3,0.5,0.5,1.2,0.5,1.9
					c0,0.8-0.1,1.5-0.4,2c-0.3,0.6-0.7,1-1.2,1.3C53.4,76.4,52.8,76.6,52.1,76.6z M52.2,75.6c0.4,0,0.7-0.1,0.8-0.4
					c0.2-0.3,0.3-0.6,0.4-0.9c0.1-0.4,0.1-0.8,0.1-1.2c0-0.3,0-0.7-0.1-1c-0.1-0.4-0.1-0.7-0.2-1s-0.3-0.5-0.5-0.7
					c-0.2-0.2-0.4-0.3-0.7-0.3c-0.4,0-0.6,0.1-0.9,0.4c-0.2,0.3-0.4,0.6-0.4,0.9s-0.1,0.8-0.1,1.2c0,0.5,0.1,0.9,0.2,1.4
					s0.3,0.8,0.5,1.1C51.5,75.5,51.8,75.6,52.2,75.6z"/>
				<path d="M56.6,76.4v-0.9c0.3,0,0.4-0.1,0.6-0.2c0.1-0.1,0.2-0.2,0.2-0.4c0-0.2,0-0.4,0-0.6v-2.3c0-0.2,0-0.4,0-0.6s0-0.4,0-0.6
					c-0.1,0-0.3,0-0.5,0c-0.2,0-0.4,0-0.5,0v-1.1c0.4,0,0.8,0,1.1-0.1c0.3,0,0.5-0.1,0.7-0.2c0.2-0.1,0.3-0.1,0.4-0.2h0.7
					c0,0.1,0,0.2,0,0.3c0,0.1,0,0.3,0,0.3c0.3-0.2,0.7-0.4,1-0.6s0.7-0.2,1-0.2c0.4,0,0.8,0.1,1.1,0.2c0.3,0.2,0.5,0.4,0.7,0.7
					c0.3-0.3,0.7-0.5,1.1-0.7s0.8-0.3,1.2-0.3c0.8,0,1.3,0.2,1.7,0.6c0.4,0.4,0.6,1.2,0.6,2.2v2c0,0.1,0,0.3,0,0.5s0,0.5,0,0.7
					c0.1,0,0.3,0,0.5,0c0.2,0,0.3,0,0.4,0v1.1h-3.5v-0.9c0.2,0,0.4-0.1,0.5-0.2c0.1-0.1,0.2-0.2,0.2-0.4c0-0.2,0-0.4,0-0.6v-2.1
					c0-0.6-0.1-1-0.3-1.3c-0.2-0.2-0.4-0.4-0.8-0.4c-0.2,0-0.5,0-0.7,0.1s-0.4,0.2-0.6,0.3c0,0.2,0.1,0.4,0.1,0.6c0,0.2,0,0.5,0,0.7
					c0,0.3,0,0.6,0,0.9c0,0.3,0,0.6,0,0.9c0,0.1,0,0.3,0,0.5c0,0.2,0,0.5,0,0.7c0.1,0,0.3,0,0.5,0c0.2,0,0.3,0,0.4,0v1.1h-3.6v-0.9
					c0.2,0,0.4-0.1,0.5-0.2c0.1-0.1,0.2-0.2,0.2-0.4s0-0.4,0-0.6l0-2.2c0-0.6-0.1-1-0.3-1.2c-0.2-0.2-0.4-0.3-0.7-0.3
					c-0.2,0-0.4,0.1-0.6,0.2c-0.2,0.1-0.4,0.2-0.5,0.4c0,0.1,0,0.2,0,0.3s0,0.2,0,0.3v2.5c0,0.1,0,0.3,0,0.5s0,0.5,0,0.7
					c0.1,0,0.3,0,0.5,0c0.2,0,0.3,0,0.4,0v1.1H56.6z"/>
				<path d="M73.1,76.4c0-0.5,0.1-0.9,0.2-1.3c0.1-0.4,0.3-0.7,0.5-1c0.2-0.3,0.4-0.6,0.7-0.8c0.3-0.3,0.5-0.5,0.8-0.8
					c0.7-0.6,1.2-1.2,1.4-1.7c0.3-0.5,0.4-1,0.4-1.5c0-0.3,0-0.6-0.1-0.9c-0.1-0.3-0.2-0.5-0.4-0.7c-0.2-0.2-0.5-0.3-0.8-0.3
					c-0.3,0-0.5,0.1-0.7,0.2c-0.2,0.1-0.4,0.3-0.5,0.4c0.1,0.1,0.2,0.2,0.2,0.4c0,0.1,0.1,0.3,0.1,0.4s0,0.2-0.1,0.4
					c-0.1,0.1-0.2,0.3-0.3,0.4s-0.3,0.2-0.5,0.2c-0.3,0-0.5-0.1-0.7-0.3c-0.2-0.2-0.2-0.4-0.2-0.7c0-0.2,0.1-0.4,0.2-0.7
					c0.1-0.2,0.3-0.5,0.6-0.7c0.3-0.2,0.6-0.4,1-0.6s0.8-0.2,1.3-0.2c0.4,0,0.7,0,1.1,0.1s0.7,0.2,1,0.4c0.3,0.2,0.6,0.5,0.7,0.8
					c0.2,0.3,0.3,0.7,0.3,1.2c0,0.2,0,0.5-0.1,0.7s-0.2,0.5-0.5,0.8c-0.2,0.3-0.5,0.6-0.9,1c-0.4,0.4-0.9,0.8-1.5,1.4
					c-0.5,0.4-0.9,0.8-1.1,1.1c-0.2,0.3-0.4,0.6-0.4,0.8l2.7,0.1c0.2,0,0.4,0,0.6,0c0.2,0,0.3-0.1,0.4-0.3c0.1-0.1,0.1-0.3,0.1-0.6
					h0.9l-0.1,2.3H73.1z"/>
				<path d="M84.4,76.6c-0.7,0-1.3-0.2-1.8-0.5c-0.5-0.3-0.9-0.7-1.2-1.2c-0.3-0.5-0.5-1-0.6-1.6s-0.2-1.2-0.2-1.8s0.1-1.2,0.2-1.8
					c0.2-0.6,0.4-1.2,0.7-1.7c0.3-0.5,0.7-0.9,1.2-1.2c0.5-0.3,1-0.5,1.7-0.5c0.7,0,1.3,0.2,1.7,0.5c0.5,0.3,0.9,0.7,1.2,1.2
					c0.3,0.5,0.5,1,0.7,1.6c0.1,0.6,0.2,1.2,0.2,1.8c0,0.6-0.1,1.2-0.2,1.8s-0.4,1.2-0.7,1.7c-0.3,0.5-0.7,0.9-1.2,1.2
					C85.6,76.4,85,76.6,84.4,76.6z M84.4,75.6c0.3,0,0.6-0.1,0.8-0.3c0.2-0.2,0.4-0.5,0.5-0.8s0.2-0.8,0.2-1.2c0-0.5,0.1-1,0.1-1.5
					c0-0.6,0-1.1-0.1-1.6c0-0.5-0.1-1-0.2-1.4s-0.3-0.7-0.5-1c-0.2-0.2-0.5-0.4-0.9-0.4c-0.3,0-0.6,0.1-0.8,0.3
					c-0.2,0.2-0.4,0.5-0.5,0.8c-0.1,0.4-0.2,0.8-0.3,1.2c-0.1,0.5-0.1,1-0.1,1.5c0,0.4,0,0.8,0,1.2c0,0.4,0.1,0.8,0.1,1.2
					c0.1,0.4,0.2,0.7,0.3,1c0.1,0.3,0.3,0.5,0.5,0.7C83.9,75.5,84.1,75.6,84.4,75.6z"/>
				<path d="M89.9,76.4v-0.9c0.2,0,0.4,0,0.5-0.1c0.1,0,0.3-0.2,0.3-0.3c0.1-0.2,0.1-0.4,0.1-0.8v-5.6l-1.5,0.9l-0.5-0.8l3.2-2.3
					h0.8v7.7c0,0.3,0,0.5,0,0.7c0,0.2,0,0.4,0,0.5c0.1,0,0.3,0,0.6,0c0.2,0,0.4,0,0.5,0v1.1H89.9z"/>
				<path d="M98.9,76.6c-0.7,0-1.3-0.2-1.8-0.5c-0.5-0.3-0.9-0.7-1.2-1.2c-0.3-0.5-0.5-1-0.6-1.6S95,72.1,95,71.5s0.1-1.2,0.2-1.8
					c0.2-0.6,0.4-1.2,0.7-1.7c0.3-0.5,0.7-0.9,1.2-1.2c0.5-0.3,1-0.5,1.7-0.5c0.7,0,1.3,0.2,1.7,0.5c0.5,0.3,0.9,0.7,1.2,1.2
					c0.3,0.5,0.5,1,0.7,1.6c0.1,0.6,0.2,1.2,0.2,1.8c0,0.6-0.1,1.2-0.2,1.8s-0.4,1.2-0.7,1.7c-0.3,0.5-0.7,0.9-1.2,1.2
					C100.1,76.4,99.5,76.6,98.9,76.6z M99,75.6c0.3,0,0.6-0.1,0.8-0.3c0.2-0.2,0.4-0.5,0.5-0.8s0.2-0.8,0.2-1.2c0-0.5,0.1-1,0.1-1.5
					c0-0.6,0-1.1-0.1-1.6c0-0.5-0.1-1-0.2-1.4s-0.3-0.7-0.5-1c-0.2-0.2-0.5-0.4-0.9-0.4c-0.3,0-0.6,0.1-0.8,0.3
					c-0.2,0.2-0.4,0.5-0.5,0.8c-0.1,0.4-0.2,0.8-0.3,1.2c-0.1,0.5-0.1,1-0.1,1.5c0,0.4,0,0.8,0,1.2c0,0.4,0.1,0.8,0.1,1.2
					c0.1,0.4,0.2,0.7,0.3,1c0.1,0.3,0.3,0.5,0.5,0.7C98.4,75.5,98.6,75.6,99,75.6z"/>
				<path d="M110.3,76.6c-0.3,0-0.5,0-0.8-0.1c-0.3-0.1-0.5-0.2-0.7-0.4c-0.2-0.2-0.4-0.4-0.5-0.8s-0.2-0.8-0.2-1.4l0-3.4h-0.9v-1.2
					c0.3,0,0.6-0.1,0.8-0.3c0.3-0.2,0.5-0.4,0.7-0.7c0.2-0.3,0.3-0.6,0.4-0.9h1l0,2h1.8v1.1l-1.8,0l0,3.4c0,0.2,0,0.4,0.1,0.6
					c0,0.2,0.1,0.4,0.2,0.5c0.1,0.1,0.3,0.2,0.5,0.2c0.1,0,0.3,0,0.5-0.1c0.2-0.1,0.5-0.3,0.7-0.7l0.7,0.6c-0.3,0.4-0.5,0.7-0.8,0.9
					c-0.3,0.2-0.5,0.4-0.8,0.4s-0.5,0.1-0.6,0.2C110.5,76.6,110.4,76.6,110.3,76.6z"/>
				<path d="M116.7,76.6c-0.7,0-1.3-0.1-1.8-0.4c-0.5-0.3-1-0.7-1.3-1.2c-0.3-0.5-0.5-1.2-0.5-1.9c0-0.8,0.2-1.4,0.5-2
					c0.3-0.6,0.7-1,1.3-1.4c0.5-0.3,1.1-0.5,1.7-0.5c0.7,0,1.3,0.1,1.8,0.4c0.5,0.3,0.9,0.7,1.3,1.2c0.3,0.5,0.5,1.2,0.5,1.9
					c0,0.8-0.1,1.5-0.4,2c-0.3,0.6-0.7,1-1.2,1.3C118,76.4,117.4,76.6,116.7,76.6z M116.8,75.6c0.4,0,0.7-0.1,0.8-0.4
					c0.2-0.3,0.3-0.6,0.4-0.9c0.1-0.4,0.1-0.8,0.1-1.2c0-0.3,0-0.7-0.1-1c-0.1-0.4-0.1-0.7-0.2-1s-0.3-0.5-0.5-0.7
					c-0.2-0.2-0.4-0.3-0.7-0.3c-0.4,0-0.6,0.1-0.9,0.4c-0.2,0.3-0.4,0.6-0.4,0.9s-0.1,0.8-0.1,1.2c0,0.5,0.1,0.9,0.2,1.4
					s0.3,0.8,0.5,1.1C116.1,75.5,116.4,75.6,116.8,75.6z"/>
				<path d="M124.8,76.4c0-0.5,0.1-0.9,0.2-1.3c0.1-0.4,0.3-0.7,0.5-1c0.2-0.3,0.4-0.6,0.7-0.8c0.3-0.3,0.5-0.5,0.8-0.8
					c0.7-0.6,1.2-1.2,1.4-1.7c0.3-0.5,0.4-1,0.4-1.5c0-0.3,0-0.6-0.1-0.9c-0.1-0.3-0.2-0.5-0.4-0.7c-0.2-0.2-0.5-0.3-0.8-0.3
					c-0.3,0-0.5,0.1-0.7,0.2c-0.2,0.1-0.4,0.3-0.5,0.4c0.1,0.1,0.2,0.2,0.2,0.4c0,0.1,0.1,0.3,0.1,0.4s0,0.2-0.1,0.4
					c-0.1,0.1-0.2,0.3-0.3,0.4s-0.3,0.2-0.5,0.2c-0.3,0-0.5-0.1-0.7-0.3c-0.2-0.2-0.2-0.4-0.2-0.7c0-0.2,0.1-0.4,0.2-0.7
					c0.1-0.2,0.3-0.5,0.6-0.7c0.3-0.2,0.6-0.4,1-0.6s0.8-0.2,1.3-0.2c0.4,0,0.7,0,1.1,0.1s0.7,0.2,1,0.4c0.3,0.2,0.6,0.5,0.7,0.8
					c0.2,0.3,0.3,0.7,0.3,1.2c0,0.2,0,0.5-0.1,0.7s-0.2,0.5-0.5,0.8c-0.2,0.3-0.5,0.6-0.9,1c-0.4,0.4-0.9,0.8-1.5,1.4
					c-0.5,0.4-0.9,0.8-1.1,1.1c-0.2,0.3-0.4,0.6-0.4,0.8l2.7,0.1c0.2,0,0.4,0,0.6,0c0.2,0,0.3-0.1,0.4-0.3c0.1-0.1,0.1-0.3,0.1-0.6
					h0.9l-0.1,2.3H124.8z"/>
				<path d="M136.1,76.6c-0.7,0-1.3-0.2-1.8-0.5c-0.5-0.3-0.9-0.7-1.2-1.2c-0.3-0.5-0.5-1-0.6-1.6s-0.2-1.2-0.2-1.8s0.1-1.2,0.2-1.8
					c0.2-0.6,0.4-1.2,0.7-1.7c0.3-0.5,0.7-0.9,1.2-1.2c0.5-0.3,1-0.5,1.7-0.5c0.7,0,1.3,0.2,1.7,0.5c0.5,0.3,0.9,0.7,1.2,1.2
					c0.3,0.5,0.5,1,0.7,1.6c0.1,0.6,0.2,1.2,0.2,1.8c0,0.6-0.1,1.2-0.2,1.8s-0.4,1.2-0.7,1.7c-0.3,0.5-0.7,0.9-1.2,1.2
					C137.3,76.4,136.8,76.6,136.1,76.6z M136.2,75.6c0.3,0,0.6-0.1,0.8-0.3c0.2-0.2,0.4-0.5,0.5-0.8s0.2-0.8,0.2-1.2
					c0-0.5,0.1-1,0.1-1.5c0-0.6,0-1.1-0.1-1.6c0-0.5-0.1-1-0.2-1.4s-0.3-0.7-0.5-1c-0.2-0.2-0.5-0.4-0.9-0.4c-0.3,0-0.6,0.1-0.8,0.3
					c-0.2,0.2-0.4,0.5-0.5,0.8c-0.1,0.4-0.2,0.8-0.3,1.2c-0.1,0.5-0.1,1-0.1,1.5c0,0.4,0,0.8,0,1.2c0,0.4,0.1,0.8,0.1,1.2
					c0.1,0.4,0.2,0.7,0.3,1c0.1,0.3,0.3,0.5,0.5,0.7C135.6,75.5,135.9,75.6,136.2,75.6z"/>
				<path d="M141.1,76.4c0-0.5,0.1-0.9,0.2-1.3c0.1-0.4,0.3-0.7,0.5-1c0.2-0.3,0.4-0.6,0.7-0.8c0.3-0.3,0.5-0.5,0.8-0.8
					c0.7-0.6,1.2-1.2,1.4-1.7c0.3-0.5,0.4-1,0.4-1.5c0-0.3,0-0.6-0.1-0.9c-0.1-0.3-0.2-0.5-0.4-0.7c-0.2-0.2-0.5-0.3-0.8-0.3
					c-0.3,0-0.5,0.1-0.7,0.2c-0.2,0.1-0.4,0.3-0.5,0.4c0.1,0.1,0.2,0.2,0.2,0.4c0,0.1,0.1,0.3,0.1,0.4s0,0.2-0.1,0.4
					c-0.1,0.1-0.2,0.3-0.3,0.4s-0.3,0.2-0.5,0.2c-0.3,0-0.5-0.1-0.7-0.3c-0.2-0.2-0.2-0.4-0.2-0.7c0-0.2,0.1-0.4,0.2-0.7
					c0.1-0.2,0.3-0.5,0.6-0.7c0.3-0.2,0.6-0.4,1-0.6s0.8-0.2,1.3-0.2c0.4,0,0.7,0,1.1,0.1s0.7,0.2,1,0.4c0.3,0.2,0.6,0.5,0.7,0.8
					c0.2,0.3,0.3,0.7,0.3,1.2c0,0.2,0,0.5-0.1,0.7s-0.2,0.5-0.5,0.8c-0.2,0.3-0.5,0.6-0.9,1c-0.4,0.4-0.9,0.8-1.5,1.4
					c-0.5,0.4-0.9,0.8-1.1,1.1c-0.2,0.3-0.4,0.6-0.4,0.8l2.7,0.1c0.2,0,0.4,0,0.6,0c0.2,0,0.3-0.1,0.4-0.3c0.1-0.1,0.1-0.3,0.1-0.6
					h0.9l-0.1,2.3H141.1z"/>
				<path d="M152.4,76.6c-0.7,0-1.3-0.2-1.8-0.5c-0.5-0.3-0.9-0.7-1.2-1.2c-0.3-0.5-0.5-1-0.6-1.6s-0.2-1.2-0.2-1.8s0.1-1.2,0.2-1.8
					c0.2-0.6,0.4-1.2,0.7-1.7c0.3-0.5,0.7-0.9,1.2-1.2c0.5-0.3,1-0.5,1.7-0.5c0.7,0,1.3,0.2,1.7,0.5c0.5,0.3,0.9,0.7,1.2,1.2
					c0.3,0.5,0.5,1,0.7,1.6c0.1,0.6,0.2,1.2,0.2,1.8c0,0.6-0.1,1.2-0.2,1.8s-0.4,1.2-0.7,1.7c-0.3,0.5-0.7,0.9-1.2,1.2
					C153.6,76.4,153.1,76.6,152.4,76.6z M152.5,75.6c0.3,0,0.6-0.1,0.8-0.3c0.2-0.2,0.4-0.5,0.5-0.8s0.2-0.8,0.2-1.2
					c0-0.5,0.1-1,0.1-1.5c0-0.6,0-1.1-0.1-1.6c0-0.5-0.1-1-0.2-1.4s-0.3-0.7-0.5-1c-0.2-0.2-0.5-0.4-0.9-0.4c-0.3,0-0.6,0.1-0.8,0.3
					c-0.2,0.2-0.4,0.5-0.5,0.8c-0.1,0.4-0.2,0.8-0.3,1.2c-0.1,0.5-0.1,1-0.1,1.5c0,0.4,0,0.8,0,1.2c0,0.4,0.1,0.8,0.1,1.2
					c0.1,0.4,0.2,0.7,0.3,1c0.1,0.3,0.3,0.5,0.5,0.7C151.9,75.5,152.2,75.6,152.5,75.6z"/>
			</g>
		</g>
	</g>
	<g>
		<g>
			<g>
				<path d="M181.3,34.8v-1.5c0.3,0,0.6-0.1,0.9-0.1c0.2-0.1,0.4-0.2,0.5-0.5s0.2-0.7,0.2-1.3v-8.5c0-0.4,0-0.8,0-1.2
					c0-0.4,0-0.7,0.1-0.8c-0.2,0-0.5,0-0.9,0c-0.4,0-0.6,0-0.8,0v-1.7h6.4v1.5c-0.3,0-0.6,0.1-0.8,0.1c-0.2,0.1-0.4,0.2-0.5,0.5
					s-0.2,0.7-0.2,1.3v3.5h6.1v-3.2c0-0.4,0-0.8,0-1.2c0-0.4,0-0.7,0.1-0.8c-0.2,0-0.5,0-0.9,0c-0.4,0-0.6,0-0.8,0v-1.7h6.4v1.5
					c-0.3,0-0.6,0.1-0.8,0.1c-0.2,0.1-0.4,0.2-0.5,0.5s-0.2,0.7-0.2,1.3v8.5c0,0.4,0,0.8,0,1.2c0,0.4,0,0.7-0.1,0.8
					c0.2,0,0.5,0,0.9-0.1c0.4,0,0.6,0,0.8,0v1.7h-6.4v-1.5c0.3,0,0.6-0.1,0.9-0.1c0.2-0.1,0.4-0.2,0.5-0.5c0.1-0.3,0.2-0.7,0.2-1.3
					v-3.6l-6.1,0.1v3.3c0,0.4,0,0.8,0,1.2c0,0.4,0,0.7-0.1,0.8c0.2,0,0.5,0,0.9-0.1s0.6,0,0.8,0v1.7H181.3z"/>
				<path d="M204.5,35.2c-1.1,0-2-0.2-2.9-0.7c-0.9-0.5-1.5-1.1-2-2c-0.5-0.9-0.7-1.9-0.7-3c0-1.2,0.3-2.3,0.8-3.2
					c0.5-0.9,1.2-1.6,2-2.2c0.9-0.5,1.8-0.8,2.8-0.8c1.1,0,2,0.2,2.9,0.7c0.8,0.5,1.5,1.1,2,2s0.7,1.9,0.7,3.1
					c0,1.2-0.2,2.3-0.7,3.2c-0.5,0.9-1.1,1.6-2,2.1C206.5,34.9,205.5,35.2,204.5,35.2z M204.5,33.6c0.6,0,1-0.2,1.3-0.6
					c0.3-0.4,0.5-0.9,0.6-1.5c0.1-0.6,0.2-1.2,0.2-1.8c0-0.5,0-1.1-0.1-1.7c-0.1-0.6-0.2-1.1-0.4-1.5c-0.2-0.5-0.4-0.8-0.7-1.1
					c-0.3-0.3-0.7-0.4-1.1-0.4c-0.6,0-1,0.2-1.4,0.6c-0.3,0.4-0.6,0.9-0.7,1.5s-0.2,1.2-0.2,1.9c0,0.8,0.1,1.5,0.2,2.2
					c0.2,0.7,0.4,1.3,0.8,1.8C203.5,33.4,203.9,33.6,204.5,33.6z"/>
				<path d="M215,34.9l-2.7-7.7c-0.1-0.4-0.2-0.7-0.3-0.9c-0.1-0.2-0.1-0.4-0.1-0.5c0-0.1-0.1-0.3-0.1-0.5l-0.9,0v-1.7h5.3v1.4
					c-0.5,0-0.7,0.2-0.8,0.5c-0.1,0.3-0.1,0.7,0.1,1.2l0.8,2.7c0.1,0.3,0.2,0.7,0.3,1c0.1,0.4,0.2,0.7,0.2,1.1
					c0.1-0.3,0.2-0.7,0.2-1c0.1-0.4,0.2-0.8,0.4-1.4l1.6-5.6h2.4l1.8,6.1c0.1,0.3,0.2,0.6,0.3,1c0.1,0.4,0.2,0.7,0.3,1
					c0.1-0.3,0.1-0.6,0.2-1s0.2-0.7,0.3-1l0.9-2.8c0.1-0.4,0.2-0.7,0.3-1c0.1-0.3,0.2-0.5,0.3-0.8l-1.3,0.1v-1.7h4.2v1.4
					c-0.3,0-0.6,0.1-0.8,0.3c-0.2,0.2-0.4,0.4-0.6,0.7c-0.2,0.3-0.3,0.5-0.4,0.8c-0.1,0.3-0.2,0.5-0.2,0.6l-2.5,7.3h-2.4l-1.5-4.7
					c0-0.2-0.1-0.4-0.2-0.7c-0.1-0.3-0.2-0.6-0.3-1c-0.1-0.4-0.2-0.7-0.3-1c-0.1,0.4-0.2,0.9-0.3,1.4c-0.1,0.5-0.3,1-0.4,1.5
					s-0.2,0.7-0.3,0.9l-1.2,3.7H215z"/>
				<path d="M239.8,35.2c-0.4,0-0.9-0.1-1.3-0.2c-0.4-0.1-0.8-0.3-1.1-0.6c-0.3-0.3-0.6-0.7-0.8-1.3s-0.3-1.3-0.3-2.2l0-5.3h-1.5
					v-1.8c0.5,0,0.9-0.2,1.3-0.5c0.4-0.3,0.8-0.7,1.1-1.2c0.3-0.5,0.5-1,0.6-1.5h1.6l0,3.1h2.8v1.7l-2.8,0.1l0,5.5
					c0,0.3,0,0.7,0.1,1c0.1,0.3,0.2,0.6,0.4,0.8s0.5,0.3,0.8,0.3c0.2,0,0.5-0.1,0.9-0.2c0.4-0.1,0.8-0.5,1.2-1.1l1.1,1
					c-0.4,0.6-0.8,1.1-1.2,1.4c-0.4,0.3-0.8,0.6-1.2,0.7c-0.4,0.1-0.7,0.2-1,0.3S239.9,35.2,239.8,35.2z"/>
				<path d="M250,35.2c-1.1,0-2-0.2-2.9-0.7c-0.9-0.5-1.5-1.1-2-2c-0.5-0.9-0.7-1.9-0.7-3c0-1.2,0.3-2.3,0.8-3.2
					c0.5-0.9,1.2-1.6,2-2.2c0.9-0.5,1.8-0.8,2.8-0.8c1.1,0,2,0.2,2.9,0.7c0.8,0.5,1.5,1.1,2,2s0.7,1.9,0.7,3.1
					c0,1.2-0.2,2.3-0.7,3.2c-0.5,0.9-1.1,1.6-2,2.1C252,34.9,251.1,35.2,250,35.2z M250.1,33.6c0.6,0,1-0.2,1.3-0.6
					c0.3-0.4,0.5-0.9,0.6-1.5c0.1-0.6,0.2-1.2,0.2-1.8c0-0.5,0-1.1-0.1-1.7c-0.1-0.6-0.2-1.1-0.4-1.5c-0.2-0.5-0.4-0.8-0.7-1.1
					c-0.3-0.3-0.7-0.4-1.1-0.4c-0.6,0-1,0.2-1.4,0.6c-0.3,0.4-0.6,0.9-0.7,1.5s-0.2,1.2-0.2,1.9c0,0.8,0.1,1.5,0.2,2.2
					c0.2,0.7,0.4,1.3,0.8,1.8C249,33.4,249.5,33.6,250.1,33.6z"/>
				<path d="M263.2,34.8v-1.5c0.3,0,0.6-0.1,0.9-0.1c0.2-0.1,0.4-0.2,0.5-0.5s0.2-0.7,0.2-1.3v-8.5c0-0.4,0-0.8,0-1.2
					c0-0.4,0-0.7,0.1-0.8c-0.2,0-0.5,0-0.9,0c-0.4,0-0.6,0-0.8,0v-1.7c1,0,2.1,0,3.2,0c1,0,2.1,0,3.2,0c1.3,0,2.4,0.1,3.4,0.4
					c1,0.3,1.7,0.8,2.2,1.5c0.5,0.7,0.8,1.6,0.7,2.8c0,0.6-0.2,1.2-0.5,1.8c-0.3,0.6-0.7,1.1-1.3,1.5c-0.6,0.4-1.3,0.8-2.2,1
					c0.3,0.1,0.6,0.3,0.8,0.6c0.3,0.3,0.5,0.5,0.7,0.8l1,1.6c0.3,0.5,0.6,0.9,0.9,1.2c0.3,0.3,0.5,0.5,0.8,0.7
					c0.3,0.1,0.5,0.2,0.9,0.2v1.5h-3.7c-0.3-0.2-0.5-0.5-0.8-0.8c-0.3-0.4-0.5-0.8-0.8-1.3l-1.6-2.7c-0.2-0.3-0.4-0.5-0.5-0.8
					c-0.1-0.2-0.3-0.4-0.4-0.5c-0.2,0-0.4,0-0.6,0s-0.3,0-0.6,0v2.4c0,0.4,0,0.8,0,1.2c0,0.4,0,0.7-0.1,0.8c0.2,0,0.4,0,0.6,0
					c0.3,0,0.5,0,0.7,0c0.2,0,0.4,0,0.5,0v1.7H263.2z M269,27.2c0.8,0,1.5-0.1,2-0.4c0.5-0.2,0.9-0.6,1.1-1.1
					c0.2-0.5,0.3-1.1,0.3-1.9c0-0.7-0.1-1.3-0.3-1.7c-0.2-0.4-0.5-0.7-0.8-0.9c-0.3-0.2-0.7-0.3-1-0.4c-0.3-0.1-0.6-0.1-0.8-0.1
					c-0.3,0-0.6,0-0.8,0.1c-0.2,0.1-0.4,0.2-0.5,0.5c-0.1,0.3-0.2,0.6-0.2,1.2v4.5c0.2,0,0.3,0,0.5,0.1
					C268.7,27.2,268.8,27.2,269,27.2z"/>
				<path d="M283.5,35.2c-1.1,0-2-0.2-2.9-0.7c-0.8-0.5-1.5-1.2-1.9-2c-0.5-0.9-0.7-1.9-0.7-3.1c0-1,0.2-2,0.7-2.9
					c0.5-0.9,1.1-1.6,1.9-2.2s1.8-0.8,2.9-0.8c0.6,0,1.2,0.1,1.8,0.3s1.1,0.5,1.6,0.9s0.9,1,1.2,1.7c0.3,0.7,0.4,1.6,0.4,2.7
					l-7.3,0.1c0,0.8,0.1,1.5,0.3,2.2c0.2,0.6,0.5,1.1,1,1.5c0.5,0.4,1.1,0.6,1.8,0.6c0.3,0,0.6-0.1,1-0.2s0.8-0.3,1.2-0.5
					c0.4-0.2,0.8-0.6,1.1-1l1,0.9c-0.5,0.8-1.1,1.3-1.7,1.7s-1.2,0.7-1.8,0.8C284.5,35.1,284,35.2,283.5,35.2z M281.4,27.4h4.1
					c0-0.6-0.1-1.1-0.3-1.5c-0.2-0.4-0.4-0.6-0.6-0.8c-0.3-0.2-0.6-0.2-0.9-0.2c-0.7,0-1.2,0.2-1.5,0.7
					C281.7,26.1,281.5,26.7,281.4,27.4z"/>
				<path d="M296.3,34.8c0-0.2,0-0.4-0.1-0.5c0-0.1,0-0.3,0-0.5c-0.5,0.5-1,0.9-1.6,1.1c-0.6,0.2-1.1,0.3-1.7,0.3
					c-0.9,0-1.7-0.3-2.2-0.8c-0.5-0.6-0.8-1.3-0.8-2.1c0-0.7,0.2-1.3,0.5-1.8s0.8-0.9,1.4-1.2c0.6-0.3,1.3-0.6,2-0.7
					c0.7-0.2,1.5-0.3,2.2-0.3V27c0-0.4,0-0.7-0.1-1c-0.1-0.3-0.3-0.6-0.5-0.7c-0.2-0.2-0.6-0.3-1-0.2c-0.3,0-0.6,0.1-0.8,0.2
					c-0.3,0.1-0.5,0.3-0.7,0.4c0.1,0.1,0.2,0.3,0.2,0.4c0,0.2,0,0.3,0,0.4c0,0.3-0.1,0.6-0.4,0.9c-0.2,0.3-0.6,0.5-1.1,0.5
					c-0.4,0-0.8-0.2-1-0.5c-0.2-0.3-0.4-0.6-0.4-1c0-0.6,0.2-1.1,0.6-1.5c0.4-0.4,1-0.8,1.7-1s1.5-0.4,2.4-0.4c1.3,0,2.3,0.3,3,1
					c0.7,0.7,1.1,1.7,1.1,3.2c0,0.5,0,0.9,0,1.3c0,0.4,0,0.7,0,1.1c0,0.4,0,0.8,0,1.3c0,0.2,0,0.5,0,0.9c0,0.4,0,0.7-0.1,1.1
					c0.3,0,0.5,0,0.8-0.1c0.3,0,0.5,0,0.6,0v1.7H296.3z M296.1,29.7c-0.4,0-0.8,0.1-1.2,0.2c-0.4,0.1-0.7,0.2-1,0.4
					c-0.3,0.2-0.5,0.4-0.6,0.6s-0.2,0.5-0.2,0.8c0,0.4,0.1,0.7,0.4,0.9c0.3,0.2,0.5,0.3,0.9,0.3c0.3,0,0.7-0.1,1-0.2
					c0.3-0.1,0.6-0.3,0.8-0.6c0-0.1,0-0.3,0-0.4c0-0.1,0-0.3,0-0.4c0-0.3,0-0.5,0-0.8S296.1,30,296.1,29.7z"/>
				<path d="M306,35.2c-0.9,0-1.7-0.2-2.3-0.7c-0.7-0.5-1.2-1.1-1.6-2c-0.4-0.8-0.6-1.8-0.6-3c0-1.2,0.2-2.3,0.7-3.2
					c0.5-0.9,1.1-1.7,1.9-2.2s1.8-0.8,2.9-0.8c0.4,0,0.8,0,1.1,0.1c0.3,0.1,0.6,0.2,0.9,0.3v-1.5c0-0.2,0-0.5,0-0.9
					c0-0.4,0-0.7,0.1-1.1c-0.2,0-0.5,0-0.8,0c-0.3,0-0.6,0-0.7,0v-1.7c0.7,0,1.3,0,1.7-0.1c0.5-0.1,0.8-0.2,1.1-0.3
					c0.3-0.1,0.5-0.2,0.6-0.3h1.2v13.2c0,0.2,0,0.5,0,0.9c0,0.4,0,0.7-0.1,1.1c0.3,0,0.5,0,0.8-0.1c0.3,0,0.5,0,0.6,0v1.7h-4.2
					c0-0.2,0-0.3-0.1-0.5c0-0.2,0-0.3-0.1-0.5c-0.5,0.5-1,0.9-1.5,1.1C307.1,35.1,306.6,35.2,306,35.2z M307.2,33.2
					c0.4,0,0.7-0.1,1.1-0.3s0.6-0.5,0.8-0.8c0-0.2,0-0.4,0-0.7c0-0.2,0-0.4,0-0.7v-5.3c-0.1-0.1-0.4-0.2-0.7-0.3
					c-0.3-0.1-0.6-0.1-0.9-0.1c-0.7,0-1.2,0.2-1.6,0.6s-0.7,0.9-0.8,1.6c-0.2,0.6-0.2,1.3-0.2,2c0,0.6,0.1,1.2,0.2,1.8
					c0.2,0.6,0.4,1.1,0.8,1.5C306.2,33,306.6,33.2,307.2,33.2z"/>
			</g>
		</g>
	</g>
</g>
<g id="Layer_2">
	<rect class="st16" width="500" height="200"/>
</g>
</svg>
