<?xml version="1.0" encoding="utf-8"?>
<!-- Generator: Adobe Illustrator 26.5.2, SVG Export Plug-In . SVG Version: 6.00 Build 0)  -->
<svg version="1.1" id="Layer_1" xmlns="http://www.w3.org/2000/svg" xmlns:xlink="http://www.w3.org/1999/xlink" x="0px" y="0px"
	 viewBox="0 0 560 80" style="enable-background:new 0 0 560 80;" xml:space="preserve">
<style type="text/css">
	.st0{fill:#77858D;stroke:#1C3441;stroke-linecap:round;stroke-linejoin:round;}
	.st1{fill:none;stroke:#1C3441;stroke-linecap:round;stroke-linejoin:round;stroke-dasharray:2,2;}
	.st2{fill:none;stroke:#1C3441;stroke-linecap:round;stroke-linejoin:round;}
</style>
<polygon class="st0" points="231.3,52.2 231.3,28 210.4,15.9 189.4,28 189.4,52.2 210.4,64.3 "/>
<polygon class="st1" points="238.4,56.7 238.4,23.9 210.4,7.4 182.3,23.9 182.3,56.7 210.4,73.2 "/>
<g>
	<g>
		<g>
			<path d="M264.7,30.3v-0.9c0.2,0,0.4,0,0.5-0.1c0.1,0,0.3-0.2,0.3-0.3c0.1-0.2,0.1-0.4,0.1-0.8v-5.4c0-0.3,0-0.5,0-0.7
				c0-0.2,0-0.4,0-0.5c-0.1,0-0.3,0-0.6,0c-0.2,0-0.4,0-0.5,0v-1.1c0.7,0,1.3,0,2,0c0.7,0,1.3,0,2,0c0.8,0,1.5,0.1,2.1,0.3
				c0.6,0.2,1.1,0.5,1.4,1c0.3,0.4,0.5,1,0.5,1.8c0,0.4-0.1,0.8-0.3,1.1c-0.2,0.4-0.5,0.7-0.8,0.9s-0.8,0.5-1.4,0.6
				c0.2,0.1,0.4,0.2,0.5,0.4s0.3,0.3,0.4,0.5l0.7,1c0.2,0.3,0.4,0.6,0.5,0.8c0.2,0.2,0.3,0.3,0.5,0.4c0.2,0.1,0.3,0.1,0.5,0.1v0.9
				h-2.3c-0.2-0.1-0.3-0.3-0.5-0.5c-0.2-0.2-0.3-0.5-0.5-0.8l-1-1.7c-0.1-0.2-0.2-0.3-0.3-0.5s-0.2-0.2-0.3-0.3c-0.1,0-0.3,0-0.4,0
				c-0.1,0-0.2,0-0.4,0V28c0,0.3,0,0.5,0,0.7c0,0.2,0,0.4,0,0.5c0.1,0,0.2,0,0.4,0c0.2,0,0.3,0,0.5,0c0.2,0,0.3,0,0.3,0v1.1H264.7z
				 M268.4,25.5c0.5,0,0.9-0.1,1.3-0.2s0.5-0.4,0.7-0.7s0.2-0.7,0.2-1.2c0-0.4-0.1-0.8-0.2-1.1c-0.1-0.3-0.3-0.4-0.5-0.6
				s-0.4-0.2-0.6-0.2c-0.2,0-0.4,0-0.5,0c-0.2,0-0.4,0-0.5,0.1c-0.1,0-0.2,0.1-0.3,0.3c-0.1,0.2-0.1,0.4-0.1,0.7v2.9
				c0.1,0,0.2,0,0.3,0S268.3,25.5,268.4,25.5z"/>
			<path d="M277.5,30.5c-0.7,0-1.3-0.2-1.8-0.5c-0.5-0.3-0.9-0.7-1.2-1.3c-0.3-0.6-0.4-1.2-0.4-2c0-0.7,0.1-1.3,0.4-1.8
				c0.3-0.6,0.7-1,1.2-1.4c0.5-0.3,1.1-0.5,1.8-0.5c0.4,0,0.8,0.1,1.1,0.2c0.4,0.1,0.7,0.3,1,0.6c0.3,0.3,0.5,0.6,0.7,1.1
				c0.2,0.4,0.3,1,0.3,1.7l-4.6,0.1c0,0.5,0.1,1,0.2,1.4s0.3,0.7,0.6,1s0.7,0.3,1.2,0.3c0.2,0,0.4,0,0.6-0.1
				c0.2-0.1,0.5-0.2,0.7-0.3c0.2-0.2,0.5-0.4,0.7-0.6l0.6,0.6c-0.3,0.5-0.7,0.8-1.1,1.1c-0.4,0.2-0.8,0.4-1.1,0.5
				C278.2,30.5,277.9,30.5,277.5,30.5z M276.2,25.6h2.6c0-0.4-0.1-0.7-0.2-0.9c-0.1-0.2-0.2-0.4-0.4-0.5s-0.4-0.2-0.6-0.2
				c-0.4,0-0.7,0.1-1,0.4S276.3,25.2,276.2,25.6z"/>
			<path d="M281.5,29.4c0.3,0,0.5-0.1,0.6-0.2c0.1-0.1,0.2-0.2,0.2-0.4c0-0.2,0-0.4,0-0.7v-5.8c0-0.2,0-0.4,0-0.6c0-0.2,0-0.4,0-0.6
				c-0.1,0-0.3,0-0.5,0c-0.2,0-0.4,0-0.5,0v-1.1c0.4,0,0.8,0,1.1-0.1c0.3,0,0.5-0.1,0.7-0.2c0.2-0.1,0.3-0.1,0.4-0.2h0.8V28
				c0,0.1,0,0.3,0,0.6c0,0.2,0,0.5,0,0.7c0.2,0,0.3,0,0.5,0c0.2,0,0.3,0,0.4,0v1.1h-3.7V29.4z"/>
			<path d="M290,30.3c0-0.1,0-0.2,0-0.3s0-0.2,0-0.3c-0.3,0.3-0.7,0.5-1,0.7c-0.4,0.1-0.7,0.2-1.1,0.2c-0.6,0-1.1-0.2-1.4-0.5
				s-0.5-0.8-0.5-1.3c0-0.4,0.1-0.8,0.3-1.1s0.5-0.6,0.9-0.8c0.4-0.2,0.8-0.4,1.3-0.5c0.5-0.1,0.9-0.2,1.4-0.2v-0.7
				c0-0.2,0-0.5-0.1-0.7c-0.1-0.2-0.2-0.4-0.3-0.5c-0.1-0.1-0.3-0.2-0.6-0.2c-0.2,0-0.4,0-0.5,0.1c-0.2,0.1-0.3,0.2-0.4,0.3
				c0.1,0.1,0.1,0.2,0.1,0.3c0,0.1,0,0.2,0,0.3c0,0.2-0.1,0.4-0.2,0.6c-0.1,0.2-0.4,0.3-0.7,0.3c-0.3,0-0.5-0.1-0.6-0.3
				s-0.2-0.4-0.2-0.7c0-0.4,0.1-0.7,0.4-1s0.6-0.5,1.1-0.6s0.9-0.2,1.5-0.2c0.8,0,1.5,0.2,1.9,0.6c0.5,0.4,0.7,1.1,0.7,2
				c0,0.3,0,0.6,0,0.8c0,0.2,0,0.4,0,0.7c0,0.2,0,0.5,0,0.8c0,0.1,0,0.3,0,0.6c0,0.2,0,0.5,0,0.7c0.2,0,0.3,0,0.5,0
				c0.2,0,0.3,0,0.4,0v1.1H290z M289.9,27.1c-0.3,0-0.5,0.1-0.7,0.1c-0.2,0.1-0.4,0.2-0.6,0.3c-0.2,0.1-0.3,0.2-0.4,0.4
				c-0.1,0.2-0.1,0.3-0.1,0.5c0,0.3,0.1,0.4,0.3,0.6c0.2,0.1,0.3,0.2,0.5,0.2c0.2,0,0.4,0,0.6-0.1c0.2-0.1,0.4-0.2,0.5-0.4
				c0-0.1,0-0.2,0-0.3s0-0.2,0-0.3c0-0.2,0-0.3,0-0.5S289.9,27.3,289.9,27.1z"/>
			<path d="M296.2,30.5c-0.3,0-0.6,0-0.8-0.1c-0.3-0.1-0.5-0.2-0.7-0.4s-0.4-0.5-0.5-0.8s-0.2-0.8-0.2-1.4l0-3.4h-1v-1.2
				c0.3,0,0.6-0.1,0.8-0.3s0.5-0.4,0.7-0.7c0.2-0.3,0.3-0.6,0.4-0.9h1l0,2h1.8v1.1l-1.8,0l0,3.4c0,0.2,0,0.4,0.1,0.6
				s0.1,0.4,0.2,0.5c0.1,0.1,0.3,0.2,0.5,0.2c0.1,0,0.3,0,0.5-0.1c0.2-0.1,0.5-0.3,0.7-0.7l0.7,0.6c-0.3,0.4-0.5,0.7-0.8,0.9
				s-0.5,0.4-0.8,0.4c-0.2,0.1-0.5,0.1-0.7,0.2C296.4,30.5,296.3,30.5,296.2,30.5z"/>
			<path d="M299.2,29.4c0.3,0,0.4-0.1,0.6-0.2c0.1-0.1,0.2-0.2,0.2-0.4c0-0.2,0-0.4,0-0.7v-2.3c0-0.2,0-0.4,0-0.6c0-0.2,0-0.4,0-0.6
				c-0.1,0-0.3,0-0.5,0c-0.2,0-0.4,0-0.5,0v-1.1c0.4,0,0.8,0,1.1-0.1c0.3,0,0.5-0.1,0.7-0.2c0.2-0.1,0.3-0.1,0.4-0.2h0.8V28
				c0,0.1,0,0.3,0,0.6c0,0.2,0,0.5,0,0.7c0.1,0,0.3,0,0.5,0s0.3,0,0.4,0v1.1h-3.7V29.4z M301,22.1c-0.3,0-0.6-0.1-0.8-0.3
				s-0.3-0.5-0.3-0.8s0.1-0.6,0.3-0.8c0.2-0.2,0.5-0.3,0.8-0.3c0.3,0,0.5,0.1,0.7,0.3c0.2,0.2,0.3,0.5,0.3,0.8s-0.1,0.6-0.3,0.8
				S301.3,22.1,301,22.1z"/>
			<path d="M306.4,30.3l-2.2-4.9c-0.1-0.2-0.2-0.4-0.2-0.5s-0.1-0.2-0.1-0.3s0-0.2-0.1-0.3l-0.5,0v-1.1h3.3v0.9
				c-0.2,0-0.3,0.1-0.4,0.2c-0.1,0.1-0.1,0.2-0.1,0.4c0,0.2,0.1,0.3,0.1,0.5l0.7,1.8c0.1,0.2,0.1,0.4,0.2,0.5
				c0.1,0.2,0.1,0.4,0.2,0.6h0c0.1-0.2,0.1-0.4,0.2-0.6c0.1-0.2,0.1-0.4,0.2-0.6l0.6-1.7c0.1-0.2,0.2-0.4,0.2-0.6
				c0.1-0.1,0.1-0.3,0.2-0.4l-0.9,0.1v-1.1h2.7v0.9c-0.2,0-0.4,0.2-0.6,0.4c-0.2,0.2-0.3,0.4-0.4,0.7c-0.1,0.2-0.2,0.5-0.3,0.7
				l-1.8,4.5H306.4z"/>
			<path d="M314.7,30.5c-0.7,0-1.3-0.2-1.8-0.5c-0.5-0.3-0.9-0.7-1.2-1.3c-0.3-0.6-0.4-1.2-0.4-2c0-0.7,0.1-1.3,0.4-1.8
				c0.3-0.6,0.7-1,1.2-1.4c0.5-0.3,1.1-0.5,1.8-0.5c0.4,0,0.8,0.1,1.1,0.2c0.4,0.1,0.7,0.3,1,0.6c0.3,0.3,0.5,0.6,0.7,1.1
				c0.2,0.4,0.3,1,0.3,1.7l-4.6,0.1c0,0.5,0.1,1,0.2,1.4s0.3,0.7,0.6,1s0.7,0.3,1.2,0.3c0.2,0,0.4,0,0.6-0.1
				c0.2-0.1,0.5-0.2,0.7-0.3c0.2-0.2,0.5-0.4,0.7-0.6l0.6,0.6c-0.3,0.5-0.7,0.8-1.1,1.1c-0.4,0.2-0.8,0.4-1.1,0.5
				C315.3,30.5,315,30.5,314.7,30.5z M313.4,25.6h2.6c0-0.4-0.1-0.7-0.2-0.9c-0.1-0.2-0.2-0.4-0.4-0.5s-0.4-0.2-0.6-0.2
				c-0.4,0-0.7,0.1-1,0.4S313.4,25.2,313.4,25.6z"/>
			<path d="M327.3,30.5c-1,0-1.9-0.2-2.6-0.7c-0.7-0.4-1.3-1-1.6-1.8c-0.4-0.8-0.6-1.6-0.6-2.5c0-0.6,0.1-1.3,0.3-1.9
				c0.2-0.6,0.5-1.2,0.9-1.7s0.9-0.9,1.5-1.2c0.6-0.3,1.3-0.5,2.1-0.5c0.3,0,0.5,0,0.9,0.1c0.3,0.1,0.6,0.1,1,0.2s0.6,0.2,0.9,0.4
				l-0.1-0.6h1.1v3.3h-0.9c-0.1-0.5-0.2-1-0.5-1.3c-0.2-0.3-0.5-0.6-0.9-0.8c-0.4-0.2-0.8-0.3-1.2-0.3c-0.5,0-0.9,0.1-1.3,0.3
				c-0.4,0.2-0.7,0.5-0.9,0.9c-0.2,0.4-0.4,0.8-0.5,1.3c-0.1,0.5-0.2,1-0.2,1.5c0,0.8,0.1,1.5,0.3,2.1c0.2,0.6,0.6,1.1,1,1.5
				c0.4,0.4,1,0.5,1.6,0.5c0.2,0,0.4,0,0.6,0c0.2,0,0.5-0.1,0.7-0.1c0.2-0.1,0.4-0.1,0.6-0.2v-1.3c0-0.3,0-0.5,0-0.7
				c0-0.2,0-0.4,0-0.5c-0.1,0-0.3,0-0.6,0s-0.4,0-0.5,0v-1.1h3.7v0.9c-0.2,0-0.3,0-0.4,0.1c-0.1,0-0.2,0.1-0.3,0.2
				c-0.1,0.1-0.1,0.2-0.2,0.4c0,0.2-0.1,0.4-0.1,0.6v2.2H331c-0.3,0-0.5,0-0.8,0.1c-0.3,0.1-0.6,0.2-0.9,0.3c-0.3,0.1-0.6,0.2-1,0.2
				C328.1,30.5,327.7,30.5,327.3,30.5z"/>
			<path d="M333.1,29.4c0.3,0,0.4-0.1,0.6-0.2c0.1-0.1,0.2-0.2,0.2-0.4c0-0.2,0-0.4,0-0.7v-2.4c0-0.2,0-0.4,0-0.6c0-0.2,0-0.4,0-0.6
				c-0.1,0-0.3,0-0.5,0c-0.2,0-0.4,0-0.5,0v-1.1h0.6c0.4,0,0.7,0,1-0.1c0.3-0.1,0.5-0.2,0.6-0.3h0.7c0,0.1,0,0.3,0,0.5
				c0,0.3,0,0.5,0,0.7c0.3-0.3,0.5-0.6,0.7-0.7s0.4-0.3,0.7-0.4s0.4-0.1,0.7-0.1c0.3,0,0.6,0.1,0.9,0.3c0.2,0.2,0.4,0.5,0.4,0.9
				c0,0.1,0,0.3-0.1,0.4s-0.2,0.3-0.3,0.4c-0.1,0.1-0.3,0.2-0.6,0.2c-0.2,0-0.4-0.1-0.6-0.2s-0.3-0.3-0.3-0.6
				c-0.2,0-0.4,0.1-0.6,0.2c-0.2,0.2-0.4,0.3-0.5,0.5c-0.1,0.2-0.2,0.4-0.3,0.6V28c0,0.1,0,0.3,0,0.6c0,0.2,0,0.5,0,0.7
				c0.1,0,0.3,0,0.5,0s0.3,0,0.4,0v1.1h-3.7V29.4z"/>
			<path d="M343.3,30.5c-0.7,0-1.3-0.1-1.8-0.4c-0.5-0.3-1-0.7-1.3-1.2c-0.3-0.5-0.5-1.2-0.5-1.9c0-0.8,0.2-1.5,0.5-2s0.8-1,1.3-1.4
				c0.5-0.3,1.1-0.5,1.8-0.5c0.7,0,1.3,0.1,1.8,0.4c0.5,0.3,1,0.7,1.3,1.2c0.3,0.5,0.5,1.2,0.5,1.9c0,0.8-0.1,1.5-0.4,2
				c-0.3,0.6-0.7,1-1.2,1.3C344.6,30.4,343.9,30.5,343.3,30.5z M343.3,29.5c0.4,0,0.7-0.1,0.8-0.4s0.3-0.6,0.4-1
				c0.1-0.4,0.1-0.8,0.1-1.2c0-0.3,0-0.7-0.1-1c-0.1-0.4-0.1-0.7-0.2-1c-0.1-0.3-0.3-0.5-0.5-0.7c-0.2-0.2-0.4-0.3-0.7-0.3
				c-0.4,0-0.7,0.1-0.9,0.4s-0.4,0.6-0.4,0.9s-0.1,0.8-0.1,1.2c0,0.5,0.1,0.9,0.2,1.4c0.1,0.5,0.3,0.8,0.5,1.1
				C342.6,29.4,342.9,29.5,343.3,29.5z"/>
			<path d="M349.9,30.3l-1.7-4.9c-0.1-0.2-0.1-0.4-0.2-0.5c0-0.1-0.1-0.2-0.1-0.3c0-0.1,0-0.2-0.1-0.3l-0.5,0v-1.1h3.4v0.9
				c-0.3,0-0.5,0.1-0.5,0.3s0,0.5,0,0.8l0.5,1.7c0.1,0.2,0.1,0.4,0.2,0.7c0.1,0.2,0.1,0.5,0.1,0.7c0-0.2,0.1-0.4,0.1-0.6
				c0.1-0.2,0.1-0.5,0.2-0.9l1-3.5h1.5l1.1,3.9c0.1,0.2,0.1,0.4,0.2,0.6s0.1,0.4,0.2,0.6c0-0.2,0.1-0.4,0.2-0.6
				c0.1-0.2,0.1-0.4,0.2-0.6l0.5-1.8c0.1-0.3,0.1-0.5,0.2-0.6c0.1-0.2,0.1-0.3,0.2-0.5l-0.8,0.1v-1.1h2.7v0.9
				c-0.2,0-0.3,0.1-0.5,0.2c-0.1,0.1-0.3,0.3-0.4,0.4c-0.1,0.2-0.2,0.3-0.3,0.5c-0.1,0.2-0.1,0.3-0.1,0.4l-1.6,4.6h-1.5l-1-3
				c0-0.1-0.1-0.3-0.1-0.4c-0.1-0.2-0.1-0.4-0.2-0.6c-0.1-0.2-0.1-0.4-0.2-0.6c0,0.3-0.1,0.6-0.2,0.9c-0.1,0.3-0.2,0.6-0.3,0.9
				s-0.1,0.5-0.2,0.6l-0.8,2.3H349.9z"/>
			<path d="M361.9,30.5c-0.3,0-0.6,0-0.8-0.1c-0.3-0.1-0.5-0.2-0.7-0.4s-0.4-0.5-0.5-0.8s-0.2-0.8-0.2-1.4l0-3.4h-1v-1.2
				c0.3,0,0.6-0.1,0.8-0.3s0.5-0.4,0.7-0.7c0.2-0.3,0.3-0.6,0.4-0.9h1l0,2h1.8v1.1l-1.8,0l0,3.4c0,0.2,0,0.4,0.1,0.6
				s0.1,0.4,0.2,0.5c0.1,0.1,0.3,0.2,0.5,0.2c0.1,0,0.3,0,0.5-0.1c0.2-0.1,0.5-0.3,0.7-0.7l0.7,0.6c-0.3,0.4-0.5,0.7-0.8,0.9
				s-0.5,0.4-0.8,0.4c-0.2,0.1-0.5,0.1-0.7,0.2C362.1,30.5,362,30.5,361.9,30.5z"/>
			<path d="M369.1,29.4c0.3,0,0.5-0.1,0.6-0.2c0.1-0.1,0.2-0.2,0.2-0.4c0-0.2,0-0.4,0-0.7l0-2c0-0.6-0.1-1.1-0.3-1.4
				c-0.2-0.3-0.5-0.4-0.9-0.4c-0.2,0-0.5,0.1-0.7,0.2c-0.2,0.1-0.4,0.2-0.6,0.4V28c0,0.1,0,0.3,0,0.6c0,0.2,0,0.5,0,0.7
				c0.2,0,0.3,0,0.5,0c0.2,0,0.3,0,0.4,0v1.1h-3.7v-0.9c0.3,0,0.5-0.1,0.6-0.2c0.1-0.1,0.2-0.2,0.2-0.4c0-0.2,0-0.4,0-0.7v-5.8
				c0-0.2,0-0.4,0-0.6c0-0.2,0-0.4,0-0.6c-0.1,0-0.3,0-0.5,0c-0.2,0-0.4,0-0.5,0v-1.1c0.4,0,0.8,0,1.1-0.1c0.3,0,0.5-0.1,0.7-0.2
				c0.2-0.1,0.3-0.1,0.4-0.2h0.8v4.1c0.2-0.1,0.4-0.3,0.6-0.4c0.2-0.1,0.5-0.2,0.7-0.3s0.5-0.1,0.7-0.1c0.9,0,1.5,0.2,1.8,0.7
				c0.4,0.5,0.5,1.3,0.5,2.4V28c0,0.1,0,0.3,0,0.6c0,0.2,0,0.5,0,0.7c0.1,0,0.3,0,0.5,0c0.2,0,0.3,0,0.4,0v1.1h-3.7V29.4z"/>
		</g>
	</g>
</g>
<g>
	<g>
		<g>
			<path d="M265.1,64.3v-1c0.3,0,0.5-0.1,0.6-0.2c0.2-0.1,0.3-0.3,0.4-0.6c0.1-0.2,0.2-0.5,0.3-0.8l2.7-7.5h1l3,7.6
				c0.1,0.1,0.1,0.4,0.2,0.6c0.1,0.3,0.1,0.5,0.2,0.7c0.2,0,0.3,0,0.5,0c0.1,0,0.3,0,0.4,0v1.1h-3.8v-0.9c0.3,0,0.4-0.1,0.5-0.2
				c0.1-0.1,0.1-0.3,0.1-0.4c0-0.2-0.1-0.4-0.2-0.6l-0.3-0.8l-3,0.1l-0.2,0.7c0,0.1-0.1,0.3-0.2,0.5s-0.2,0.4-0.2,0.6
				c0.1,0,0.3,0,0.5,0c0.2,0,0.4,0,0.5,0v1.1H265.1z M268.1,60.4h2.3l-0.6-1.8c-0.1-0.3-0.2-0.7-0.3-1c-0.1-0.3-0.2-0.6-0.2-0.9h0
				c0,0.2-0.1,0.4-0.2,0.7c-0.1,0.3-0.2,0.7-0.3,1.1L268.1,60.4z"/>
			<path d="M275.3,56.4c0-0.2,0-0.4,0-0.6c0-0.2,0-0.4,0-0.6c-0.1,0-0.3,0-0.5,0c-0.2,0-0.4,0-0.5,0v-1.1c0.4,0,0.8,0,1.1-0.1
				c0.3,0,0.5-0.1,0.7-0.2c0.2-0.1,0.3-0.1,0.4-0.2h0.8v4.1c0.3-0.3,0.6-0.5,1-0.6c0.3-0.1,0.6-0.2,0.9-0.2c0.6,0,1.1,0.1,1.5,0.4
				c0.4,0.3,0.8,0.7,1,1.2c0.2,0.5,0.4,1.2,0.4,1.9c0,0.7-0.1,1.4-0.4,2s-0.7,1.1-1.2,1.4s-1.1,0.5-1.8,0.5c-0.3,0-0.6-0.1-1-0.2
				c-0.4-0.1-0.7-0.3-1.1-0.7l-0.4,0.6h-0.8V56.4z M277.3,62.2c0,0.3,0.1,0.6,0.2,0.8s0.2,0.3,0.4,0.4c0.2,0.1,0.3,0.1,0.5,0.1
				c0.4,0,0.7-0.1,1-0.4c0.2-0.3,0.4-0.6,0.5-1s0.1-0.9,0.1-1.3c0-0.4-0.1-0.8-0.2-1.2c-0.1-0.4-0.3-0.7-0.5-0.9s-0.5-0.4-0.9-0.3
				c-0.2,0-0.4,0.1-0.6,0.2c-0.2,0.1-0.4,0.2-0.5,0.4V62.2z"/>
			<path d="M286.2,64.5c-0.4,0-0.8-0.1-1.2-0.2s-0.7-0.2-0.9-0.4l0,0.4h-1.1L283,62h0.9c0,0.3,0.1,0.5,0.3,0.8s0.5,0.4,0.8,0.6
				c0.3,0.1,0.7,0.2,1.1,0.2c0.2,0,0.3,0,0.5-0.1c0.1,0,0.3-0.1,0.4-0.2c0.1-0.1,0.1-0.2,0.1-0.4c0-0.2-0.1-0.3-0.2-0.4
				s-0.3-0.2-0.5-0.3c-0.2-0.1-0.5-0.2-0.9-0.3c-0.3-0.1-0.6-0.2-0.9-0.4c-0.3-0.1-0.6-0.3-0.8-0.4c-0.2-0.2-0.4-0.4-0.6-0.6
				c-0.1-0.3-0.2-0.6-0.2-0.9c0-0.3,0.1-0.5,0.2-0.8c0.1-0.3,0.3-0.5,0.5-0.7s0.5-0.4,0.8-0.5c0.3-0.1,0.7-0.2,1.2-0.2
				c0.3,0,0.5,0,0.9,0.1c0.3,0.1,0.6,0.2,0.8,0.4v-0.4h1.1v2.5h-0.9c-0.1-0.3-0.2-0.6-0.3-0.8s-0.4-0.4-0.7-0.5s-0.6-0.2-0.9-0.2
				c-0.2,0-0.4,0.1-0.6,0.2s-0.3,0.3-0.3,0.6c0,0.2,0.1,0.4,0.2,0.5s0.4,0.2,0.6,0.3c0.3,0.1,0.6,0.2,0.9,0.3
				c0.5,0.2,0.9,0.3,1.3,0.6c0.4,0.2,0.7,0.5,0.9,0.8c0.2,0.3,0.3,0.7,0.3,1.1c0,0.5-0.1,0.9-0.4,1.2c-0.2,0.3-0.6,0.6-0.9,0.7
				C287.1,64.4,286.6,64.5,286.2,64.5z"/>
			<path d="M293.2,64.5c-0.7,0-1.3-0.1-1.8-0.4c-0.5-0.3-1-0.7-1.3-1.2c-0.3-0.5-0.5-1.2-0.5-1.9c0-0.8,0.2-1.5,0.5-2s0.8-1,1.3-1.4
				c0.5-0.3,1.1-0.5,1.8-0.5c0.7,0,1.3,0.1,1.8,0.4c0.5,0.3,1,0.7,1.3,1.2c0.3,0.5,0.5,1.2,0.5,1.9c0,0.8-0.1,1.5-0.4,2
				c-0.3,0.6-0.7,1-1.2,1.3C294.5,64.4,293.9,64.5,293.2,64.5z M293.3,63.5c0.4,0,0.7-0.1,0.8-0.4s0.3-0.6,0.4-1
				c0.1-0.4,0.1-0.8,0.1-1.2c0-0.3,0-0.7-0.1-1c-0.1-0.4-0.1-0.7-0.2-1c-0.1-0.3-0.3-0.5-0.5-0.7c-0.2-0.2-0.4-0.3-0.7-0.3
				c-0.4,0-0.7,0.1-0.9,0.4s-0.4,0.6-0.4,0.9s-0.1,0.8-0.1,1.2c0,0.5,0.1,0.9,0.2,1.4c0.1,0.5,0.3,0.8,0.5,1.1
				C292.6,63.4,292.9,63.5,293.3,63.5z"/>
			<path d="M297.5,63.4c0.3,0,0.5-0.1,0.6-0.2c0.1-0.1,0.2-0.2,0.2-0.4c0-0.2,0-0.4,0-0.7v-5.8c0-0.2,0-0.4,0-0.6c0-0.2,0-0.4,0-0.6
				c-0.1,0-0.3,0-0.5,0c-0.2,0-0.4,0-0.5,0v-1.1c0.4,0,0.8,0,1.1-0.1c0.3,0,0.5-0.1,0.7-0.2c0.2-0.1,0.3-0.1,0.4-0.2h0.8V62
				c0,0.1,0,0.3,0,0.6c0,0.2,0,0.5,0,0.7c0.2,0,0.3,0,0.5,0c0.2,0,0.3,0,0.4,0v1.1h-3.7V63.4z"/>
			<path d="M305,64.5c-0.6,0-1-0.1-1.4-0.3c-0.3-0.2-0.6-0.6-0.7-1c-0.2-0.5-0.2-1-0.2-1.8v-1.6c0-0.2,0-0.4,0-0.6
				c0-0.2,0-0.4,0-0.6c-0.1,0-0.3,0-0.5,0c-0.2,0-0.4,0-0.5,0v-1.1h0.1c0.6,0,1,0,1.4-0.1c0.3-0.1,0.6-0.2,0.6-0.3h0.8v4.3
				c0,0.6,0.1,1.1,0.2,1.4c0.2,0.3,0.4,0.4,0.8,0.4c0.2,0,0.5-0.1,0.7-0.2c0.2-0.1,0.5-0.3,0.6-0.5v-2.7c0-0.2,0-0.4,0-0.6
				c0-0.2,0-0.4,0-0.6c-0.1,0-0.3,0-0.5,0s-0.4,0-0.5,0v-1.1h0.3c0.4,0,0.8,0,1.2-0.1c0.3-0.1,0.6-0.2,0.6-0.3h0.8V62
				c0,0.1,0,0.3,0,0.6c0,0.2,0,0.5,0,0.7c0.1,0,0.3,0,0.5,0c0.2,0,0.3,0,0.4,0v1.1h-2.7c0-0.1,0-0.2,0-0.4c0-0.1,0-0.2,0-0.4
				c-0.3,0.2-0.6,0.5-0.9,0.7C305.8,64.4,305.4,64.5,305,64.5z"/>
			<path d="M313.5,64.5c-0.3,0-0.6,0-0.8-0.1c-0.3-0.1-0.5-0.2-0.7-0.4s-0.4-0.5-0.5-0.8s-0.2-0.8-0.2-1.4l0-3.4h-1v-1.2
				c0.3,0,0.6-0.1,0.8-0.3s0.5-0.4,0.7-0.7c0.2-0.3,0.3-0.6,0.4-0.9h1l0,2h1.8v1.1l-1.8,0l0,3.4c0,0.2,0,0.4,0.1,0.6
				s0.1,0.4,0.2,0.5c0.1,0.1,0.3,0.2,0.5,0.2c0.1,0,0.3,0,0.5-0.1c0.2-0.1,0.5-0.3,0.7-0.7l0.7,0.6c-0.3,0.4-0.5,0.7-0.8,0.9
				s-0.5,0.4-0.8,0.4c-0.2,0.1-0.5,0.1-0.7,0.2C313.7,64.5,313.6,64.5,313.5,64.5z"/>
			<path d="M319.8,64.5c-0.7,0-1.3-0.2-1.8-0.5c-0.5-0.3-0.9-0.7-1.2-1.3c-0.3-0.6-0.4-1.2-0.4-2c0-0.7,0.1-1.3,0.4-1.8
				c0.3-0.6,0.7-1,1.2-1.4c0.5-0.3,1.1-0.5,1.8-0.5c0.4,0,0.8,0.1,1.1,0.2c0.4,0.1,0.7,0.3,1,0.6c0.3,0.3,0.5,0.6,0.7,1.1
				c0.2,0.4,0.3,1,0.3,1.7l-4.6,0.1c0,0.5,0.1,1,0.2,1.4s0.3,0.7,0.6,1s0.7,0.3,1.2,0.3c0.2,0,0.4,0,0.6-0.1
				c0.2-0.1,0.5-0.2,0.7-0.3c0.2-0.2,0.5-0.4,0.7-0.6l0.6,0.6c-0.3,0.5-0.7,0.8-1.1,1.1c-0.4,0.2-0.8,0.4-1.1,0.5
				C320.5,64.5,320.1,64.5,319.8,64.5z M318.5,59.6h2.6c0-0.4-0.1-0.7-0.2-0.9c-0.1-0.2-0.2-0.4-0.4-0.5s-0.4-0.2-0.6-0.2
				c-0.4,0-0.7,0.1-1,0.4S318.6,59.2,318.5,59.6z"/>
			<path d="M332.4,64.5c-1,0-1.9-0.2-2.6-0.7c-0.7-0.4-1.3-1-1.6-1.8c-0.4-0.8-0.6-1.6-0.6-2.5c0-0.6,0.1-1.3,0.3-1.9
				c0.2-0.6,0.5-1.2,0.9-1.7s0.9-0.9,1.5-1.2c0.6-0.3,1.3-0.5,2.1-0.5c0.3,0,0.5,0,0.9,0.1c0.3,0.1,0.6,0.1,1,0.2s0.6,0.2,0.9,0.4
				l-0.1-0.6h1.1v3.3h-0.9c-0.1-0.5-0.2-1-0.5-1.3c-0.2-0.3-0.5-0.6-0.9-0.8c-0.4-0.2-0.8-0.3-1.2-0.3c-0.5,0-0.9,0.1-1.3,0.3
				c-0.4,0.2-0.7,0.5-0.9,0.9c-0.2,0.4-0.4,0.8-0.5,1.3c-0.1,0.5-0.2,1-0.2,1.5c0,0.8,0.1,1.5,0.3,2.1c0.2,0.6,0.6,1.1,1,1.5
				c0.4,0.4,1,0.5,1.6,0.5c0.2,0,0.4,0,0.6,0c0.2,0,0.5-0.1,0.7-0.1c0.2-0.1,0.4-0.1,0.6-0.2v-1.3c0-0.3,0-0.5,0-0.7
				c0-0.2,0-0.4,0-0.5c-0.1,0-0.3,0-0.6,0s-0.4,0-0.5,0v-1.1h3.7v0.9c-0.2,0-0.3,0-0.4,0.1c-0.1,0-0.2,0.1-0.3,0.2
				c-0.1,0.1-0.1,0.2-0.2,0.4c0,0.2-0.1,0.4-0.1,0.6v2.2h-0.3c-0.3,0-0.5,0-0.8,0.1c-0.3,0.1-0.6,0.2-0.9,0.3
				c-0.3,0.1-0.6,0.2-1,0.2C333.2,64.5,332.8,64.5,332.4,64.5z"/>
			<path d="M338.3,63.4c0.3,0,0.4-0.1,0.6-0.2c0.1-0.1,0.2-0.2,0.2-0.4c0-0.2,0-0.4,0-0.7v-2.4c0-0.2,0-0.4,0-0.6c0-0.2,0-0.4,0-0.6
				c-0.1,0-0.3,0-0.5,0c-0.2,0-0.4,0-0.5,0v-1.1h0.6c0.4,0,0.7,0,1-0.1c0.3-0.1,0.5-0.2,0.6-0.3h0.7c0,0.1,0,0.3,0,0.5
				c0,0.3,0,0.5,0,0.7c0.3-0.3,0.5-0.6,0.7-0.7s0.4-0.3,0.7-0.4s0.4-0.1,0.7-0.1c0.3,0,0.6,0.1,0.9,0.3c0.2,0.2,0.4,0.5,0.4,0.9
				c0,0.1,0,0.3-0.1,0.4s-0.2,0.3-0.3,0.4c-0.1,0.1-0.3,0.2-0.6,0.2c-0.2,0-0.4-0.1-0.6-0.2s-0.3-0.3-0.3-0.6
				c-0.2,0-0.4,0.1-0.6,0.2c-0.2,0.2-0.4,0.3-0.5,0.5c-0.1,0.2-0.2,0.4-0.3,0.6V62c0,0.1,0,0.3,0,0.6c0,0.2,0,0.5,0,0.7
				c0.1,0,0.3,0,0.5,0s0.3,0,0.4,0v1.1h-3.7V63.4z"/>
			<path d="M348.4,64.5c-0.7,0-1.3-0.1-1.8-0.4c-0.5-0.3-1-0.7-1.3-1.2c-0.3-0.5-0.5-1.2-0.5-1.9c0-0.8,0.2-1.5,0.5-2s0.8-1,1.3-1.4
				c0.5-0.3,1.1-0.5,1.8-0.5c0.7,0,1.3,0.1,1.8,0.4c0.5,0.3,1,0.7,1.3,1.2c0.3,0.5,0.5,1.2,0.5,1.9c0,0.8-0.1,1.5-0.4,2
				c-0.3,0.6-0.7,1-1.2,1.3C349.7,64.4,349.1,64.5,348.4,64.5z M348.5,63.5c0.4,0,0.7-0.1,0.8-0.4s0.3-0.6,0.4-1
				c0.1-0.4,0.1-0.8,0.1-1.2c0-0.3,0-0.7-0.1-1c-0.1-0.4-0.1-0.7-0.2-1c-0.1-0.3-0.3-0.5-0.5-0.7c-0.2-0.2-0.4-0.3-0.7-0.3
				c-0.4,0-0.7,0.1-0.9,0.4s-0.4,0.6-0.4,0.9s-0.1,0.8-0.1,1.2c0,0.5,0.1,0.9,0.2,1.4c0.1,0.5,0.3,0.8,0.5,1.1
				C347.8,63.4,348.1,63.5,348.5,63.5z"/>
			<path d="M355,64.3l-1.7-4.9c-0.1-0.2-0.1-0.4-0.2-0.5c0-0.1-0.1-0.2-0.1-0.3c0-0.1,0-0.2-0.1-0.3l-0.5,0v-1.1h3.4v0.9
				c-0.3,0-0.5,0.1-0.5,0.3s0,0.5,0,0.8l0.5,1.7c0.1,0.2,0.1,0.4,0.2,0.7c0.1,0.2,0.1,0.5,0.1,0.7c0-0.2,0.1-0.4,0.1-0.6
				c0.1-0.2,0.1-0.5,0.2-0.9l1-3.5h1.5l1.1,3.9c0.1,0.2,0.1,0.4,0.2,0.6s0.1,0.4,0.2,0.6c0-0.2,0.1-0.4,0.2-0.6
				c0.1-0.2,0.1-0.4,0.2-0.6l0.5-1.8c0.1-0.3,0.1-0.5,0.2-0.6c0.1-0.2,0.1-0.3,0.2-0.5l-0.8,0.1v-1.1h2.7v0.9
				c-0.2,0-0.3,0.1-0.5,0.2c-0.1,0.1-0.3,0.3-0.4,0.4c-0.1,0.2-0.2,0.3-0.3,0.5c-0.1,0.2-0.1,0.3-0.1,0.4l-1.6,4.6h-1.5l-1-3
				c0-0.1-0.1-0.3-0.1-0.4c-0.1-0.2-0.1-0.4-0.2-0.6c-0.1-0.2-0.1-0.4-0.2-0.6c0,0.3-0.1,0.6-0.2,0.9c-0.1,0.3-0.2,0.6-0.3,0.9
				s-0.1,0.5-0.2,0.6l-0.8,2.3H355z"/>
			<path d="M367,64.5c-0.3,0-0.6,0-0.8-0.1c-0.3-0.1-0.5-0.2-0.7-0.4s-0.4-0.5-0.5-0.8s-0.2-0.8-0.2-1.4l0-3.4h-1v-1.2
				c0.3,0,0.6-0.1,0.8-0.3s0.5-0.4,0.7-0.7c0.2-0.3,0.3-0.6,0.4-0.9h1l0,2h1.8v1.1l-1.8,0l0,3.4c0,0.2,0,0.4,0.1,0.6
				s0.1,0.4,0.2,0.5c0.1,0.1,0.3,0.2,0.5,0.2c0.1,0,0.3,0,0.5-0.1c0.2-0.1,0.5-0.3,0.7-0.7l0.7,0.6c-0.3,0.4-0.5,0.7-0.8,0.9
				s-0.5,0.4-0.8,0.4c-0.2,0.1-0.5,0.1-0.7,0.2C367.3,64.5,367.1,64.5,367,64.5z"/>
			<path d="M374.2,63.4c0.3,0,0.5-0.1,0.6-0.2c0.1-0.1,0.2-0.2,0.2-0.4c0-0.2,0-0.4,0-0.7l0-2c0-0.6-0.1-1.1-0.3-1.4
				c-0.2-0.3-0.5-0.4-0.9-0.4c-0.2,0-0.5,0.1-0.7,0.2c-0.2,0.1-0.4,0.2-0.6,0.4V62c0,0.1,0,0.3,0,0.6c0,0.2,0,0.5,0,0.7
				c0.2,0,0.3,0,0.5,0c0.2,0,0.3,0,0.4,0v1.1h-3.7v-0.9c0.3,0,0.5-0.1,0.6-0.2c0.1-0.1,0.2-0.2,0.2-0.4c0-0.2,0-0.4,0-0.7v-5.8
				c0-0.2,0-0.4,0-0.6c0-0.2,0-0.4,0-0.6c-0.1,0-0.3,0-0.5,0c-0.2,0-0.4,0-0.5,0v-1.1c0.4,0,0.8,0,1.1-0.1c0.3,0,0.5-0.1,0.7-0.2
				c0.2-0.1,0.3-0.1,0.4-0.2h0.8v4.1c0.2-0.1,0.4-0.3,0.6-0.4c0.2-0.1,0.5-0.2,0.7-0.3s0.5-0.1,0.7-0.1c0.9,0,1.5,0.2,1.8,0.7
				c0.4,0.5,0.5,1.3,0.5,2.4V62c0,0.1,0,0.3,0,0.6c0,0.2,0,0.5,0,0.7c0.1,0,0.3,0,0.5,0c0.2,0,0.3,0,0.4,0v1.1h-3.7V63.4z"/>
		</g>
	</g>
</g>
<line class="st2" x1="233.4" y1="47.5" x2="260.4" y2="57.5"/>
<line class="st1" x1="241.4" y1="35.5" x2="262.4" y2="24.5"/>
</svg>
